  0
SECTION
  2
HEADER
  9
$ACADVER
  1
AC1015
  9
$ACADMAINTVER
 70
     6
  9
$DWGCODEPAGE
  3
ANSI_1252
  9
$INSBASE
 10
0.0
 20
0.0
 30
0.0
  9
$EXTMIN
 10
0.0
 20
-20.0
 30
0.0
  9
$EXTMAX
 10
600.0
 20
800.0
 30
0.0
  9
$LIMMIN
 10
0.0
 20
0.0
  9
$LIMMAX
 10
12.0
 20
9.0
  9
$ORTHOMODE
 70
     0
  9
$REGENMODE
 70
     1
  9
$FILLMODE
 70
     1
  9
$QTEXTMODE
 70
     0
  9
$MIRRTEXT
 70
     1
  9
$LTSCALE
 40
1.0
  9
$ATTMODE
 70
     1
  9
$TEXTSIZE
 40
2.5
  9
$TRACEWID
 40
0.05
  9
$TEXTSTYLE
  7
Standard
  9
$CLAYER
  8
0
  9
$CELTYPE
  6
ByBlock
  9
$CECOLOR
 62
   256
  9
$CELTSCALE
 40
1.0
  9
$DISPSILH
 70
     0
  9
$DIMSCALE
 40
1.0
  9
$DIMASZ
 40
4.0
  9
$DIMEXO
 40
1.0
  9
$DIMDLI
 40
0.38
  9
$DIMRND
 40
0.0
  9
$DIMDLE
 40
0.0
  9
$DIMEXE
 40
3.0
  9
$DIMTP
 40
0.0
  9
$DIMTM
 40
0.0
  9
$DIMTXT
 40
10.0
  9
$DIMCEN
 40
0.09
  9
$DIMTSZ
 40
0.0
  9
$DIMTOL
 70
     0
  9
$DIMLIM
 70
     0
  9
$DIMTIH
 70
     1
  9
$DIMTOH
 70
     1
  9
$DIMSE1
 70
     0
  9
$DIMSE2
 70
     0
  9
$DIMTAD
 70
     0
  9
$DIMZIN
 70
     0
  9
$DIMBLK
  1

  9
$DIMASO
 70
     1
  9
$DIMSHO
 70
     1
  9
$DIMPOST
  1

  9
$DIMAPOST
  1

  9
$DIMALT
 70
     0
  9
$DIMALTD
 70
     2
  9
$DIMALTF
 40
25.4
  9
$DIMLFAC
 40
1.0
  9
$DIMTOFL
 70
     0
  9
$DIMTVP
 40
0.0
  9
$DIMTIX
 70
     0
  9
$DIMSOXD
 70
     0
  9
$DIMSAH
 70
     0
  9
$DIMBLK1
  1

  9
$DIMBLK2
  1

  9
$DIMSTYLE
  2
Standard
  9
$DIMCLRD
 70
     0
  9
$DIMCLRE
 70
     0
  9
$DIMCLRT
 70
     0
  9
$DIMTFAC
 40
1.0
  9
$DIMGAP
 40
1.0
  9
$DIMJUST
 70
     0
  9
$DIMSD1
 70
     0
  9
$DIMSD2
 70
     0
  9
$DIMTOLJ
 70
     1
  9
$DIMTZIN
 70
     0
  9
$DIMALTZ
 70
     0
  9
$DIMALTTZ
 70
     0
  9
$DIMUPT
 70
     0
  9
$DIMDEC
 70
     4
  9
$DIMTDEC
 70
     4
  9
$DIMALTU
 70
     2
  9
$DIMALTTD
 70
     2
  9
$DIMTXSTY
  7
Standard
  9
$DIMAUNIT
 70
     0
  9
$DIMADEC
 70
     0
  9
$DIMALTRND
 40
0.0
  9
$DIMAZIN
 70
     0
  9
$DIMDSEP
 70
    46
  9
$DIMATFIT
 70
     3
  9
$DIMFRAC
 70
     0
  9
$DIMLDRBLK
  1

  9
$DIMLUNIT
 70
     2
  9
$DIMLWD
 70
    -2
  9
$DIMLWE
 70
    -2
  9
$DIMTMOVE
 70
     0
  9
$LUNITS
 70
     2
  9
$LUPREC
 70
     0
  9
$SKETCHINC
 40
0.1
  9
$FILLETRAD
 40
0.5
  9
$AUNITS
 70
     0
  9
$AUPREC
 70
     0
  9
$MENU
  1
.
  9
$ELEVATION
 40
0.0
  9
$PELEVATION
 40
0.0
  9
$THICKNESS
 40
0.0
  9
$LIMCHECK
 70
     0
  9
$CHAMFERA
 40
0.0
  9
$CHAMFERB
 40
0.0
  9
$CHAMFERC
 40
0.0
  9
$CHAMFERD
 40
0.0
  9
$SKPOLY
 70
     0
  9
$TDCREATE
 40
0.0
  9
$TDUCREATE
 40
0.0
  9
$TDUPDATE
 40
2457331.610659722
  9
$TDUUPDATE
 40
2457331.568993056
  9
$TDINDWG
 40
0.0
  9
$TDUSRTIMER
 40
2457331.566701389
  9
$USRTIMER
 70
     1
  9
$ANGBASE
 50
0.0
  9
$ANGDIR
 70
     0
  9
$PDMODE
 70
     0
  9
$PDSIZE
 40
0.0
  9
$PLINEWID
 40
0.0
  9
$SPLFRAME
 70
     0
  9
$SPLINETYPE
 70
     6
  9
$SPLINESEGS
 70
     8
  9
$HANDSEED
  5
10087
  9
$SURFTAB1
 70
     6
  9
$SURFTAB2
 70
     6
  9
$SURFTYPE
 70
     6
  9
$SURFU
 70
     6
  9
$SURFV
 70
     6
  9
$UCSBASE
  2

  9
$UCSNAME
  2

  9
$UCSORG
 10
0.0
 20
0.0
 30
0.0
  9
$UCSXDIR
 10
1.0
 20
0.0
 30
0.0
  9
$UCSYDIR
 10
0.0
 20
1.0
 30
0.0
  9
$UCSORTHOREF
  2

  9
$UCSORTHOVIEW
 70
     0
  9
$UCSORGTOP
 10
0.0
 20
0.0
 30
0.0
  9
$UCSORGBOTTOM
 10
0.0
 20
0.0
 30
0.0
  9
$UCSORGLEFT
 10
0.0
 20
0.0
 30
0.0
  9
$UCSORGRIGHT
 10
0.0
 20
0.0
 30
0.0
  9
$UCSORGFRONT
 10
0.0
 20
0.0
 30
0.0
  9
$UCSORGBACK
 10
0.0
 20
0.0
 30
0.0
  9
$PUCSBASE
  2

  9
$PUCSNAME
  2

  9
$PUCSORG
 10
0.0
 20
0.0
 30
0.0
  9
$PUCSXDIR
 10
1.0
 20
0.0
 30
0.0
  9
$PUCSYDIR
 10
0.0
 20
1.0
 30
0.0
  9
$PUCSORTHOREF
  2

  9
$PUCSORTHOVIEW
 70
     0
  9
$PUCSORGTOP
 10
0.0
 20
0.0
 30
0.0
  9
$PUCSORGBOTTOM
 10
0.0
 20
0.0
 30
0.0
  9
$PUCSORGLEFT
 10
0.0
 20
0.0
 30
0.0
  9
$PUCSORGRIGHT
 10
0.0
 20
0.0
 30
0.0
  9
$PUCSORGFRONT
 10
0.0
 20
0.0
 30
0.0
  9
$PUCSORGBACK
 10
0.0
 20
0.0
 30
0.0
  9
$USERI1
 70
     0
  9
$USERI2
 70
     0
  9
$USERI3
 70
     0
  9
$USERI4
 70
     0
  9
$USERI5
 70
     0
  9
$USERR1
 40
0.0
  9
$USERR2
 40
0.0
  9
$USERR3
 40
0.0
  9
$USERR4
 40
0.0
  9
$USERR5
 40
0.0
  9
$WORLDVIEW
 70
     1
  9
$SHADEDGE
 70
     3
  9
$SHADEDIF
 70
    70
  9
$TILEMODE
 70
     0
  9
$MAXACTVP
 70
    64
  9
$PINSBASE
 10
0.0
 20
0.0
 30
0.0
  9
$PLIMCHECK
 70
     0
  9
$PEXTMIN
 10
0.0
 20
-0.5418528575609685
 30
0.0
  9
$PEXTMAX
 10
285.4
 20
197.0642850588094
 30
0.0
  9
$PLIMMIN
 10
-5.8
 20
-6.341852857560969
  9
$PLIMMAX
 10
291.2
 20
203.658147142439
  9
$UNITMODE
 70
     0
  9
$VISRETAIN
 70
     1
  9
$PLINEGEN
 70
     0
  9
$PSLTSCALE
 70
     1
  9
$TREEDEPTH
 70
  3020
  9
$CMLSTYLE
  2

  9
$CMLJUST
 70
     0
  9
$CMLSCALE
 40
1.0
  9
$PROXYGRAPHICS
 70
     1
  9
$MEASUREMENT
 70
     0
  9
$CELWEIGHT
370
    -1
  9
$ENDCAPS
280
     0
  9
$JOINSTYLE
280
     0
  9
$LWDISPLAY
290
     0
  9
$INSUNITS
 70
     5
  9
$HYPERLINKBASE
  1

  9
$STYLESHEET
  1

  9
$XEDIT
290
     1
  9
$CEPSNTYPE
380
     0
  9
$PSTYLEMODE
290
     1
  9
$FINGERPRINTGUID
  2
{BA4E826D-7A89-3194-668D-8BDB4A667D1B}
  9
$VERSIONGUID
  2
{FAEB1C32-E019-11D5-929B-00C0DF256EC4}
  9
$EXTNAMES
290
     1
  9
$PSVPSCALE
 40
0.0
  9
$OLESTARTUP
290
     0
  0
ENDSEC
  0
SECTION
  2
CLASSES
  0
CLASS
  1
ACDBDICTIONARYWDFLT
  2
AcDbDictionaryWithDefault
  3
ObjectDBX Classes
 90
        0
280
     0
281
     0
  0
CLASS
  1
DICTIONARYVAR
  2
AcDbDictionaryVar
  3
ObjectDBX Classes
 90
        0
280
     0
281
     0
  0
CLASS
  1
SCALE
  2
AcDbScale
  3
ObjectDBX Classes
 90
     1153
280
     0
281
     0
  0
CLASS
  1
VISUALSTYLE
  2
AcDbVisualStyle
  3
ObjectDBX Classes
 90
     4095
280
     0
281
     0
  0
CLASS
  1
MATERIAL
  2
AcDbMaterial
  3
ObjectDBX Classes
 90
     1153
280
     0
281
     0
  0
CLASS
  1
TABLESTYLE
  2
AcDbTableStyle
  3
ObjectDBX Classes
 90
     4095
280
     0
281
     0
  0
CLASS
  1
MLEADERSTYLE
  2
AcDbMLeaderStyle
  3
ACDB_MLEADERSTYLE_CLASS
 90
     4095
280
     0
281
     0
  0
CLASS
  1
SUN
  2
AcDbSun
  3
SCENEOE
 90
     1153
280
     0
281
     0
  0
CLASS
  1
RASTERVARIABLES
  2
AcDbRasterVariables
  3
ISM
 90
        0
280
     0
281
     0
  0
CLASS
  1
ACDBPLACEHOLDER
  2
AcDbPlaceHolder
  3
ObjectDBX Classes
 90
        0
280
     0
281
     0
  0
CLASS
  1
LAYOUT
  2
AcDbLayout
  3
ObjectDBX Classes
 90
        0
280
     0
281
     0
  0
ENDSEC
  0
SECTION
  2
TABLES
  0
TABLE
  2
VPORT
  5
8
330
0
100
AcDbSymbolTable
 70
     1
  0
VPORT
  5
30
330
8
100
AcDbSymbolTableRecord
100
AcDbViewportTableRecord
  2
*Active
 70
     0
 10
0.0
 20
0.0
 11
1.0
 21
1.0
 12
200.7021628188177
 22
312.9226505642637
 13
0.0
 23
0.0
 14
10.0
 24
10.0
 15
10.0
 25
10.0
 16
0.0
 26
0.0
 36
1.0
 17
0.0
 27
0.0
 37
0.0
 40
894.7814948932062
 41
1.862110311750599
 42
50.0
 43
0.0
 44
0.0
 50
0.0
 51
0.0
 71
    16
 72
   100
 73
     1
 74
     3
 75
     1
 76
     1
 77
     0
 78
     0
281
     0
 65
     1
110
0.0
120
0.0
130
0.0
111
1.0
121
0.0
131
0.0
112
0.0
122
1.0
132
0.0
 79
     0
146
0.0
  0
ENDTAB
  0
TABLE
  2
LTYPE
  5
5
330
0
100
AcDbSymbolTable
 70
    19
  0
LTYPE
  5
14
330
5
100
AcDbSymbolTableRecord
100
AcDbLinetypeTableRecord
  2
ByBlock
 70
     0
  3

 72
    65
 73
     0
 40
0.0
  0
LTYPE
  5
15
330
5
100
AcDbSymbolTableRecord
100
AcDbLinetypeTableRecord
  2
ByLayer
 70
     0
  3

 72
    65
 73
     0
 40
0.0
  0
LTYPE
  5
16
330
5
100
AcDbSymbolTableRecord
100
AcDbLinetypeTableRecord
  2
CONTINUOUS
 70
     0
  3
Solid line
 72
    65
 73
     0
 40
0.0
  0
LTYPE
  5
31
330
5
100
AcDbSymbolTableRecord
100
AcDbLinetypeTableRecord
  2
DOT
 70
     0
  3
Dot . . . . . . . . . . . . . . . . . . . . . .
 72
    65
 73
     2
 40
6.35
 49
0.0
 74
     0
 49
-6.35
 74
     0
  0
LTYPE
  5
32
330
5
100
AcDbSymbolTableRecord
100
AcDbLinetypeTableRecord
  2
DOT2
 70
     0
  3
Dot (.5x) .....................................
 72
    65
 73
     2
 40
3.175
 49
0.0
 74
     0
 49
-3.175
 74
     0
  0
LTYPE
  5
33
330
5
100
AcDbSymbolTableRecord
100
AcDbLinetypeTableRecord
  2
DOTX2
 70
     0
  3
Dot (2x) .  .  .  .  .  .  .  .  .  .  .  .  .
 72
    65
 73
     2
 40
12.7
 49
0.0
 74
     0
 49
-12.7
 74
     0
  0
LTYPE
  5
34
330
5
100
AcDbSymbolTableRecord
100
AcDbLinetypeTableRecord
  2
DASHED
 70
     0
  3
Dashed __ __ __ __ __ __ __ __ __ __ __ __ __ _
 72
    65
 73
     2
 40
19.05
 49
12.7
 74
     0
 49
-6.35
 74
     0
  0
LTYPE
  5
35
330
5
100
AcDbSymbolTableRecord
100
AcDbLinetypeTableRecord
  2
DASHED2
 70
     0
  3
Dashed (.5x) _ _ _ _ _ _ _ _ _ _ _ _ _ _ _ _ _
 72
    65
 73
     2
 40
9.525
 49
6.35
 74
     0
 49
-3.175
 74
     0
  0
LTYPE
  5
36
330
5
100
AcDbSymbolTableRecord
100
AcDbLinetypeTableRecord
  2
DASHEDX2
 70
     0
  3
Dashed (2x) ____  ____  ____  ____  ____  ___
 72
    65
 73
     2
 40
38.1
 49
25.4
 74
     0
 49
-12.7
 74
     0
  0
LTYPE
  5
37
330
5
100
AcDbSymbolTableRecord
100
AcDbLinetypeTableRecord
  2
DASHDOT
 70
     0
  3
Dash dot __ . __ . __ . __ . __ . __ . __ . __
 72
    65
 73
     4
 40
25.4
 49
12.7
 74
     0
 49
-6.35
 74
     0
 49
0.0
 74
     0
 49
-6.35
 74
     0
  0
LTYPE
  5
38
330
5
100
AcDbSymbolTableRecord
100
AcDbLinetypeTableRecord
  2
DASHDOT2
 70
     0
  3
Dash dot (.5x) _._._._._._._._._._._._._._._.
 72
    65
 73
     4
 40
12.7
 49
6.35
 74
     0
 49
-3.175
 74
     0
 49
0.0
 74
     0
 49
-3.175
 74
     0
  0
LTYPE
  5
39
330
5
100
AcDbSymbolTableRecord
100
AcDbLinetypeTableRecord
  2
DASHDOTX2
 70
     0
  3
Dash dot (2x) ____  .  ____  .  ____  .  ___
 72
    65
 73
     4
 40
50.8
 49
25.4
 74
     0
 49
-12.7
 74
     0
 49
0.0
 74
     0
 49
-12.7
 74
     0
  0
LTYPE
  5
3A
330
5
100
AcDbSymbolTableRecord
100
AcDbLinetypeTableRecord
  2
DIVIDE
 70
     0
  3
Divide ____ . . ____ . . ____ . . ____ . . ____
 72
    65
 73
     6
 40
31.75
 49
12.7
 74
     0
 49
-6.35
 74
     0
 49
0.0
 74
     0
 49
-6.35
 74
     0
 49
0.0
 74
     0
 49
-6.35
 74
     0
  0
LTYPE
  5
3B
330
5
100
AcDbSymbolTableRecord
100
AcDbLinetypeTableRecord
  2
DIVIDE2
 70
     0
  3
Divide (.5x) __..__..__..__..__..__..__..__.._
 72
    65
 73
     6
 40
15.875
 49
6.35
 74
     0
 49
-3.175
 74
     0
 49
0.0
 74
     0
 49
-3.175
 74
     0
 49
0.0
 74
     0
 49
-3.175
 74
     0
  0
LTYPE
  5
3C
330
5
100
AcDbSymbolTableRecord
100
AcDbLinetypeTableRecord
  2
DIVIDEX2
 70
     0
  3
Divide (2x) ________  .  .  ________  .  .  _
 72
    65
 73
     6
 40
63.5
 49
25.4
 74
     0
 49
-12.7
 74
     0
 49
0.0
 74
     0
 49
-12.7
 74
     0
 49
0.0
 74
     0
 49
-12.7
 74
     0
  0
LTYPE
  5
3D
330
5
100
AcDbSymbolTableRecord
100
AcDbLinetypeTableRecord
  2
CENTER
 70
     0
  3
Center ____ _ ____ _ ____ _ ____ _ ____ _ ____
 72
    65
 73
     4
 40
50.8
 49
31.75
 74
     0
 49
-6.35
 74
     0
 49
6.35
 74
     0
 49
-6.35
 74
     0
  0
LTYPE
  5
3E
330
5
100
AcDbSymbolTableRecord
100
AcDbLinetypeTableRecord
  2
CENTER2
 70
     0
  3
Center (.5x) ___ _ ___ _ ___ _ ___ _ ___ _ ___
 72
    65
 73
     4
 40
28.575
 49
19.05
 74
     0
 49
-3.175
 74
     0
 49
3.175
 74
     0
 49
-3.175
 74
     0
  0
LTYPE
  5
3F
330
5
100
AcDbSymbolTableRecord
100
AcDbLinetypeTableRecord
  2
CENTERX2
 70
     0
  3
Center (2x) ________  __  ________  __  _____
 72
    65
 73
     4
 40
101.6
 49
63.5
 74
     0
 49
-12.7
 74
     0
 49
12.7
 74
     0
 49
-12.7
 74
     0
  0
LTYPE
  5
40
330
5
100
AcDbSymbolTableRecord
100
AcDbLinetypeTableRecord
  2
BORDER
 70
     0
  3
Border __ __ . __ __ . __ __ . __ __ . __ __ .
 72
    65
 73
     6
 40
44.45
 49
12.7
 74
     0
 49
-6.35
 74
     0
 49
12.7
 74
     0
 49
-6.35
 74
     0
 49
0.0
 74
     0
 49
-6.35
 74
     0
  0
LTYPE
  5
41
330
5
100
AcDbSymbolTableRecord
100
AcDbLinetypeTableRecord
  2
BORDER2
 70
     0
  3
Border (.5x) __.__.__.__.__.__.__.__.__.__.__.
 72
    65
 73
     6
 40
22.225
 49
6.35
 74
     0
 49
-3.175
 74
     0
 49
6.35
 74
     0
 49
-3.175
 74
     0
 49
0.0
 74
     0
 49
-3.175
 74
     0
  0
LTYPE
  5
42
330
5
100
AcDbSymbolTableRecord
100
AcDbLinetypeTableRecord
  2
BORDERX2
 70
     0
  3
Border (2x) ____  ____  .  ____  ____  .  ___
 72
    65
 73
     6
 40
88.9
 49
25.4
 74
     0
 49
-12.7
 74
     0
 49
25.4
 74
     0
 49
-12.7
 74
     0
 49
0.0
 74
     0
 49
-12.7
 74
     0
  0
ENDTAB
  0
TABLE
  2
LAYER
  5
2
102
{ACAD_XDICTIONARY
360
10055
102
}
330
0
100
AcDbSymbolTable
 70
     4
  0
LAYER
  5
10
330
2
100
AcDbSymbolTableRecord
100
AcDbLayerTableRecord
  2
0
 70
     0
 62
     7
  6
CONTINUOUS
370
     0
390
F
  0
LAYER
  5
43
330
2
100
AcDbSymbolTableRecord
100
AcDbLayerTableRecord
  2
muri
 70
     0
 62
     7
  6
CONTINUOUS
370
    60
390
F
  0
LAYER
  5
44
330
2
100
AcDbSymbolTableRecord
100
AcDbLayerTableRecord
  2
serramenti
 70
     0
 62
     7
  6
CONTINUOUS
370
    30
390
F
  0
LAYER
  5
45
330
2
100
AcDbSymbolTableRecord
100
AcDbLayerTableRecord
  2
arredamento
 70
     0
 62
     7
  6
CONTINUOUS
370
    20
390
F
  0
ENDTAB
  0
TABLE
  2
STYLE
  5
3
330
0
100
AcDbSymbolTable
 70
     1
  0
STYLE
  5
11
330
3
100
AcDbSymbolTableRecord
100
AcDbTextStyleTableRecord
  2
Standard
 70
     0
 40
0.0
 41
0.75
 50
0.0
 71
     0
 42
2.5
  3
txt
  4

  0
ENDTAB
  0
TABLE
  2
VIEW
  5
6
330
0
100
AcDbSymbolTable
 70
     0
  0
ENDTAB
  0
TABLE
  2
UCS
  5
7
330
0
100
AcDbSymbolTable
 70
     0
  0
ENDTAB
  0
TABLE
  2
APPID
  5
9
330
0
100
AcDbSymbolTable
 70
     1
  0
APPID
  5
12
330
9
100
AcDbSymbolTableRecord
100
AcDbRegAppTableRecord
  2
ACAD
 70
     0
  0
ENDTAB
  0
TABLE
  2
DIMSTYLE
  5
A
330
0
100
AcDbSymbolTable
 70
     1
100
AcDbDimStyleTable
  0
DIMSTYLE
105
27
330
A
100
AcDbSymbolTableRecord
100
AcDbDimStyleTableRecord
  2
Standard
 70
     0
 41
4.0
 42
1.0
 43
3.75
 44
3.0
 73
     0
 74
     0
 77
     1
 78
     8
140
10.0
141
2.5
143
0.03937007874016
147
1.0
171
     3
172
     1
178
     0
271
     2
272
     2
274
     3
278
    44
283
     0
284
     8
340
11
  0
ENDTAB
  0
TABLE
  2
BLOCK_RECORD
  5
1
330
0
100
AcDbSymbolTable
 70
     0
  0
BLOCK_RECORD
  5
1F
330
1
100
AcDbSymbolTableRecord
100
AcDbBlockTableRecord
  2
*Model_Space
340
22
  0
BLOCK_RECORD
  5
1004B
330
1
100
AcDbSymbolTableRecord
100
AcDbBlockTableRecord
  2
*Paper_Space
340
1004C
  0
ENDTAB
  0
ENDSEC
  0
SECTION
  2
BLOCKS
  0
BLOCK
  5
20
330
1F
100
AcDbEntity
  8
0
100
AcDbBlockBegin
  2
*Model_Space
 70
     0
 10
0.0
 20
0.0
 30
0.0
  3
*Model_Space
  1
*Model_Space
  0
ENDBLK
  5
21
330
1F
100
AcDbEntity
  8
0
100
AcDbBlockEnd
  0
BLOCK
  5
1004D
330
1004B
100
AcDbEntity
 67
     1
  8
0
100
AcDbBlockBegin
  2
*Paper_Space
 70
     0
 10
0.0
 20
0.0
 30
0.0
  3
*Paper_Space
  1
*Paper_Space
  0
ENDBLK
  5
1004E
330
1004B
100
AcDbEntity
 67
     1
  8
0
100
AcDbBlockEnd
  0
ENDSEC
  0
SECTION
  2
ENTITIES
  0
LINE
  5
46
330
1F
100
AcDbEntity
  8
serramenti
100
AcDbLine
 10
100.0
 20
790.0
 30
0.0
 11
200.0
 21
790.0
 31
0.0
  0
LINE
  5
47
330
1F
100
AcDbEntity
  8
serramenti
100
AcDbLine
 10
400.0
 20
790.0
 30
0.0
 11
500.0
 21
790.0
 31
0.0
  0
LINE
  5
48
330
1F
100
AcDbEntity
  8
muri
100
AcDbLine
 10
600.0
 20
320.0
 30
0.0
 11
600.0
 21
320.0
 31
0.0
  0
LINE
  5
49
330
1F
100
AcDbEntity
  8
muri
100
AcDbLine
 10
600.0
 20
320.0
 30
0.0
 11
600.0
 21
0.0
 31
0.0
  0
LINE
  5
4A
330
1F
100
AcDbEntity
  8
muri
100
AcDbLine
 10
600.0
 20
0.0
 30
0.0
 11
600.0
 21
-20.0
 31
0.0
  0
LINE
  5
4B
330
1F
100
AcDbEntity
  8
muri
100
AcDbLine
 10
600.0
 20
-20.0
 30
0.0
 11
580.0
 21
-20.0
 31
0.0
  0
LINE
  5
4C
330
1F
100
AcDbEntity
  8
muri
100
AcDbLine
 10
580.0
 20
-20.0
 30
0.0
 11
530.0
 21
-20.0
 31
0.0
  0
LINE
  5
4D
330
1F
100
AcDbEntity
  8
muri
100
AcDbLine
 10
530.0
 20
0.0
 30
0.0
 11
580.0
 21
0.0
 31
0.0
  0
LINE
  5
4E
330
1F
100
AcDbEntity
  8
muri
100
AcDbLine
 10
580.0
 20
0.0
 30
0.0
 11
580.0
 21
0.0
 31
0.0
  0
LINE
  5
4F
330
1F
100
AcDbEntity
  8
muri
100
AcDbLine
 10
580.0
 20
330.0
 30
0.0
 11
580.0
 21
340.0
 31
0.0
  0
LINE
  5
50
330
1F
100
AcDbEntity
  8
serramenti
100
AcDbLine
 10
320.0
 20
-10.0
 30
0.0
 11
250.0
 21
-10.0
 31
0.0
  0
LINE
  5
51
330
1F
100
AcDbEntity
  8
serramenti
100
AcDbLine
 10
140.0
 20
-10.0
 30
0.0
 11
60.0
 21
-10.0
 31
0.0
  0
LINE
  5
52
330
1F
100
AcDbEntity
  8
muri
100
AcDbLine
 10
200.0
 20
0.0
 30
0.0
 11
140.0
 21
0.0
 31
0.0
  0
LINE
  5
53
330
1F
100
AcDbEntity
  8
muri
100
AcDbLine
 10
140.0
 20
0.0
 30
0.0
 11
140.0
 21
-20.0
 31
0.0
  0
LINE
  5
54
330
1F
100
AcDbEntity
  8
muri
100
AcDbLine
 10
140.0
 20
-20.0
 30
0.0
 11
200.0
 21
-20.0
 31
0.0
  0
LINE
  5
55
330
1F
100
AcDbEntity
  8
muri
100
AcDbLine
 10
60.0
 20
-20.0
 30
0.0
 11
60.0
 21
0.0
 31
0.0
  0
LINE
  5
56
330
1F
100
AcDbEntity
  8
muri
100
AcDbLine
 10
60.0
 20
0.0
 30
0.0
 11
20.0
 21
0.0
 31
0.0
  0
LINE
  5
57
330
1F
100
AcDbEntity
  8
muri
100
AcDbLine
 10
100.0
 20
330.0
 30
0.0
 11
20.0
 21
330.0
 31
0.0
  0
LINE
  5
58
330
1F
100
AcDbEntity
  8
muri
100
AcDbLine
 10
20.0
 20
330.0
 30
0.0
 11
20.0
 21
450.0
 31
0.0
  0
LINE
  5
59
330
1F
100
AcDbEntity
  8
muri
100
AcDbLine
 10
20.0
 20
450.0
 30
0.0
 11
100.0
 21
450.0
 31
0.0
  0
LINE
  5
5A
330
1F
100
AcDbEntity
  8
muri
100
AcDbLine
 10
20.0
 20
780.0
 30
0.0
 11
100.0
 21
780.0
 31
0.0
  0
LINE
  5
5B
330
1F
100
AcDbEntity
  8
muri
100
AcDbLine
 10
100.0
 20
780.0
 30
0.0
 11
100.0
 21
800.0
 31
0.0
  0
LINE
  5
5C
330
1F
100
AcDbEntity
  8
muri
100
AcDbLine
 10
100.0
 20
800.0
 30
0.0
 11
20.0
 21
800.0
 31
0.0
  0
LINE
  5
5D
330
1F
100
AcDbEntity
  8
muri
100
AcDbLine
 10
20.0
 20
800.0
 30
0.0
 11
0.0
 21
800.0
 31
0.0
  0
LINE
  5
5E
330
1F
100
AcDbEntity
  8
muri
100
AcDbLine
 10
0.0
 20
800.0
 30
0.0
 11
0.0
 21
460.0
 31
0.0
  0
LINE
  5
5F
330
1F
100
AcDbEntity
  8
muri
100
AcDbLine
 10
0.0
 20
460.0
 30
0.0
 11
0.0
 21
330.0
 31
0.0
  0
LINE
  5
60
330
1F
100
AcDbEntity
  8
muri
100
AcDbLine
 10
0.0
 20
330.0
 30
0.0
 11
0.0
 21
320.0
 31
0.0
  0
LINE
  5
61
330
1F
100
AcDbEntity
  8
muri
100
AcDbLine
 10
0.0
 20
320.0
 30
0.0
 11
0.0
 21
0.0
 31
0.0
  0
LINE
  5
62
330
1F
100
AcDbEntity
  8
muri
100
AcDbLine
 10
0.0
 20
0.0
 30
0.0
 11
0.0
 21
-20.0
 31
0.0
  0
LINE
  5
63
330
1F
100
AcDbEntity
  8
muri
100
AcDbLine
 10
0.0
 20
-20.0
 30
0.0
 11
60.0
 21
-20.0
 31
0.0
  0
LINE
  5
64
330
1F
100
AcDbEntity
  8
muri
100
AcDbLine
 10
295.0
 20
460.0
 30
0.0
 11
295.0
 21
460.0
 31
0.0
  0
LINE
  5
65
330
1F
100
AcDbEntity
  8
muri
100
AcDbLine
 10
295.0
 20
780.0
 30
0.0
 11
200.0
 21
780.0
 31
0.0
  0
LINE
  5
66
330
1F
100
AcDbEntity
  8
muri
100
AcDbLine
 10
200.0
 20
780.0
 30
0.0
 11
200.0
 21
800.0
 31
0.0
  0
LINE
  5
67
330
1F
100
AcDbEntity
  8
muri
100
AcDbLine
 10
200.0
 20
800.0
 30
0.0
 11
295.0
 21
800.0
 31
0.0
  0
LINE
  5
68
330
1F
100
AcDbEntity
  8
muri
100
AcDbLine
 10
295.0
 20
800.0
 30
0.0
 11
305.0
 21
800.0
 31
0.0
  0
LINE
  5
69
330
1F
100
AcDbEntity
  8
muri
100
AcDbLine
 10
305.0
 20
800.0
 30
0.0
 11
400.0
 21
800.0
 31
0.0
  0
LINE
  5
6A
330
1F
100
AcDbEntity
  8
muri
100
AcDbLine
 10
400.0
 20
800.0
 30
0.0
 11
400.0
 21
780.0
 31
0.0
  0
LINE
  5
6B
330
1F
100
AcDbEntity
  8
muri
100
AcDbLine
 10
580.0
 20
780.0
 30
0.0
 11
500.0
 21
780.0
 31
0.0
  0
LINE
  5
6C
330
1F
100
AcDbEntity
  8
muri
100
AcDbLine
 10
500.0
 20
780.0
 30
0.0
 11
500.0
 21
800.0
 31
0.0
  0
LINE
  5
6D
330
1F
100
AcDbEntity
  8
muri
100
AcDbLine
 10
500.0
 20
800.0
 30
0.0
 11
600.0
 21
800.0
 31
0.0
  0
LINE
  5
6E
330
1F
100
AcDbEntity
  8
muri
100
AcDbLine
 10
600.0
 20
800.0
 30
0.0
 11
600.0
 21
460.0
 31
0.0
  0
LINE
  5
6F
330
1F
100
AcDbEntity
  8
muri
100
AcDbLine
 10
600.0
 20
460.0
 30
0.0
 11
600.0
 21
440.0
 31
0.0
  0
LINE
  5
70
330
1F
100
AcDbEntity
  8
muri
100
AcDbLine
 10
600.0
 20
440.0
 30
0.0
 11
580.0
 21
440.0
 31
0.0
  0
LINE
  5
71
330
1F
100
AcDbEntity
  8
muri
100
AcDbLine
 10
580.0
 20
440.0
 30
0.0
 11
580.0
 21
450.0
 31
0.0
  0
ARC
  5
72
330
1F
100
AcDbEntity
  8
serramenti
100
AcDbCircle
 10
580.0
 20
440.0
 30
0.0
 40
90.0
100
AcDbArc
 50
180.0
 51
270.0
  0
LINE
  5
73
330
1F
100
AcDbEntity
  8
serramenti
100
AcDbLine
 10
490.0
 20
440.0
 30
0.0
 11
580.0
 21
440.0
 31
0.0
  0
LINE
  5
74
330
1F
100
AcDbEntity
  8
muri
100
AcDbLine
 10
600.0
 20
340.0
 30
0.0
 11
600.0
 21
320.0
 31
0.0
  0
LINE
  5
75
330
1F
100
AcDbEntity
  8
muri
100
AcDbLine
 10
580.0
 20
340.0
 30
0.0
 11
580.0
 21
350.0
 31
0.0
  0
LINE
  5
76
330
1F
100
AcDbEntity
  8
muri
100
AcDbLine
 10
580.0
 20
350.0
 30
0.0
 11
600.0
 21
350.0
 31
0.0
  0
LINE
  5
77
330
1F
100
AcDbEntity
  8
muri
100
AcDbLine
 10
600.0
 20
350.0
 30
0.0
 11
600.0
 21
340.0
 31
0.0
  0
LINE
  5
78
330
1F
100
AcDbEntity
  8
serramenti
100
AcDbLine
 10
250.0
 20
250.0
 30
0.0
 11
250.0
 21
320.0
 31
0.0
  0
LINE
  5
79
330
1F
100
AcDbEntity
  8
serramenti
100
AcDbLine
 10
210.0
 20
250.0
 30
0.0
 11
210.0
 21
320.0
 31
0.0
  0
ARC
  5
7A
330
1F
100
AcDbEntity
  8
serramenti
100
AcDbCircle
 10
250.0
 20
320.0
 30
0.0
 40
70.0
100
AcDbArc
 50
270.0
 51
0.0
  0
ARC
  5
7B
330
1F
100
AcDbEntity
  8
serramenti
100
AcDbCircle
 10
210.0
 20
320.0
 30
0.0
 40
70.0
100
AcDbArc
 50
180.0
 51
270.0
  0
LINE
  5
7C
330
1F
100
AcDbEntity
  8
muri
100
AcDbLine
 10
320.0
 20
330.0
 30
0.0
 11
320.0
 21
320.0
 31
0.0
  0
LINE
  5
7D
330
1F
100
AcDbEntity
  8
muri
100
AcDbLine
 10
250.0
 20
320.0
 30
0.0
 11
250.0
 21
330.0
 31
0.0
  0
LINE
  5
7E
330
1F
100
AcDbEntity
  8
muri
100
AcDbLine
 10
250.0
 20
330.0
 30
0.0
 11
210.0
 21
330.0
 31
0.0
  0
LINE
  5
7F
330
1F
100
AcDbEntity
  8
muri
100
AcDbLine
 10
210.0
 20
330.0
 30
0.0
 11
210.0
 21
320.0
 31
0.0
  0
LINE
  5
80
330
1F
100
AcDbEntity
  8
muri
100
AcDbLine
 10
490.0
 20
320.0
 30
0.0
 11
490.0
 21
330.0
 31
0.0
  0
ARC
  5
81
330
1F
100
AcDbEntity
  8
serramenti
100
AcDbCircle
 10
420.0
 20
320.0
 30
0.0
 40
70.0
100
AcDbArc
 50
270.0
 51
0.0
  0
LINE
  5
82
330
1F
100
AcDbEntity
  8
serramenti
100
AcDbLine
 10
420.0
 20
250.0
 30
0.0
 11
420.0
 21
320.0
 31
0.0
  0
LINE
  5
83
330
1F
100
AcDbEntity
  8
muri
100
AcDbLine
 10
420.0
 20
320.0
 30
0.0
 11
420.0
 21
330.0
 31
0.0
  0
LINE
  5
84
330
1F
100
AcDbEntity
  8
muri
100
AcDbLine
 10
420.0
 20
330.0
 30
0.0
 11
400.0
 21
330.0
 31
0.0
  0
LINE
  5
85
330
1F
100
AcDbEntity
  8
muri
100
AcDbLine
 10
140.0
 20
320.0
 30
0.0
 11
140.0
 21
330.0
 31
0.0
  0
LINE
  5
86
330
1F
100
AcDbEntity
  8
muri
100
AcDbLine
 10
400.0
 20
330.0
 30
0.0
 11
320.0
 21
330.0
 31
0.0
  0
LINE
  5
87
330
1F
100
AcDbEntity
  8
muri
100
AcDbLine
 10
490.0
 20
330.0
 30
0.0
 11
580.0
 21
330.0
 31
0.0
  0
LINE
  5
88
330
1F
100
AcDbEntity
  8
muri
100
AcDbLine
 10
130.0
 20
330.0
 30
0.0
 11
130.0
 21
350.0
 31
0.0
  0
LINE
  5
89
330
1F
100
AcDbEntity
  8
muri
100
AcDbLine
 10
130.0
 20
350.0
 30
0.0
 11
120.0
 21
350.0
 31
0.0
  0
LINE
  5
8A
330
1F
100
AcDbEntity
  8
muri
100
AcDbLine
 10
120.0
 20
430.0
 30
0.0
 11
130.0
 21
430.0
 31
0.0
  0
LINE
  5
8B
330
1F
100
AcDbEntity
  8
muri
100
AcDbLine
 10
130.0
 20
430.0
 30
0.0
 11
130.0
 21
450.0
 31
0.0
  0
LINE
  5
8C
330
1F
100
AcDbEntity
  8
muri
100
AcDbLine
 10
140.0
 20
330.0
 30
0.0
 11
130.0
 21
330.0
 31
0.0
  0
LINE
  5
8D
330
1F
100
AcDbEntity
  8
muri
100
AcDbLine
 10
110.0
 20
330.0
 30
0.0
 11
100.0
 21
330.0
 31
0.0
  0
LINE
  5
8E
330
1F
100
AcDbEntity
  8
muri
100
AcDbLine
 10
130.0
 20
450.0
 30
0.0
 11
210.0
 21
450.0
 31
0.0
  0
LINE
  5
8F
330
1F
100
AcDbEntity
  8
serramenti
100
AcDbLine
 10
350.0
 20
460.0
 30
0.0
 11
350.0
 21
530.0
 31
0.0
  0
LINE
  5
90
330
1F
100
AcDbEntity
  8
serramenti
100
AcDbLine
 10
310.0
 20
460.0
 30
0.0
 11
310.0
 21
530.0
 31
0.0
  0
ARC
  5
91
330
1F
100
AcDbEntity
  8
serramenti
100
AcDbCircle
 10
350.0
 20
460.0
 30
0.0
 40
70.0
100
AcDbArc
 50
360.0
 51
90.0
  0
ARC
  5
92
330
1F
100
AcDbEntity
  8
serramenti
100
AcDbCircle
 10
310.0
 20
460.0
 30
0.0
 40
70.0
100
AcDbArc
 50
90.0
 51
180.0
  0
LINE
  5
93
330
1F
100
AcDbEntity
  8
muri
100
AcDbLine
 10
240.0
 20
450.0
 30
0.0
 11
240.0
 21
460.0
 31
0.0
  0
LINE
  5
94
330
1F
100
AcDbEntity
  8
muri
100
AcDbLine
 10
310.0
 20
450.0
 30
0.0
 11
310.0
 21
460.0
 31
0.0
  0
LINE
  5
95
330
1F
100
AcDbEntity
  8
muri
100
AcDbLine
 10
350.0
 20
460.0
 30
0.0
 11
350.0
 21
450.0
 31
0.0
  0
LINE
  5
96
330
1F
100
AcDbEntity
  8
muri
100
AcDbLine
 10
350.0
 20
450.0
 30
0.0
 11
310.0
 21
450.0
 31
0.0
  0
LINE
  5
97
330
1F
100
AcDbEntity
  8
muri
100
AcDbLine
 10
420.0
 20
450.0
 30
0.0
 11
420.0
 21
460.0
 31
0.0
  0
LINE
  5
98
330
1F
100
AcDbEntity
  8
muri
100
AcDbLine
 10
580.0
 20
450.0
 30
0.0
 11
420.0
 21
450.0
 31
0.0
  0
LINE
  5
99
330
1F
100
AcDbEntity
  8
muri
100
AcDbLine
 10
210.0
 20
450.0
 30
0.0
 11
240.0
 21
450.0
 31
0.0
  0
LINE
  5
9A
330
1F
100
AcDbEntity
  8
arredamento
100
AcDbLine
 10
220.0
 20
570.0
 30
0.0
 11
220.0
 21
655.0
 31
0.0
  0
LINE
  5
9B
330
1F
100
AcDbEntity
  8
arredamento
100
AcDbLine
 10
20.0
 20
655.0
 30
0.0
 11
19.99999999999997
 21
570.0
 31
0.0
  0
LINE
  5
9C
330
1F
100
AcDbEntity
  8
arredamento
100
AcDbLine
 10
19.99999999999997
 20
570.0
 30
0.0
 11
220.0
 21
570.0
 31
0.0
  0
LINE
  5
9D
330
1F
100
AcDbEntity
  8
arredamento
100
AcDbLine
 10
220.0
 20
655.0
 30
0.0
 11
220.0
 21
740.0
 31
0.0
  0
LINE
  5
9E
330
1F
100
AcDbEntity
  8
arredamento
100
AcDbLine
 10
220.0
 20
740.0
 30
0.0
 11
20.0
 21
740.0
 31
0.0
  0
LINE
  5
9F
330
1F
100
AcDbEntity
  8
arredamento
100
AcDbLine
 10
20.0
 20
740.0
 30
0.0
 11
19.99999999999997
 21
655.0
 31
0.0
  0
LINE
  5
A0
330
1F
100
AcDbEntity
  8
arredamento
100
AcDbLine
 10
30.0
 20
730.0
 30
0.0
 11
60.0
 21
730.0
 31
0.0
  0
LINE
  5
A1
330
1F
100
AcDbEntity
  8
arredamento
100
AcDbLine
 10
60.0
 20
730.0
 30
0.0
 11
60.0
 21
660.0
 31
0.0
  0
LINE
  5
A2
330
1F
100
AcDbEntity
  8
arredamento
100
AcDbLine
 10
60.0
 20
660.0
 30
0.0
 11
30.0
 21
660.0
 31
0.0
  0
LINE
  5
A3
330
1F
100
AcDbEntity
  8
arredamento
100
AcDbLine
 10
30.0
 20
660.0
 30
0.0
 11
30.0
 21
730.0
 31
0.0
  0
LINE
  5
A4
330
1F
100
AcDbEntity
  8
arredamento
100
AcDbLine
 10
30.0
 20
580.0
 30
0.0
 11
60.0
 21
580.0
 31
0.0
  0
LINE
  5
A5
330
1F
100
AcDbEntity
  8
arredamento
100
AcDbLine
 10
60.0
 20
580.0
 30
0.0
 11
60.0
 21
650.0
 31
0.0
  0
LINE
  5
A6
330
1F
100
AcDbEntity
  8
arredamento
100
AcDbLine
 10
60.0
 20
650.0
 30
0.0
 11
30.0
 21
650.0
 31
0.0
  0
LINE
  5
A7
330
1F
100
AcDbEntity
  8
arredamento
100
AcDbLine
 10
30.0
 20
650.0
 30
0.0
 11
30.0
 21
580.0
 31
0.0
  0
LINE
  5
A8
330
1F
100
AcDbEntity
  8
arredamento
100
AcDbLine
 10
70.0
 20
570.0
 30
0.0
 11
70.0
 21
740.0
 31
0.0
  0
LINE
  5
A9
330
1F
100
AcDbEntity
  8
arredamento
100
AcDbLine
 10
70.0
 20
600.0
 30
0.0
 11
110.0
 21
570.0
 31
0.0
  0
LINE
  5
AA
330
1F
100
AcDbEntity
  8
arredamento
100
AcDbLine
 10
110.0
 20
570.0
 30
0.0
 11
110.0
 21
600.0
 31
0.0
  0
LINE
  5
AB
330
1F
100
AcDbEntity
  8
arredamento
100
AcDbLine
 10
110.0
 20
600.0
 30
0.0
 11
70.0
 21
600.0
 31
0.0
  0
LINE
  5
AC
330
1F
100
AcDbEntity
  8
arredamento
100
AcDbLine
 10
30.0
 20
10.0
 30
0.0
 11
90.0
 21
10.0
 31
0.0
  0
LINE
  5
AD
330
1F
100
AcDbEntity
  8
arredamento
100
AcDbLine
 10
90.0
 20
10.0
 30
0.0
 11
90.0
 21
80.0
 31
0.0
  0
LINE
  5
AE
330
1F
100
AcDbEntity
  8
arredamento
100
AcDbLine
 10
90.0
 20
80.0
 30
0.0
 11
30.0
 21
80.0
 31
0.0
  0
LINE
  5
AF
330
1F
100
AcDbEntity
  8
arredamento
100
AcDbLine
 10
30.0
 20
80.0
 30
0.0
 11
30.0
 21
10.0
 31
0.0
  0
LINE
  5
B0
330
1F
100
AcDbEntity
  8
arredamento
100
AcDbLine
 10
90.0
 20
30.0
 30
0.0
 11
95.0
 21
30.0
 31
0.0
  0
LINE
  5
B1
330
1F
100
AcDbEntity
  8
arredamento
100
AcDbLine
 10
95.0
 20
60.0
 30
0.0
 11
90.0
 21
60.0
 31
0.0
  0
ARC
  5
B2
330
1F
100
AcDbEntity
  8
arredamento
100
AcDbCircle
 10
84.0
 20
45.0
 30
0.0
 40
18.60107523773828
100
AcDbArc
 50
306.2538377374448
 51
53.74616226255522
  0
LINE
  5
B3
330
1F
100
AcDbEntity
  8
arredamento
100
AcDbLine
 10
280.0
 20
710.0
 30
0.0
 11
330.0
 21
710.0
 31
0.0
  0
LINE
  5
B4
330
1F
100
AcDbEntity
  8
arredamento
100
AcDbLine
 10
330.0
 20
710.0
 30
0.0
 11
330.0
 21
550.0
 31
0.0
  0
LINE
  5
B5
330
1F
100
AcDbEntity
  8
arredamento
100
AcDbLine
 10
330.0
 20
550.0
 30
0.0
 11
280.0
 21
550.0
 31
0.0
  0
LINE
  5
B6
330
1F
100
AcDbEntity
  8
arredamento
100
AcDbLine
 10
280.0
 20
550.0
 30
0.0
 11
280.0
 21
710.0
 31
0.0
  0
LINE
  5
B7
330
1F
100
AcDbEntity
  8
arredamento
100
AcDbLine
 10
280.0
 20
710.0
 30
0.0
 11
330.0
 21
710.0
 31
0.0
  0
LINE
  5
B8
330
1F
100
AcDbEntity
  8
arredamento
100
AcDbLine
 10
330.0
 20
710.0
 30
0.0
 11
330.0
 21
550.0
 31
0.0
  0
LINE
  5
B9
330
1F
100
AcDbEntity
  8
arredamento
100
AcDbLine
 10
220.0
 20
240.0
 30
0.0
 11
160.0
 21
240.0
 31
0.0
  0
LINE
  5
BA
330
1F
100
AcDbEntity
  8
arredamento
100
AcDbLine
 10
160.0
 20
240.0
 30
0.0
 11
160.0
 21
240.0
 31
0.0
  0
LINE
  5
BB
330
1F
100
AcDbEntity
  8
arredamento
100
AcDbLine
 10
160.0
 20
240.0
 30
0.0
 11
220.0
 21
240.0
 31
0.0
  0
LINE
  5
BC
330
1F
100
AcDbEntity
  8
arredamento
100
AcDbLine
 10
220.0
 20
240.0
 30
0.0
 11
220.0
 21
240.0
 31
0.0
  0
LINE
  5
BD
330
1F
100
AcDbEntity
  8
arredamento
100
AcDbLine
 10
160.0
 20
240.0
 30
0.0
 11
220.0
 21
240.0
 31
0.0
  0
LINE
  5
BE
330
1F
100
AcDbEntity
  8
arredamento
100
AcDbLine
 10
220.0
 20
240.0
 30
0.0
 11
220.0
 21
0.0
 31
0.0
  0
LINE
  5
BF
330
1F
100
AcDbEntity
  8
arredamento
100
AcDbLine
 10
220.0
 20
0.0
 30
0.0
 11
160.0
 21
0.0
 31
0.0
  0
LINE
  5
C0
330
1F
100
AcDbEntity
  8
arredamento
100
AcDbLine
 10
160.0
 20
0.0
 30
0.0
 11
160.0
 21
240.0
 31
0.0
  0
LINE
  5
C1
330
1F
100
AcDbEntity
  8
muri
100
AcDbLine
 10
320.0
 20
0.0
 30
0.0
 11
320.0
 21
-20.0
 31
0.0
  0
LINE
  5
C2
330
1F
100
AcDbEntity
  8
muri
100
AcDbLine
 10
320.0
 20
-20.0
 30
0.0
 11
390.0
 21
-20.0
 31
0.0
  0
LINE
  5
C3
330
1F
100
AcDbEntity
  8
muri
100
AcDbLine
 10
390.0
 20
-20.0
 30
0.0
 11
400.0
 21
-20.0
 31
0.0
  0
LINE
  5
C4
330
1F
100
AcDbEntity
  8
muri
100
AcDbLine
 10
250.0
 20
-20.0
 30
0.0
 11
250.0
 21
0.0
 31
0.0
  0
LINE
  5
C5
330
1F
100
AcDbEntity
  8
muri
100
AcDbLine
 10
250.0
 20
0.0
 30
0.0
 11
210.0
 21
0.0
 31
0.0
  0
LINE
  5
C6
330
1F
100
AcDbEntity
  8
muri
100
AcDbLine
 10
200.0
 20
-20.0
 30
0.0
 11
210.0
 21
-20.0
 31
0.0
  0
LINE
  5
C7
330
1F
100
AcDbEntity
  8
muri
100
AcDbLine
 10
210.0
 20
-20.0
 30
0.0
 11
250.0
 21
-20.0
 31
0.0
  0
LINE
  5
C8
330
1F
100
AcDbEntity
  8
muri
100
AcDbLine
 10
200.0
 20
0.0
 30
0.0
 11
210.0
 21
0.0
 31
0.0
  0
LINE
  5
C9
330
1F
100
AcDbEntity
  8
muri
100
AcDbLine
 10
390.0
 20
0.0
 30
0.0
 11
395.0
 21
0.0
 31
0.0
  0
LINE
  5
CA
330
1F
100
AcDbEntity
  8
muri
100
AcDbLine
 10
20.0
 20
315.0
 30
0.0
 11
120.0
 21
315.0
 31
0.0
  0
LINE
  5
CB
330
1F
100
AcDbEntity
  8
muri
100
AcDbLine
 10
120.0
 20
315.0
 30
0.0
 11
140.0
 21
315.0
 31
0.0
  0
LINE
  5
CC
330
1F
100
AcDbEntity
  8
muri
100
AcDbLine
 10
210.0
 20
315.0
 30
0.0
 11
220.0
 21
315.0
 31
0.0
  0
LINE
  5
CD
330
1F
100
AcDbEntity
  8
muri
100
AcDbLine
 10
235.0
 20
315.0
 30
0.0
 11
250.0
 21
315.0
 31
0.0
  0
LINE
  5
CE
330
1F
100
AcDbEntity
  8
muri
100
AcDbLine
 10
320.0
 20
315.0
 30
0.0
 11
395.0
 21
315.0
 31
0.0
  0
LINE
  5
CF
330
1F
100
AcDbEntity
  8
muri
100
AcDbLine
 10
410.0
 20
315.0
 30
0.0
 11
420.0
 21
315.0
 31
0.0
  0
LINE
  5
D0
330
1F
100
AcDbEntity
  8
muri
100
AcDbLine
 10
580.0
 20
315.0
 30
0.0
 11
490.0
 21
315.0
 31
0.0
  0
LINE
  5
D1
330
1F
100
AcDbEntity
  8
muri
100
AcDbLine
 10
420.0
 20
465.0
 30
0.0
 11
580.0
 21
465.0
 31
0.0
  0
LINE
  5
D2
330
1F
100
AcDbEntity
  8
muri
100
AcDbLine
 10
310.0
 20
465.0
 30
0.0
 11
325.0
 21
465.0
 31
0.0
  0
LINE
  5
D3
330
1F
100
AcDbEntity
  8
muri
100
AcDbLine
 10
240.0
 20
465.0
 30
0.0
 11
210.0
 21
465.0
 31
0.0
  0
LINE
  5
D4
330
1F
100
AcDbEntity
  8
muri
100
AcDbLine
 10
210.0
 20
465.0
 30
0.0
 11
110.0
 21
465.0
 31
0.0
  0
LINE
  5
D5
330
1F
100
AcDbEntity
  8
muri
100
AcDbLine
 10
110.0
 20
465.0
 30
0.0
 11
20.0
 21
465.0
 31
0.0
  0
LINE
  5
D6
330
1F
100
AcDbEntity
  8
muri
100
AcDbLine
 10
115.0
 20
440.0
 30
0.0
 11
115.0
 21
430.0
 31
0.0
  0
LINE
  5
D7
330
1F
100
AcDbEntity
  8
muri
100
AcDbLine
 10
115.0
 20
450.0
 30
0.0
 11
115.0
 21
440.0
 31
0.0
  0
LINE
  5
D8
330
1F
100
AcDbEntity
  8
muri
100
AcDbLine
 10
115.0
 20
350.0
 30
0.0
 11
115.0
 21
330.0
 31
0.0
  0
LINE
  5
D9
330
1F
100
AcDbEntity
  8
muri
100
AcDbLine
 10
110.0
 20
330.0
 30
0.0
 11
110.0
 21
330.0
 31
0.0
  0
LINE
  5
DA
330
1F
100
AcDbEntity
  8
muri
100
AcDbLine
 10
110.0
 20
330.0
 30
0.0
 11
115.0
 21
330.0
 31
0.0
  0
LINE
  5
DB
330
1F
100
AcDbEntity
  8
muri
100
AcDbLine
 10
115.0
 20
350.0
 30
0.0
 11
120.0
 21
350.0
 31
0.0
  0
LINE
  5
DC
330
1F
100
AcDbEntity
  8
muri
100
AcDbLine
 10
140.0
 20
320.0
 30
0.0
 11
140.0
 21
315.0
 31
0.0
  0
LINE
  5
DD
330
1F
100
AcDbEntity
  8
muri
100
AcDbLine
 10
20.0
 20
0.0
 30
0.0
 11
20.0
 21
315.0
 31
0.0
  0
LINE
  5
DE
330
1F
100
AcDbEntity
  8
muri
100
AcDbLine
 10
220.0
 20
315.0
 30
0.0
 11
220.0
 21
0.0
 31
0.0
  0
LINE
  5
DF
330
1F
100
AcDbEntity
  8
muri
100
AcDbLine
 10
235.0
 20
-0.0000000000000012
 30
0.0
 11
235.0
 21
315.0
 31
0.0
  0
LINE
  5
E0
330
1F
100
AcDbEntity
  8
muri
100
AcDbLine
 10
210.0
 20
315.0
 30
0.0
 11
210.0
 21
320.0
 31
0.0
  0
LINE
  5
E1
330
1F
100
AcDbEntity
  8
muri
100
AcDbLine
 10
250.0
 20
315.0
 30
0.0
 11
250.0
 21
320.0
 31
0.0
  0
LINE
  5
E2
330
1F
100
AcDbEntity
  8
muri
100
AcDbLine
 10
115.0
 20
430.0
 30
0.0
 11
120.0
 21
430.0
 31
0.0
  0
LINE
  5
E3
330
1F
100
AcDbEntity
  8
muri
100
AcDbLine
 10
100.0
 20
450.0
 30
0.0
 11
115.0
 21
450.0
 31
0.0
  0
LINE
  5
E4
330
1F
100
AcDbEntity
  8
muri
100
AcDbLine
 10
240.0
 20
460.0
 30
0.0
 11
240.0
 21
465.0
 31
0.0
  0
LINE
  5
E5
330
1F
100
AcDbEntity
  8
muri
100
AcDbLine
 10
20.0
 20
465.0
 30
0.0
 11
20.0
 21
780.0
 31
0.0
  0
LINE
  5
E6
330
1F
100
AcDbEntity
  8
muri
100
AcDbLine
 10
305.0
 20
780.0
 30
0.0
 11
330.0
 21
780.0
 31
0.0
  0
LINE
  5
E7
330
1F
100
AcDbEntity
  8
muri
100
AcDbLine
 10
420.0
 20
465.0
 30
0.0
 11
420.0
 21
460.0
 31
0.0
  0
LINE
  5
E8
330
1F
100
AcDbEntity
  8
muri
100
AcDbLine
 10
350.0
 20
460.0
 30
0.0
 11
350.0
 21
465.0
 31
0.0
  0
LINE
  5
E9
330
1F
100
AcDbEntity
  8
muri
100
AcDbLine
 10
310.0
 20
460.0
 30
0.0
 11
310.0
 21
465.0
 31
0.0
  0
LINE
  5
EA
330
1F
100
AcDbEntity
  8
muri
100
AcDbLine
 10
330.0
 20
465.0
 30
0.0
 11
330.0
 21
780.0
 31
0.0
  0
LINE
  5
EB
330
1F
100
AcDbEntity
  8
muri
100
AcDbLine
 10
325.0
 20
465.0
 30
0.0
 11
330.0
 21
465.0
 31
0.0
  0
LINE
  5
EC
330
1F
100
AcDbEntity
  8
muri
100
AcDbLine
 10
395.0
 20
315.0
 30
0.0
 11
395.0
 21
0.0000000000000018
 31
0.0
  0
LINE
  5
ED
330
1F
100
AcDbEntity
  8
muri
100
AcDbLine
 10
410.0
 20
0.0
 30
0.0
 11
410.0
 21
315.0
 31
0.0
  0
LINE
  5
EE
330
1F
100
AcDbEntity
  8
muri
100
AcDbLine
 10
320.0
 20
315.0
 30
0.0
 11
320.0
 21
320.0
 31
0.0
  0
LINE
  5
EF
330
1F
100
AcDbEntity
  8
muri
100
AcDbLine
 10
420.0
 20
315.0
 30
0.0
 11
420.0
 21
320.0
 31
0.0
  0
LINE
  5
F0
330
1F
100
AcDbEntity
  8
muri
100
AcDbLine
 10
490.0
 20
315.0
 30
0.0
 11
490.0
 21
320.0
 31
0.0
  0
LINE
  5
F1
330
1F
100
AcDbEntity
  8
muri
100
AcDbLine
 10
580.0
 20
0.0
 30
0.0
 11
580.0
 21
315.0
 31
0.0
  0
LINE
  5
F2
330
1F
100
AcDbEntity
  8
arredamento
100
AcDbLine
 10
395.0
 20
0.0
 30
0.0
 11
320.0
 21
0.0
 31
0.0
  0
LINE
  5
F3
330
1F
100
AcDbEntity
  8
arredamento
100
AcDbLine
 10
395.0
 20
75.0
 30
0.0
 11
395.0
 21
0.0
 31
0.0
  0
LINE
  5
F4
330
1F
100
AcDbEntity
  8
arredamento
100
AcDbLine
 10
388.7203015094411
 20
153.0000000000001
 30
0.0
 11
388.7203015094411
 21
177.0000000000001
 31
0.0
  0
ELLIPSE
  5
F5
330
1F
100
AcDbEntity
  8
arredamento
100
AcDbEllipse
 10
363.1203015094411
 20
165.0000000000001
 30
0.0
 11
-16.0
 21
0.0
 31
0.0
210
0.0
220
0.0
230
1.0
 40
0.75
 41
4.71238898038469
 42
7.853981633974483
  0
LINE
  5
F6
330
1F
100
AcDbEntity
  8
arredamento
100
AcDbLine
 10
388.7203015094411
 20
153.0000000000001
 30
0.0
 11
363.1203015094411
 21
153.0000000000001
 31
0.0
  0
LINE
  5
F7
330
1F
100
AcDbEntity
  8
arredamento
100
AcDbLine
 10
363.1203015094411
 20
177.0000000000001
 30
0.0
 11
388.7203015094411
 21
177.0000000000001
 31
0.0
  0
LINE
  5
F8
330
1F
100
AcDbEntity
  8
arredamento
100
AcDbLine
 10
388.7203015094411
 20
163.4
 30
0.0
 11
395.1203015094411
 21
163.4
 31
0.0
  0
LINE
  5
F9
330
1F
100
AcDbEntity
  8
arredamento
100
AcDbLine
 10
388.7203015094411
 20
166.6
 30
0.0
 11
395.1203015094411
 21
166.6
 31
0.0
  0
ELLIPSE
  5
FA
330
1F
100
AcDbEntity
  8
arredamento
100
AcDbEllipse
 10
371.1203015094411
 20
110.0
 30
0.0
 11
-24.0
 21
0.0
 31
0.0
210
0.0
220
0.0
230
1.0
 40
0.6666666666666666
 41
3.980538529756773
 42
8.578734045245747
  0
LINE
  5
FB
330
1F
100
AcDbEntity
  8
arredamento
100
AcDbLine
 10
387.1203015094411
 20
122.0
 30
0.0
 11
387.1203015094411
 21
98.00000000000004
 31
0.0
  0
LINE
  5
FC
330
1F
100
AcDbEntity
  8
arredamento
100
AcDbLine
 10
387.1203015094411
 20
108.4
 30
0.0
 11
395.1203015094411
 21
108.4
 31
0.0
  0
LINE
  5
FD
330
1F
100
AcDbEntity
  8
arredamento
100
AcDbLine
 10
387.1203015094411
 20
111.6
 30
0.0
 11
395.1203015094411
 21
111.6
 31
0.0
  0
LINE
  5
FE
330
1F
100
AcDbEntity
  8
arredamento
100
AcDbLine
 10
395.0
 20
290.0
 30
0.0
 11
345.0
 21
290.0
 31
0.0
  0
LINE
  5
FF
330
1F
100
AcDbEntity
  8
arredamento
100
AcDbLine
 10
345.0
 20
290.0
 30
0.0
 11
345.0
 21
230.0
 31
0.0
  0
LINE
  5
100
330
1F
100
AcDbEntity
  8
arredamento
100
AcDbLine
 10
345.0
 20
230.0
 30
0.0
 11
395.0
 21
230.0
 31
0.0
  0
LINE
  5
101
330
1F
100
AcDbEntity
  8
arredamento
100
AcDbLine
 10
395.0
 20
230.0
 30
0.0
 11
395.0
 21
290.0
 31
0.0
  0
LINE
  5
102
330
1F
100
AcDbEntity
  8
arredamento
100
AcDbLine
 10
20.0
 20
115.0
 30
0.0
 11
105.0
 21
115.0
 31
0.0
  0
LINE
  5
103
330
1F
100
AcDbEntity
  8
arredamento
100
AcDbLine
 10
105.0
 20
115.0
 30
0.0
 11
105.0
 21
315.0
 31
0.0
  0
LINE
  5
104
330
1F
100
AcDbEntity
  8
arredamento
100
AcDbLine
 10
105.0
 20
315.0
 30
0.0
 11
20.0
 21
315.0
 31
0.0
  0
LINE
  5
105
330
1F
100
AcDbEntity
  8
arredamento
100
AcDbLine
 10
20.0
 20
315.0
 30
0.0
 11
20.0
 21
115.0
 31
0.0
  0
LINE
  5
106
330
1F
100
AcDbEntity
  8
arredamento
100
AcDbLine
 10
30.0
 20
305.0
 30
0.0
 11
100.0
 21
305.0
 31
0.0
  0
LINE
  5
107
330
1F
100
AcDbEntity
  8
arredamento
100
AcDbLine
 10
100.0
 20
305.0
 30
0.0
 11
100.0
 21
275.0
 31
0.0
  0
LINE
  5
108
330
1F
100
AcDbEntity
  8
arredamento
100
AcDbLine
 10
100.0
 20
275.0
 30
0.0
 11
30.0
 21
275.0
 31
0.0
  0
LINE
  5
109
330
1F
100
AcDbEntity
  8
arredamento
100
AcDbLine
 10
30.0
 20
275.0
 30
0.0
 11
30.0
 21
305.0
 31
0.0
  0
LINE
  5
10A
330
1F
100
AcDbEntity
  8
arredamento
100
AcDbLine
 10
20.0
 20
267.0
 30
0.0
 11
105.0
 21
267.0
 31
0.0
  0
LINE
  5
10B
330
1F
100
AcDbEntity
  8
arredamento
100
AcDbLine
 10
90.0
 20
267.0
 30
0.0
 11
105.0
 21
245.0
 31
0.0
  0
LINE
  5
10C
330
1F
100
AcDbEntity
  8
arredamento
100
AcDbLine
 10
105.0
 20
245.0
 30
0.0
 11
90.0
 21
245.0
 31
0.0
  0
LINE
  5
10D
330
1F
100
AcDbEntity
  8
arredamento
100
AcDbLine
 10
90.0
 20
245.0
 30
0.0
 11
90.0
 21
267.0
 31
0.0
  0
LINE
  5
10E
330
1F
100
AcDbEntity
  8
muri
100
AcDbLine
 10
345.0
 20
780.0
 30
0.0
 11
345.0
 21
465.0
 31
0.0
  0
LINE
  5
10F
330
1F
100
AcDbEntity
  8
muri
100
AcDbLine
 10
400.0
 20
780.0
 30
0.0
 11
345.0
 21
780.0
 31
0.0
  0
LINE
  5
110
330
1F
100
AcDbEntity
  8
muri
100
AcDbLine
 10
350.0
 20
465.0
 30
0.0
 11
345.0
 21
465.0
 31
0.0
  0
LINE
  5
111
330
1F
100
AcDbEntity
  8
arredamento
100
AcDbLine
 10
210.0
 20
465.0
 30
0.0
 11
20.0
 21
465.0
 31
0.0
  0
LINE
  5
112
330
1F
100
AcDbEntity
  8
arredamento
100
AcDbLine
 10
20.0
 20
465.0
 30
0.0
 11
20.0
 21
525.0
 31
0.0
  0
LINE
  5
113
330
1F
100
AcDbEntity
  8
arredamento
100
AcDbLine
 10
20.0
 20
525.0
 30
0.0
 11
210.0
 21
525.0
 31
0.0
  0
LINE
  5
114
330
1F
100
AcDbEntity
  8
arredamento
100
AcDbLine
 10
210.0
 20
525.0
 30
0.0
 11
210.0
 21
465.0
 31
0.0
  0
LINE
  5
115
330
1F
100
AcDbEntity
  8
muri
100
AcDbLine
 10
299.0
 20
780.0
 30
0.0
 11
309.0
 21
780.0
 31
0.0
  0
LINE
  5
116
330
1F
100
AcDbEntity
  8
arredamento
100
AcDbLine
 10
280.0
 20
780.0
 30
0.0
 11
280.0
 21
710.0
 31
0.0
  0
LINE
  5
117
330
1F
100
AcDbEntity
  8
arredamento
100
AcDbLine
 10
280.0
 20
760.0
 30
0.0
 11
275.0
 21
760.0
 31
0.0
  0
LINE
  5
118
330
1F
100
AcDbEntity
  8
arredamento
100
AcDbLine
 10
275.0
 20
730.0
 30
0.0
 11
280.0
 21
730.0
 31
0.0
  0
ARC
  5
119
330
1F
100
AcDbEntity
  8
arredamento
100
AcDbCircle
 10
286.0
 20
745.0
 30
0.0
 40
18.60107523773828
100
AcDbArc
 50
126.2538377374448
 51
233.7461622625552
  0
LINE
  5
11A
330
1F
100
AcDbEntity
  8
arredamento
100
AcDbLine
 10
280.0
 20
710.0
 30
0.0
 11
330.0
 21
710.0
 31
0.0
  0
LINE
  5
11B
330
1F
100
AcDbEntity
  8
arredamento
100
AcDbLine
 10
330.0
 20
710.0
 30
0.0
 11
330.0
 21
780.0
 31
0.0
  0
LINE
  5
11C
330
1F
100
AcDbEntity
  8
arredamento
100
AcDbLine
 10
280.0
 20
780.0
 30
0.0
 11
330.0
 21
780.0
 31
0.0
  0
LINE
  5
11D
330
1F
100
AcDbEntity
  8
arredamento
100
AcDbLine
 10
280.0
 20
710.0
 30
0.0
 11
330.0
 21
550.0
 31
0.0
  0
LINE
  5
11E
330
1F
100
AcDbEntity
  8
arredamento
100
AcDbLine
 10
330.0
 20
710.0
 30
0.0
 11
280.0
 21
550.0
 31
0.0
  0
LINE
  5
11F
330
1F
100
AcDbEntity
  8
arredamento
100
AcDbLine
 10
20.0
 20
525.0
 30
0.0
 11
210.0
 21
465.0
 31
0.0
  0
LINE
  5
120
330
1F
100
AcDbEntity
  8
arredamento
100
AcDbLine
 10
210.0
 20
525.0
 30
0.0
 11
20.0
 21
465.0
 31
0.0
  0
LINE
  5
121
330
1F
100
AcDbEntity
  8
arredamento
100
AcDbLine
 10
160.0
 20
240.0
 30
0.0
 11
220.0
 21
0.0
 31
0.0
  0
LINE
  5
122
330
1F
100
AcDbEntity
  8
arredamento
100
AcDbLine
 10
220.0
 20
240.0
 30
0.0
 11
160.0
 21
0.0
 31
0.0
  0
CIRCLE
  5
123
330
1F
100
AcDbEntity
  8
arredamento
100
AcDbCircle
 10
388.8494407478997
 20
36.66212247585988
 30
0.0
 40
3.0
  0
LINE
  5
124
330
1F
100
AcDbEntity
  8
arredamento
100
AcDbLine
 10
379.9004187262331
 20
36.80646154072547
 30
0.0
 11
329.9591022827389
 21
37.23947873532224
 31
0.0
  0
LINE
  5
125
330
1F
100
AcDbEntity
  8
arredamento
100
AcDbLine
 10
378.7457062073084
 20
42.00266787588671
 30
0.0
 11
335.2996476827657
 21
63.22051041112845
 31
0.0
  0
LINE
  5
126
330
1F
100
AcDbEntity
  8
arredamento
100
AcDbLine
 10
379.4674015316363
 20
28.57913484338684
 30
0.0
 11
339.1968024341367
 21
13.42353303249988
 31
0.0
  0
LINE
  5
127
330
1F
100
AcDbEntity
  8
arredamento
100
AcDbLine
 10
387.4060500992438
 20
22.94991131362882
 30
0.0
 11
368.641971666717
 21
7.216953243279504
 31
0.0
  0
LINE
  5
128
330
1F
100
AcDbEntity
  8
arredamento
100
AcDbLine
 10
385.9626594505879
 20
51.52904615701566
 30
0.0
 11
362.1467137477655
 21
69.42709020034883
 31
0.0
  0
LINE
  5
129
330
1F
100
AcDbEntity
  8
arredamento
100
AcDbLine
 10
326.0
 20
75.0
 30
0.0
 11
395.0
 21
75.0
 31
0.0
  0
ARC
  5
12A
330
1F
100
AcDbEntity
  8
arredamento
100
AcDbCircle
 10
326.0
 20
69.0
 30
0.0
 40
6.0
100
AcDbArc
 50
90.0
 51
180.0
  0
LINE
  5
12B
330
1F
100
AcDbEntity
  8
arredamento
100
AcDbLine
 10
320.0
 20
6.0
 30
0.0
 11
320.0
 21
69.0
 31
0.0
  0
LINE
  5
12C
330
1F
100
AcDbEntity
  8
muri
100
AcDbLine
 10
390.0
 20
0.0
 30
0.0
 11
326.0
 21
0.0
 31
0.0
  0
ARC
  5
12D
330
1F
100
AcDbEntity
  8
arredamento
100
AcDbCircle
 10
326.0
 20
6.0
 30
0.0
 40
6.0
100
AcDbArc
 50
180.0
 51
270.0
  0
LINE
  5
12E
330
1F
100
AcDbEntity
  8
arredamento
100
AcDbLine
 10
260.0
 20
180.0
 30
0.0
 11
235.0
 21
180.0
 31
0.0
  0
ARC
  5
12F
330
1F
100
AcDbEntity
  8
arredamento
100
AcDbCircle
 10
260.0
 20
170.0
 30
0.0
 40
10.0
100
AcDbArc
 50
0.0
 51
90.0
  0
LINE
  5
130
330
1F
100
AcDbEntity
  8
arredamento
100
AcDbLine
 10
270.0
 20
130.2073774583749
 30
0.0
 11
270.0
 21
170.0
 31
0.0
  0
LINE
  5
131
330
1F
100
AcDbEntity
  8
arredamento
100
AcDbLine
 10
235.0
 20
120.2073774583749
 30
0.0
 11
260.0
 21
120.2073774583749
 31
0.0
  0
ARC
  5
132
330
1F
100
AcDbEntity
  8
arredamento
100
AcDbCircle
 10
260.0
 20
130.2073774583749
 30
0.0
 40
10.0
100
AcDbArc
 50
270.0
 51
0.0
  0
CIRCLE
  5
133
330
1F
100
AcDbEntity
  8
arredamento
100
AcDbCircle
 10
244.6998209049472
 20
149.6953973508375
 30
0.0
 40
3.0
  0
MTEXT
  5
134
330
1F
100
AcDbEntity
  8
arredamento
100
AcDbMText
 10
355.9606557377477
 20
282.8327868852799
 30
0.0
 40
6.0
 41
100.0
 71
     1
 72
     2
  1
lavatrice
 73
     0
 44
1.0
  0
MTEXT
  5
135
330
1F
100
AcDbEntity
  8
arredamento
100
AcDbMText
 10
48.39344262295664
 20
143.0295081967385
 30
0.0
 40
6.0
 41
100.0
 71
     1
 72
     2
  1
letto\Psingolo
 73
     0
 44
1.0
  0
MTEXT
  5
136
330
1F
100
AcDbEntity
  8
arredamento
100
AcDbMText
 10
45.16721311475953
 20
25.80983606557687
 30
0.0
 40
6.0
 41
100.0
 71
     1
 72
     2
  1
scrivania
 73
     0
 44
1.0
  0
MTEXT
  5
137
330
1F
100
AcDbEntity
  8
arredamento
100
AcDbMText
 10
332.3016393443023
 20
48.39344262295664
 30
0.0
 40
6.0
 41
100.0
 71
     1
 72
     2
  1
doccia
 73
     0
 44
1.0
  0
MTEXT
  5
138
330
1F
100
AcDbEntity
  8
arredamento
100
AcDbMText
 10
363.4885245902076
 20
111.8426229508331
 30
0.0
 40
6.0
 41
100.0
 71
     1
 72
     2
  1
w.c.
 73
     0
 44
1.0
  0
MTEXT
  5
139
330
1F
100
AcDbEntity
  8
arredamento
100
AcDbMText
 10
365.6393442623391
 20
167.7639344262497
 30
0.0
 40
6.0
 41
100.0
 71
     1
 72
     2
  1
bidet
 73
     0
 44
1.0
  0
MTEXT
  5
13A
330
1F
100
AcDbEntity
  8
arredamento
100
AcDbMText
 10
240.8918032787175
 20
141.9540983606728
 30
0.0
 40
6.0
 41
100.0
 71
     1
 72
     2
  1
lavan-\Pdino
 73
     0
 44
1.0
  0
MTEXT
  5
13B
330
1F
100
AcDbEntity
  8
arredamento
100
AcDbMText
 10
180.6688524590381
 20
29.03606557377399
 30
0.0
 40
6.0
 41
100.0
 71
     1
 72
     2
  1
mobile
 73
     0
 44
1.0
  0
MTEXT
  5
13C
330
1F
100
AcDbEntity
  8
arredamento
100
AcDbMText
 10
115.0688524590302
 20
478.5573770492379
 30
0.0
 40
6.0
 41
100.0
 71
     1
 72
     2
  1
mobile
 73
     0
 44
1.0
  0
MTEXT
  5
13D
330
1F
100
AcDbEntity
  8
arredamento
100
AcDbMText
 10
294.6622950820027
 20
563.5147540984284
 30
0.0
 40
6.0
 41
100.0
 71
     1
 72
     2
  1
mobile
 73
     0
 44
1.0
  0
MTEXT
  5
13E
330
1F
100
AcDbEntity
  8
arredamento
100
AcDbMText
 10
291.4360655738055
 20
728.0524590164811
 30
0.0
 40
6.0
 41
100.0
 71
     1
 72
     2
  1
scrivania
 73
     0
 44
1.0
  0
MTEXT
  5
13F
330
1F
100
AcDbEntity
  8
arredamento
100
AcDbMText
 10
158.0852459016584
 20
597.927868852531
 30
0.0
 40
6.0
 41
100.0
 71
     1
 72
     2
  1
letto\Pmatrimoniale
 73
     0
 44
1.0
  0
LINE
  5
140
330
1F
100
AcDbEntity
  8
serramenti
100
AcDbLine
 10
510.0
 20
-10.0
 30
0.0
 11
430.0
 21
-10.0
 31
0.0
  0
LINE
  5
141
330
1F
100
AcDbEntity
  8
muri
100
AcDbLine
 10
430.0
 20
-20.0
 30
0.0
 11
430.0
 21
0.0
 31
0.0
  0
LINE
  5
142
330
1F
100
AcDbEntity
  8
muri
100
AcDbLine
 10
510.0
 20
-20.0
 30
0.0
 11
510.0
 21
0.0
 31
0.0
  0
LINE
  5
143
330
1F
100
AcDbEntity
  8
muri
100
AcDbLine
 10
400.0
 20
-20.0
 30
0.0
 11
430.0
 21
-20.0
 31
0.0
  0
LINE
  5
144
330
1F
100
AcDbEntity
  8
muri
100
AcDbLine
 10
410.0
 20
0.0
 30
0.0
 11
430.0
 21
0.0
 31
0.0
  0
LINE
  5
145
330
1F
100
AcDbEntity
  8
muri
100
AcDbLine
 10
530.0
 20
0.0
 30
0.0
 11
510.0
 21
0.0
 31
0.0
  0
LINE
  5
146
330
1F
100
AcDbEntity
  8
muri
100
AcDbLine
 10
510.0
 20
-20.0
 30
0.0
 11
530.0
 21
-20.0
 31
0.0
  0
LINE
  5
147
330
1F
100
AcDbEntity
  8
arredamento
100
AcDbLine
 10
580.0
 20
70.0
 30
0.0
 11
580.0
 21
10.0
 31
0.0
  0
LINE
  5
148
330
1F
100
AcDbEntity
  8
arredamento
100
AcDbLine
 10
537.0
 20
70.0
 30
0.0
 11
580.0
 21
70.0
 31
0.0
  0
LINE
  5
149
330
1F
100
AcDbEntity
  8
arredamento
100
AcDbLine
 10
537.0
 20
70.0
 30
0.0
 11
530.0
 21
63.0
 31
0.0
  0
LINE
  5
14A
330
1F
100
AcDbEntity
  8
arredamento
100
AcDbLine
 10
530.0
 20
17.0
 30
0.0
 11
530.0
 21
63.0
 31
0.0
  0
LINE
  5
14B
330
1F
100
AcDbEntity
  8
arredamento
100
AcDbLine
 10
580.0
 20
10.0
 30
0.0
 11
537.0
 21
10.0
 31
0.0
  0
LINE
  5
14C
330
1F
100
AcDbEntity
  8
arredamento
100
AcDbLine
 10
530.0
 20
17.0
 30
0.0
 11
537.0
 21
10.0
 31
0.0
  0
MTEXT
  5
14D
330
1F
100
AcDbEntity
  8
arredamento
100
AcDbMText
 10
542.8668852459693
 20
26.67016393442956
 30
0.0
 40
6.0
 41
100.0
 71
     1
 72
     2
  1
caldaia
 73
     0
 44
1.0
  0
LINE
  5
14E
330
1F
100
AcDbEntity
  8
arredamento
100
AcDbLine
 10
580.0
 20
80.0
 30
0.0
 11
520.0
 21
80.0
 31
0.0
  0
LINE
  5
14F
330
1F
100
AcDbEntity
  8
arredamento
100
AcDbLine
 10
520.0
 20
80.0
 30
0.0
 11
520.0
 21
140.0
 31
0.0
  0
LINE
  5
150
330
1F
100
AcDbEntity
  8
arredamento
100
AcDbLine
 10
520.0
 20
140.0
 30
0.0
 11
580.0
 21
140.0
 31
0.0
  0
LINE
  5
151
330
1F
100
AcDbEntity
  8
arredamento
100
AcDbLine
 10
580.0
 20
140.0
 30
0.0
 11
580.0
 21
80.0
 31
0.0
  0
LINE
  5
152
330
1F
100
AcDbEntity
  8
arredamento
100
AcDbLine
 10
520.0
 20
140.0
 30
0.0
 11
580.0
 21
140.0
 31
0.0
  0
LINE
  5
153
330
1F
100
AcDbEntity
  8
arredamento
100
AcDbLine
 10
580.0
 20
140.0
 30
0.0
 11
580.0
 21
200.0
 31
0.0
  0
LINE
  5
154
330
1F
100
AcDbEntity
  8
arredamento
100
AcDbLine
 10
580.0
 20
200.0
 30
0.0
 11
520.0
 21
200.0
 31
0.0
  0
LINE
  5
155
330
1F
100
AcDbEntity
  8
arredamento
100
AcDbLine
 10
520.0
 20
200.0
 30
0.0
 11
520.0
 21
140.0
 31
0.0
  0
LINE
  5
156
330
1F
100
AcDbEntity
  8
arredamento
100
AcDbLine
 10
580.0
 20
200.0
 30
0.0
 11
520.0
 21
200.0
 31
0.0
  0
LINE
  5
157
330
1F
100
AcDbEntity
  8
arredamento
100
AcDbLine
 10
520.0
 20
200.0
 30
0.0
 11
520.0
 21
260.0
 31
0.0
  0
LINE
  5
158
330
1F
100
AcDbEntity
  8
arredamento
100
AcDbLine
 10
520.0
 20
260.0
 30
0.0
 11
580.0
 21
260.0
 31
0.0
  0
LINE
  5
159
330
1F
100
AcDbEntity
  8
arredamento
100
AcDbLine
 10
580.0
 20
260.0
 30
0.0
 11
580.0
 21
200.0
 31
0.0
  0
LINE
  5
15A
330
1F
100
AcDbEntity
  8
arredamento
100
AcDbLine
 10
520.0
 20
260.0
 30
0.0
 11
580.0
 21
260.0
 31
0.0
  0
LINE
  5
15B
330
1F
100
AcDbEntity
  8
arredamento
100
AcDbLine
 10
580.0
 20
260.0
 30
0.0
 11
580.0
 21
315.0
 31
0.0
  0
LINE
  5
15C
330
1F
100
AcDbEntity
  8
arredamento
100
AcDbLine
 10
580.0
 20
315.0
 30
0.0
 11
520.0
 21
315.0
 31
0.0
  0
LINE
  5
15D
330
1F
100
AcDbEntity
  8
arredamento
100
AcDbLine
 10
520.0
 20
315.0
 30
0.0
 11
520.0
 21
260.0
 31
0.0
  0
LINE
  5
15E
330
1F
100
AcDbEntity
  8
arredamento
100
AcDbLine
 10
410.0
 20
0.0
 30
0.0
 11
440.0
 21
0.0
 31
0.0
  0
LINE
  5
15F
330
1F
100
AcDbEntity
  8
arredamento
100
AcDbLine
 10
440.0
 20
0.0
 30
0.0
 11
440.0
 21
60.0
 31
0.0
  0
LINE
  5
160
330
1F
100
AcDbEntity
  8
arredamento
100
AcDbLine
 10
440.0
 20
60.0
 30
0.0
 11
410.0
 21
60.0
 31
0.0
  0
LINE
  5
161
330
1F
100
AcDbEntity
  8
arredamento
100
AcDbLine
 10
410.0
 20
60.0
 30
0.0
 11
410.0
 21
0.0
 31
0.0
  0
LINE
  5
162
330
1F
100
AcDbEntity
  8
arredamento
100
AcDbLine
 10
410.0
 20
120.0
 30
0.0
 11
440.0
 21
120.0
 31
0.0
  0
LINE
  5
163
330
1F
100
AcDbEntity
  8
arredamento
100
AcDbLine
 10
440.0
 20
120.0
 30
0.0
 11
440.0
 21
60.0
 31
0.0
  0
LINE
  5
164
330
1F
100
AcDbEntity
  8
arredamento
100
AcDbLine
 10
440.0
 20
60.0
 30
0.0
 11
410.0
 21
60.0
 31
0.0
  0
LINE
  5
165
330
1F
100
AcDbEntity
  8
arredamento
100
AcDbLine
 10
410.0
 20
60.0
 30
0.0
 11
410.0
 21
120.0
 31
0.0
  0
LINE
  5
166
330
1F
100
AcDbEntity
  8
arredamento
100
AcDbLine
 10
410.0
 20
120.0
 30
0.0
 11
440.0
 21
120.0
 31
0.0
  0
LINE
  5
167
330
1F
100
AcDbEntity
  8
arredamento
100
AcDbLine
 10
440.0
 20
120.0
 30
0.0
 11
440.0
 21
180.0
 31
0.0
  0
LINE
  5
168
330
1F
100
AcDbEntity
  8
arredamento
100
AcDbLine
 10
440.0
 20
180.0
 30
0.0
 11
410.0
 21
180.0
 31
0.0
  0
LINE
  5
169
330
1F
100
AcDbEntity
  8
arredamento
100
AcDbLine
 10
410.0
 20
180.0
 30
0.0
 11
410.0
 21
120.0
 31
0.0
  0
LINE
  5
16A
330
1F
100
AcDbEntity
  8
arredamento
100
AcDbLine
 10
440.0
 20
180.0
 30
0.0
 11
410.0
 21
180.0
 31
0.0
  0
LINE
  5
16B
330
1F
100
AcDbEntity
  8
arredamento
100
AcDbLine
 10
410.0
 20
180.0
 30
0.0
 11
410.0
 21
240.0
 31
0.0
  0
LINE
  5
16C
330
1F
100
AcDbEntity
  8
arredamento
100
AcDbLine
 10
410.0
 20
240.0
 30
0.0
 11
440.0
 21
240.0
 31
0.0
  0
LINE
  5
16D
330
1F
100
AcDbEntity
  8
arredamento
100
AcDbLine
 10
440.0
 20
240.0
 30
0.0
 11
440.0
 21
180.0
 31
0.0
  0
MTEXT
  5
16E
330
1F
100
AcDbEntity
  8
arredamento
100
AcDbMText
 10
540.0
 20
170.0
 30
0.0
 40
6.0
 41
100.0
 71
     1
 72
     2
  1
lavello
 73
     0
 44
1.0
  0
MTEXT
  5
16F
330
1F
100
AcDbEntity
  8
arredamento
100
AcDbMText
 10
532.1093455738392
 20
131.0891897705087
 30
0.0
 40
6.0
 41
100.0
 71
     1
 72
     2
  1
piano \Pcottura\Pa gas e\Pforno\P elettrico
 73
     0
 44
1.0
  0
MTEXT
  5
170
330
1F
100
AcDbEntity
  8
arredamento
100
AcDbMText
 10
537.5328524590858
 20
232.632655737735
 30
0.0
 40
6.0
 41
100.0
 71
     1
 72
     2
  1
lava-\Pstoviglie
 73
     0
 44
1.0
  0
LINE
  5
171
330
1F
100
AcDbEntity
  8
arredamento
100
AcDbLine
 10
420.0
 20
580.0
 30
0.0
 11
500.0
 21
580.0
 31
0.0
  0
LINE
  5
172
330
1F
100
AcDbEntity
  8
arredamento
100
AcDbLine
 10
500.0
 20
580.0
 30
0.0
 11
500.0
 21
720.0
 31
0.0
  0
LINE
  5
173
330
1F
100
AcDbEntity
  8
arredamento
100
AcDbLine
 10
500.0
 20
720.0
 30
0.0
 11
420.0
 21
720.0
 31
0.0
  0
LINE
  5
174
330
1F
100
AcDbEntity
  8
arredamento
100
AcDbLine
 10
420.0
 20
720.0
 30
0.0
 11
420.0
 21
580.0
 31
0.0
  0
LINE
  5
175
330
1F
100
AcDbEntity
  8
arredamento
100
AcDbLine
 10
440.0
 20
720.0
 30
0.0
 11
480.0
 21
720.0
 31
0.0
  0
LINE
  5
176
330
1F
100
AcDbEntity
  8
arredamento
100
AcDbLine
 10
480.0
 20
720.0
 30
0.0
 11
480.0
 21
730.0
 31
0.0
  0
LINE
  5
177
330
1F
100
AcDbEntity
  8
arredamento
100
AcDbLine
 10
480.0
 20
730.0
 30
0.0
 11
440.0
 21
730.0
 31
0.0
  0
LINE
  5
178
330
1F
100
AcDbEntity
  8
arredamento
100
AcDbLine
 10
440.0
 20
730.0
 30
0.0
 11
440.0
 21
720.0
 31
0.0
  0
LINE
  5
179
330
1F
100
AcDbEntity
  8
arredamento
100
AcDbLine
 10
420.0
 20
710.0
 30
0.0
 11
410.0
 21
710.0
 31
0.0
  0
LINE
  5
17A
330
1F
100
AcDbEntity
  8
arredamento
100
AcDbLine
 10
410.0
 20
710.0
 30
0.0
 11
410.0
 21
670.0
 31
0.0
  0
LINE
  5
17B
330
1F
100
AcDbEntity
  8
arredamento
100
AcDbLine
 10
410.0
 20
670.0
 30
0.0
 11
420.0
 21
670.0
 31
0.0
  0
LINE
  5
17C
330
1F
100
AcDbEntity
  8
arredamento
100
AcDbLine
 10
420.0
 20
670.0
 30
0.0
 11
420.0
 21
710.0
 31
0.0
  0
LINE
  5
17D
330
1F
100
AcDbEntity
  8
arredamento
100
AcDbLine
 10
420.0
 20
590.0
 30
0.0
 11
410.0
 21
590.0
 31
0.0
  0
LINE
  5
17E
330
1F
100
AcDbEntity
  8
arredamento
100
AcDbLine
 10
410.0
 20
590.0
 30
0.0
 11
410.0
 21
630.0
 31
0.0
  0
LINE
  5
17F
330
1F
100
AcDbEntity
  8
arredamento
100
AcDbLine
 10
410.0
 20
630.0
 30
0.0
 11
420.0
 21
630.0
 31
0.0
  0
LINE
  5
180
330
1F
100
AcDbEntity
  8
arredamento
100
AcDbLine
 10
420.0
 20
630.0
 30
0.0
 11
420.0
 21
590.0
 31
0.0
  0
LINE
  5
181
330
1F
100
AcDbEntity
  8
arredamento
100
AcDbLine
 10
440.0
 20
580.0
 30
0.0
 11
480.0
 21
580.0
 31
0.0
  0
LINE
  5
182
330
1F
100
AcDbEntity
  8
arredamento
100
AcDbLine
 10
480.0
 20
580.0
 30
0.0
 11
480.0
 21
570.0
 31
0.0
  0
LINE
  5
183
330
1F
100
AcDbEntity
  8
arredamento
100
AcDbLine
 10
480.0
 20
570.0
 30
0.0
 11
440.0
 21
570.0
 31
0.0
  0
LINE
  5
184
330
1F
100
AcDbEntity
  8
arredamento
100
AcDbLine
 10
440.0
 20
570.0
 30
0.0
 11
440.0
 21
580.0
 31
0.0
  0
LINE
  5
185
330
1F
100
AcDbEntity
  8
arredamento
100
AcDbLine
 10
500.0
 20
590.0
 30
0.0
 11
510.0
 21
590.0
 31
0.0
  0
LINE
  5
186
330
1F
100
AcDbEntity
  8
arredamento
100
AcDbLine
 10
510.0
 20
590.0
 30
0.0
 11
510.0
 21
630.0
 31
0.0
  0
LINE
  5
187
330
1F
100
AcDbEntity
  8
arredamento
100
AcDbLine
 10
510.0
 20
630.0
 30
0.0
 11
500.0
 21
630.0
 31
0.0
  0
LINE
  5
188
330
1F
100
AcDbEntity
  8
arredamento
100
AcDbLine
 10
500.0
 20
630.0
 30
0.0
 11
500.0
 21
590.0
 31
0.0
  0
LINE
  5
189
330
1F
100
AcDbEntity
  8
arredamento
100
AcDbLine
 10
500.0
 20
670.0
 30
0.0
 11
510.0
 21
670.0
 31
0.0
  0
LINE
  5
18A
330
1F
100
AcDbEntity
  8
arredamento
100
AcDbLine
 10
510.0
 20
670.0
 30
0.0
 11
510.0
 21
710.0
 31
0.0
  0
LINE
  5
18B
330
1F
100
AcDbEntity
  8
arredamento
100
AcDbLine
 10
510.0
 20
710.0
 30
0.0
 11
500.0
 21
710.0
 31
0.0
  0
LINE
  5
18C
330
1F
100
AcDbEntity
  8
arredamento
100
AcDbLine
 10
500.0
 20
710.0
 30
0.0
 11
500.0
 21
670.0
 31
0.0
  0
MTEXT
  5
18D
330
1F
100
AcDbEntity
  8
arredamento
100
AcDbMText
 10
449.9540983607171
 20
644.1704918033628
 30
0.0
 40
6.0
 41
100.0
 71
     1
 72
     2
  1
tavolo
 73
     0
 44
1.0
  0
LINE
  5
18E
330
1F
100
AcDbEntity
  8
muri
100
AcDbLine
 10
580.0
 20
465.0
 30
0.0
 11
580.0
 21
680.0
 31
0.0
  0
LINE
  5
18F
330
1F
100
AcDbEntity
  8
muri
100
AcDbLine
 10
580.0
 20
780.0
 30
0.0
 11
580.0
 21
680.0
 31
0.0
  0
LINE
  5
190
330
1F
100
AcDbEntity
  8
arredamento
100
AcDbLine
 10
470.0
 20
465.0
 30
0.0
 11
580.0
 21
465.0
 31
0.0
  0
LINE
  5
191
330
1F
100
AcDbEntity
  8
arredamento
100
AcDbLine
 10
580.0
 20
465.0
 30
0.0
 11
580.0
 21
490.0
 31
0.0
  0
LINE
  5
192
330
1F
100
AcDbEntity
  8
arredamento
100
AcDbLine
 10
470.0
 20
490.0
 30
0.0
 11
470.0
 21
465.0
 31
0.0
  0
LINE
  5
193
330
1F
100
AcDbEntity
  8
arredamento
100
AcDbLine
 10
553.3628852459817
 20
490.0
 30
0.0
 11
553.3628852459817
 21
567.6787409836887
 31
0.0
  0
LINE
  5
194
330
1F
100
AcDbEntity
  8
arredamento
100
AcDbLine
 10
553.3628852459817
 20
567.6787409836887
 30
0.0
 11
580.0
 21
567.6787409836887
 31
0.0
  0
LINE
  5
195
330
1F
100
AcDbEntity
  8
arredamento
100
AcDbLine
 10
580.0
 20
567.6787409836887
 30
0.0
 11
580.0
 21
490.0
 31
0.0
  0
LINE
  5
196
330
1F
100
AcDbEntity
  8
arredamento
100
AcDbLine
 10
553.3628852459817
 20
490.0
 30
0.0
 11
470.0
 21
490.0
 31
0.0
  0
MTEXT
  5
197
330
1F
100
AcDbEntity
  8
arredamento
100
AcDbMText
 10
520.4983606558131
 20
480.7081967213811
 30
0.0
 40
6.0
 41
100.0
 71
     1
 72
     2
  1
mobile TV
 73
     0
 44
1.0
  0
VIEWPORT
  5
1004F
330
1004B
100
AcDbEntity
 67
     1
  8
0
100
AcDbViewport
 10
0.0
 20
0.0
 30
0.0
 40
525.5767044597876
 41
238.7423592153937
 68
     2
 69
     1
 12
219.2654286474587
 22
89.71610195836263
 13
0.0
 23
0.0
 14
0.5
 24
0.5
 15
0.0
 25
0.0
 16
0.0
 26
0.0
 36
1.0
 17
0.0
 27
0.0
 37
0.0
 42
50.0
 43
0.0
 44
0.0
 45
238.7423592153937
 50
0.0
 51
0.0
 72
   100
 90
   557168
  1

281
     0
 71
     1
 74
     0
110
0.0
120
0.0
130
0.0
111
1.0
121
0.0
131
0.0
112
0.0
122
1.0
132
0.0
 79
     0
146
0.0
  0
VIEWPORT
  5
10052
330
1004B
100
AcDbEntity
 67
     1
  8
0
  6
ByBlock
100
AcDbViewport
 10
142.7
 20
98.26121610062424
 30
0.0
 40
285.4
 41
197.6061379163704
 68
     1
 69
     2
 12
300.0
 22
445.6468284210213
 13
0.0
 23
0.0
 14
0.5
 24
0.5
 15
0.5
 25
0.5
 16
0.0
 26
0.0
 36
1.0
 17
-40.15786072640441
 27
-12.42785352542154
 37
0.0
 42
50.0
 43
0.0
 44
0.0
 45
1056.847367769204
 50
0.0
 51
0.0
 72
   100
 90
   557168
  1

281
     0
 71
     1
 74
     0
110
0.0
120
0.0
130
0.0
111
1.0
121
0.0
131
0.0
112
0.0
122
1.0
132
0.0
 79
     0
146
0.0
  0
ENDSEC
  0
SECTION
  2
OBJECTS
  0
DICTIONARY
  5
C
330
0
100
AcDbDictionary
281
     1
  3
ACAD_GROUP
350
D
  3
ACAD_IMAGE_VARS
350
10044
  3
ACAD_LAYOUT
350
1A
  3
ACAD_MLINESTYLE
350
17
  3
ACAD_PLOTSETTINGS
350
19
  3
ACAD_PLOTSTYLENAME
350
E
  3
ACAD_SCALELIST
350
FFFF
  3
AcDbVariableDictionary
350
198
  3
APPDATA
350
10042
  3
DWGPROPS
350
10086
  0
DICTIONARY
  5
10055
330
2
100
AcDbDictionary
280
     1
281
     1
  3
ACAD_LAYERSTATES
360
10056
  3
ACLYDICTIONARY
360
1005E
  0
DICTIONARY
  5
D
330
C
100
AcDbDictionary
281
     1
  0
RASTERVARIABLES
  5
10044
102
{ACAD_REACTORS
330
C
102
}
330
C
100
AcDbRasterVariables
 90
        0
 70
     1
 71
     1
 72
     2
  0
DICTIONARY
  5
1A
330
C
100
AcDbDictionary
281
     1
  3
Layout3
350
1004C
  3
Model
350
22
  0
DICTIONARY
  5
17
330
C
100
AcDbDictionary
281
     1
  3
Standard
350
18
  0
DICTIONARY
  5
19
330
C
100
AcDbDictionary
281
     1
  0
ACDBDICTIONARYWDFLT
  5
E
330
C
100
AcDbDictionary
281
     1
  3
Normal
350
F
100
AcDbDictionaryWithDefault
340
F
  0
DICTIONARY
  5
FFFF
102
{ACAD_REACTORS
330
C
102
}
330
C
100
AcDbDictionary
281
     1
  3
A0
350
10000
  3
A1
350
10001
  3
A2
350
10002
  3
A3
350
10003
  3
A4
350
10004
  3
A5
350
10005
  3
A6
350
10006
  3
A7
350
10007
  3
A8
350
10008
  3
A9
350
10009
  3
B0
350
1000A
  3
B1
350
1000B
  3
B2
350
1000C
  3
B3
350
1000D
  3
B4
350
1000E
  3
B5
350
1000F
  3
B6
350
10010
  3
B7
350
10011
  3
B8
350
10012
  3
B9
350
10013
  3
C0
350
10014
  3
C1
350
10015
  3
C2
350
10016
  3
C3
350
10017
  3
C4
350
10018
  3
C5
350
10019
  3
C6
350
1001A
  3
C7
350
1001B
  3
C8
350
1001C
  3
C9
350
1001D
  3
D0
350
1001E
  3
D1
350
1001F
  3
D2
350
10020
  0
DICTIONARY
  5
198
330
C
100
AcDbDictionary
281
     1
  3
DIMASSOC
350
19A
  3
HIDETEXT
350
199
  0
DICTIONARY
  5
10042
102
{ACAD_REACTORS
330
C
102
}
330
C
100
AcDbDictionary
281
     1
  0
XRECORD
  5
10086
102
{ACAD_REACTORS
330
C
102
}
330
C
100
AcDbXrecord
280
     1
  1
DWGPROPS COOKIE
  2
Planimetria appartamento fittizio
  3

  4
Stefano Carlesso
  6
disegnata durante corso di elettricista.^JLicenza^JCC-BY-NC-SA
  7

  8

  9

300
=
301
=
302
=
303
=
304
=
305
=
306
=
307
=
308
=
309
=
 40
0.0
 41
0.0
 42
2457331.568993056
  1

 90
        0
  0
DICTIONARY
  5
10056
102
{ACAD_REACTORS
330
10055
102
}
330
10055
100
AcDbDictionary
281
     1
  3
ARGON_LAYERP_1
350
10057
  3
ARGON_LAYERP_2
350
1005A
  3
ARGON_LAYERP_3
350
1005D
  0
DICTIONARY
  5
1005E
102
{ACAD_REACTORS
330
10055
102
}
330
10055
100
AcDbDictionary
281
     1
1001
ACAD
1000
<All
  0
LAYOUT
  5
1004C
102
{ACAD_REACTORS
330
1A
102
}
330
1A
100
AcDbPlotSettings
  1

  2
none_device
  4
ANSI_A_(11.00_x_8.50_Inches)
  6

 40
6.35
 41
19.05
 42
6.35
 43
19.05
 44
279.4
 45
215.9
 46
0.0
 47
0.0
 48
0.0
 49
0.0
140
0.0
141
0.0
142
1.0
143
1.0
 70
   688
 72
     0
 73
     0
 74
     5
  7

 75
    16
147
1.0
148
0.0
149
0.0
100
AcDbLayout
  1
Layout3
 70
     1
 71
     1
 10
-0.25
 20
-0.7500000000000001
 11
10.75
 21
7.75
 12
0.0
 22
0.0
 32
0.0
 14
0.0
 24
-0.5418528575609685
 34
0.0
 15
285.4
 25
197.0642850588094
 35
0.0
146
0.0
 13
0.0
 23
0.0
 33
0.0
 16
1.0
 26
0.0
 36
0.0
 17
0.0
 27
1.0
 37
0.0
 76
     0
330
1004B
331
10052
  0
LAYOUT
  5
22
330
1A
100
AcDbPlotSettings
  1

  2
none_device
  4
ANSI_A_(11.00_x_8.50_Inches)
  6

 40
6.35
 41
19.05
 42
6.35
 43
19.05
 44
279.4
 45
215.9
 46
0.0
 47
0.0
 48
0.0
 49
0.0
140
0.0
141
0.0
142
1.0
143
237.538415138425
 70
  1712
 72
     0
 73
     0
 74
     0
  7

 75
     0
147
0.0042098453819238
148
14709.94541078076
149
3069.889520505171
100
AcDbLayout
  1
Model
 70
     1
 71
     0
 10
0.0
 20
0.0
 11
12.0
 21
9.0
 12
0.0
 22
0.0
 32
0.0
 14
0.0
 24
-20.0
 34
0.0
 15
600.0
 25
800.0
 35
0.0
146
0.0
 13
0.0
 23
0.0
 33
0.0
 16
1.0
 26
0.0
 36
0.0
 17
0.0
 27
1.0
 37
0.0
 76
     0
330
1F
331
30
  0
MLINESTYLE
  5
18
330
17
100
AcDbMlineStyle
  2
STANDARD
 70
     0
  3

 62
   256
 51
90.0
 52
90.0
 71
     2
 49
0.5
 62
   256
  6
BYLAYER
 49
-0.5
 62
   256
  6
BYLAYER
  0
ACDBPLACEHOLDER
  5
F
330
E
  0
SCALE
  5
10000
102
{ACAD_REACTORS
330
FFFF
102
}
330
FFFF
100
AcDbScale
 70
     0
300
1:1
140
1.0
141
1.0
290
     1
  0
SCALE
  5
10001
102
{ACAD_REACTORS
330
FFFF
102
}
330
FFFF
100
AcDbScale
 70
     0
300
1:2
140
1.0
141
2.0
290
     0
  0
SCALE
  5
10002
102
{ACAD_REACTORS
330
FFFF
102
}
330
FFFF
100
AcDbScale
 70
     0
300
1:4
140
1.0
141
4.0
290
     0
  0
SCALE
  5
10003
102
{ACAD_REACTORS
330
FFFF
102
}
330
FFFF
100
AcDbScale
 70
     0
300
1:5
140
1.0
141
5.0
290
     0
  0
SCALE
  5
10004
102
{ACAD_REACTORS
330
FFFF
102
}
330
FFFF
100
AcDbScale
 70
     0
300
1:8
140
1.0
141
8.0
290
     0
  0
SCALE
  5
10005
102
{ACAD_REACTORS
330
FFFF
102
}
330
FFFF
100
AcDbScale
 70
     0
300
1:10
140
1.0
141
10.0
290
     0
  0
SCALE
  5
10006
102
{ACAD_REACTORS
330
FFFF
102
}
330
FFFF
100
AcDbScale
 70
     0
300
1:16
140
1.0
141
16.0
290
     0
  0
SCALE
  5
10007
102
{ACAD_REACTORS
330
FFFF
102
}
330
FFFF
100
AcDbScale
 70
     0
300
1:20
140
1.0
141
20.0
290
     0
  0
SCALE
  5
10008
102
{ACAD_REACTORS
330
FFFF
102
}
330
FFFF
100
AcDbScale
 70
     0
300
1:30
140
1.0
141
30.0
290
     0
  0
SCALE
  5
10009
102
{ACAD_REACTORS
330
FFFF
102
}
330
FFFF
100
AcDbScale
 70
     0
300
1:40
140
1.0
141
40.0
290
     0
  0
SCALE
  5
1000A
102
{ACAD_REACTORS
330
FFFF
102
}
330
FFFF
100
AcDbScale
 70
     0
300
1:50
140
1.0
141
50.0
290
     0
  0
SCALE
  5
1000B
102
{ACAD_REACTORS
330
FFFF
102
}
330
FFFF
100
AcDbScale
 70
     0
300
1:100
140
1.0
141
100.0
290
     0
  0
SCALE
  5
1000C
102
{ACAD_REACTORS
330
FFFF
102
}
330
FFFF
100
AcDbScale
 70
     0
300
2:1
140
2.0
141
1.0
290
     0
  0
SCALE
  5
1000D
102
{ACAD_REACTORS
330
FFFF
102
}
330
FFFF
100
AcDbScale
 70
     0
300
4:1
140
4.0
141
1.0
290
     0
  0
SCALE
  5
1000E
102
{ACAD_REACTORS
330
FFFF
102
}
330
FFFF
100
AcDbScale
 70
     0
300
8:1
140
8.0
141
1.0
290
     0
  0
SCALE
  5
1000F
102
{ACAD_REACTORS
330
FFFF
102
}
330
FFFF
100
AcDbScale
 70
     0
300
10:1
140
10.0
141
1.0
290
     0
  0
SCALE
  5
10010
102
{ACAD_REACTORS
330
FFFF
102
}
330
FFFF
100
AcDbScale
 70
     0
300
100:1
140
100.0
141
1.0
290
     0
  0
SCALE
  5
10011
102
{ACAD_REACTORS
330
FFFF
102
}
330
FFFF
100
AcDbScale
 70
     0
300
1/128" = 1'-0"
140
0.0078125
141
12.0
290
     0
  0
SCALE
  5
10012
102
{ACAD_REACTORS
330
FFFF
102
}
330
FFFF
100
AcDbScale
 70
     0
300
1/64" = 1'-0"
140
0.015625
141
12.0
290
     0
  0
SCALE
  5
10013
102
{ACAD_REACTORS
330
FFFF
102
}
330
FFFF
100
AcDbScale
 70
     0
300
1/32" = 1'-0"
140
0.03125
141
12.0
290
     0
  0
SCALE
  5
10014
102
{ACAD_REACTORS
330
FFFF
102
}
330
FFFF
100
AcDbScale
 70
     0
300
1/16" = 1'-0"
140
0.0625
141
12.0
290
     0
  0
SCALE
  5
10015
102
{ACAD_REACTORS
330
FFFF
102
}
330
FFFF
100
AcDbScale
 70
     0
300
3/32" = 1'-0"
140
0.09375
141
12.0
290
     0
  0
SCALE
  5
10016
102
{ACAD_REACTORS
330
FFFF
102
}
330
FFFF
100
AcDbScale
 70
     0
300
1/8" = 1'-0"
140
0.125
141
12.0
290
     0
  0
SCALE
  5
10017
102
{ACAD_REACTORS
330
FFFF
102
}
330
FFFF
100
AcDbScale
 70
     0
300
3/16" = 1'-0"
140
0.1875
141
12.0
290
     0
  0
SCALE
  5
10018
102
{ACAD_REACTORS
330
FFFF
102
}
330
FFFF
100
AcDbScale
 70
     0
300
1/4" = 1'-0"
140
0.25
141
12.0
290
     0
  0
SCALE
  5
10019
102
{ACAD_REACTORS
330
FFFF
102
}
330
FFFF
100
AcDbScale
 70
     0
300
3/8" = 1'-0"
140
0.375
141
12.0
290
     0
  0
SCALE
  5
1001A
102
{ACAD_REACTORS
330
FFFF
102
}
330
FFFF
100
AcDbScale
 70
     0
300
1/2" = 1'-0"
140
0.5
141
12.0
290
     0
  0
SCALE
  5
1001B
102
{ACAD_REACTORS
330
FFFF
102
}
330
FFFF
100
AcDbScale
 70
     0
300
3/4" = 1'-0"
140
0.75
141
12.0
290
     0
  0
SCALE
  5
1001C
102
{ACAD_REACTORS
330
FFFF
102
}
330
FFFF
100
AcDbScale
 70
     0
300
1" = 1'-0"
140
1.0
141
12.0
290
     0
  0
SCALE
  5
1001D
102
{ACAD_REACTORS
330
FFFF
102
}
330
FFFF
100
AcDbScale
 70
     0
300
1-1/2" = 1'-0"
140
1.5
141
12.0
290
     0
  0
SCALE
  5
1001E
102
{ACAD_REACTORS
330
FFFF
102
}
330
FFFF
100
AcDbScale
 70
     0
300
3" = 1'-0"
140
3.0
141
12.0
290
     0
  0
SCALE
  5
1001F
102
{ACAD_REACTORS
330
FFFF
102
}
330
FFFF
100
AcDbScale
 70
     0
300
6" = 1'-0"
140
6.0
141
12.0
290
     0
  0
SCALE
  5
10020
102
{ACAD_REACTORS
330
FFFF
102
}
330
FFFF
100
AcDbScale
 70
     0
300
1'-0" = 1'-0"
140
12.0
141
12.0
290
     0
  0
DICTIONARYVAR
  5
19A
330
198
100
DictionaryVariables
280
     0
  1
1
  0
DICTIONARYVAR
  5
199
330
198
100
DictionaryVariables
280
     0
  1
2
  0
XRECORD
  5
10057
102
{ACAD_REACTORS
330
10056
102
}
330
10056
100
AcDbXrecord
280
     1
 91
     1023
301

290
     0
302
0
330
10
 90
        8
 62
     7
370
     0
331
16
  1
Color_7
330
43
 90
        8
 62
     8
370
     0
331
16
  1
Color_8
330
44
 90
        8
 62
     8
370
     0
331
16
  1
Color_8
330
45
 90
        8
 62
     8
370
     0
331
16
  1
Color_8
  0
XRECORD
  5
1005A
102
{ACAD_REACTORS
330
10056
102
}
330
10056
100
AcDbXrecord
280
     1
 91
     1023
301

290
     0
302
0
330
10
 90
        8
 62
     7
370
     0
331
16
  1
Color_7
330
43
 90
        8
 62
     8
370
    60
331
16
  1
Color_8
330
44
 90
        8
 62
     8
370
    20
331
16
  1
Color_8
330
45
 90
        8
 62
     8
370
    13
331
16
  1
Color_8
  0
XRECORD
  5
1005D
102
{ACAD_REACTORS
330
10056
102
}
330
10056
100
AcDbXrecord
280
     1
 91
     1023
301

290
     0
302
0
330
10
 90
        8
 62
     7
370
     0
331
16
  1
Color_7
330
43
 90
        8
 62
     7
370
    60
331
16
  1
Color_7
330
44
 90
        8
 62
     7
370
    20
331
16
  1
Color_7
330
45
 90
        8
 62
     7
370
    13
331
16
  1
Color_7
  0
ENDSEC
  0
EOF
