<?xml version="1.0" encoding="UTF-8"?>
<svg xmlns="http://www.w3.org/2000/svg" xmlns:xlink="http://www.w3.org/1999/xlink" fill-opacity="1" color-rendering="auto" color-interpolation="auto" stroke="black" text-rendering="auto" stroke-linecap="square" width="800" stroke-miterlimit="10" stroke-opacity="1" shape-rendering="auto" fill="black" stroke-dasharray="none" font-weight="normal" stroke-width="1" height="557" font-family="'Dialog'" font-style="normal" stroke-linejoin="miter" font-size="12" stroke-dashoffset="0" image-rendering="auto">
  <!--Generated by ySVG-->
  <defs id="genericDefs"/>
  <g>
    <defs id="defs1">
      <clipPath clipPathUnits="userSpaceOnUse" id="clipPath1">
        <path d="M0 0 L800 0 L800 557 L0 557 L0 0 Z"/>
      </clipPath>
      <clipPath clipPathUnits="userSpaceOnUse" id="clipPath2">
        <path d="M15 -221 L484 -221 L484 105.5413 L15 105.5413 L15 -221 Z"/>
      </clipPath>
      <clipPath clipPathUnits="userSpaceOnUse" id="clipPath3">
        <path d="M83.9981 -62.9521 L83.9981 -46.9834 L159.9981 -46.9834 L159.9981 -62.9521 Z"/>
      </clipPath>
      <clipPath clipPathUnits="userSpaceOnUse" id="clipPath4">
        <path d="M99.488 57.0478 L99.488 73.0166 L157.988 73.0166 L157.988 57.0478 Z"/>
      </clipPath>
      <clipPath clipPathUnits="userSpaceOnUse" id="clipPath5">
        <path d="M167.9169 50.0635 L167.9169 80.001 L251.6669 80.001 L251.6669 50.0635 Z"/>
      </clipPath>
      <clipPath clipPathUnits="userSpaceOnUse" id="clipPath6">
        <path d="M37.3092 57.0478 L37.3092 73.0166 L89.5592 73.0166 L89.5592 57.0478 Z"/>
      </clipPath>
      <clipPath clipPathUnits="userSpaceOnUse" id="clipPath7">
        <path d="M193.9981 -62.9521 L193.9981 -46.9834 L269.9981 -46.9834 L269.9981 -62.9521 Z"/>
      </clipPath>
      <clipPath clipPathUnits="userSpaceOnUse" id="clipPath8">
        <path d="M297.5247 50.0635 L297.5247 80.001 L373.5247 80.001 L373.5247 50.0635 Z"/>
      </clipPath>
      <clipPath clipPathUnits="userSpaceOnUse" id="clipPath9">
        <path d="M385.0247 50.0635 L385.0247 80.001 L461.0247 80.001 L461.0247 50.0635 Z"/>
      </clipPath>
      <clipPath clipPathUnits="userSpaceOnUse" id="clipPath10">
        <path d="M241.2997 -166.1263 L241.2997 -136.1888 L317.2997 -136.1888 L317.2997 -166.1263 Z"/>
      </clipPath>
      <clipPath clipPathUnits="userSpaceOnUse" id="clipPath11">
        <path d="M346.0247 -62.9521 L346.0247 -46.9834 L390.7747 -46.9834 L390.7747 -62.9521 Z"/>
      </clipPath>
      <clipPath clipPathUnits="userSpaceOnUse" id="clipPath12">
        <path d="M83.9981 -174.2663 L83.9981 -144.3288 L159.9981 -144.3288 L159.9981 -174.2663 Z"/>
      </clipPath>
      <clipPath clipPathUnits="userSpaceOnUse" id="clipPath13">
        <path d="M355.3997 -169.2663 L355.3997 -139.3288 L431.3997 -139.3288 L431.3997 -169.2663 Z"/>
      </clipPath>
    </defs>
    <g fill="white" transform="scale(1.7058,1.7058) translate(-15,221)" stroke="white">
      <rect x="15" width="470" height="327" y="-221" clip-path="url(#clipPath2)" stroke="none"/>
    </g>
    <g fill="rgb(102,204,102)" fill-opacity="0.3137" transform="matrix(1.7058,0,0,1.7058,-25.5864,376.9723)" stroke-opacity="0.3137" stroke="rgb(102,204,102)">
      <rect x="20.3092" width="457.7155" height="21.4531" y="-215.7506" clip-path="url(#clipPath2)" stroke="none"/>
    </g>
    <g font-size="15" stroke-miterlimit="1.45" font-family="sans-serif" transform="matrix(1.7058,0,0,1.7058,-25.5864,376.9723)" stroke-linecap="butt">
      <text x="167.8242" xml:space="preserve" y="-199.8288" clip-path="url(#clipPath2)" stroke="none">Procurarsi i Contenuti</text>
      <rect x="20.3092" y="-215.7506" clip-path="url(#clipPath2)" fill="none" width="457.7155" stroke-dasharray="6,2" height="315.7829"/>
    </g>
    <g fill="rgb(232,238,247)" stroke-miterlimit="1.45" transform="matrix(1.7058,0,0,1.7058,-25.5864,376.9723)" stroke-linecap="butt" stroke="rgb(232,238,247)">
      <path d="M81.9981 -74.9678 L161.9981 -74.9678 L161.9981 -34.9678 L81.9981 -34.9678 Z" clip-path="url(#clipPath2)" stroke="none"/>
      <path fill="none" d="M81.9981 -74.9678 L161.9981 -74.9678 L161.9981 -34.9678 L81.9981 -34.9678 Z" clip-path="url(#clipPath2)" stroke="black"/>
    </g>
    <g transform="matrix(1.7058,0,0,1.7058,-25.5864,376.9723)">
      <path d="M103.7656 -60.2656 L103.7656 -59.1094 Q103.0938 -59.4219 102.4922 -59.5859 Q101.8906 -59.75 101.3438 -59.75 Q100.375 -59.75 99.8516 -59.375 Q99.3281 -59 99.3281 -58.2969 Q99.3281 -57.7188 99.6719 -57.4219 Q100.0156 -57.125 101 -56.9531 L101.7031 -56.7969 Q103.0312 -56.5469 103.6641 -55.9141 Q104.2969 -55.2812 104.2969 -54.2188 Q104.2969 -52.9375 103.4453 -52.2812 Q102.5938 -51.625 100.9375 -51.625 Q100.3281 -51.625 99.625 -51.7656 Q98.9219 -51.9062 98.1719 -52.1875 L98.1719 -53.4062 Q98.8906 -53 99.5859 -52.7969 Q100.2812 -52.5938 100.9375 -52.5938 Q101.9531 -52.5938 102.5078 -52.9922 Q103.0625 -53.3906 103.0625 -54.125 Q103.0625 -54.7656 102.6641 -55.1328 Q102.2656 -55.5 101.3594 -55.6719 L100.6406 -55.8125 Q99.3125 -56.0781 98.7266 -56.6406 Q98.1406 -57.2031 98.1406 -58.2031 Q98.1406 -59.375 98.9531 -60.0391 Q99.7656 -60.7031 101.2031 -60.7031 Q101.8281 -60.7031 102.4609 -60.5938 Q103.0938 -60.4844 103.7656 -60.2656 ZM110.8281 -58.1094 L110.8281 -57.0938 Q110.3594 -57.3594 109.9062 -57.4844 Q109.4531 -57.6094 108.9844 -57.6094 Q107.9219 -57.6094 107.3438 -56.9453 Q106.7656 -56.2812 106.7656 -55.0781 Q106.7656 -53.875 107.3438 -53.2109 Q107.9219 -52.5469 108.9844 -52.5469 Q109.4531 -52.5469 109.9062 -52.6719 Q110.3594 -52.7969 110.8281 -53.0469 L110.8281 -52.0469 Q110.375 -51.8438 109.8906 -51.7344 Q109.4062 -51.625 108.8594 -51.625 Q107.375 -51.625 106.5 -52.5547 Q105.625 -53.4844 105.625 -55.0781 Q105.625 -56.6719 106.5078 -57.5938 Q107.3906 -58.5156 108.9375 -58.5156 Q109.4219 -58.5156 109.8984 -58.4141 Q110.375 -58.3125 110.8281 -58.1094 ZM116.5 -57.3594 Q116.3125 -57.4531 116.1016 -57.5078 Q115.8906 -57.5625 115.625 -57.5625 Q114.7188 -57.5625 114.2266 -56.9688 Q113.7344 -56.375 113.7344 -55.25 L113.7344 -51.7969 L112.6562 -51.7969 L112.6562 -58.3594 L113.7344 -58.3594 L113.7344 -57.3438 Q114.0781 -57.9375 114.625 -58.2266 Q115.1719 -58.5156 115.9531 -58.5156 Q116.0625 -58.5156 116.1953 -58.5 Q116.3281 -58.4844 116.4844 -58.4531 L116.5 -57.3594 ZM117.625 -58.3594 L118.7031 -58.3594 L118.7031 -51.7969 L117.625 -51.7969 L117.625 -58.3594 ZM117.625 -60.9219 L118.7031 -60.9219 L118.7031 -59.5469 L117.625 -59.5469 L117.625 -60.9219 ZM120.1875 -58.3594 L121.3281 -58.3594 L123.375 -52.8594 L125.4375 -58.3594 L126.5781 -58.3594 L124.1094 -51.7969 L122.6406 -51.7969 L120.1875 -58.3594 ZM133.6875 -55.3438 L133.6875 -54.8281 L128.7188 -54.8281 Q128.7969 -53.7031 129.3984 -53.125 Q130 -52.5469 131.0625 -52.5469 Q131.6875 -52.5469 132.2734 -52.6953 Q132.8594 -52.8438 133.4375 -53.1562 L133.4375 -52.125 Q132.8438 -51.8906 132.2344 -51.7578 Q131.625 -51.625 131 -51.625 Q129.4375 -51.625 128.5156 -52.5391 Q127.5938 -53.4531 127.5938 -55.0156 Q127.5938 -56.625 128.4688 -57.5703 Q129.3438 -58.5156 130.8125 -58.5156 Q132.1406 -58.5156 132.9141 -57.6641 Q133.6875 -56.8125 133.6875 -55.3438 ZM132.6094 -55.6719 Q132.5938 -56.5469 132.1094 -57.0781 Q131.625 -57.6094 130.8281 -57.6094 Q129.9219 -57.6094 129.3828 -57.0938 Q128.8438 -56.5781 128.7656 -55.6562 L132.6094 -55.6719 ZM139.25 -57.3594 Q139.0625 -57.4531 138.8516 -57.5078 Q138.6406 -57.5625 138.375 -57.5625 Q137.4688 -57.5625 136.9766 -56.9688 Q136.4844 -56.375 136.4844 -55.25 L136.4844 -51.7969 L135.4062 -51.7969 L135.4062 -58.3594 L136.4844 -58.3594 L136.4844 -57.3438 Q136.8281 -57.9375 137.375 -58.2266 Q137.9219 -58.5156 138.7031 -58.5156 Q138.8125 -58.5156 138.9453 -58.5 Q139.0781 -58.4844 139.2344 -58.4531 L139.25 -57.3594 ZM146 -55.3438 L146 -54.8281 L141.0312 -54.8281 Q141.1094 -53.7031 141.7109 -53.125 Q142.3125 -52.5469 143.375 -52.5469 Q144 -52.5469 144.5859 -52.6953 Q145.1719 -52.8438 145.75 -53.1562 L145.75 -52.125 Q145.1562 -51.8906 144.5469 -51.7578 Q143.9375 -51.625 143.3125 -51.625 Q141.75 -51.625 140.8281 -52.5391 Q139.9062 -53.4531 139.9062 -55.0156 Q139.9062 -56.625 140.7812 -57.5703 Q141.6562 -58.5156 143.125 -58.5156 Q144.4531 -58.5156 145.2266 -57.6641 Q146 -56.8125 146 -55.3438 ZM144.9219 -55.6719 Q144.9062 -56.5469 144.4219 -57.0781 Q143.9375 -57.6094 143.1406 -57.6094 Q142.2344 -57.6094 141.6953 -57.0938 Q141.1562 -56.5781 141.0781 -55.6562 L144.9219 -55.6719 Z" clip-path="url(#clipPath3)" stroke="none"/>
    </g>
    <g fill="rgb(232,238,247)" stroke-miterlimit="1.45" transform="matrix(1.7058,0,0,1.7058,-25.5864,376.9723)" stroke-linecap="butt" stroke="rgb(232,238,247)">
      <path d="M107.688 45.0322 L159.9881 45.0322 L149.788 85.0322 L97.488 85.0322 Z" clip-path="url(#clipPath2)" stroke="none"/>
      <path fill="none" d="M107.688 45.0322 L159.9881 45.0322 L149.788 85.0322 L97.488 85.0322 Z" clip-path="url(#clipPath2)" stroke="black"/>
    </g>
    <g transform="matrix(1.7058,0,0,1.7058,-25.5864,376.9723)">
      <path d="M106.8281 59.4375 L114.2188 59.4375 L114.2188 60.4375 L111.125 60.4375 L111.125 68.1875 L109.9375 68.1875 L109.9375 60.4375 L106.8281 60.4375 L106.8281 59.4375 ZM118.2969 64.8906 Q117 64.8906 116.4922 65.1875 Q115.9844 65.4844 115.9844 66.2031 Q115.9844 66.7812 116.3672 67.1172 Q116.75 67.4531 117.3906 67.4531 Q118.2969 67.4531 118.8359 66.8203 Q119.375 66.1875 119.375 65.125 L119.375 64.8906 L118.2969 64.8906 ZM120.4531 64.4375 L120.4531 68.1875 L119.375 68.1875 L119.375 67.1875 Q119 67.7812 118.4531 68.0703 Q117.9062 68.3594 117.1094 68.3594 Q116.0938 68.3594 115.5 67.7891 Q114.9062 67.2188 114.9062 66.2812 Q114.9062 65.1719 115.6484 64.6094 Q116.3906 64.0469 117.8594 64.0469 L119.375 64.0469 L119.375 63.9375 Q119.375 63.1875 118.8828 62.7812 Q118.3906 62.375 117.5156 62.375 Q116.9531 62.375 116.4141 62.5156 Q115.875 62.6562 115.3906 62.9219 L115.3906 61.9219 Q115.9844 61.6875 116.5391 61.5781 Q117.0938 61.4688 117.625 61.4688 Q119.0469 61.4688 119.75 62.2031 Q120.4531 62.9375 120.4531 64.4375 ZM127.3906 64.9062 Q127.3906 63.7188 126.8984 63.0469 Q126.4062 62.375 125.5625 62.375 Q124.7031 62.375 124.2109 63.0469 Q123.7188 63.7188 123.7188 64.9062 Q123.7188 66.0938 124.2109 66.7734 Q124.7031 67.4531 125.5625 67.4531 Q126.4062 67.4531 126.8984 66.7734 Q127.3906 66.0938 127.3906 64.9062 ZM123.7188 62.625 Q124.0625 62.0312 124.5781 61.75 Q125.0938 61.4688 125.8125 61.4688 Q127.0156 61.4688 127.7656 62.4141 Q128.5156 63.3594 128.5156 64.9062 Q128.5156 66.4531 127.7656 67.4062 Q127.0156 68.3594 125.8125 68.3594 Q125.0938 68.3594 124.5781 68.0703 Q124.0625 67.7812 123.7188 67.2031 L123.7188 68.1875 L122.6406 68.1875 L122.6406 59.0625 L123.7188 59.0625 L123.7188 62.625 ZM135.9062 64.6406 L135.9062 65.1562 L130.9375 65.1562 Q131.0156 66.2812 131.6172 66.8594 Q132.2188 67.4375 133.2812 67.4375 Q133.9062 67.4375 134.4922 67.2891 Q135.0781 67.1406 135.6562 66.8281 L135.6562 67.8594 Q135.0625 68.0938 134.4531 68.2266 Q133.8438 68.3594 133.2188 68.3594 Q131.6562 68.3594 130.7344 67.4453 Q129.8125 66.5312 129.8125 64.9688 Q129.8125 63.3594 130.6875 62.4141 Q131.5625 61.4688 133.0312 61.4688 Q134.3594 61.4688 135.1328 62.3203 Q135.9062 63.1719 135.9062 64.6406 ZM134.8281 64.3125 Q134.8125 63.4375 134.3281 62.9062 Q133.8438 62.375 133.0469 62.375 Q132.1406 62.375 131.6016 62.8906 Q131.0625 63.4062 130.9844 64.3281 L134.8281 64.3125 ZM137.6719 59.0625 L138.75 59.0625 L138.75 68.1875 L137.6719 68.1875 L137.6719 59.0625 ZM141 59.0625 L142.0781 59.0625 L142.0781 68.1875 L141 68.1875 L141 59.0625 ZM149.9688 64.6406 L149.9688 65.1562 L145 65.1562 Q145.0781 66.2812 145.6797 66.8594 Q146.2812 67.4375 147.3438 67.4375 Q147.9688 67.4375 148.5547 67.2891 Q149.1406 67.1406 149.7188 66.8281 L149.7188 67.8594 Q149.125 68.0938 148.5156 68.2266 Q147.9062 68.3594 147.2812 68.3594 Q145.7188 68.3594 144.7969 67.4453 Q143.875 66.5312 143.875 64.9688 Q143.875 63.3594 144.75 62.4141 Q145.625 61.4688 147.0938 61.4688 Q148.4219 61.4688 149.1953 62.3203 Q149.9688 63.1719 149.9688 64.6406 ZM148.8906 64.3125 Q148.875 63.4375 148.3906 62.9062 Q147.9062 62.375 147.1094 62.375 Q146.2031 62.375 145.6641 62.8906 Q145.125 63.4062 145.0469 64.3281 L148.8906 64.3125 Z" clip-path="url(#clipPath4)" stroke="none"/>
    </g>
    <g fill="rgb(232,238,247)" stroke-miterlimit="1.45" transform="matrix(1.7058,0,0,1.7058,-25.5864,376.9723)" stroke-linecap="butt" stroke="rgb(232,238,247)">
      <path d="M176.1169 45.0322 L253.6669 45.0322 L243.4669 85.0322 L165.9169 85.0322 Z" clip-path="url(#clipPath2)" stroke="none"/>
      <path fill="none" d="M176.1169 45.0322 L253.6669 45.0322 L243.4669 85.0322 L165.9169 85.0322 Z" clip-path="url(#clipPath2)" stroke="black"/>
    </g>
    <g transform="matrix(1.7058,0,0,1.7058,-25.5864,376.9723)">
      <path d="M180.7656 52.4531 L185.7969 52.4531 L185.7969 53.4531 L181.9531 53.4531 L181.9531 56.0312 L185.4219 56.0312 L185.4219 57.0312 L181.9531 57.0312 L181.9531 61.2031 L180.7656 61.2031 L180.7656 52.4531 ZM190.1719 55.3906 Q189.3125 55.3906 188.8047 56.0703 Q188.2969 56.75 188.2969 57.9219 Q188.2969 59.1094 188.7969 59.7812 Q189.2969 60.4531 190.1719 60.4531 Q191.0312 60.4531 191.5391 59.7734 Q192.0469 59.0938 192.0469 57.9219 Q192.0469 56.7656 191.5391 56.0781 Q191.0312 55.3906 190.1719 55.3906 ZM190.1719 54.4844 Q191.5781 54.4844 192.3828 55.3984 Q193.1875 56.3125 193.1875 57.9219 Q193.1875 59.5312 192.3828 60.4531 Q191.5781 61.375 190.1719 61.375 Q188.7656 61.375 187.9609 60.4531 Q187.1562 59.5312 187.1562 57.9219 Q187.1562 56.3125 187.9609 55.3984 Q188.7656 54.4844 190.1719 54.4844 ZM198.7656 55.6406 Q198.5781 55.5469 198.3672 55.4922 Q198.1562 55.4375 197.8906 55.4375 Q196.9844 55.4375 196.4922 56.0312 Q196 56.625 196 57.75 L196 61.2031 L194.9219 61.2031 L194.9219 54.6406 L196 54.6406 L196 55.6562 Q196.3438 55.0625 196.8906 54.7734 Q197.4375 54.4844 198.2188 54.4844 Q198.3281 54.4844 198.4609 54.5 Q198.5938 54.5156 198.75 54.5469 L198.7656 55.6406 ZM205 55.9062 Q205.4062 55.1719 205.9688 54.8281 Q206.5312 54.4844 207.2969 54.4844 Q208.3281 54.4844 208.8828 55.2031 Q209.4375 55.9219 209.4375 57.2344 L209.4375 61.2031 L208.3594 61.2031 L208.3594 57.2812 Q208.3594 56.3281 208.0234 55.875 Q207.6875 55.4219 207 55.4219 Q206.1562 55.4219 205.6719 55.9766 Q205.1875 56.5312 205.1875 57.5 L205.1875 61.2031 L204.1094 61.2031 L204.1094 57.2812 Q204.1094 56.3281 203.7734 55.875 Q203.4375 55.4219 202.7344 55.4219 Q201.9062 55.4219 201.4219 55.9766 Q200.9375 56.5312 200.9375 57.5 L200.9375 61.2031 L199.8594 61.2031 L199.8594 54.6406 L200.9375 54.6406 L200.9375 55.6562 Q201.3125 55.0625 201.8281 54.7734 Q202.3438 54.4844 203.0469 54.4844 Q203.7656 54.4844 204.2656 54.8438 Q204.7656 55.2031 205 55.9062 ZM211.4688 58.6094 L211.4688 54.6406 L212.5469 54.6406 L212.5469 58.5781 Q212.5469 59.5 212.9141 59.9688 Q213.2812 60.4375 214 60.4375 Q214.875 60.4375 215.3828 59.8828 Q215.8906 59.3281 215.8906 58.3594 L215.8906 54.6406 L216.9688 54.6406 L216.9688 61.2031 L215.8906 61.2031 L215.8906 60.1875 Q215.5 60.7969 214.9844 61.0859 Q214.4688 61.375 213.7812 61.375 Q212.6406 61.375 212.0547 60.6719 Q211.4688 59.9688 211.4688 58.6094 ZM214.1875 54.4844 L214.1875 54.4844 ZM219.1875 52.0781 L220.2656 52.0781 L220.2656 61.2031 L219.1875 61.2031 L219.1875 52.0781 ZM228.1406 57.6562 L228.1406 58.1719 L223.1719 58.1719 Q223.25 59.2969 223.8516 59.875 Q224.4531 60.4531 225.5156 60.4531 Q226.1406 60.4531 226.7266 60.3047 Q227.3125 60.1562 227.8906 59.8438 L227.8906 60.875 Q227.2969 61.1094 226.6875 61.2422 Q226.0781 61.375 225.4531 61.375 Q223.8906 61.375 222.9688 60.4609 Q222.0469 59.5469 222.0469 57.9844 Q222.0469 56.375 222.9219 55.4297 Q223.7969 54.4844 225.2656 54.4844 Q226.5938 54.4844 227.3672 55.3359 Q228.1406 56.1875 228.1406 57.6562 ZM227.0625 57.3281 Q227.0469 56.4531 226.5625 55.9219 Q226.0781 55.3906 225.2812 55.3906 Q224.375 55.3906 223.8359 55.9062 Q223.2969 56.4219 223.2188 57.3438 L227.0625 57.3281 ZM239.3438 57.6562 L239.3438 58.1719 L234.375 58.1719 Q234.4531 59.2969 235.0547 59.875 Q235.6562 60.4531 236.7188 60.4531 Q237.3438 60.4531 237.9297 60.3047 Q238.5156 60.1562 239.0938 59.8438 L239.0938 60.875 Q238.5 61.1094 237.8906 61.2422 Q237.2812 61.375 236.6562 61.375 Q235.0938 61.375 234.1719 60.4609 Q233.25 59.5469 233.25 57.9844 Q233.25 56.375 234.125 55.4297 Q235 54.4844 236.4688 54.4844 Q237.7969 54.4844 238.5703 55.3359 Q239.3438 56.1875 239.3438 57.6562 ZM238.2656 57.3281 Q238.25 56.4531 237.7656 55.9219 Q237.2812 55.3906 236.4844 55.3906 Q235.5781 55.3906 235.0391 55.9062 Q234.5 56.4219 234.4219 57.3438 L238.2656 57.3281 Z" clip-path="url(#clipPath5)" stroke="none"/>
      <path d="M182.7812 69.6094 L182.7812 66.0469 L183.8594 66.0469 L183.8594 75.1719 L182.7812 75.1719 L182.7812 74.1875 Q182.4375 74.7656 181.9219 75.0547 Q181.4062 75.3438 180.6719 75.3438 Q179.4844 75.3438 178.7344 74.3906 Q177.9844 73.4375 177.9844 71.8906 Q177.9844 70.3438 178.7344 69.3984 Q179.4844 68.4531 180.6719 68.4531 Q181.4062 68.4531 181.9219 68.7344 Q182.4375 69.0156 182.7812 69.6094 ZM179.1094 71.8906 Q179.1094 73.0781 179.5938 73.7578 Q180.0781 74.4375 180.9375 74.4375 Q181.7969 74.4375 182.2891 73.7578 Q182.7812 73.0781 182.7812 71.8906 Q182.7812 70.7031 182.2891 70.0312 Q181.7969 69.3594 180.9375 69.3594 Q180.0781 69.3594 179.5938 70.0312 Q179.1094 70.7031 179.1094 71.8906 ZM186.0625 68.6094 L187.1406 68.6094 L187.1406 75.1719 L186.0625 75.1719 L186.0625 68.6094 ZM186.0625 66.0469 L187.1406 66.0469 L187.1406 67.4219 L186.0625 67.4219 L186.0625 66.0469 ZM192.3906 71.875 Q191.0938 71.875 190.5859 72.1719 Q190.0781 72.4688 190.0781 73.1875 Q190.0781 73.7656 190.4609 74.1016 Q190.8438 74.4375 191.4844 74.4375 Q192.3906 74.4375 192.9297 73.8047 Q193.4688 73.1719 193.4688 72.1094 L193.4688 71.875 L192.3906 71.875 ZM194.5469 71.4219 L194.5469 75.1719 L193.4688 75.1719 L193.4688 74.1719 Q193.0938 74.7656 192.5469 75.0547 Q192 75.3438 191.2031 75.3438 Q190.1875 75.3438 189.5938 74.7734 Q189 74.2031 189 73.2656 Q189 72.1562 189.7422 71.5938 Q190.4844 71.0312 191.9531 71.0312 L193.4688 71.0312 L193.4688 70.9219 Q193.4688 70.1719 192.9766 69.7656 Q192.4844 69.3594 191.6094 69.3594 Q191.0469 69.3594 190.5078 69.5 Q189.9688 69.6406 189.4844 69.9062 L189.4844 68.9062 Q190.0781 68.6719 190.6328 68.5625 Q191.1875 68.4531 191.7188 68.4531 Q193.1406 68.4531 193.8438 69.1875 Q194.5469 69.9219 194.5469 71.4219 ZM201.0781 71.8125 Q201.0781 70.6406 200.5938 70 Q200.1094 69.3594 199.2344 69.3594 Q198.375 69.3594 197.8906 70 Q197.4062 70.6406 197.4062 71.8125 Q197.4062 72.9844 197.8906 73.625 Q198.375 74.2656 199.2344 74.2656 Q200.1094 74.2656 200.5938 73.625 Q201.0781 72.9844 201.0781 71.8125 ZM202.1562 74.3594 Q202.1562 76.0312 201.4141 76.8516 Q200.6719 77.6719 199.125 77.6719 Q198.5625 77.6719 198.0547 77.5859 Q197.5469 77.5 197.0781 77.3281 L197.0781 76.2812 Q197.5469 76.5312 198.0156 76.6562 Q198.4844 76.7812 198.9531 76.7812 Q200.0156 76.7812 200.5469 76.2266 Q201.0781 75.6719 201.0781 74.5469 L201.0781 74.0156 Q200.7344 74.5938 200.2188 74.8828 Q199.7031 75.1719 198.9688 75.1719 Q197.7656 75.1719 197.0234 74.25 Q196.2812 73.3281 196.2812 71.8125 Q196.2812 70.2969 197.0234 69.375 Q197.7656 68.4531 198.9688 68.4531 Q199.7031 68.4531 200.2188 68.7422 Q200.7344 69.0312 201.0781 69.6094 L201.0781 68.6094 L202.1562 68.6094 L202.1562 74.3594 ZM208.1875 69.6094 Q208 69.5156 207.7891 69.4609 Q207.5781 69.4062 207.3125 69.4062 Q206.4062 69.4062 205.9141 70 Q205.4219 70.5938 205.4219 71.7188 L205.4219 75.1719 L204.3438 75.1719 L204.3438 68.6094 L205.4219 68.6094 L205.4219 69.625 Q205.7656 69.0312 206.3125 68.7422 Q206.8594 68.4531 207.6406 68.4531 Q207.75 68.4531 207.8828 68.4688 Q208.0156 68.4844 208.1719 68.5156 L208.1875 69.6094 ZM212.2812 71.875 Q210.9844 71.875 210.4766 72.1719 Q209.9688 72.4688 209.9688 73.1875 Q209.9688 73.7656 210.3516 74.1016 Q210.7344 74.4375 211.375 74.4375 Q212.2812 74.4375 212.8203 73.8047 Q213.3594 73.1719 213.3594 72.1094 L213.3594 71.875 L212.2812 71.875 ZM214.4375 71.4219 L214.4375 75.1719 L213.3594 75.1719 L213.3594 74.1719 Q212.9844 74.7656 212.4375 75.0547 Q211.8906 75.3438 211.0938 75.3438 Q210.0781 75.3438 209.4844 74.7734 Q208.8906 74.2031 208.8906 73.2656 Q208.8906 72.1562 209.6328 71.5938 Q210.375 71.0312 211.8438 71.0312 L213.3594 71.0312 L213.3594 70.9219 Q213.3594 70.1719 212.8672 69.7656 Q212.375 69.3594 211.5 69.3594 Q210.9375 69.3594 210.3984 69.5 Q209.8594 69.6406 209.375 69.9062 L209.375 68.9062 Q209.9688 68.6719 210.5234 68.5625 Q211.0781 68.4531 211.6094 68.4531 Q213.0312 68.4531 213.7344 69.1875 Q214.4375 69.9219 214.4375 71.4219 ZM221.7656 69.875 Q222.1719 69.1406 222.7344 68.7969 Q223.2969 68.4531 224.0625 68.4531 Q225.0938 68.4531 225.6484 69.1719 Q226.2031 69.8906 226.2031 71.2031 L226.2031 75.1719 L225.125 75.1719 L225.125 71.25 Q225.125 70.2969 224.7891 69.8438 Q224.4531 69.3906 223.7656 69.3906 Q222.9219 69.3906 222.4375 69.9453 Q221.9531 70.5 221.9531 71.4688 L221.9531 75.1719 L220.875 75.1719 L220.875 71.25 Q220.875 70.2969 220.5391 69.8438 Q220.2031 69.3906 219.5 69.3906 Q218.6719 69.3906 218.1875 69.9453 Q217.7031 70.5 217.7031 71.4688 L217.7031 75.1719 L216.625 75.1719 L216.625 68.6094 L217.7031 68.6094 L217.7031 69.625 Q218.0781 69.0312 218.5938 68.7422 Q219.1094 68.4531 219.8125 68.4531 Q220.5312 68.4531 221.0312 68.8125 Q221.5312 69.1719 221.7656 69.875 ZM233.4531 69.875 Q233.8594 69.1406 234.4219 68.7969 Q234.9844 68.4531 235.75 68.4531 Q236.7812 68.4531 237.3359 69.1719 Q237.8906 69.8906 237.8906 71.2031 L237.8906 75.1719 L236.8125 75.1719 L236.8125 71.25 Q236.8125 70.2969 236.4766 69.8438 Q236.1406 69.3906 235.4531 69.3906 Q234.6094 69.3906 234.125 69.9453 Q233.6406 70.5 233.6406 71.4688 L233.6406 75.1719 L232.5625 75.1719 L232.5625 71.25 Q232.5625 70.2969 232.2266 69.8438 Q231.8906 69.3906 231.1875 69.3906 Q230.3594 69.3906 229.875 69.9453 Q229.3906 70.5 229.3906 71.4688 L229.3906 75.1719 L228.3125 75.1719 L228.3125 68.6094 L229.3906 68.6094 L229.3906 69.625 Q229.7656 69.0312 230.2812 68.7422 Q230.7969 68.4531 231.5 68.4531 Q232.2188 68.4531 232.7188 68.8125 Q233.2188 69.1719 233.4531 69.875 ZM240.0312 68.6094 L241.1094 68.6094 L241.1094 75.1719 L240.0312 75.1719 L240.0312 68.6094 ZM240.0312 66.0469 L241.1094 66.0469 L241.1094 67.4219 L240.0312 67.4219 L240.0312 66.0469 Z" clip-path="url(#clipPath5)" stroke="none"/>
    </g>
    <g fill="rgb(232,238,247)" stroke-miterlimit="1.45" transform="matrix(1.7058,0,0,1.7058,-25.5864,376.9723)" stroke-linecap="butt" stroke="rgb(232,238,247)">
      <path d="M45.5092 45.0322 L91.5592 45.0322 L81.3592 85.0322 L35.3092 85.0322 Z" clip-path="url(#clipPath2)" stroke="none"/>
      <path fill="none" d="M45.5092 45.0322 L91.5592 45.0322 L81.3592 85.0322 L35.3092 85.0322 Z" clip-path="url(#clipPath2)" stroke="black"/>
    </g>
    <g transform="matrix(1.7058,0,0,1.7058,-25.5864,376.9723)">
      <path d="M46.8906 59.4375 L54.2812 59.4375 L54.2812 60.4375 L51.1875 60.4375 L51.1875 68.1875 L50 68.1875 L50 60.4375 L46.8906 60.4375 L46.8906 59.4375 ZM61 64.6406 L61 65.1562 L56.0312 65.1562 Q56.1094 66.2812 56.7109 66.8594 Q57.3125 67.4375 58.375 67.4375 Q59 67.4375 59.5859 67.2891 Q60.1719 67.1406 60.75 66.8281 L60.75 67.8594 Q60.1562 68.0938 59.5469 68.2266 Q58.9375 68.3594 58.3125 68.3594 Q56.75 68.3594 55.8281 67.4453 Q54.9062 66.5312 54.9062 64.9688 Q54.9062 63.3594 55.7812 62.4141 Q56.6562 61.4688 58.125 61.4688 Q59.4531 61.4688 60.2266 62.3203 Q61 63.1719 61 64.6406 ZM59.9219 64.3125 Q59.9062 63.4375 59.4219 62.9062 Q58.9375 62.375 58.1406 62.375 Q57.2344 62.375 56.6953 62.8906 Q56.1562 63.4062 56.0781 64.3281 L59.9219 64.3125 ZM66.9531 61.8125 L66.9531 62.8438 Q66.5 62.6094 66.0078 62.4922 Q65.5156 62.375 64.9844 62.375 Q64.1875 62.375 63.7812 62.6172 Q63.375 62.8594 63.375 63.3594 Q63.375 63.7344 63.6641 63.9453 Q63.9531 64.1562 64.8281 64.3438 L65.1875 64.4375 Q66.3438 64.6719 66.8281 65.125 Q67.3125 65.5781 67.3125 66.375 Q67.3125 67.2969 66.5859 67.8281 Q65.8594 68.3594 64.5938 68.3594 Q64.0625 68.3594 63.4922 68.2578 Q62.9219 68.1562 62.2969 67.9531 L62.2969 66.8281 Q62.8906 67.1406 63.4688 67.2969 Q64.0469 67.4531 64.625 67.4531 Q65.375 67.4531 65.7891 67.1953 Q66.2031 66.9375 66.2031 66.4531 Q66.2031 66.0156 65.9062 65.7812 Q65.6094 65.5469 64.6094 65.3281 L64.2344 65.25 Q63.2344 65.0312 62.7891 64.5938 Q62.3438 64.1562 62.3438 63.4062 Q62.3438 62.4688 63 61.9688 Q63.6562 61.4688 64.8594 61.4688 Q65.4531 61.4688 65.9844 61.5547 Q66.5156 61.6406 66.9531 61.8125 ZM70.0938 59.7656 L70.0938 61.625 L72.3125 61.625 L72.3125 62.4688 L70.0938 62.4688 L70.0938 66.0312 Q70.0938 66.8281 70.3125 67.0547 Q70.5312 67.2812 71.2031 67.2812 L72.3125 67.2812 L72.3125 68.1875 L71.2031 68.1875 Q69.9531 68.1875 69.4766 67.7188 Q69 67.25 69 66.0312 L69 62.4688 L68.2188 62.4688 L68.2188 61.625 L69 61.625 L69 59.7656 L70.0938 59.7656 ZM76.2656 62.375 Q75.4062 62.375 74.8984 63.0547 Q74.3906 63.7344 74.3906 64.9062 Q74.3906 66.0938 74.8906 66.7656 Q75.3906 67.4375 76.2656 67.4375 Q77.125 67.4375 77.6328 66.7578 Q78.1406 66.0781 78.1406 64.9062 Q78.1406 63.75 77.6328 63.0625 Q77.125 62.375 76.2656 62.375 ZM76.2656 61.4688 Q77.6719 61.4688 78.4766 62.3828 Q79.2812 63.2969 79.2812 64.9062 Q79.2812 66.5156 78.4766 67.4375 Q77.6719 68.3594 76.2656 68.3594 Q74.8594 68.3594 74.0547 67.4375 Q73.25 66.5156 73.25 64.9062 Q73.25 63.2969 74.0547 62.3828 Q74.8594 61.4688 76.2656 61.4688 Z" clip-path="url(#clipPath6)" stroke="none"/>
    </g>
    <g fill="rgb(232,238,247)" stroke-miterlimit="1.45" transform="matrix(1.7058,0,0,1.7058,-25.5864,376.9723)" stroke-linecap="butt" stroke="rgb(232,238,247)">
      <path d="M191.9981 -74.9678 L271.9981 -74.9678 L271.9981 -34.9678 L191.9981 -34.9678 Z" clip-path="url(#clipPath2)" stroke="none"/>
      <path fill="none" d="M191.9981 -74.9678 L271.9981 -74.9678 L271.9981 -34.9678 L191.9981 -34.9678 Z" clip-path="url(#clipPath2)" stroke="black"/>
    </g>
    <g transform="matrix(1.7058,0,0,1.7058,-25.5864,376.9723)">
      <path d="M203.7969 -59.5781 L203.7969 -52.7656 L205.2344 -52.7656 Q207.0469 -52.7656 207.8828 -53.5859 Q208.7188 -54.4062 208.7188 -56.1875 Q208.7188 -57.9375 207.8828 -58.7578 Q207.0469 -59.5781 205.2344 -59.5781 L203.7969 -59.5781 ZM202.6094 -60.5469 L205.0469 -60.5469 Q207.5938 -60.5469 208.7812 -59.4922 Q209.9688 -58.4375 209.9688 -56.1875 Q209.9688 -53.9219 208.7734 -52.8594 Q207.5781 -51.7969 205.0469 -51.7969 L202.6094 -51.7969 L202.6094 -60.5469 ZM211.8125 -58.3594 L212.8906 -58.3594 L212.8906 -51.7969 L211.8125 -51.7969 L211.8125 -58.3594 ZM211.8125 -60.9219 L212.8906 -60.9219 L212.8906 -59.5469 L211.8125 -59.5469 L211.8125 -60.9219 ZM219.3281 -58.1719 L219.3281 -57.1406 Q218.875 -57.375 218.3828 -57.4922 Q217.8906 -57.6094 217.3594 -57.6094 Q216.5625 -57.6094 216.1562 -57.3672 Q215.75 -57.125 215.75 -56.625 Q215.75 -56.25 216.0391 -56.0391 Q216.3281 -55.8281 217.2031 -55.6406 L217.5625 -55.5469 Q218.7188 -55.3125 219.2031 -54.8594 Q219.6875 -54.4062 219.6875 -53.6094 Q219.6875 -52.6875 218.9609 -52.1562 Q218.2344 -51.625 216.9688 -51.625 Q216.4375 -51.625 215.8672 -51.7266 Q215.2969 -51.8281 214.6719 -52.0312 L214.6719 -53.1562 Q215.2656 -52.8438 215.8438 -52.6875 Q216.4219 -52.5312 217 -52.5312 Q217.75 -52.5312 218.1641 -52.7891 Q218.5781 -53.0469 218.5781 -53.5312 Q218.5781 -53.9688 218.2812 -54.2031 Q217.9844 -54.4375 216.9844 -54.6562 L216.6094 -54.7344 Q215.6094 -54.9531 215.1641 -55.3906 Q214.7188 -55.8281 214.7188 -56.5781 Q214.7188 -57.5156 215.375 -58.0156 Q216.0312 -58.5156 217.2344 -58.5156 Q217.8281 -58.5156 218.3594 -58.4297 Q218.8906 -58.3438 219.3281 -58.1719 ZM227.0156 -55.3438 L227.0156 -54.8281 L222.0469 -54.8281 Q222.125 -53.7031 222.7266 -53.125 Q223.3281 -52.5469 224.3906 -52.5469 Q225.0156 -52.5469 225.6016 -52.6953 Q226.1875 -52.8438 226.7656 -53.1562 L226.7656 -52.125 Q226.1719 -51.8906 225.5625 -51.7578 Q224.9531 -51.625 224.3281 -51.625 Q222.7656 -51.625 221.8438 -52.5391 Q220.9219 -53.4531 220.9219 -55.0156 Q220.9219 -56.625 221.7969 -57.5703 Q222.6719 -58.5156 224.1406 -58.5156 Q225.4688 -58.5156 226.2422 -57.6641 Q227.0156 -56.8125 227.0156 -55.3438 ZM225.9375 -55.6719 Q225.9219 -56.5469 225.4375 -57.0781 Q224.9531 -57.6094 224.1562 -57.6094 Q223.25 -57.6094 222.7109 -57.0938 Q222.1719 -56.5781 222.0938 -55.6562 L225.9375 -55.6719 ZM233.1094 -55.1562 Q233.1094 -56.3281 232.625 -56.9688 Q232.1406 -57.6094 231.2656 -57.6094 Q230.4062 -57.6094 229.9219 -56.9688 Q229.4375 -56.3281 229.4375 -55.1562 Q229.4375 -53.9844 229.9219 -53.3438 Q230.4062 -52.7031 231.2656 -52.7031 Q232.1406 -52.7031 232.625 -53.3438 Q233.1094 -53.9844 233.1094 -55.1562 ZM234.1875 -52.6094 Q234.1875 -50.9375 233.4453 -50.1172 Q232.7031 -49.2969 231.1562 -49.2969 Q230.5938 -49.2969 230.0859 -49.3828 Q229.5781 -49.4688 229.1094 -49.6406 L229.1094 -50.6875 Q229.5781 -50.4375 230.0469 -50.3125 Q230.5156 -50.1875 230.9844 -50.1875 Q232.0469 -50.1875 232.5781 -50.7422 Q233.1094 -51.2969 233.1094 -52.4219 L233.1094 -52.9531 Q232.7656 -52.375 232.25 -52.0859 Q231.7344 -51.7969 231 -51.7969 Q229.7969 -51.7969 229.0547 -52.7188 Q228.3125 -53.6406 228.3125 -55.1562 Q228.3125 -56.6719 229.0547 -57.5938 Q229.7969 -58.5156 231 -58.5156 Q231.7344 -58.5156 232.25 -58.2266 Q232.7656 -57.9375 233.1094 -57.3594 L233.1094 -58.3594 L234.1875 -58.3594 L234.1875 -52.6094 ZM241.8594 -55.7656 L241.8594 -51.7969 L240.7812 -51.7969 L240.7812 -55.7188 Q240.7812 -56.6562 240.4141 -57.1172 Q240.0469 -57.5781 239.3281 -57.5781 Q238.4531 -57.5781 237.9453 -57.0234 Q237.4375 -56.4688 237.4375 -55.5 L237.4375 -51.7969 L236.3594 -51.7969 L236.3594 -58.3594 L237.4375 -58.3594 L237.4375 -57.3438 Q237.8281 -57.9375 238.3516 -58.2266 Q238.875 -58.5156 239.5625 -58.5156 Q240.6875 -58.5156 241.2734 -57.8203 Q241.8594 -57.125 241.8594 -55.7656 ZM246.9844 -55.0938 Q245.6875 -55.0938 245.1797 -54.7969 Q244.6719 -54.5 244.6719 -53.7812 Q244.6719 -53.2031 245.0547 -52.8672 Q245.4375 -52.5312 246.0781 -52.5312 Q246.9844 -52.5312 247.5234 -53.1641 Q248.0625 -53.7969 248.0625 -54.8594 L248.0625 -55.0938 L246.9844 -55.0938 ZM249.1406 -55.5469 L249.1406 -51.7969 L248.0625 -51.7969 L248.0625 -52.7969 Q247.6875 -52.2031 247.1406 -51.9141 Q246.5938 -51.625 245.7969 -51.625 Q244.7812 -51.625 244.1875 -52.1953 Q243.5938 -52.7656 243.5938 -53.7031 Q243.5938 -54.8125 244.3359 -55.375 Q245.0781 -55.9375 246.5469 -55.9375 L248.0625 -55.9375 L248.0625 -56.0469 Q248.0625 -56.7969 247.5703 -57.2031 Q247.0781 -57.6094 246.2031 -57.6094 Q245.6406 -57.6094 245.1016 -57.4688 Q244.5625 -57.3281 244.0781 -57.0625 L244.0781 -58.0625 Q244.6719 -58.2969 245.2266 -58.4062 Q245.7812 -58.5156 246.3125 -58.5156 Q247.7344 -58.5156 248.4375 -57.7812 Q249.1406 -57.0469 249.1406 -55.5469 ZM255.1562 -57.3594 Q254.9688 -57.4531 254.7578 -57.5078 Q254.5469 -57.5625 254.2812 -57.5625 Q253.375 -57.5625 252.8828 -56.9688 Q252.3906 -56.375 252.3906 -55.25 L252.3906 -51.7969 L251.3125 -51.7969 L251.3125 -58.3594 L252.3906 -58.3594 L252.3906 -57.3438 Q252.7344 -57.9375 253.2812 -58.2266 Q253.8281 -58.5156 254.6094 -58.5156 Q254.7188 -58.5156 254.8516 -58.5 Q254.9844 -58.4844 255.1406 -58.4531 L255.1562 -57.3594 ZM261.9062 -55.3438 L261.9062 -54.8281 L256.9375 -54.8281 Q257.0156 -53.7031 257.6172 -53.125 Q258.2188 -52.5469 259.2812 -52.5469 Q259.9062 -52.5469 260.4922 -52.6953 Q261.0781 -52.8438 261.6562 -53.1562 L261.6562 -52.125 Q261.0625 -51.8906 260.4531 -51.7578 Q259.8438 -51.625 259.2188 -51.625 Q257.6562 -51.625 256.7344 -52.5391 Q255.8125 -53.4531 255.8125 -55.0156 Q255.8125 -56.625 256.6875 -57.5703 Q257.5625 -58.5156 259.0312 -58.5156 Q260.3594 -58.5156 261.1328 -57.6641 Q261.9062 -56.8125 261.9062 -55.3438 ZM260.8281 -55.6719 Q260.8125 -56.5469 260.3281 -57.0781 Q259.8438 -57.6094 259.0469 -57.6094 Q258.1406 -57.6094 257.6016 -57.0938 Q257.0625 -56.5781 256.9844 -55.6562 L260.8281 -55.6719 Z" clip-path="url(#clipPath7)" stroke="none"/>
    </g>
    <g fill="rgb(232,238,247)" stroke-miterlimit="1.45" transform="matrix(1.7058,0,0,1.7058,-25.5864,376.9723)" stroke-linecap="butt" stroke="rgb(232,238,247)">
      <path d="M305.7247 45.0322 L375.5247 45.0322 L365.3247 85.0322 L295.5247 85.0322 Z" clip-path="url(#clipPath2)" stroke="none"/>
      <path fill="none" d="M305.7247 45.0322 L375.5247 45.0322 L365.3247 85.0322 L295.5247 85.0322 Z" clip-path="url(#clipPath2)" stroke="black"/>
    </g>
    <g transform="matrix(1.7058,0,0,1.7058,-25.5864,376.9723)">
      <path d="M308.6094 52.4531 L309.7969 52.4531 L309.7969 61.2031 L308.6094 61.2031 L308.6094 52.4531 ZM317.2031 55.9062 Q317.6094 55.1719 318.1719 54.8281 Q318.7344 54.4844 319.5 54.4844 Q320.5312 54.4844 321.0859 55.2031 Q321.6406 55.9219 321.6406 57.2344 L321.6406 61.2031 L320.5625 61.2031 L320.5625 57.2812 Q320.5625 56.3281 320.2266 55.875 Q319.8906 55.4219 319.2031 55.4219 Q318.3594 55.4219 317.875 55.9766 Q317.3906 56.5312 317.3906 57.5 L317.3906 61.2031 L316.3125 61.2031 L316.3125 57.2812 Q316.3125 56.3281 315.9766 55.875 Q315.6406 55.4219 314.9375 55.4219 Q314.1094 55.4219 313.625 55.9766 Q313.1406 56.5312 313.1406 57.5 L313.1406 61.2031 L312.0625 61.2031 L312.0625 54.6406 L313.1406 54.6406 L313.1406 55.6562 Q313.5156 55.0625 314.0312 54.7734 Q314.5469 54.4844 315.25 54.4844 Q315.9688 54.4844 316.4688 54.8438 Q316.9688 55.2031 317.2031 55.9062 ZM328.9062 55.9062 Q329.3125 55.1719 329.875 54.8281 Q330.4375 54.4844 331.2031 54.4844 Q332.2344 54.4844 332.7891 55.2031 Q333.3438 55.9219 333.3438 57.2344 L333.3438 61.2031 L332.2656 61.2031 L332.2656 57.2812 Q332.2656 56.3281 331.9297 55.875 Q331.5938 55.4219 330.9062 55.4219 Q330.0625 55.4219 329.5781 55.9766 Q329.0938 56.5312 329.0938 57.5 L329.0938 61.2031 L328.0156 61.2031 L328.0156 57.2812 Q328.0156 56.3281 327.6797 55.875 Q327.3438 55.4219 326.6406 55.4219 Q325.8125 55.4219 325.3281 55.9766 Q324.8438 56.5312 324.8438 57.5 L324.8438 61.2031 L323.7656 61.2031 L323.7656 54.6406 L324.8438 54.6406 L324.8438 55.6562 Q325.2188 55.0625 325.7344 54.7734 Q326.25 54.4844 326.9531 54.4844 Q327.6719 54.4844 328.1719 54.8438 Q328.6719 55.2031 328.9062 55.9062 ZM338.4688 57.9062 Q337.1719 57.9062 336.6641 58.2031 Q336.1562 58.5 336.1562 59.2188 Q336.1562 59.7969 336.5391 60.1328 Q336.9219 60.4688 337.5625 60.4688 Q338.4688 60.4688 339.0078 59.8359 Q339.5469 59.2031 339.5469 58.1406 L339.5469 57.9062 L338.4688 57.9062 ZM340.625 57.4531 L340.625 61.2031 L339.5469 61.2031 L339.5469 60.2031 Q339.1719 60.7969 338.625 61.0859 Q338.0781 61.375 337.2812 61.375 Q336.2656 61.375 335.6719 60.8047 Q335.0781 60.2344 335.0781 59.2969 Q335.0781 58.1875 335.8203 57.625 Q336.5625 57.0625 338.0312 57.0625 L339.5469 57.0625 L339.5469 56.9531 Q339.5469 56.2031 339.0547 55.7969 Q338.5625 55.3906 337.6875 55.3906 Q337.125 55.3906 336.5859 55.5312 Q336.0469 55.6719 335.5625 55.9375 L335.5625 54.9375 Q336.1562 54.7031 336.7109 54.5938 Q337.2656 54.4844 337.7969 54.4844 Q339.2188 54.4844 339.9219 55.2188 Q340.625 55.9531 340.625 57.4531 ZM347.1562 57.8438 Q347.1562 56.6719 346.6719 56.0312 Q346.1875 55.3906 345.3125 55.3906 Q344.4531 55.3906 343.9688 56.0312 Q343.4844 56.6719 343.4844 57.8438 Q343.4844 59.0156 343.9688 59.6562 Q344.4531 60.2969 345.3125 60.2969 Q346.1875 60.2969 346.6719 59.6562 Q347.1562 59.0156 347.1562 57.8438 ZM348.2344 60.3906 Q348.2344 62.0625 347.4922 62.8828 Q346.75 63.7031 345.2031 63.7031 Q344.6406 63.7031 344.1328 63.6172 Q343.625 63.5312 343.1562 63.3594 L343.1562 62.3125 Q343.625 62.5625 344.0938 62.6875 Q344.5625 62.8125 345.0312 62.8125 Q346.0938 62.8125 346.625 62.2578 Q347.1562 61.7031 347.1562 60.5781 L347.1562 60.0469 Q346.8125 60.625 346.2969 60.9141 Q345.7812 61.2031 345.0469 61.2031 Q343.8438 61.2031 343.1016 60.2812 Q342.3594 59.3594 342.3594 57.8438 Q342.3594 56.3281 343.1016 55.4062 Q343.8438 54.4844 345.0469 54.4844 Q345.7812 54.4844 346.2969 54.7734 Q346.8125 55.0625 347.1562 55.6406 L347.1562 54.6406 L348.2344 54.6406 L348.2344 60.3906 ZM350.4531 54.6406 L351.5312 54.6406 L351.5312 61.2031 L350.4531 61.2031 L350.4531 54.6406 ZM350.4531 52.0781 L351.5312 52.0781 L351.5312 53.4531 L350.4531 53.4531 L350.4531 52.0781 ZM359.25 57.2344 L359.25 61.2031 L358.1719 61.2031 L358.1719 57.2812 Q358.1719 56.3438 357.8047 55.8828 Q357.4375 55.4219 356.7188 55.4219 Q355.8438 55.4219 355.3359 55.9766 Q354.8281 56.5312 354.8281 57.5 L354.8281 61.2031 L353.75 61.2031 L353.75 54.6406 L354.8281 54.6406 L354.8281 55.6562 Q355.2188 55.0625 355.7422 54.7734 Q356.2656 54.4844 356.9531 54.4844 Q358.0781 54.4844 358.6641 55.1797 Q359.25 55.875 359.25 57.2344 ZM361.3906 54.6406 L362.4688 54.6406 L362.4688 61.2031 L361.3906 61.2031 L361.3906 54.6406 ZM361.3906 52.0781 L362.4688 52.0781 L362.4688 53.4531 L361.3906 53.4531 L361.3906 52.0781 Z" clip-path="url(#clipPath8)" stroke="none"/>
      <path d="M309.1094 68.6094 L310.25 68.6094 L312.2969 74.1094 L314.3594 68.6094 L315.5 68.6094 L313.0312 75.1719 L311.5625 75.1719 L309.1094 68.6094 ZM322.6094 71.625 L322.6094 72.1406 L317.6406 72.1406 Q317.7188 73.2656 318.3203 73.8438 Q318.9219 74.4219 319.9844 74.4219 Q320.6094 74.4219 321.1953 74.2734 Q321.7812 74.125 322.3594 73.8125 L322.3594 74.8438 Q321.7656 75.0781 321.1562 75.2109 Q320.5469 75.3438 319.9219 75.3438 Q318.3594 75.3438 317.4375 74.4297 Q316.5156 73.5156 316.5156 71.9531 Q316.5156 70.3438 317.3906 69.3984 Q318.2656 68.4531 319.7344 68.4531 Q321.0625 68.4531 321.8359 69.3047 Q322.6094 70.1562 322.6094 71.625 ZM321.5312 71.2969 Q321.5156 70.4219 321.0312 69.8906 Q320.5469 69.3594 319.75 69.3594 Q318.8438 69.3594 318.3047 69.875 Q317.7656 70.3906 317.6875 71.3125 L321.5312 71.2969 ZM325.4375 66.75 L325.4375 68.6094 L327.6562 68.6094 L327.6562 69.4531 L325.4375 69.4531 L325.4375 73.0156 Q325.4375 73.8125 325.6562 74.0391 Q325.875 74.2656 326.5469 74.2656 L327.6562 74.2656 L327.6562 75.1719 L326.5469 75.1719 Q325.2969 75.1719 324.8203 74.7031 Q324.3438 74.2344 324.3438 73.0156 L324.3438 69.4531 L323.5625 69.4531 L323.5625 68.6094 L324.3438 68.6094 L324.3438 66.75 L325.4375 66.75 ZM330.1406 66.75 L330.1406 68.6094 L332.3594 68.6094 L332.3594 69.4531 L330.1406 69.4531 L330.1406 73.0156 Q330.1406 73.8125 330.3594 74.0391 Q330.5781 74.2656 331.25 74.2656 L332.3594 74.2656 L332.3594 75.1719 L331.25 75.1719 Q330 75.1719 329.5234 74.7031 Q329.0469 74.2344 329.0469 73.0156 L329.0469 69.4531 L328.2656 69.4531 L328.2656 68.6094 L329.0469 68.6094 L329.0469 66.75 L330.1406 66.75 ZM336.3281 69.3594 Q335.4688 69.3594 334.9609 70.0391 Q334.4531 70.7188 334.4531 71.8906 Q334.4531 73.0781 334.9531 73.75 Q335.4531 74.4219 336.3281 74.4219 Q337.1875 74.4219 337.6953 73.7422 Q338.2031 73.0625 338.2031 71.8906 Q338.2031 70.7344 337.6953 70.0469 Q337.1875 69.3594 336.3281 69.3594 ZM336.3281 68.4531 Q337.7344 68.4531 338.5391 69.3672 Q339.3438 70.2812 339.3438 71.8906 Q339.3438 73.5 338.5391 74.4219 Q337.7344 75.3438 336.3281 75.3438 Q334.9219 75.3438 334.1172 74.4219 Q333.3125 73.5 333.3125 71.8906 Q333.3125 70.2812 334.1172 69.3672 Q334.9219 68.4531 336.3281 68.4531 ZM344.9219 69.6094 Q344.7344 69.5156 344.5234 69.4609 Q344.3125 69.4062 344.0469 69.4062 Q343.1406 69.4062 342.6484 70 Q342.1562 70.5938 342.1562 71.7188 L342.1562 75.1719 L341.0781 75.1719 L341.0781 68.6094 L342.1562 68.6094 L342.1562 69.625 Q342.5 69.0312 343.0469 68.7422 Q343.5938 68.4531 344.375 68.4531 Q344.4844 68.4531 344.6172 68.4688 Q344.75 68.4844 344.9062 68.5156 L344.9219 69.6094 ZM346.0469 68.6094 L347.125 68.6094 L347.125 75.1719 L346.0469 75.1719 L346.0469 68.6094 ZM346.0469 66.0469 L347.125 66.0469 L347.125 67.4219 L346.0469 67.4219 L346.0469 66.0469 ZM352.375 71.875 Q351.0781 71.875 350.5703 72.1719 Q350.0625 72.4688 350.0625 73.1875 Q350.0625 73.7656 350.4453 74.1016 Q350.8281 74.4375 351.4688 74.4375 Q352.375 74.4375 352.9141 73.8047 Q353.4531 73.1719 353.4531 72.1094 L353.4531 71.875 L352.375 71.875 ZM354.5312 71.4219 L354.5312 75.1719 L353.4531 75.1719 L353.4531 74.1719 Q353.0781 74.7656 352.5312 75.0547 Q351.9844 75.3438 351.1875 75.3438 Q350.1719 75.3438 349.5781 74.7734 Q348.9844 74.2031 348.9844 73.2656 Q348.9844 72.1562 349.7266 71.5938 Q350.4688 71.0312 351.9375 71.0312 L353.4531 71.0312 L353.4531 70.9219 Q353.4531 70.1719 352.9609 69.7656 Q352.4688 69.3594 351.5938 69.3594 Q351.0312 69.3594 350.4922 69.5 Q349.9531 69.6406 349.4688 69.9062 L349.4688 68.9062 Q350.0625 68.6719 350.6172 68.5625 Q351.1719 68.4531 351.7031 68.4531 Q353.125 68.4531 353.8281 69.1875 Q354.5312 69.9219 354.5312 71.4219 ZM356.7344 66.0469 L357.8125 66.0469 L357.8125 75.1719 L356.7344 75.1719 L356.7344 66.0469 ZM360.0781 68.6094 L361.1562 68.6094 L361.1562 75.1719 L360.0781 75.1719 L360.0781 68.6094 ZM360.0781 66.0469 L361.1562 66.0469 L361.1562 67.4219 L360.0781 67.4219 L360.0781 66.0469 Z" clip-path="url(#clipPath8)" stroke="none"/>
    </g>
    <g fill="rgb(232,238,247)" stroke-miterlimit="1.45" transform="matrix(1.7058,0,0,1.7058,-25.5864,376.9723)" stroke-linecap="butt" stroke="rgb(232,238,247)">
      <path d="M393.2247 45.0322 L463.0247 45.0322 L452.8247 85.0322 L383.0247 85.0322 Z" clip-path="url(#clipPath2)" stroke="none"/>
      <path fill="none" d="M393.2247 45.0322 L463.0247 45.0322 L452.8247 85.0322 L383.0247 85.0322 Z" clip-path="url(#clipPath2)" stroke="black"/>
    </g>
    <g transform="matrix(1.7058,0,0,1.7058,-25.5864,376.9723)">
      <path d="M396.1094 52.4531 L397.2969 52.4531 L397.2969 61.2031 L396.1094 61.2031 L396.1094 52.4531 ZM404.7031 55.9062 Q405.1094 55.1719 405.6719 54.8281 Q406.2344 54.4844 407 54.4844 Q408.0312 54.4844 408.5859 55.2031 Q409.1406 55.9219 409.1406 57.2344 L409.1406 61.2031 L408.0625 61.2031 L408.0625 57.2812 Q408.0625 56.3281 407.7266 55.875 Q407.3906 55.4219 406.7031 55.4219 Q405.8594 55.4219 405.375 55.9766 Q404.8906 56.5312 404.8906 57.5 L404.8906 61.2031 L403.8125 61.2031 L403.8125 57.2812 Q403.8125 56.3281 403.4766 55.875 Q403.1406 55.4219 402.4375 55.4219 Q401.6094 55.4219 401.125 55.9766 Q400.6406 56.5312 400.6406 57.5 L400.6406 61.2031 L399.5625 61.2031 L399.5625 54.6406 L400.6406 54.6406 L400.6406 55.6562 Q401.0156 55.0625 401.5312 54.7734 Q402.0469 54.4844 402.75 54.4844 Q403.4688 54.4844 403.9688 54.8438 Q404.4688 55.2031 404.7031 55.9062 ZM416.4062 55.9062 Q416.8125 55.1719 417.375 54.8281 Q417.9375 54.4844 418.7031 54.4844 Q419.7344 54.4844 420.2891 55.2031 Q420.8438 55.9219 420.8438 57.2344 L420.8438 61.2031 L419.7656 61.2031 L419.7656 57.2812 Q419.7656 56.3281 419.4297 55.875 Q419.0938 55.4219 418.4062 55.4219 Q417.5625 55.4219 417.0781 55.9766 Q416.5938 56.5312 416.5938 57.5 L416.5938 61.2031 L415.5156 61.2031 L415.5156 57.2812 Q415.5156 56.3281 415.1797 55.875 Q414.8438 55.4219 414.1406 55.4219 Q413.3125 55.4219 412.8281 55.9766 Q412.3438 56.5312 412.3438 57.5 L412.3438 61.2031 L411.2656 61.2031 L411.2656 54.6406 L412.3438 54.6406 L412.3438 55.6562 Q412.7188 55.0625 413.2344 54.7734 Q413.75 54.4844 414.4531 54.4844 Q415.1719 54.4844 415.6719 54.8438 Q416.1719 55.2031 416.4062 55.9062 ZM425.9688 57.9062 Q424.6719 57.9062 424.1641 58.2031 Q423.6562 58.5 423.6562 59.2188 Q423.6562 59.7969 424.0391 60.1328 Q424.4219 60.4688 425.0625 60.4688 Q425.9688 60.4688 426.5078 59.8359 Q427.0469 59.2031 427.0469 58.1406 L427.0469 57.9062 L425.9688 57.9062 ZM428.125 57.4531 L428.125 61.2031 L427.0469 61.2031 L427.0469 60.2031 Q426.6719 60.7969 426.125 61.0859 Q425.5781 61.375 424.7812 61.375 Q423.7656 61.375 423.1719 60.8047 Q422.5781 60.2344 422.5781 59.2969 Q422.5781 58.1875 423.3203 57.625 Q424.0625 57.0625 425.5312 57.0625 L427.0469 57.0625 L427.0469 56.9531 Q427.0469 56.2031 426.5547 55.7969 Q426.0625 55.3906 425.1875 55.3906 Q424.625 55.3906 424.0859 55.5312 Q423.5469 55.6719 423.0625 55.9375 L423.0625 54.9375 Q423.6562 54.7031 424.2109 54.5938 Q424.7656 54.4844 425.2969 54.4844 Q426.7188 54.4844 427.4219 55.2188 Q428.125 55.9531 428.125 57.4531 ZM434.6562 57.8438 Q434.6562 56.6719 434.1719 56.0312 Q433.6875 55.3906 432.8125 55.3906 Q431.9531 55.3906 431.4688 56.0312 Q430.9844 56.6719 430.9844 57.8438 Q430.9844 59.0156 431.4688 59.6562 Q431.9531 60.2969 432.8125 60.2969 Q433.6875 60.2969 434.1719 59.6562 Q434.6562 59.0156 434.6562 57.8438 ZM435.7344 60.3906 Q435.7344 62.0625 434.9922 62.8828 Q434.25 63.7031 432.7031 63.7031 Q432.1406 63.7031 431.6328 63.6172 Q431.125 63.5312 430.6562 63.3594 L430.6562 62.3125 Q431.125 62.5625 431.5938 62.6875 Q432.0625 62.8125 432.5312 62.8125 Q433.5938 62.8125 434.125 62.2578 Q434.6562 61.7031 434.6562 60.5781 L434.6562 60.0469 Q434.3125 60.625 433.7969 60.9141 Q433.2812 61.2031 432.5469 61.2031 Q431.3438 61.2031 430.6016 60.2812 Q429.8594 59.3594 429.8594 57.8438 Q429.8594 56.3281 430.6016 55.4062 Q431.3438 54.4844 432.5469 54.4844 Q433.2812 54.4844 433.7969 54.7734 Q434.3125 55.0625 434.6562 55.6406 L434.6562 54.6406 L435.7344 54.6406 L435.7344 60.3906 ZM437.9531 54.6406 L439.0312 54.6406 L439.0312 61.2031 L437.9531 61.2031 L437.9531 54.6406 ZM437.9531 52.0781 L439.0312 52.0781 L439.0312 53.4531 L437.9531 53.4531 L437.9531 52.0781 ZM446.75 57.2344 L446.75 61.2031 L445.6719 61.2031 L445.6719 57.2812 Q445.6719 56.3438 445.3047 55.8828 Q444.9375 55.4219 444.2188 55.4219 Q443.3438 55.4219 442.8359 55.9766 Q442.3281 56.5312 442.3281 57.5 L442.3281 61.2031 L441.25 61.2031 L441.25 54.6406 L442.3281 54.6406 L442.3281 55.6562 Q442.7188 55.0625 443.2422 54.7734 Q443.7656 54.4844 444.4531 54.4844 Q445.5781 54.4844 446.1641 55.1797 Q446.75 55.875 446.75 57.2344 ZM448.8906 54.6406 L449.9688 54.6406 L449.9688 61.2031 L448.8906 61.2031 L448.8906 54.6406 ZM448.8906 52.0781 L449.9688 52.0781 L449.9688 53.4531 L448.8906 53.4531 L448.8906 52.0781 Z" clip-path="url(#clipPath9)" stroke="none"/>
      <path d="M410.1719 69.6094 Q409.9844 69.5156 409.7734 69.4609 Q409.5625 69.4062 409.2969 69.4062 Q408.3906 69.4062 407.8984 70 Q407.4062 70.5938 407.4062 71.7188 L407.4062 75.1719 L406.3281 75.1719 L406.3281 68.6094 L407.4062 68.6094 L407.4062 69.625 Q407.75 69.0312 408.2969 68.7422 Q408.8438 68.4531 409.625 68.4531 Q409.7344 68.4531 409.8672 68.4688 Q410 68.4844 410.1562 68.5156 L410.1719 69.6094 ZM414.2812 71.875 Q412.9844 71.875 412.4766 72.1719 Q411.9688 72.4688 411.9688 73.1875 Q411.9688 73.7656 412.3516 74.1016 Q412.7344 74.4375 413.375 74.4375 Q414.2812 74.4375 414.8203 73.8047 Q415.3594 73.1719 415.3594 72.1094 L415.3594 71.875 L414.2812 71.875 ZM416.4375 71.4219 L416.4375 75.1719 L415.3594 75.1719 L415.3594 74.1719 Q414.9844 74.7656 414.4375 75.0547 Q413.8906 75.3438 413.0938 75.3438 Q412.0781 75.3438 411.4844 74.7734 Q410.8906 74.2031 410.8906 73.2656 Q410.8906 72.1562 411.6328 71.5938 Q412.375 71.0312 413.8438 71.0312 L415.3594 71.0312 L415.3594 70.9219 Q415.3594 70.1719 414.8672 69.7656 Q414.375 69.3594 413.5 69.3594 Q412.9375 69.3594 412.3984 69.5 Q411.8594 69.6406 411.375 69.9062 L411.375 68.9062 Q411.9688 68.6719 412.5234 68.5625 Q413.0781 68.4531 413.6094 68.4531 Q415.0312 68.4531 415.7344 69.1875 Q416.4375 69.9219 416.4375 71.4219 ZM422.8438 68.7969 L422.8438 69.8281 Q422.3906 69.5938 421.8984 69.4766 Q421.4062 69.3594 420.875 69.3594 Q420.0781 69.3594 419.6719 69.6016 Q419.2656 69.8438 419.2656 70.3438 Q419.2656 70.7188 419.5547 70.9297 Q419.8438 71.1406 420.7188 71.3281 L421.0781 71.4219 Q422.2344 71.6562 422.7188 72.1094 Q423.2031 72.5625 423.2031 73.3594 Q423.2031 74.2812 422.4766 74.8125 Q421.75 75.3438 420.4844 75.3438 Q419.9531 75.3438 419.3828 75.2422 Q418.8125 75.1406 418.1875 74.9375 L418.1875 73.8125 Q418.7812 74.125 419.3594 74.2812 Q419.9375 74.4375 420.5156 74.4375 Q421.2656 74.4375 421.6797 74.1797 Q422.0938 73.9219 422.0938 73.4375 Q422.0938 73 421.7969 72.7656 Q421.5 72.5312 420.5 72.3125 L420.125 72.2344 Q419.125 72.0156 418.6797 71.5781 Q418.2344 71.1406 418.2344 70.3906 Q418.2344 69.4531 418.8906 68.9531 Q419.5469 68.4531 420.75 68.4531 Q421.3438 68.4531 421.875 68.5391 Q422.4062 68.625 422.8438 68.7969 ZM425.9844 66.75 L425.9844 68.6094 L428.2031 68.6094 L428.2031 69.4531 L425.9844 69.4531 L425.9844 73.0156 Q425.9844 73.8125 426.2031 74.0391 Q426.4219 74.2656 427.0938 74.2656 L428.2031 74.2656 L428.2031 75.1719 L427.0938 75.1719 Q425.8438 75.1719 425.3672 74.7031 Q424.8906 74.2344 424.8906 73.0156 L424.8906 69.4531 L424.1094 69.4531 L424.1094 68.6094 L424.8906 68.6094 L424.8906 66.75 L425.9844 66.75 ZM435.2344 71.625 L435.2344 72.1406 L430.2656 72.1406 Q430.3438 73.2656 430.9453 73.8438 Q431.5469 74.4219 432.6094 74.4219 Q433.2344 74.4219 433.8203 74.2734 Q434.4062 74.125 434.9844 73.8125 L434.9844 74.8438 Q434.3906 75.0781 433.7812 75.2109 Q433.1719 75.3438 432.5469 75.3438 Q430.9844 75.3438 430.0625 74.4297 Q429.1406 73.5156 429.1406 71.9531 Q429.1406 70.3438 430.0156 69.3984 Q430.8906 68.4531 432.3594 68.4531 Q433.6875 68.4531 434.4609 69.3047 Q435.2344 70.1562 435.2344 71.625 ZM434.1562 71.2969 Q434.1406 70.4219 433.6562 69.8906 Q433.1719 69.3594 432.375 69.3594 Q431.4688 69.3594 430.9297 69.875 Q430.3906 70.3906 430.3125 71.3125 L434.1562 71.2969 ZM440.7969 69.6094 Q440.6094 69.5156 440.3984 69.4609 Q440.1875 69.4062 439.9219 69.4062 Q439.0156 69.4062 438.5234 70 Q438.0312 70.5938 438.0312 71.7188 L438.0312 75.1719 L436.9531 75.1719 L436.9531 68.6094 L438.0312 68.6094 L438.0312 69.625 Q438.375 69.0312 438.9219 68.7422 Q439.4688 68.4531 440.25 68.4531 Q440.3594 68.4531 440.4922 68.4688 Q440.625 68.4844 440.7812 68.5156 L440.7969 69.6094 Z" clip-path="url(#clipPath9)" stroke="none"/>
    </g>
    <g fill="rgb(232,238,247)" stroke-miterlimit="1.45" transform="matrix(1.7058,0,0,1.7058,-25.5864,376.9723)" stroke-linecap="butt" stroke="rgb(232,238,247)">
      <path d="M249.4997 -171.1575 L319.2997 -171.1575 L309.0997 -131.1575 L239.2997 -131.1575 Z" clip-path="url(#clipPath2)" stroke="none"/>
      <path fill="none" d="M249.4997 -171.1575 L319.2997 -171.1575 L309.0997 -131.1575 L239.2997 -131.1575 Z" clip-path="url(#clipPath2)" stroke="black"/>
    </g>
    <g transform="matrix(1.7058,0,0,1.7058,-25.5864,376.9723)">
      <path d="M265.5156 -163.7344 L270.5469 -163.7344 L270.5469 -162.7344 L266.7031 -162.7344 L266.7031 -160.1562 L270.1719 -160.1562 L270.1719 -159.1562 L266.7031 -159.1562 L266.7031 -154.9844 L265.5156 -154.9844 L265.5156 -163.7344 ZM274.9219 -160.7969 Q274.0625 -160.7969 273.5547 -160.1172 Q273.0469 -159.4375 273.0469 -158.2656 Q273.0469 -157.0781 273.5469 -156.4062 Q274.0469 -155.7344 274.9219 -155.7344 Q275.7812 -155.7344 276.2891 -156.4141 Q276.7969 -157.0938 276.7969 -158.2656 Q276.7969 -159.4219 276.2891 -160.1094 Q275.7812 -160.7969 274.9219 -160.7969 ZM274.9219 -161.7031 Q276.3281 -161.7031 277.1328 -160.7891 Q277.9375 -159.875 277.9375 -158.2656 Q277.9375 -156.6562 277.1328 -155.7344 Q276.3281 -154.8125 274.9219 -154.8125 Q273.5156 -154.8125 272.7109 -155.7344 Q271.9062 -156.6562 271.9062 -158.2656 Q271.9062 -159.875 272.7109 -160.7891 Q273.5156 -161.7031 274.9219 -161.7031 ZM285.1875 -158.9531 L285.1875 -154.9844 L284.1094 -154.9844 L284.1094 -158.9062 Q284.1094 -159.8438 283.7422 -160.3047 Q283.375 -160.7656 282.6562 -160.7656 Q281.7812 -160.7656 281.2734 -160.2109 Q280.7656 -159.6562 280.7656 -158.6875 L280.7656 -154.9844 L279.6875 -154.9844 L279.6875 -161.5469 L280.7656 -161.5469 L280.7656 -160.5312 Q281.1562 -161.125 281.6797 -161.4141 Q282.2031 -161.7031 282.8906 -161.7031 Q284.0156 -161.7031 284.6016 -161.0078 Q285.1875 -160.3125 285.1875 -158.9531 ZM288.4062 -163.4062 L288.4062 -161.5469 L290.625 -161.5469 L290.625 -160.7031 L288.4062 -160.7031 L288.4062 -157.1406 Q288.4062 -156.3438 288.625 -156.1172 Q288.8438 -155.8906 289.5156 -155.8906 L290.625 -155.8906 L290.625 -154.9844 L289.5156 -154.9844 Q288.2656 -154.9844 287.7891 -155.4531 Q287.3125 -155.9219 287.3125 -157.1406 L287.3125 -160.7031 L286.5312 -160.7031 L286.5312 -161.5469 L287.3125 -161.5469 L287.3125 -163.4062 L288.4062 -163.4062 ZM292.0312 -161.5469 L293.1094 -161.5469 L293.1094 -154.9844 L292.0312 -154.9844 L292.0312 -161.5469 ZM292.0312 -164.1094 L293.1094 -164.1094 L293.1094 -162.7344 L292.0312 -162.7344 L292.0312 -164.1094 Z" clip-path="url(#clipPath10)" stroke="none"/>
      <path d="M263.2188 -144.5625 L263.2188 -144.0469 L258.25 -144.0469 Q258.3281 -142.9219 258.9297 -142.3438 Q259.5312 -141.7656 260.5938 -141.7656 Q261.2188 -141.7656 261.8047 -141.9141 Q262.3906 -142.0625 262.9688 -142.375 L262.9688 -141.3438 Q262.375 -141.1094 261.7656 -140.9766 Q261.1562 -140.8438 260.5312 -140.8438 Q258.9688 -140.8438 258.0469 -141.7578 Q257.125 -142.6719 257.125 -144.2344 Q257.125 -145.8438 258 -146.7891 Q258.875 -147.7344 260.3438 -147.7344 Q261.6719 -147.7344 262.4453 -146.8828 Q263.2188 -146.0312 263.2188 -144.5625 ZM262.1406 -144.8906 Q262.125 -145.7656 261.6406 -146.2969 Q261.1562 -146.8281 260.3594 -146.8281 Q259.4531 -146.8281 258.9141 -146.3125 Q258.375 -145.7969 258.2969 -144.875 L262.1406 -144.8906 ZM269.1719 -147.3906 L269.1719 -146.3594 Q268.7188 -146.5938 268.2266 -146.7109 Q267.7344 -146.8281 267.2031 -146.8281 Q266.4062 -146.8281 266 -146.5859 Q265.5938 -146.3438 265.5938 -145.8438 Q265.5938 -145.4688 265.8828 -145.2578 Q266.1719 -145.0469 267.0469 -144.8594 L267.4062 -144.7656 Q268.5625 -144.5312 269.0469 -144.0781 Q269.5312 -143.625 269.5312 -142.8281 Q269.5312 -141.9062 268.8047 -141.375 Q268.0781 -140.8438 266.8125 -140.8438 Q266.2812 -140.8438 265.7109 -140.9453 Q265.1406 -141.0469 264.5156 -141.25 L264.5156 -142.375 Q265.1094 -142.0625 265.6875 -141.9062 Q266.2656 -141.75 266.8438 -141.75 Q267.5938 -141.75 268.0078 -142.0078 Q268.4219 -142.2656 268.4219 -142.75 Q268.4219 -143.1875 268.125 -143.4219 Q267.8281 -143.6562 266.8281 -143.875 L266.4531 -143.9531 Q265.4531 -144.1719 265.0078 -144.6094 Q264.5625 -145.0469 264.5625 -145.7969 Q264.5625 -146.7344 265.2188 -147.2344 Q265.875 -147.7344 267.0781 -147.7344 Q267.6719 -147.7344 268.2031 -147.6484 Q268.7344 -147.5625 269.1719 -147.3906 ZM272.3125 -149.4375 L272.3125 -147.5781 L274.5312 -147.5781 L274.5312 -146.7344 L272.3125 -146.7344 L272.3125 -143.1719 Q272.3125 -142.375 272.5312 -142.1484 Q272.75 -141.9219 273.4219 -141.9219 L274.5312 -141.9219 L274.5312 -141.0156 L273.4219 -141.0156 Q272.1719 -141.0156 271.6953 -141.4844 Q271.2188 -141.9531 271.2188 -143.1719 L271.2188 -146.7344 L270.4375 -146.7344 L270.4375 -147.5781 L271.2188 -147.5781 L271.2188 -149.4375 L272.3125 -149.4375 ZM281.5625 -144.5625 L281.5625 -144.0469 L276.5938 -144.0469 Q276.6719 -142.9219 277.2734 -142.3438 Q277.875 -141.7656 278.9375 -141.7656 Q279.5625 -141.7656 280.1484 -141.9141 Q280.7344 -142.0625 281.3125 -142.375 L281.3125 -141.3438 Q280.7188 -141.1094 280.1094 -140.9766 Q279.5 -140.8438 278.875 -140.8438 Q277.3125 -140.8438 276.3906 -141.7578 Q275.4688 -142.6719 275.4688 -144.2344 Q275.4688 -145.8438 276.3438 -146.7891 Q277.2188 -147.7344 278.6875 -147.7344 Q280.0156 -147.7344 280.7891 -146.8828 Q281.5625 -146.0312 281.5625 -144.5625 ZM280.4844 -144.8906 Q280.4688 -145.7656 279.9844 -146.2969 Q279.5 -146.8281 278.7031 -146.8281 Q277.7969 -146.8281 277.2578 -146.3125 Q276.7188 -145.7969 276.6406 -144.875 L280.4844 -144.8906 ZM287.125 -146.5781 Q286.9375 -146.6719 286.7266 -146.7266 Q286.5156 -146.7812 286.25 -146.7812 Q285.3438 -146.7812 284.8516 -146.1875 Q284.3594 -145.5938 284.3594 -144.4688 L284.3594 -141.0156 L283.2812 -141.0156 L283.2812 -147.5781 L284.3594 -147.5781 L284.3594 -146.5625 Q284.7031 -147.1562 285.25 -147.4453 Q285.7969 -147.7344 286.5781 -147.7344 Q286.6875 -147.7344 286.8203 -147.7188 Q286.9531 -147.7031 287.1094 -147.6719 L287.125 -146.5781 ZM293.7188 -144.9844 L293.7188 -141.0156 L292.6406 -141.0156 L292.6406 -144.9375 Q292.6406 -145.875 292.2734 -146.3359 Q291.9062 -146.7969 291.1875 -146.7969 Q290.3125 -146.7969 289.8047 -146.2422 Q289.2969 -145.6875 289.2969 -144.7188 L289.2969 -141.0156 L288.2188 -141.0156 L288.2188 -147.5781 L289.2969 -147.5781 L289.2969 -146.5625 Q289.6875 -147.1562 290.2109 -147.4453 Q290.7344 -147.7344 291.4219 -147.7344 Q292.5469 -147.7344 293.1328 -147.0391 Q293.7188 -146.3438 293.7188 -144.9844 ZM301.4844 -144.5625 L301.4844 -144.0469 L296.5156 -144.0469 Q296.5938 -142.9219 297.1953 -142.3438 Q297.7969 -141.7656 298.8594 -141.7656 Q299.4844 -141.7656 300.0703 -141.9141 Q300.6562 -142.0625 301.2344 -142.375 L301.2344 -141.3438 Q300.6406 -141.1094 300.0312 -140.9766 Q299.4219 -140.8438 298.7969 -140.8438 Q297.2344 -140.8438 296.3125 -141.7578 Q295.3906 -142.6719 295.3906 -144.2344 Q295.3906 -145.8438 296.2656 -146.7891 Q297.1406 -147.7344 298.6094 -147.7344 Q299.9375 -147.7344 300.7109 -146.8828 Q301.4844 -146.0312 301.4844 -144.5625 ZM300.4062 -144.8906 Q300.3906 -145.7656 299.9062 -146.2969 Q299.4219 -146.8281 298.625 -146.8281 Q297.7188 -146.8281 297.1797 -146.3125 Q296.6406 -145.7969 296.5625 -144.875 L300.4062 -144.8906 Z" clip-path="url(#clipPath10)" stroke="none"/>
    </g>
    <g fill="rgb(232,238,247)" stroke-miterlimit="1.45" transform="matrix(1.7058,0,0,1.7058,-25.5864,376.9723)" stroke-linecap="butt" stroke="rgb(232,238,247)">
      <path d="M344.0247 -74.9678 L392.7747 -74.9678 L392.7747 -34.9678 L344.0247 -34.9678 Z" clip-path="url(#clipPath2)" stroke="none"/>
      <path fill="none" d="M344.0247 -74.9678 L392.7747 -74.9678 L392.7747 -34.9678 L344.0247 -34.9678 Z" clip-path="url(#clipPath2)" stroke="black"/>
    </g>
    <g transform="matrix(1.7058,0,0,1.7058,-25.5864,376.9723)">
      <path d="M352.0938 -60.5469 L353.2812 -60.5469 L353.2812 -55.2344 Q353.2812 -53.8281 353.7891 -53.2109 Q354.2969 -52.5938 355.4375 -52.5938 Q356.5781 -52.5938 357.0859 -53.2109 Q357.5938 -53.8281 357.5938 -55.2344 L357.5938 -60.5469 L358.7812 -60.5469 L358.7812 -55.0781 Q358.7812 -53.375 357.9375 -52.5 Q357.0938 -51.625 355.4375 -51.625 Q353.7812 -51.625 352.9375 -52.5 Q352.0938 -53.375 352.0938 -55.0781 L352.0938 -60.5469 ZM365.1406 -58.1719 L365.1406 -57.1406 Q364.6875 -57.375 364.1953 -57.4922 Q363.7031 -57.6094 363.1719 -57.6094 Q362.375 -57.6094 361.9688 -57.3672 Q361.5625 -57.125 361.5625 -56.625 Q361.5625 -56.25 361.8516 -56.0391 Q362.1406 -55.8281 363.0156 -55.6406 L363.375 -55.5469 Q364.5312 -55.3125 365.0156 -54.8594 Q365.5 -54.4062 365.5 -53.6094 Q365.5 -52.6875 364.7734 -52.1562 Q364.0469 -51.625 362.7812 -51.625 Q362.25 -51.625 361.6797 -51.7266 Q361.1094 -51.8281 360.4844 -52.0312 L360.4844 -53.1562 Q361.0781 -52.8438 361.6562 -52.6875 Q362.2344 -52.5312 362.8125 -52.5312 Q363.5625 -52.5312 363.9766 -52.7891 Q364.3906 -53.0469 364.3906 -53.5312 Q364.3906 -53.9688 364.0938 -54.2031 Q363.7969 -54.4375 362.7969 -54.6562 L362.4219 -54.7344 Q361.4219 -54.9531 360.9766 -55.3906 Q360.5312 -55.8281 360.5312 -56.5781 Q360.5312 -57.5156 361.1875 -58.0156 Q361.8438 -58.5156 363.0469 -58.5156 Q363.6406 -58.5156 364.1719 -58.4297 Q364.7031 -58.3438 365.1406 -58.1719 ZM370.1875 -55.0938 Q368.8906 -55.0938 368.3828 -54.7969 Q367.875 -54.5 367.875 -53.7812 Q367.875 -53.2031 368.2578 -52.8672 Q368.6406 -52.5312 369.2812 -52.5312 Q370.1875 -52.5312 370.7266 -53.1641 Q371.2656 -53.7969 371.2656 -54.8594 L371.2656 -55.0938 L370.1875 -55.0938 ZM372.3438 -55.5469 L372.3438 -51.7969 L371.2656 -51.7969 L371.2656 -52.7969 Q370.8906 -52.2031 370.3438 -51.9141 Q369.7969 -51.625 369 -51.625 Q367.9844 -51.625 367.3906 -52.1953 Q366.7969 -52.7656 366.7969 -53.7031 Q366.7969 -54.8125 367.5391 -55.375 Q368.2812 -55.9375 369.75 -55.9375 L371.2656 -55.9375 L371.2656 -56.0469 Q371.2656 -56.7969 370.7734 -57.2031 Q370.2812 -57.6094 369.4062 -57.6094 Q368.8438 -57.6094 368.3047 -57.4688 Q367.7656 -57.3281 367.2812 -57.0625 L367.2812 -58.0625 Q367.875 -58.2969 368.4297 -58.4062 Q368.9844 -58.5156 369.5156 -58.5156 Q370.9375 -58.5156 371.6406 -57.7812 Q372.3438 -57.0469 372.3438 -55.5469 ZM378.3594 -57.3594 Q378.1719 -57.4531 377.9609 -57.5078 Q377.75 -57.5625 377.4844 -57.5625 Q376.5781 -57.5625 376.0859 -56.9688 Q375.5938 -56.375 375.5938 -55.25 L375.5938 -51.7969 L374.5156 -51.7969 L374.5156 -58.3594 L375.5938 -58.3594 L375.5938 -57.3438 Q375.9375 -57.9375 376.4844 -58.2266 Q377.0312 -58.5156 377.8125 -58.5156 Q377.9219 -58.5156 378.0547 -58.5 Q378.1875 -58.4844 378.3438 -58.4531 L378.3594 -57.3594 ZM385.1094 -55.3438 L385.1094 -54.8281 L380.1406 -54.8281 Q380.2188 -53.7031 380.8203 -53.125 Q381.4219 -52.5469 382.4844 -52.5469 Q383.1094 -52.5469 383.6953 -52.6953 Q384.2812 -52.8438 384.8594 -53.1562 L384.8594 -52.125 Q384.2656 -51.8906 383.6562 -51.7578 Q383.0469 -51.625 382.4219 -51.625 Q380.8594 -51.625 379.9375 -52.5391 Q379.0156 -53.4531 379.0156 -55.0156 Q379.0156 -56.625 379.8906 -57.5703 Q380.7656 -58.5156 382.2344 -58.5156 Q383.5625 -58.5156 384.3359 -57.6641 Q385.1094 -56.8125 385.1094 -55.3438 ZM384.0312 -55.6719 Q384.0156 -56.5469 383.5312 -57.0781 Q383.0469 -57.6094 382.25 -57.6094 Q381.3438 -57.6094 380.8047 -57.0938 Q380.2656 -56.5781 380.1875 -55.6562 L384.0312 -55.6719 Z" clip-path="url(#clipPath11)" stroke="none"/>
    </g>
    <g fill="rgb(232,238,247)" stroke-miterlimit="1.45" transform="matrix(1.7058,0,0,1.7058,-25.5864,376.9723)" stroke-linecap="butt" stroke="rgb(232,238,247)">
      <path d="M92.1981 -179.2975 L161.9981 -179.2975 L151.7981 -139.2975 L81.9981 -139.2975 Z" clip-path="url(#clipPath2)" stroke="none"/>
      <path fill="none" d="M92.1981 -179.2975 L161.9981 -179.2975 L151.7981 -139.2975 L81.9981 -139.2975 Z" clip-path="url(#clipPath2)" stroke="black"/>
    </g>
    <g transform="matrix(1.7058,0,0,1.7058,-25.5864,376.9723)">
      <path d="M108.2188 -171.875 L113.25 -171.875 L113.25 -170.875 L109.4062 -170.875 L109.4062 -168.2969 L112.875 -168.2969 L112.875 -167.2969 L109.4062 -167.2969 L109.4062 -163.125 L108.2188 -163.125 L108.2188 -171.875 ZM117.625 -168.9375 Q116.7656 -168.9375 116.2578 -168.2578 Q115.75 -167.5781 115.75 -166.4062 Q115.75 -165.2188 116.25 -164.5469 Q116.75 -163.875 117.625 -163.875 Q118.4844 -163.875 118.9922 -164.5547 Q119.5 -165.2344 119.5 -166.4062 Q119.5 -167.5625 118.9922 -168.25 Q118.4844 -168.9375 117.625 -168.9375 ZM117.625 -169.8438 Q119.0312 -169.8438 119.8359 -168.9297 Q120.6406 -168.0156 120.6406 -166.4062 Q120.6406 -164.7969 119.8359 -163.875 Q119.0312 -162.9531 117.625 -162.9531 Q116.2188 -162.9531 115.4141 -163.875 Q114.6094 -164.7969 114.6094 -166.4062 Q114.6094 -168.0156 115.4141 -168.9297 Q116.2188 -169.8438 117.625 -169.8438 ZM127.8906 -167.0938 L127.8906 -163.125 L126.8125 -163.125 L126.8125 -167.0469 Q126.8125 -167.9844 126.4453 -168.4453 Q126.0781 -168.9062 125.3594 -168.9062 Q124.4844 -168.9062 123.9766 -168.3516 Q123.4688 -167.7969 123.4688 -166.8281 L123.4688 -163.125 L122.3906 -163.125 L122.3906 -169.6875 L123.4688 -169.6875 L123.4688 -168.6719 Q123.8594 -169.2656 124.3828 -169.5547 Q124.9062 -169.8438 125.5938 -169.8438 Q126.7188 -169.8438 127.3047 -169.1484 Q127.8906 -168.4531 127.8906 -167.0938 ZM131.0938 -171.5469 L131.0938 -169.6875 L133.3125 -169.6875 L133.3125 -168.8438 L131.0938 -168.8438 L131.0938 -165.2812 Q131.0938 -164.4844 131.3125 -164.2578 Q131.5312 -164.0312 132.2031 -164.0312 L133.3125 -164.0312 L133.3125 -163.125 L132.2031 -163.125 Q130.9531 -163.125 130.4766 -163.5938 Q130 -164.0625 130 -165.2812 L130 -168.8438 L129.2188 -168.8438 L129.2188 -169.6875 L130 -169.6875 L130 -171.5469 L131.0938 -171.5469 ZM134.7188 -169.6875 L135.7969 -169.6875 L135.7969 -163.125 L134.7188 -163.125 L134.7188 -169.6875 ZM134.7188 -172.25 L135.7969 -172.25 L135.7969 -170.875 L134.7188 -170.875 L134.7188 -172.25 Z" clip-path="url(#clipPath12)" stroke="none"/>
      <path d="M101.6406 -155.7188 L102.7188 -155.7188 L102.7188 -149.1562 L101.6406 -149.1562 L101.6406 -155.7188 ZM101.6406 -158.2812 L102.7188 -158.2812 L102.7188 -156.9062 L101.6406 -156.9062 L101.6406 -158.2812 ZM110.4375 -153.125 L110.4375 -149.1562 L109.3594 -149.1562 L109.3594 -153.0781 Q109.3594 -154.0156 108.9922 -154.4766 Q108.625 -154.9375 107.9062 -154.9375 Q107.0312 -154.9375 106.5234 -154.3828 Q106.0156 -153.8281 106.0156 -152.8594 L106.0156 -149.1562 L104.9375 -149.1562 L104.9375 -155.7188 L106.0156 -155.7188 L106.0156 -154.7031 Q106.4062 -155.2969 106.9297 -155.5859 Q107.4531 -155.875 108.1406 -155.875 Q109.2656 -155.875 109.8516 -155.1797 Q110.4375 -154.4844 110.4375 -153.125 ZM113.6562 -157.5781 L113.6562 -155.7188 L115.875 -155.7188 L115.875 -154.875 L113.6562 -154.875 L113.6562 -151.3125 Q113.6562 -150.5156 113.875 -150.2891 Q114.0938 -150.0625 114.7656 -150.0625 L115.875 -150.0625 L115.875 -149.1562 L114.7656 -149.1562 Q113.5156 -149.1562 113.0391 -149.625 Q112.5625 -150.0938 112.5625 -151.3125 L112.5625 -154.875 L111.7812 -154.875 L111.7812 -155.7188 L112.5625 -155.7188 L112.5625 -157.5781 L113.6562 -157.5781 ZM122.9062 -152.7031 L122.9062 -152.1875 L117.9375 -152.1875 Q118.0156 -151.0625 118.6172 -150.4844 Q119.2188 -149.9062 120.2812 -149.9062 Q120.9062 -149.9062 121.4922 -150.0547 Q122.0781 -150.2031 122.6562 -150.5156 L122.6562 -149.4844 Q122.0625 -149.25 121.4531 -149.1172 Q120.8438 -148.9844 120.2188 -148.9844 Q118.6562 -148.9844 117.7344 -149.8984 Q116.8125 -150.8125 116.8125 -152.375 Q116.8125 -153.9844 117.6875 -154.9297 Q118.5625 -155.875 120.0312 -155.875 Q121.3594 -155.875 122.1328 -155.0234 Q122.9062 -154.1719 122.9062 -152.7031 ZM121.8281 -153.0312 Q121.8125 -153.9062 121.3281 -154.4375 Q120.8438 -154.9688 120.0469 -154.9688 Q119.1406 -154.9688 118.6016 -154.4531 Q118.0625 -153.9375 117.9844 -153.0156 L121.8281 -153.0312 ZM128.4844 -154.7188 Q128.2969 -154.8125 128.0859 -154.8672 Q127.875 -154.9219 127.6094 -154.9219 Q126.7031 -154.9219 126.2109 -154.3281 Q125.7188 -153.7344 125.7188 -152.6094 L125.7188 -149.1562 L124.6406 -149.1562 L124.6406 -155.7188 L125.7188 -155.7188 L125.7188 -154.7031 Q126.0625 -155.2969 126.6094 -155.5859 Q127.1562 -155.875 127.9375 -155.875 Q128.0469 -155.875 128.1797 -155.8594 Q128.3125 -155.8438 128.4688 -155.8125 L128.4844 -154.7188 ZM135.0781 -153.125 L135.0781 -149.1562 L134 -149.1562 L134 -153.0781 Q134 -154.0156 133.6328 -154.4766 Q133.2656 -154.9375 132.5469 -154.9375 Q131.6719 -154.9375 131.1641 -154.3828 Q130.6562 -153.8281 130.6562 -152.8594 L130.6562 -149.1562 L129.5781 -149.1562 L129.5781 -155.7188 L130.6562 -155.7188 L130.6562 -154.7031 Q131.0469 -155.2969 131.5703 -155.5859 Q132.0938 -155.875 132.7812 -155.875 Q133.9062 -155.875 134.4922 -155.1797 Q135.0781 -154.4844 135.0781 -153.125 ZM142.8281 -152.7031 L142.8281 -152.1875 L137.8594 -152.1875 Q137.9375 -151.0625 138.5391 -150.4844 Q139.1406 -149.9062 140.2031 -149.9062 Q140.8281 -149.9062 141.4141 -150.0547 Q142 -150.2031 142.5781 -150.5156 L142.5781 -149.4844 Q141.9844 -149.25 141.375 -149.1172 Q140.7656 -148.9844 140.1406 -148.9844 Q138.5781 -148.9844 137.6562 -149.8984 Q136.7344 -150.8125 136.7344 -152.375 Q136.7344 -153.9844 137.6094 -154.9297 Q138.4844 -155.875 139.9531 -155.875 Q141.2812 -155.875 142.0547 -155.0234 Q142.8281 -154.1719 142.8281 -152.7031 ZM141.75 -153.0312 Q141.7344 -153.9062 141.25 -154.4375 Q140.7656 -154.9688 139.9688 -154.9688 Q139.0625 -154.9688 138.5234 -154.4531 Q137.9844 -153.9375 137.9062 -153.0156 L141.75 -153.0312 Z" clip-path="url(#clipPath12)" stroke="none"/>
    </g>
    <g fill="rgb(232,238,247)" stroke-miterlimit="1.45" transform="matrix(1.7058,0,0,1.7058,-25.5864,376.9723)" stroke-linecap="butt" stroke="rgb(232,238,247)">
      <path d="M363.5997 -174.2975 L433.3997 -174.2975 L423.1997 -134.2975 L353.3997 -134.2975 Z" clip-path="url(#clipPath2)" stroke="none"/>
      <path fill="none" d="M363.5997 -174.2975 L433.3997 -174.2975 L423.1997 -134.2975 L353.3997 -134.2975 Z" clip-path="url(#clipPath2)" stroke="black"/>
    </g>
    <g transform="matrix(1.7058,0,0,1.7058,-25.5864,376.9723)">
      <path d="M378.9531 -165.9062 L378.9531 -159.0938 L380.3906 -159.0938 Q382.2031 -159.0938 383.0391 -159.9141 Q383.875 -160.7344 383.875 -162.5156 Q383.875 -164.2656 383.0391 -165.0859 Q382.2031 -165.9062 380.3906 -165.9062 L378.9531 -165.9062 ZM377.7656 -166.875 L380.2031 -166.875 Q382.75 -166.875 383.9375 -165.8203 Q385.125 -164.7656 385.125 -162.5156 Q385.125 -160.25 383.9297 -159.1875 Q382.7344 -158.125 380.2031 -158.125 L377.7656 -158.125 L377.7656 -166.875 ZM386.9688 -164.6875 L388.0469 -164.6875 L388.0469 -158.125 L386.9688 -158.125 L386.9688 -164.6875 ZM386.9688 -167.25 L388.0469 -167.25 L388.0469 -165.875 L386.9688 -165.875 L386.9688 -167.25 ZM394.1094 -163.6875 Q393.9219 -163.7812 393.7109 -163.8359 Q393.5 -163.8906 393.2344 -163.8906 Q392.3281 -163.8906 391.8359 -163.2969 Q391.3438 -162.7031 391.3438 -161.5781 L391.3438 -158.125 L390.2656 -158.125 L390.2656 -164.6875 L391.3438 -164.6875 L391.3438 -163.6719 Q391.6875 -164.2656 392.2344 -164.5547 Q392.7812 -164.8438 393.5625 -164.8438 Q393.6719 -164.8438 393.8047 -164.8281 Q393.9375 -164.8125 394.0938 -164.7812 L394.1094 -163.6875 ZM395.2344 -164.6875 L396.3125 -164.6875 L396.3125 -158.125 L395.2344 -158.125 L395.2344 -164.6875 ZM395.2344 -167.25 L396.3125 -167.25 L396.3125 -165.875 L395.2344 -165.875 L395.2344 -167.25 ZM399.6406 -166.5469 L399.6406 -164.6875 L401.8594 -164.6875 L401.8594 -163.8438 L399.6406 -163.8438 L399.6406 -160.2812 Q399.6406 -159.4844 399.8594 -159.2578 Q400.0781 -159.0312 400.75 -159.0312 L401.8594 -159.0312 L401.8594 -158.125 L400.75 -158.125 Q399.5 -158.125 399.0234 -158.5938 Q398.5469 -159.0625 398.5469 -160.2812 L398.5469 -163.8438 L397.7656 -163.8438 L397.7656 -164.6875 L398.5469 -164.6875 L398.5469 -166.5469 L399.6406 -166.5469 ZM404.3438 -166.5469 L404.3438 -164.6875 L406.5625 -164.6875 L406.5625 -163.8438 L404.3438 -163.8438 L404.3438 -160.2812 Q404.3438 -159.4844 404.5625 -159.2578 Q404.7812 -159.0312 405.4531 -159.0312 L406.5625 -159.0312 L406.5625 -158.125 L405.4531 -158.125 Q404.2031 -158.125 403.7266 -158.5938 Q403.25 -159.0625 403.25 -160.2812 L403.25 -163.8438 L402.4688 -163.8438 L402.4688 -164.6875 L403.25 -164.6875 L403.25 -166.5469 L404.3438 -166.5469 ZM407.9688 -164.6875 L409.0469 -164.6875 L409.0469 -158.125 L407.9688 -158.125 L407.9688 -164.6875 ZM407.9688 -167.25 L409.0469 -167.25 L409.0469 -165.875 L407.9688 -165.875 L407.9688 -167.25 Z" clip-path="url(#clipPath13)" stroke="none"/>
      <path d="M373.7188 -149.7188 L373.7188 -153.2812 L374.7969 -153.2812 L374.7969 -144.1562 L373.7188 -144.1562 L373.7188 -145.1406 Q373.375 -144.5625 372.8594 -144.2734 Q372.3438 -143.9844 371.6094 -143.9844 Q370.4219 -143.9844 369.6719 -144.9375 Q368.9219 -145.8906 368.9219 -147.4375 Q368.9219 -148.9844 369.6719 -149.9297 Q370.4219 -150.875 371.6094 -150.875 Q372.3438 -150.875 372.8594 -150.5938 Q373.375 -150.3125 373.7188 -149.7188 ZM370.0469 -147.4375 Q370.0469 -146.25 370.5312 -145.5703 Q371.0156 -144.8906 371.875 -144.8906 Q372.7344 -144.8906 373.2266 -145.5703 Q373.7188 -146.25 373.7188 -147.4375 Q373.7188 -148.625 373.2266 -149.2969 Q372.7344 -149.9688 371.875 -149.9688 Q371.0156 -149.9688 370.5312 -149.2969 Q370.0469 -148.625 370.0469 -147.4375 ZM378.0469 -152.9062 L378.0469 -149.6562 L377.0469 -149.6562 L377.0469 -152.9062 L378.0469 -152.9062 ZM383.2969 -147.4531 Q382 -147.4531 381.4922 -147.1562 Q380.9844 -146.8594 380.9844 -146.1406 Q380.9844 -145.5625 381.3672 -145.2266 Q381.75 -144.8906 382.3906 -144.8906 Q383.2969 -144.8906 383.8359 -145.5234 Q384.375 -146.1562 384.375 -147.2188 L384.375 -147.4531 L383.2969 -147.4531 ZM385.4531 -147.9062 L385.4531 -144.1562 L384.375 -144.1562 L384.375 -145.1562 Q384 -144.5625 383.4531 -144.2734 Q382.9062 -143.9844 382.1094 -143.9844 Q381.0938 -143.9844 380.5 -144.5547 Q379.9062 -145.125 379.9062 -146.0625 Q379.9062 -147.1719 380.6484 -147.7344 Q381.3906 -148.2969 382.8594 -148.2969 L384.375 -148.2969 L384.375 -148.4062 Q384.375 -149.1562 383.8828 -149.5625 Q383.3906 -149.9688 382.5156 -149.9688 Q381.9531 -149.9688 381.4141 -149.8281 Q380.875 -149.6875 380.3906 -149.4219 L380.3906 -150.4219 Q380.9844 -150.6562 381.5391 -150.7656 Q382.0938 -150.875 382.625 -150.875 Q384.0469 -150.875 384.75 -150.1406 Q385.4531 -149.4062 385.4531 -147.9062 ZM387.5625 -146.75 L387.5625 -150.7188 L388.6406 -150.7188 L388.6406 -146.7812 Q388.6406 -145.8594 389.0078 -145.3906 Q389.375 -144.9219 390.0938 -144.9219 Q390.9688 -144.9219 391.4766 -145.4766 Q391.9844 -146.0312 391.9844 -147 L391.9844 -150.7188 L393.0625 -150.7188 L393.0625 -144.1562 L391.9844 -144.1562 L391.9844 -145.1719 Q391.5938 -144.5625 391.0781 -144.2734 Q390.5625 -143.9844 389.875 -143.9844 Q388.7344 -143.9844 388.1484 -144.6875 Q387.5625 -145.3906 387.5625 -146.75 ZM390.2812 -150.875 L390.2812 -150.875 ZM396.3438 -152.5781 L396.3438 -150.7188 L398.5625 -150.7188 L398.5625 -149.875 L396.3438 -149.875 L396.3438 -146.3125 Q396.3438 -145.5156 396.5625 -145.2891 Q396.7812 -145.0625 397.4531 -145.0625 L398.5625 -145.0625 L398.5625 -144.1562 L397.4531 -144.1562 Q396.2031 -144.1562 395.7266 -144.625 Q395.25 -145.0938 395.25 -146.3125 L395.25 -149.875 L394.4688 -149.875 L394.4688 -150.7188 L395.25 -150.7188 L395.25 -152.5781 L396.3438 -152.5781 ZM402.5312 -149.9688 Q401.6719 -149.9688 401.1641 -149.2891 Q400.6562 -148.6094 400.6562 -147.4375 Q400.6562 -146.25 401.1562 -145.5781 Q401.6562 -144.9062 402.5312 -144.9062 Q403.3906 -144.9062 403.8984 -145.5859 Q404.4062 -146.2656 404.4062 -147.4375 Q404.4062 -148.5938 403.8984 -149.2812 Q403.3906 -149.9688 402.5312 -149.9688 ZM402.5312 -150.875 Q403.9375 -150.875 404.7422 -149.9609 Q405.5469 -149.0469 405.5469 -147.4375 Q405.5469 -145.8281 404.7422 -144.9062 Q403.9375 -143.9844 402.5312 -143.9844 Q401.125 -143.9844 400.3203 -144.9062 Q399.5156 -145.8281 399.5156 -147.4375 Q399.5156 -149.0469 400.3203 -149.9609 Q401.125 -150.875 402.5312 -150.875 ZM411.125 -149.7188 Q410.9375 -149.8125 410.7266 -149.8672 Q410.5156 -149.9219 410.25 -149.9219 Q409.3438 -149.9219 408.8516 -149.3281 Q408.3594 -148.7344 408.3594 -147.6094 L408.3594 -144.1562 L407.2812 -144.1562 L407.2812 -150.7188 L408.3594 -150.7188 L408.3594 -149.7031 Q408.7031 -150.2969 409.25 -150.5859 Q409.7969 -150.875 410.5781 -150.875 Q410.6875 -150.875 410.8203 -150.8594 Q410.9531 -150.8438 411.1094 -150.8125 L411.125 -149.7188 ZM417.875 -147.7031 L417.875 -147.1875 L412.9062 -147.1875 Q412.9844 -146.0625 413.5859 -145.4844 Q414.1875 -144.9062 415.25 -144.9062 Q415.875 -144.9062 416.4609 -145.0547 Q417.0469 -145.2031 417.625 -145.5156 L417.625 -144.4844 Q417.0312 -144.25 416.4219 -144.1172 Q415.8125 -143.9844 415.1875 -143.9844 Q413.625 -143.9844 412.7031 -144.8984 Q411.7812 -145.8125 411.7812 -147.375 Q411.7812 -148.9844 412.6562 -149.9297 Q413.5312 -150.875 415 -150.875 Q416.3281 -150.875 417.1016 -150.0234 Q417.875 -149.1719 417.875 -147.7031 ZM416.7969 -148.0312 Q416.7812 -148.9062 416.2969 -149.4375 Q415.8125 -149.9688 415.0156 -149.9688 Q414.1094 -149.9688 413.5703 -149.4531 Q413.0312 -148.9375 412.9531 -148.0156 L416.7969 -148.0312 Z" clip-path="url(#clipPath13)" stroke="none"/>
    </g>
    <g stroke-linecap="butt" transform="matrix(1.7058,0,0,1.7058,-25.5864,376.9723)" stroke-miterlimit="1.45">
      <path fill="none" d="M123.122 -34.958 L127.1679 37.0761" clip-path="url(#clipPath2)"/>
      <path d="M127.6165 45.0635 L131.9357 32.802 L127.1118 36.0776 L121.9514 33.3627 Z" clip-path="url(#clipPath2)" stroke="none"/>
      <path fill="none" d="M136.6376 -34.958 L190.4409 38.5825" clip-path="url(#clipPath2)"/>
      <path d="M195.1646 45.0391 L192.1144 32.402 L189.8505 37.7755 L184.0438 38.3066 Z" clip-path="url(#clipPath2)" stroke="none"/>
      <path fill="none" d="M112.2327 -34.958 L76.7002 37.8496" clip-path="url(#clipPath2)"/>
      <path d="M73.1915 45.0391 L82.948 36.4478 L77.1388 36.9509 L73.9611 32.0619 Z" clip-path="url(#clipPath2)" stroke="none"/>
      <path fill="none" d="M228.2953 -34.958 L214.9429 37.197" clip-path="url(#clipPath2)"/>
      <path d="M213.4872 45.0635 L220.5872 34.1736 L215.1248 36.2137 L210.7542 32.354 Z" clip-path="url(#clipPath2)" stroke="none"/>
      <path fill="none" d="M249.261 -34.958 L313.0504 38.9817" clip-path="url(#clipPath2)"/>
      <path d="M318.2762 45.0391 L314.2233 32.687 L312.3972 38.2246 L306.6517 39.2192 Z" clip-path="url(#clipPath2)" stroke="none"/>
      <path fill="none" d="M263.8281 -34.9727 L386.2067 41.9037" clip-path="url(#clipPath2)"/>
      <path d="M392.981 46.1592 L385.4793 35.5421 L385.3599 41.3718 L380.1599 44.0099 Z" clip-path="url(#clipPath2)" stroke="none"/>
      <path fill="none" d="M297.8114 -131.1728 L344.4373 -80.8369" clip-path="url(#clipPath2)"/>
      <path d="M349.8737 -74.9679 L345.3872 -87.1691 L343.7577 -81.5705 L338.0509 -80.3736 Z" clip-path="url(#clipPath2)" stroke="none"/>
      <path fill="none" d="M377.5083 -34.958 L410.6092 37.7579" clip-path="url(#clipPath2)"/>
      <path d="M413.9236 45.0391 L413.5027 32.0459 L410.1949 36.8478 L404.4013 36.1889 Z" clip-path="url(#clipPath2)" stroke="none"/>
      <path fill="none" d="M362.9178 -34.958 L343.1158 37.3234" clip-path="url(#clipPath2)"/>
      <path d="M341.002 45.0391 L348.9949 34.7866 L343.38 36.3589 L339.3503 32.1444 Z" clip-path="url(#clipPath2)" stroke="none"/>
      <path fill="none" d="M121.9981 -139.3027 L121.9981 -82.9397" clip-path="url(#clipPath2)"/>
      <path d="M121.9981 -74.9397 L126.9981 -86.9397 L121.9981 -83.9397 L116.9981 -86.9397 Z" clip-path="url(#clipPath2)" stroke="none"/>
      <path fill="none" d="M143.0797 -139.3027 L205.1146 -80.4655" clip-path="url(#clipPath2)"/>
      <path d="M210.9191 -74.9603 L205.6532 -86.846 L204.389 -81.1537 L198.7716 -79.5904 Z" clip-path="url(#clipPath2)" stroke="none"/>
      <path fill="none" d="M388.3643 -134.2909 L375.3922 -82.7503" clip-path="url(#clipPath2)"/>
      <path d="M373.4396 -74.9922 L381.2173 -85.4089 L375.6363 -83.72 L371.5197 -87.8497 Z" clip-path="url(#clipPath2)" stroke="none"/>
    </g>
  </g>
</svg>
