<?xml version="1.0" encoding="UTF-8"?>
<svg xmlns="http://www.w3.org/2000/svg" xmlns:xlink="http://www.w3.org/1999/xlink" fill-opacity="1" color-rendering="auto" color-interpolation="auto" stroke="black" text-rendering="auto" stroke-linecap="square" width="800" stroke-miterlimit="10" stroke-opacity="1" shape-rendering="auto" fill="black" stroke-dasharray="none" font-weight="normal" stroke-width="1" height="720" font-family="'Dialog'" font-style="normal" stroke-linejoin="miter" font-size="12" stroke-dashoffset="0" image-rendering="auto">
  <!--Generated by ySVG-->
  <defs id="genericDefs"/>
  <g>
    <defs id="defs1">
      <clipPath clipPathUnits="userSpaceOnUse" id="clipPath1">
        <path d="M0 0 L800 0 L800 720 L0 720 L0 0 Z"/>
      </clipPath>
      <clipPath clipPathUnits="userSpaceOnUse" id="clipPath2">
        <path d="M20 20 L340 20 L340 308 L20 308 L20 20 Z"/>
      </clipPath>
      <clipPath clipPathUnits="userSpaceOnUse" id="clipPath3">
        <path d="M65.2575 67.1813 L65.2575 97.1188 L141.2575 97.1188 L141.2575 67.1813 Z"/>
      </clipPath>
      <clipPath clipPathUnits="userSpaceOnUse" id="clipPath4">
        <path d="M216.0575 67.1813 L216.0575 97.1188 L304.2575 97.1188 L304.2575 67.1813 Z"/>
      </clipPath>
      <clipPath clipPathUnits="userSpaceOnUse" id="clipPath5">
        <path d="M74.0575 152.7969 L74.0575 196.7031 L162.2575 196.7031 L162.2575 152.7969 Z"/>
      </clipPath>
      <clipPath clipPathUnits="userSpaceOnUse" id="clipPath6">
        <path d="M229.2575 158.7969 L229.2575 202.7031 L317.4575 202.7031 L317.4575 158.7969 Z"/>
      </clipPath>
      <clipPath clipPathUnits="userSpaceOnUse" id="clipPath7">
        <path d="M65.2575 252.3813 L65.2575 282.3188 L153.4575 282.3188 L153.4575 252.3813 Z"/>
      </clipPath>
      <clipPath clipPathUnits="userSpaceOnUse" id="clipPath8">
        <path d="M223.2575 252.3813 L223.2575 282.3188 L304.2575 282.3188 L304.2575 252.3813 Z"/>
      </clipPath>
    </defs>
    <g fill="white" transform="scale(2.5,2.5) translate(-20,-20)" stroke="white">
      <rect x="20" width="320" height="288" y="20" clip-path="url(#clipPath2)" stroke="none"/>
    </g>
    <g fill="rgb(102,204,102)" fill-opacity="0.3137" transform="matrix(2.5,0,0,2.5,-50,-50)" stroke-opacity="0.3137" stroke="rgb(102,204,102)">
      <rect x="25.8342" width="308.6233" height="21.4531" y="25.6969" clip-path="url(#clipPath2)" stroke="none"/>
    </g>
    <g font-size="15" stroke-miterlimit="1.45" font-family="sans-serif" transform="matrix(2.5,0,0,2.5,-50,-50)" stroke-linecap="butt">
      <text x="67.818" xml:space="preserve" y="41.6188" clip-path="url(#clipPath2)" stroke="none">Produzione: Visione d'insieme</text>
      <rect x="25.8342" y="25.6969" clip-path="url(#clipPath2)" fill="none" width="308.6233" stroke-dasharray="6,2" rx="4" ry="4" height="276.6531"/>
    </g>
    <g fill="rgb(232,238,247)" stroke-miterlimit="1.45" transform="matrix(2.5,0,0,2.5,-50,-50)" stroke-linecap="butt" stroke="rgb(232,238,247)">
      <rect x="63.2575" width="80" height="40" y="62.15" clip-path="url(#clipPath2)" stroke="none"/>
      <rect x="63.2575" y="62.15" clip-path="url(#clipPath2)" fill="none" width="80" height="40" stroke="black"/>
      <path fill="none" d="M73.2575 62.15 L73.2575 102.15 M133.2575 62.15 L133.2575 102.15 M73.2575 62.15 Z" clip-path="url(#clipPath2)" stroke="black"/>
    </g>
    <g transform="matrix(2.5,0,0,2.5,-50,-50)">
      <path d="M89.8594 70.7344 L88.25 75.0781 L91.4688 75.0781 L89.8594 70.7344 ZM89.1875 69.5625 L90.5312 69.5625 L93.8594 78.3125 L92.625 78.3125 L91.8281 76.0625 L87.8906 76.0625 L87.0938 78.3125 L85.8438 78.3125 L89.1875 69.5625 ZM94.3125 71.75 L95.4531 71.75 L97.5 77.25 L99.5625 71.75 L100.7031 71.75 L98.2344 78.3125 L96.7656 78.3125 L94.3125 71.75 ZM107.8125 74.7656 L107.8125 75.2812 L102.8438 75.2812 Q102.9219 76.4062 103.5234 76.9844 Q104.125 77.5625 105.1875 77.5625 Q105.8125 77.5625 106.3984 77.4141 Q106.9844 77.2656 107.5625 76.9531 L107.5625 77.9844 Q106.9688 78.2188 106.3594 78.3516 Q105.75 78.4844 105.125 78.4844 Q103.5625 78.4844 102.6406 77.5703 Q101.7188 76.6562 101.7188 75.0938 Q101.7188 73.4844 102.5938 72.5391 Q103.4688 71.5938 104.9375 71.5938 Q106.2656 71.5938 107.0391 72.4453 Q107.8125 73.2969 107.8125 74.7656 ZM106.7344 74.4375 Q106.7188 73.5625 106.2344 73.0312 Q105.75 72.5 104.9531 72.5 Q104.0469 72.5 103.5078 73.0156 Q102.9688 73.5312 102.8906 74.4531 L106.7344 74.4375 ZM113.375 72.75 Q113.1875 72.6562 112.9766 72.6016 Q112.7656 72.5469 112.5 72.5469 Q111.5938 72.5469 111.1016 73.1406 Q110.6094 73.7344 110.6094 74.8594 L110.6094 78.3125 L109.5312 78.3125 L109.5312 71.75 L110.6094 71.75 L110.6094 72.7656 Q110.9531 72.1719 111.5 71.8828 Q112.0469 71.5938 112.8281 71.5938 Q112.9375 71.5938 113.0703 71.6094 Q113.2031 71.625 113.3594 71.6562 L113.375 72.75 ZM120.125 74.7656 L120.125 75.2812 L115.1562 75.2812 Q115.2344 76.4062 115.8359 76.9844 Q116.4375 77.5625 117.5 77.5625 Q118.125 77.5625 118.7109 77.4141 Q119.2969 77.2656 119.875 76.9531 L119.875 77.9844 Q119.2812 78.2188 118.6719 78.3516 Q118.0625 78.4844 117.4375 78.4844 Q115.875 78.4844 114.9531 77.5703 Q114.0312 76.6562 114.0312 75.0938 Q114.0312 73.4844 114.9062 72.5391 Q115.7812 71.5938 117.25 71.5938 Q118.5781 71.5938 119.3516 72.4453 Q120.125 73.2969 120.125 74.7656 ZM119.0469 74.4375 Q119.0312 73.5625 118.5469 73.0312 Q118.0625 72.5 117.2656 72.5 Q116.3594 72.5 115.8203 73.0156 Q115.2812 73.5312 115.2031 74.4531 L119.0469 74.4375 Z" clip-path="url(#clipPath3)" stroke="none"/>
      <path d="M80.6719 85.9688 L80.6719 86.9844 Q80.2031 86.7188 79.75 86.5938 Q79.2969 86.4688 78.8281 86.4688 Q77.7656 86.4688 77.1875 87.1328 Q76.6094 87.7969 76.6094 89 Q76.6094 90.2031 77.1875 90.8672 Q77.7656 91.5312 78.8281 91.5312 Q79.2969 91.5312 79.75 91.4062 Q80.2031 91.2812 80.6719 91.0312 L80.6719 92.0312 Q80.2188 92.2344 79.7344 92.3438 Q79.25 92.4531 78.7031 92.4531 Q77.2188 92.4531 76.3438 91.5234 Q75.4688 90.5938 75.4688 89 Q75.4688 87.4062 76.3516 86.4844 Q77.2344 85.5625 78.7812 85.5625 Q79.2656 85.5625 79.7422 85.6641 Q80.2188 85.7656 80.6719 85.9688 ZM85.0781 86.4688 Q84.2188 86.4688 83.7109 87.1484 Q83.2031 87.8281 83.2031 89 Q83.2031 90.1875 83.7031 90.8594 Q84.2031 91.5312 85.0781 91.5312 Q85.9375 91.5312 86.4453 90.8516 Q86.9531 90.1719 86.9531 89 Q86.9531 87.8438 86.4453 87.1562 Q85.9375 86.4688 85.0781 86.4688 ZM85.0781 85.5625 Q86.4844 85.5625 87.2891 86.4766 Q88.0938 87.3906 88.0938 89 Q88.0938 90.6094 87.2891 91.5312 Q86.4844 92.4531 85.0781 92.4531 Q83.6719 92.4531 82.8672 91.5312 Q82.0625 90.6094 82.0625 89 Q82.0625 87.3906 82.8672 86.4766 Q83.6719 85.5625 85.0781 85.5625 ZM95.3438 88.3125 L95.3438 92.2812 L94.2656 92.2812 L94.2656 88.3594 Q94.2656 87.4219 93.8984 86.9609 Q93.5312 86.5 92.8125 86.5 Q91.9375 86.5 91.4297 87.0547 Q90.9219 87.6094 90.9219 88.5781 L90.9219 92.2812 L89.8438 92.2812 L89.8438 85.7188 L90.9219 85.7188 L90.9219 86.7344 Q91.3125 86.1406 91.8359 85.8516 Q92.3594 85.5625 93.0469 85.5625 Q94.1719 85.5625 94.7578 86.2578 Q95.3438 86.9531 95.3438 88.3125 ZM98.5625 83.8594 L98.5625 85.7188 L100.7812 85.7188 L100.7812 86.5625 L98.5625 86.5625 L98.5625 90.125 Q98.5625 90.9219 98.7812 91.1484 Q99 91.375 99.6719 91.375 L100.7812 91.375 L100.7812 92.2812 L99.6719 92.2812 Q98.4219 92.2812 97.9453 91.8125 Q97.4688 91.3438 97.4688 90.125 L97.4688 86.5625 L96.6875 86.5625 L96.6875 85.7188 L97.4688 85.7188 L97.4688 83.8594 L98.5625 83.8594 ZM107.8125 88.7344 L107.8125 89.25 L102.8438 89.25 Q102.9219 90.375 103.5234 90.9531 Q104.125 91.5312 105.1875 91.5312 Q105.8125 91.5312 106.3984 91.3828 Q106.9844 91.2344 107.5625 90.9219 L107.5625 91.9531 Q106.9688 92.1875 106.3594 92.3203 Q105.75 92.4531 105.125 92.4531 Q103.5625 92.4531 102.6406 91.5391 Q101.7188 90.625 101.7188 89.0625 Q101.7188 87.4531 102.5938 86.5078 Q103.4688 85.5625 104.9375 85.5625 Q106.2656 85.5625 107.0391 86.4141 Q107.8125 87.2656 107.8125 88.7344 ZM106.7344 88.4062 Q106.7188 87.5312 106.2344 87 Q105.75 86.4688 104.9531 86.4688 Q104.0469 86.4688 103.5078 86.9844 Q102.9688 87.5 102.8906 88.4219 L106.7344 88.4062 ZM115.0312 88.3125 L115.0312 92.2812 L113.9531 92.2812 L113.9531 88.3594 Q113.9531 87.4219 113.5859 86.9609 Q113.2188 86.5 112.5 86.5 Q111.625 86.5 111.1172 87.0547 Q110.6094 87.6094 110.6094 88.5781 L110.6094 92.2812 L109.5312 92.2812 L109.5312 85.7188 L110.6094 85.7188 L110.6094 86.7344 Q111 86.1406 111.5234 85.8516 Q112.0469 85.5625 112.7344 85.5625 Q113.8594 85.5625 114.4453 86.2578 Q115.0312 86.9531 115.0312 88.3125 ZM117.0625 89.6875 L117.0625 85.7188 L118.1406 85.7188 L118.1406 89.6562 Q118.1406 90.5781 118.5078 91.0469 Q118.875 91.5156 119.5938 91.5156 Q120.4688 91.5156 120.9766 90.9609 Q121.4844 90.4062 121.4844 89.4375 L121.4844 85.7188 L122.5625 85.7188 L122.5625 92.2812 L121.4844 92.2812 L121.4844 91.2656 Q121.0938 91.875 120.5781 92.1641 Q120.0625 92.4531 119.375 92.4531 Q118.2344 92.4531 117.6484 91.75 Q117.0625 91.0469 117.0625 89.6875 ZM119.7812 85.5625 L119.7812 85.5625 ZM125.8594 83.8594 L125.8594 85.7188 L128.0781 85.7188 L128.0781 86.5625 L125.8594 86.5625 L125.8594 90.125 Q125.8594 90.9219 126.0781 91.1484 Q126.2969 91.375 126.9688 91.375 L128.0781 91.375 L128.0781 92.2812 L126.9688 92.2812 Q125.7188 92.2812 125.2422 91.8125 Q124.7656 91.3438 124.7656 90.125 L124.7656 86.5625 L123.9844 86.5625 L123.9844 85.7188 L124.7656 85.7188 L124.7656 83.8594 L125.8594 83.8594 ZM129.4844 85.7188 L130.5625 85.7188 L130.5625 92.2812 L129.4844 92.2812 L129.4844 85.7188 ZM129.4844 83.1562 L130.5625 83.1562 L130.5625 84.5312 L129.4844 84.5312 L129.4844 83.1562 Z" clip-path="url(#clipPath3)" stroke="none"/>
    </g>
    <g fill="rgb(232,238,247)" stroke-miterlimit="1.45" transform="matrix(2.5,0,0,2.5,-50,-50)" stroke-linecap="butt" stroke="rgb(232,238,247)">
      <rect x="214.0575" width="92.2" height="40" y="62.15" clip-path="url(#clipPath2)" stroke="none"/>
      <rect x="214.0575" y="62.15" clip-path="url(#clipPath2)" fill="none" width="92.2" height="40" stroke="black"/>
      <path fill="none" d="M224.0575 62.15 L224.0575 102.15 M296.2575 62.15 L296.2575 102.15 M224.0575 62.15 Z" clip-path="url(#clipPath2)" stroke="black"/>
    </g>
    <g transform="matrix(2.5,0,0,2.5,-50,-50)">
      <path d="M230.7188 70.5312 L230.7188 73.8281 L232.2031 73.8281 Q233.0312 73.8281 233.4844 73.3984 Q233.9375 72.9688 233.9375 72.1719 Q233.9375 71.3906 233.4844 70.9609 Q233.0312 70.5312 232.2031 70.5312 L230.7188 70.5312 ZM229.5312 69.5625 L232.2031 69.5625 Q233.6875 69.5625 234.4375 70.2266 Q235.1875 70.8906 235.1875 72.1719 Q235.1875 73.4688 234.4375 74.1328 Q233.6875 74.7969 232.2031 74.7969 L230.7188 74.7969 L230.7188 78.3125 L229.5312 78.3125 L229.5312 69.5625 ZM240.5312 72.75 Q240.3438 72.6562 240.1328 72.6016 Q239.9219 72.5469 239.6562 72.5469 Q238.75 72.5469 238.2578 73.1406 Q237.7656 73.7344 237.7656 74.8594 L237.7656 78.3125 L236.6875 78.3125 L236.6875 71.75 L237.7656 71.75 L237.7656 72.7656 Q238.1094 72.1719 238.6562 71.8828 Q239.2031 71.5938 239.9844 71.5938 Q240.0938 71.5938 240.2266 71.6094 Q240.3594 71.625 240.5156 71.6562 L240.5312 72.75 ZM244.2031 72.5 Q243.3438 72.5 242.8359 73.1797 Q242.3281 73.8594 242.3281 75.0312 Q242.3281 76.2188 242.8281 76.8906 Q243.3281 77.5625 244.2031 77.5625 Q245.0625 77.5625 245.5703 76.8828 Q246.0781 76.2031 246.0781 75.0312 Q246.0781 73.875 245.5703 73.1875 Q245.0625 72.5 244.2031 72.5 ZM244.2031 71.5938 Q245.6094 71.5938 246.4141 72.5078 Q247.2188 73.4219 247.2188 75.0312 Q247.2188 76.6406 246.4141 77.5625 Q245.6094 78.4844 244.2031 78.4844 Q242.7969 78.4844 241.9922 77.5625 Q241.1875 76.6406 241.1875 75.0312 Q241.1875 73.4219 241.9922 72.5078 Q242.7969 71.5938 244.2031 71.5938 ZM253.3125 74.9531 Q253.3125 73.7812 252.8281 73.1406 Q252.3438 72.5 251.4688 72.5 Q250.6094 72.5 250.125 73.1406 Q249.6406 73.7812 249.6406 74.9531 Q249.6406 76.125 250.125 76.7656 Q250.6094 77.4062 251.4688 77.4062 Q252.3438 77.4062 252.8281 76.7656 Q253.3125 76.125 253.3125 74.9531 ZM254.3906 77.5 Q254.3906 79.1719 253.6484 79.9922 Q252.9062 80.8125 251.3594 80.8125 Q250.7969 80.8125 250.2891 80.7266 Q249.7812 80.6406 249.3125 80.4688 L249.3125 79.4219 Q249.7812 79.6719 250.25 79.7969 Q250.7188 79.9219 251.1875 79.9219 Q252.25 79.9219 252.7812 79.3672 Q253.3125 78.8125 253.3125 77.6875 L253.3125 77.1562 Q252.9688 77.7344 252.4531 78.0234 Q251.9375 78.3125 251.2031 78.3125 Q250 78.3125 249.2578 77.3906 Q248.5156 76.4688 248.5156 74.9531 Q248.5156 73.4375 249.2578 72.5156 Q250 71.5938 251.2031 71.5938 Q251.9375 71.5938 252.4531 71.8828 Q252.9688 72.1719 253.3125 72.75 L253.3125 71.75 L254.3906 71.75 L254.3906 77.5 ZM262.2344 74.7656 L262.2344 75.2812 L257.2656 75.2812 Q257.3438 76.4062 257.9453 76.9844 Q258.5469 77.5625 259.6094 77.5625 Q260.2344 77.5625 260.8203 77.4141 Q261.4062 77.2656 261.9844 76.9531 L261.9844 77.9844 Q261.3906 78.2188 260.7812 78.3516 Q260.1719 78.4844 259.5469 78.4844 Q257.9844 78.4844 257.0625 77.5703 Q256.1406 76.6562 256.1406 75.0938 Q256.1406 73.4844 257.0156 72.5391 Q257.8906 71.5938 259.3594 71.5938 Q260.6875 71.5938 261.4609 72.4453 Q262.2344 73.2969 262.2344 74.7656 ZM261.1562 74.4375 Q261.1406 73.5625 260.6562 73.0312 Q260.1719 72.5 259.375 72.5 Q258.4688 72.5 257.9297 73.0156 Q257.3906 73.5312 257.3125 74.4531 L261.1562 74.4375 ZM265.0625 69.8906 L265.0625 71.75 L267.2812 71.75 L267.2812 72.5938 L265.0625 72.5938 L265.0625 76.1562 Q265.0625 76.9531 265.2812 77.1797 Q265.5 77.4062 266.1719 77.4062 L267.2812 77.4062 L267.2812 78.3125 L266.1719 78.3125 Q264.9219 78.3125 264.4453 77.8438 Q263.9688 77.375 263.9688 76.1562 L263.9688 72.5938 L263.1875 72.5938 L263.1875 71.75 L263.9688 71.75 L263.9688 69.8906 L265.0625 69.8906 ZM269.7812 69.8906 L269.7812 71.75 L272 71.75 L272 72.5938 L269.7812 72.5938 L269.7812 76.1562 Q269.7812 76.9531 270 77.1797 Q270.2188 77.4062 270.8906 77.4062 L272 77.4062 L272 78.3125 L270.8906 78.3125 Q269.6406 78.3125 269.1641 77.8438 Q268.6875 77.375 268.6875 76.1562 L268.6875 72.5938 L267.9062 72.5938 L267.9062 71.75 L268.6875 71.75 L268.6875 69.8906 L269.7812 69.8906 ZM276.3906 75.0156 Q275.0938 75.0156 274.5859 75.3125 Q274.0781 75.6094 274.0781 76.3281 Q274.0781 76.9062 274.4609 77.2422 Q274.8438 77.5781 275.4844 77.5781 Q276.3906 77.5781 276.9297 76.9453 Q277.4688 76.3125 277.4688 75.25 L277.4688 75.0156 L276.3906 75.0156 ZM278.5469 74.5625 L278.5469 78.3125 L277.4688 78.3125 L277.4688 77.3125 Q277.0938 77.9062 276.5469 78.1953 Q276 78.4844 275.2031 78.4844 Q274.1875 78.4844 273.5938 77.9141 Q273 77.3438 273 76.4062 Q273 75.2969 273.7422 74.7344 Q274.4844 74.1719 275.9531 74.1719 L277.4688 74.1719 L277.4688 74.0625 Q277.4688 73.3125 276.9766 72.9062 Q276.4844 72.5 275.6094 72.5 Q275.0469 72.5 274.5078 72.6406 Q273.9688 72.7812 273.4844 73.0469 L273.4844 72.0469 Q274.0781 71.8125 274.6328 71.7031 Q275.1875 71.5938 275.7188 71.5938 Q277.1406 71.5938 277.8438 72.3281 Q278.5469 73.0625 278.5469 74.5625 ZM284.5625 72.75 Q284.375 72.6562 284.1641 72.6016 Q283.9531 72.5469 283.6875 72.5469 Q282.7812 72.5469 282.2891 73.1406 Q281.7969 73.7344 281.7969 74.8594 L281.7969 78.3125 L280.7188 78.3125 L280.7188 71.75 L281.7969 71.75 L281.7969 72.7656 Q282.1406 72.1719 282.6875 71.8828 Q283.2344 71.5938 284.0156 71.5938 Q284.125 71.5938 284.2578 71.6094 Q284.3906 71.625 284.5469 71.6562 L284.5625 72.75 ZM291.3125 74.7656 L291.3125 75.2812 L286.3438 75.2812 Q286.4219 76.4062 287.0234 76.9844 Q287.625 77.5625 288.6875 77.5625 Q289.3125 77.5625 289.8984 77.4141 Q290.4844 77.2656 291.0625 76.9531 L291.0625 77.9844 Q290.4688 78.2188 289.8594 78.3516 Q289.25 78.4844 288.625 78.4844 Q287.0625 78.4844 286.1406 77.5703 Q285.2188 76.6562 285.2188 75.0938 Q285.2188 73.4844 286.0938 72.5391 Q286.9688 71.5938 288.4375 71.5938 Q289.7656 71.5938 290.5391 72.4453 Q291.3125 73.2969 291.3125 74.7656 ZM290.2344 74.4375 Q290.2188 73.5625 289.7344 73.0312 Q289.25 72.5 288.4531 72.5 Q287.5469 72.5 287.0078 73.0156 Q286.4688 73.5312 286.3906 74.4531 L290.2344 74.4375 Z" clip-path="url(#clipPath4)" stroke="none"/>
      <path d="M237.5625 85.9688 L237.5625 86.9844 Q237.0938 86.7188 236.6406 86.5938 Q236.1875 86.4688 235.7188 86.4688 Q234.6562 86.4688 234.0781 87.1328 Q233.5 87.7969 233.5 89 Q233.5 90.2031 234.0781 90.8672 Q234.6562 91.5312 235.7188 91.5312 Q236.1875 91.5312 236.6406 91.4062 Q237.0938 91.2812 237.5625 91.0312 L237.5625 92.0312 Q237.1094 92.2344 236.625 92.3438 Q236.1406 92.4531 235.5938 92.4531 Q234.1094 92.4531 233.2344 91.5234 Q232.3594 90.5938 232.3594 89 Q232.3594 87.4062 233.2422 86.4844 Q234.125 85.5625 235.6719 85.5625 Q236.1562 85.5625 236.6328 85.6641 Q237.1094 85.7656 237.5625 85.9688 ZM241.9844 86.4688 Q241.125 86.4688 240.6172 87.1484 Q240.1094 87.8281 240.1094 89 Q240.1094 90.1875 240.6094 90.8594 Q241.1094 91.5312 241.9844 91.5312 Q242.8438 91.5312 243.3516 90.8516 Q243.8594 90.1719 243.8594 89 Q243.8594 87.8438 243.3516 87.1562 Q242.8438 86.4688 241.9844 86.4688 ZM241.9844 85.5625 Q243.3906 85.5625 244.1953 86.4766 Q245 87.3906 245 89 Q245 90.6094 244.1953 91.5312 Q243.3906 92.4531 241.9844 92.4531 Q240.5781 92.4531 239.7734 91.5312 Q238.9688 90.6094 238.9688 89 Q238.9688 87.3906 239.7734 86.4766 Q240.5781 85.5625 241.9844 85.5625 ZM252.2344 88.3125 L252.2344 92.2812 L251.1562 92.2812 L251.1562 88.3594 Q251.1562 87.4219 250.7891 86.9609 Q250.4219 86.5 249.7031 86.5 Q248.8281 86.5 248.3203 87.0547 Q247.8125 87.6094 247.8125 88.5781 L247.8125 92.2812 L246.7344 92.2812 L246.7344 85.7188 L247.8125 85.7188 L247.8125 86.7344 Q248.2031 86.1406 248.7266 85.8516 Q249.25 85.5625 249.9375 85.5625 Q251.0625 85.5625 251.6484 86.2578 Q252.2344 86.9531 252.2344 88.3125 ZM255.4531 83.8594 L255.4531 85.7188 L257.6719 85.7188 L257.6719 86.5625 L255.4531 86.5625 L255.4531 90.125 Q255.4531 90.9219 255.6719 91.1484 Q255.8906 91.375 256.5625 91.375 L257.6719 91.375 L257.6719 92.2812 L256.5625 92.2812 Q255.3125 92.2812 254.8359 91.8125 Q254.3594 91.3438 254.3594 90.125 L254.3594 86.5625 L253.5781 86.5625 L253.5781 85.7188 L254.3594 85.7188 L254.3594 83.8594 L255.4531 83.8594 ZM264.7031 88.7344 L264.7031 89.25 L259.7344 89.25 Q259.8125 90.375 260.4141 90.9531 Q261.0156 91.5312 262.0781 91.5312 Q262.7031 91.5312 263.2891 91.3828 Q263.875 91.2344 264.4531 90.9219 L264.4531 91.9531 Q263.8594 92.1875 263.25 92.3203 Q262.6406 92.4531 262.0156 92.4531 Q260.4531 92.4531 259.5312 91.5391 Q258.6094 90.625 258.6094 89.0625 Q258.6094 87.4531 259.4844 86.5078 Q260.3594 85.5625 261.8281 85.5625 Q263.1562 85.5625 263.9297 86.4141 Q264.7031 87.2656 264.7031 88.7344 ZM263.625 88.4062 Q263.6094 87.5312 263.125 87 Q262.6406 86.4688 261.8438 86.4688 Q260.9375 86.4688 260.3984 86.9844 Q259.8594 87.5 259.7812 88.4219 L263.625 88.4062 ZM271.9375 88.3125 L271.9375 92.2812 L270.8594 92.2812 L270.8594 88.3594 Q270.8594 87.4219 270.4922 86.9609 Q270.125 86.5 269.4062 86.5 Q268.5312 86.5 268.0234 87.0547 Q267.5156 87.6094 267.5156 88.5781 L267.5156 92.2812 L266.4375 92.2812 L266.4375 85.7188 L267.5156 85.7188 L267.5156 86.7344 Q267.9062 86.1406 268.4297 85.8516 Q268.9531 85.5625 269.6406 85.5625 Q270.7656 85.5625 271.3516 86.2578 Q271.9375 86.9531 271.9375 88.3125 ZM273.9688 89.6875 L273.9688 85.7188 L275.0469 85.7188 L275.0469 89.6562 Q275.0469 90.5781 275.4141 91.0469 Q275.7812 91.5156 276.5 91.5156 Q277.375 91.5156 277.8828 90.9609 Q278.3906 90.4062 278.3906 89.4375 L278.3906 85.7188 L279.4688 85.7188 L279.4688 92.2812 L278.3906 92.2812 L278.3906 91.2656 Q278 91.875 277.4844 92.1641 Q276.9688 92.4531 276.2812 92.4531 Q275.1406 92.4531 274.5547 91.75 Q273.9688 91.0469 273.9688 89.6875 ZM276.6875 85.5625 L276.6875 85.5625 ZM282.75 83.8594 L282.75 85.7188 L284.9688 85.7188 L284.9688 86.5625 L282.75 86.5625 L282.75 90.125 Q282.75 90.9219 282.9688 91.1484 Q283.1875 91.375 283.8594 91.375 L284.9688 91.375 L284.9688 92.2812 L283.8594 92.2812 Q282.6094 92.2812 282.1328 91.8125 Q281.6562 91.3438 281.6562 90.125 L281.6562 86.5625 L280.875 86.5625 L280.875 85.7188 L281.6562 85.7188 L281.6562 83.8594 L282.75 83.8594 ZM286.375 85.7188 L287.4531 85.7188 L287.4531 92.2812 L286.375 92.2812 L286.375 85.7188 ZM286.375 83.1562 L287.4531 83.1562 L287.4531 84.5312 L286.375 84.5312 L286.375 83.1562 Z" clip-path="url(#clipPath4)" stroke="none"/>
    </g>
    <g fill="rgb(232,238,247)" stroke-miterlimit="1.45" transform="matrix(2.5,0,0,2.5,-50,-50)" stroke-linecap="butt" stroke="rgb(232,238,247)">
      <rect x="72.0575" width="92.2" height="40" y="154.75" clip-path="url(#clipPath2)" stroke="none"/>
      <rect x="72.0575" y="154.75" clip-path="url(#clipPath2)" fill="none" width="92.2" height="40" stroke="black"/>
      <path fill="none" d="M82.0575 154.75 L82.0575 194.75 M154.2575 154.75 L154.2575 194.75 M82.0575 154.75 Z" clip-path="url(#clipPath2)" stroke="black"/>
    </g>
    <g transform="matrix(2.5,0,0,2.5,-50,-50)">
      <path d="M88.7188 156.1562 L88.7188 159.4531 L90.2031 159.4531 Q91.0312 159.4531 91.4844 159.0234 Q91.9375 158.5938 91.9375 157.7969 Q91.9375 157.0156 91.4844 156.5859 Q91.0312 156.1562 90.2031 156.1562 L88.7188 156.1562 ZM87.5312 155.1875 L90.2031 155.1875 Q91.6875 155.1875 92.4375 155.8516 Q93.1875 156.5156 93.1875 157.7969 Q93.1875 159.0938 92.4375 159.7578 Q91.6875 160.4219 90.2031 160.4219 L88.7188 160.4219 L88.7188 163.9375 L87.5312 163.9375 L87.5312 155.1875 ZM98.5312 158.375 Q98.3438 158.2812 98.1328 158.2266 Q97.9219 158.1719 97.6562 158.1719 Q96.75 158.1719 96.2578 158.7656 Q95.7656 159.3594 95.7656 160.4844 L95.7656 163.9375 L94.6875 163.9375 L94.6875 157.375 L95.7656 157.375 L95.7656 158.3906 Q96.1094 157.7969 96.6562 157.5078 Q97.2031 157.2188 97.9844 157.2188 Q98.0938 157.2188 98.2266 157.2344 Q98.3594 157.25 98.5156 157.2812 L98.5312 158.375 ZM102.2031 158.125 Q101.3438 158.125 100.8359 158.8047 Q100.3281 159.4844 100.3281 160.6562 Q100.3281 161.8438 100.8281 162.5156 Q101.3281 163.1875 102.2031 163.1875 Q103.0625 163.1875 103.5703 162.5078 Q104.0781 161.8281 104.0781 160.6562 Q104.0781 159.5 103.5703 158.8125 Q103.0625 158.125 102.2031 158.125 ZM102.2031 157.2188 Q103.6094 157.2188 104.4141 158.1328 Q105.2188 159.0469 105.2188 160.6562 Q105.2188 162.2656 104.4141 163.1875 Q103.6094 164.1094 102.2031 164.1094 Q100.7969 164.1094 99.9922 163.1875 Q99.1875 162.2656 99.1875 160.6562 Q99.1875 159.0469 99.9922 158.1328 Q100.7969 157.2188 102.2031 157.2188 ZM111.3125 160.5781 Q111.3125 159.4062 110.8281 158.7656 Q110.3438 158.125 109.4688 158.125 Q108.6094 158.125 108.125 158.7656 Q107.6406 159.4062 107.6406 160.5781 Q107.6406 161.75 108.125 162.3906 Q108.6094 163.0312 109.4688 163.0312 Q110.3438 163.0312 110.8281 162.3906 Q111.3125 161.75 111.3125 160.5781 ZM112.3906 163.125 Q112.3906 164.7969 111.6484 165.6172 Q110.9062 166.4375 109.3594 166.4375 Q108.7969 166.4375 108.2891 166.3516 Q107.7812 166.2656 107.3125 166.0938 L107.3125 165.0469 Q107.7812 165.2969 108.25 165.4219 Q108.7188 165.5469 109.1875 165.5469 Q110.25 165.5469 110.7812 164.9922 Q111.3125 164.4375 111.3125 163.3125 L111.3125 162.7812 Q110.9688 163.3594 110.4531 163.6484 Q109.9375 163.9375 109.2031 163.9375 Q108 163.9375 107.2578 163.0156 Q106.5156 162.0938 106.5156 160.5781 Q106.5156 159.0625 107.2578 158.1406 Q108 157.2188 109.2031 157.2188 Q109.9375 157.2188 110.4531 157.5078 Q110.9688 157.7969 111.3125 158.375 L111.3125 157.375 L112.3906 157.375 L112.3906 163.125 ZM120.2344 160.3906 L120.2344 160.9062 L115.2656 160.9062 Q115.3438 162.0312 115.9453 162.6094 Q116.5469 163.1875 117.6094 163.1875 Q118.2344 163.1875 118.8203 163.0391 Q119.4062 162.8906 119.9844 162.5781 L119.9844 163.6094 Q119.3906 163.8438 118.7812 163.9766 Q118.1719 164.1094 117.5469 164.1094 Q115.9844 164.1094 115.0625 163.1953 Q114.1406 162.2812 114.1406 160.7188 Q114.1406 159.1094 115.0156 158.1641 Q115.8906 157.2188 117.3594 157.2188 Q118.6875 157.2188 119.4609 158.0703 Q120.2344 158.9219 120.2344 160.3906 ZM119.1562 160.0625 Q119.1406 159.1875 118.6562 158.6562 Q118.1719 158.125 117.375 158.125 Q116.4688 158.125 115.9297 158.6406 Q115.3906 159.1562 115.3125 160.0781 L119.1562 160.0625 ZM123.0625 155.5156 L123.0625 157.375 L125.2812 157.375 L125.2812 158.2188 L123.0625 158.2188 L123.0625 161.7812 Q123.0625 162.5781 123.2812 162.8047 Q123.5 163.0312 124.1719 163.0312 L125.2812 163.0312 L125.2812 163.9375 L124.1719 163.9375 Q122.9219 163.9375 122.4453 163.4688 Q121.9688 163 121.9688 161.7812 L121.9688 158.2188 L121.1875 158.2188 L121.1875 157.375 L121.9688 157.375 L121.9688 155.5156 L123.0625 155.5156 ZM127.7812 155.5156 L127.7812 157.375 L130 157.375 L130 158.2188 L127.7812 158.2188 L127.7812 161.7812 Q127.7812 162.5781 128 162.8047 Q128.2188 163.0312 128.8906 163.0312 L130 163.0312 L130 163.9375 L128.8906 163.9375 Q127.6406 163.9375 127.1641 163.4688 Q126.6875 163 126.6875 161.7812 L126.6875 158.2188 L125.9062 158.2188 L125.9062 157.375 L126.6875 157.375 L126.6875 155.5156 L127.7812 155.5156 ZM134.3906 160.6406 Q133.0938 160.6406 132.5859 160.9375 Q132.0781 161.2344 132.0781 161.9531 Q132.0781 162.5312 132.4609 162.8672 Q132.8438 163.2031 133.4844 163.2031 Q134.3906 163.2031 134.9297 162.5703 Q135.4688 161.9375 135.4688 160.875 L135.4688 160.6406 L134.3906 160.6406 ZM136.5469 160.1875 L136.5469 163.9375 L135.4688 163.9375 L135.4688 162.9375 Q135.0938 163.5312 134.5469 163.8203 Q134 164.1094 133.2031 164.1094 Q132.1875 164.1094 131.5938 163.5391 Q131 162.9688 131 162.0312 Q131 160.9219 131.7422 160.3594 Q132.4844 159.7969 133.9531 159.7969 L135.4688 159.7969 L135.4688 159.6875 Q135.4688 158.9375 134.9766 158.5312 Q134.4844 158.125 133.6094 158.125 Q133.0469 158.125 132.5078 158.2656 Q131.9688 158.4062 131.4844 158.6719 L131.4844 157.6719 Q132.0781 157.4375 132.6328 157.3281 Q133.1875 157.2188 133.7188 157.2188 Q135.1406 157.2188 135.8438 157.9531 Q136.5469 158.6875 136.5469 160.1875 ZM142.5625 158.375 Q142.375 158.2812 142.1641 158.2266 Q141.9531 158.1719 141.6875 158.1719 Q140.7812 158.1719 140.2891 158.7656 Q139.7969 159.3594 139.7969 160.4844 L139.7969 163.9375 L138.7188 163.9375 L138.7188 157.375 L139.7969 157.375 L139.7969 158.3906 Q140.1406 157.7969 140.6875 157.5078 Q141.2344 157.2188 142.0156 157.2188 Q142.125 157.2188 142.2578 157.2344 Q142.3906 157.25 142.5469 157.2812 L142.5625 158.375 ZM149.3125 160.3906 L149.3125 160.9062 L144.3438 160.9062 Q144.4219 162.0312 145.0234 162.6094 Q145.625 163.1875 146.6875 163.1875 Q147.3125 163.1875 147.8984 163.0391 Q148.4844 162.8906 149.0625 162.5781 L149.0625 163.6094 Q148.4688 163.8438 147.8594 163.9766 Q147.25 164.1094 146.625 164.1094 Q145.0625 164.1094 144.1406 163.1953 Q143.2188 162.2812 143.2188 160.7188 Q143.2188 159.1094 144.0938 158.1641 Q144.9688 157.2188 146.4375 157.2188 Q147.7656 157.2188 148.5391 158.0703 Q149.3125 158.9219 149.3125 160.3906 ZM148.2344 160.0625 Q148.2188 159.1875 147.7344 158.6562 Q147.25 158.125 146.4531 158.125 Q145.5469 158.125 145.0078 158.6406 Q144.4688 159.1562 144.3906 160.0781 L148.2344 160.0625 Z" clip-path="url(#clipPath5)" stroke="none"/>
      <path d="M97.0625 171.5312 L97.0625 172.5625 Q96.6094 172.3281 96.1172 172.2109 Q95.625 172.0938 95.0938 172.0938 Q94.2969 172.0938 93.8906 172.3359 Q93.4844 172.5781 93.4844 173.0781 Q93.4844 173.4531 93.7734 173.6641 Q94.0625 173.875 94.9375 174.0625 L95.2969 174.1562 Q96.4531 174.3906 96.9375 174.8438 Q97.4219 175.2969 97.4219 176.0938 Q97.4219 177.0156 96.6953 177.5469 Q95.9688 178.0781 94.7031 178.0781 Q94.1719 178.0781 93.6016 177.9766 Q93.0312 177.875 92.4062 177.6719 L92.4062 176.5469 Q93 176.8594 93.5781 177.0156 Q94.1562 177.1719 94.7344 177.1719 Q95.4844 177.1719 95.8984 176.9141 Q96.3125 176.6562 96.3125 176.1719 Q96.3125 175.7344 96.0156 175.5 Q95.7188 175.2656 94.7188 175.0469 L94.3438 174.9688 Q93.3438 174.75 92.8984 174.3125 Q92.4531 173.875 92.4531 173.125 Q92.4531 172.1875 93.1094 171.6875 Q93.7656 171.1875 94.9688 171.1875 Q95.5625 171.1875 96.0938 171.2734 Q96.625 171.3594 97.0625 171.5312 ZM100.2031 169.4844 L100.2031 171.3438 L102.4219 171.3438 L102.4219 172.1875 L100.2031 172.1875 L100.2031 175.75 Q100.2031 176.5469 100.4219 176.7734 Q100.6406 177 101.3125 177 L102.4219 177 L102.4219 177.9062 L101.3125 177.9062 Q100.0625 177.9062 99.5859 177.4375 Q99.1094 176.9688 99.1094 175.75 L99.1094 172.1875 L98.3281 172.1875 L98.3281 171.3438 L99.1094 171.3438 L99.1094 169.4844 L100.2031 169.4844 ZM107.6406 172.3438 Q107.4531 172.25 107.2422 172.1953 Q107.0312 172.1406 106.7656 172.1406 Q105.8594 172.1406 105.3672 172.7344 Q104.875 173.3281 104.875 174.4531 L104.875 177.9062 L103.7969 177.9062 L103.7969 171.3438 L104.875 171.3438 L104.875 172.3594 Q105.2188 171.7656 105.7656 171.4766 Q106.3125 171.1875 107.0938 171.1875 Q107.2031 171.1875 107.3359 171.2031 Q107.4688 171.2188 107.625 171.25 L107.6406 172.3438 ZM108.6562 175.3125 L108.6562 171.3438 L109.7344 171.3438 L109.7344 175.2812 Q109.7344 176.2031 110.1016 176.6719 Q110.4688 177.1406 111.1875 177.1406 Q112.0625 177.1406 112.5703 176.5859 Q113.0781 176.0312 113.0781 175.0625 L113.0781 171.3438 L114.1562 171.3438 L114.1562 177.9062 L113.0781 177.9062 L113.0781 176.8906 Q112.6875 177.5 112.1719 177.7891 Q111.6562 178.0781 110.9688 178.0781 Q109.8281 178.0781 109.2422 177.375 Q108.6562 176.6719 108.6562 175.3125 ZM111.375 171.1875 L111.375 171.1875 ZM117.4531 169.4844 L117.4531 171.3438 L119.6719 171.3438 L119.6719 172.1875 L117.4531 172.1875 L117.4531 175.75 Q117.4531 176.5469 117.6719 176.7734 Q117.8906 177 118.5625 177 L119.6719 177 L119.6719 177.9062 L118.5625 177.9062 Q117.3125 177.9062 116.8359 177.4375 Q116.3594 176.9688 116.3594 175.75 L116.3594 172.1875 L115.5781 172.1875 L115.5781 171.3438 L116.3594 171.3438 L116.3594 169.4844 L117.4531 169.4844 ZM122.1562 169.4844 L122.1562 171.3438 L124.375 171.3438 L124.375 172.1875 L122.1562 172.1875 L122.1562 175.75 Q122.1562 176.5469 122.375 176.7734 Q122.5938 177 123.2656 177 L124.375 177 L124.375 177.9062 L123.2656 177.9062 Q122.0156 177.9062 121.5391 177.4375 Q121.0625 176.9688 121.0625 175.75 L121.0625 172.1875 L120.2812 172.1875 L120.2812 171.3438 L121.0625 171.3438 L121.0625 169.4844 L122.1562 169.4844 ZM125.6719 175.3125 L125.6719 171.3438 L126.75 171.3438 L126.75 175.2812 Q126.75 176.2031 127.1172 176.6719 Q127.4844 177.1406 128.2031 177.1406 Q129.0781 177.1406 129.5859 176.5859 Q130.0938 176.0312 130.0938 175.0625 L130.0938 171.3438 L131.1719 171.3438 L131.1719 177.9062 L130.0938 177.9062 L130.0938 176.8906 Q129.7031 177.5 129.1875 177.7891 Q128.6719 178.0781 127.9844 178.0781 Q126.8438 178.0781 126.2578 177.375 Q125.6719 176.6719 125.6719 175.3125 ZM128.3906 171.1875 L128.3906 171.1875 ZM137.2031 172.3438 Q137.0156 172.25 136.8047 172.1953 Q136.5938 172.1406 136.3281 172.1406 Q135.4219 172.1406 134.9297 172.7344 Q134.4375 173.3281 134.4375 174.4531 L134.4375 177.9062 L133.3594 177.9062 L133.3594 171.3438 L134.4375 171.3438 L134.4375 172.3594 Q134.7812 171.7656 135.3281 171.4766 Q135.875 171.1875 136.6562 171.1875 Q136.7656 171.1875 136.8984 171.2031 Q137.0312 171.2188 137.1875 171.25 L137.2031 172.3438 ZM141.3125 174.6094 Q140.0156 174.6094 139.5078 174.9062 Q139 175.2031 139 175.9219 Q139 176.5 139.3828 176.8359 Q139.7656 177.1719 140.4062 177.1719 Q141.3125 177.1719 141.8516 176.5391 Q142.3906 175.9062 142.3906 174.8438 L142.3906 174.6094 L141.3125 174.6094 ZM143.4688 174.1562 L143.4688 177.9062 L142.3906 177.9062 L142.3906 176.9062 Q142.0156 177.5 141.4688 177.7891 Q140.9219 178.0781 140.125 178.0781 Q139.1094 178.0781 138.5156 177.5078 Q137.9219 176.9375 137.9219 176 Q137.9219 174.8906 138.6641 174.3281 Q139.4062 173.7656 140.875 173.7656 L142.3906 173.7656 L142.3906 173.6562 Q142.3906 172.9062 141.8984 172.5 Q141.4062 172.0938 140.5312 172.0938 Q139.9688 172.0938 139.4297 172.2344 Q138.8906 172.375 138.4062 172.6406 L138.4062 171.6406 Q139 171.4062 139.5547 171.2969 Q140.1094 171.1875 140.6406 171.1875 Q142.0625 171.1875 142.7656 171.9219 Q143.4688 172.6562 143.4688 174.1562 Z" clip-path="url(#clipPath5)" stroke="none"/>
      <path d="M101.4844 182.75 L102.5625 182.75 L102.5625 191.875 L101.4844 191.875 L101.4844 182.75 ZM107.3594 186.0625 Q106.5 186.0625 105.9922 186.7422 Q105.4844 187.4219 105.4844 188.5938 Q105.4844 189.7812 105.9844 190.4531 Q106.4844 191.125 107.3594 191.125 Q108.2188 191.125 108.7266 190.4453 Q109.2344 189.7656 109.2344 188.5938 Q109.2344 187.4375 108.7266 186.75 Q108.2188 186.0625 107.3594 186.0625 ZM107.3594 185.1562 Q108.7656 185.1562 109.5703 186.0703 Q110.375 186.9844 110.375 188.5938 Q110.375 190.2031 109.5703 191.125 Q108.7656 192.0469 107.3594 192.0469 Q105.9531 192.0469 105.1484 191.125 Q104.3438 190.2031 104.3438 188.5938 Q104.3438 186.9844 105.1484 186.0703 Q105.9531 185.1562 107.3594 185.1562 ZM116.4844 188.5156 Q116.4844 187.3438 116 186.7031 Q115.5156 186.0625 114.6406 186.0625 Q113.7812 186.0625 113.2969 186.7031 Q112.8125 187.3438 112.8125 188.5156 Q112.8125 189.6875 113.2969 190.3281 Q113.7812 190.9688 114.6406 190.9688 Q115.5156 190.9688 116 190.3281 Q116.4844 189.6875 116.4844 188.5156 ZM117.5625 191.0625 Q117.5625 192.7344 116.8203 193.5547 Q116.0781 194.375 114.5312 194.375 Q113.9688 194.375 113.4609 194.2891 Q112.9531 194.2031 112.4844 194.0312 L112.4844 192.9844 Q112.9531 193.2344 113.4219 193.3594 Q113.8906 193.4844 114.3594 193.4844 Q115.4219 193.4844 115.9531 192.9297 Q116.4844 192.375 116.4844 191.25 L116.4844 190.7188 Q116.1406 191.2969 115.625 191.5859 Q115.1094 191.875 114.375 191.875 Q113.1719 191.875 112.4297 190.9531 Q111.6875 190.0312 111.6875 188.5156 Q111.6875 187 112.4297 186.0781 Q113.1719 185.1562 114.375 185.1562 Q115.1094 185.1562 115.625 185.4453 Q116.1406 185.7344 116.4844 186.3125 L116.4844 185.3125 L117.5625 185.3125 L117.5625 191.0625 ZM119.7812 185.3125 L120.8594 185.3125 L120.8594 191.875 L119.7812 191.875 L119.7812 185.3125 ZM119.7812 182.75 L120.8594 182.75 L120.8594 184.125 L119.7812 184.125 L119.7812 182.75 ZM127.8438 185.5625 L127.8438 186.5781 Q127.375 186.3125 126.9219 186.1875 Q126.4688 186.0625 126 186.0625 Q124.9375 186.0625 124.3594 186.7266 Q123.7812 187.3906 123.7812 188.5938 Q123.7812 189.7969 124.3594 190.4609 Q124.9375 191.125 126 191.125 Q126.4688 191.125 126.9219 191 Q127.375 190.875 127.8438 190.625 L127.8438 191.625 Q127.3906 191.8281 126.9062 191.9375 Q126.4219 192.0469 125.875 192.0469 Q124.3906 192.0469 123.5156 191.1172 Q122.6406 190.1875 122.6406 188.5938 Q122.6406 187 123.5234 186.0781 Q124.4062 185.1562 125.9531 185.1562 Q126.4375 185.1562 126.9141 185.2578 Q127.3906 185.3594 127.8438 185.5625 ZM132.6875 188.5781 Q131.3906 188.5781 130.8828 188.875 Q130.375 189.1719 130.375 189.8906 Q130.375 190.4688 130.7578 190.8047 Q131.1406 191.1406 131.7812 191.1406 Q132.6875 191.1406 133.2266 190.5078 Q133.7656 189.875 133.7656 188.8125 L133.7656 188.5781 L132.6875 188.5781 ZM134.8438 188.125 L134.8438 191.875 L133.7656 191.875 L133.7656 190.875 Q133.3906 191.4688 132.8438 191.7578 Q132.2969 192.0469 131.5 192.0469 Q130.4844 192.0469 129.8906 191.4766 Q129.2969 190.9062 129.2969 189.9688 Q129.2969 188.8594 130.0391 188.2969 Q130.7812 187.7344 132.25 187.7344 L133.7656 187.7344 L133.7656 187.625 Q133.7656 186.875 133.2734 186.4688 Q132.7812 186.0625 131.9062 186.0625 Q131.3438 186.0625 130.8047 186.2031 Q130.2656 186.3438 129.7812 186.6094 L129.7812 185.6094 Q130.375 185.375 130.9297 185.2656 Q131.4844 185.1562 132.0156 185.1562 Q133.4375 185.1562 134.1406 185.8906 Q134.8438 186.625 134.8438 188.125 Z" clip-path="url(#clipPath5)" stroke="none"/>
    </g>
    <g fill="rgb(232,238,247)" stroke-miterlimit="1.45" transform="matrix(2.5,0,0,2.5,-50,-50)" stroke-linecap="butt" stroke="rgb(232,238,247)">
      <rect x="227.2575" width="92.2" height="50" y="155.75" clip-path="url(#clipPath2)" stroke="none"/>
      <rect x="227.2575" y="155.75" clip-path="url(#clipPath2)" fill="none" width="92.2" height="50" stroke="black"/>
      <path fill="none" d="M237.2575 155.75 L237.2575 205.75 M309.4575 155.75 L309.4575 205.75 M237.2575 155.75 Z" clip-path="url(#clipPath2)" stroke="black"/>
    </g>
    <g transform="matrix(2.5,0,0,2.5,-50,-50)">
      <path d="M247.6719 165.8281 Q248.0469 165.9688 248.4062 166.3906 Q248.7656 166.8125 249.1406 167.5469 L250.3438 169.9375 L249.0625 169.9375 L247.9531 167.6875 Q247.5156 166.8125 247.1094 166.5234 Q246.7031 166.2344 246 166.2344 L244.7031 166.2344 L244.7031 169.9375 L243.5156 169.9375 L243.5156 161.1875 L246.1875 161.1875 Q247.6875 161.1875 248.4297 161.8125 Q249.1719 162.4375 249.1719 163.7031 Q249.1719 164.5312 248.7891 165.0781 Q248.4062 165.625 247.6719 165.8281 ZM244.7031 162.1562 L244.7031 165.2656 L246.1875 165.2656 Q247.0469 165.2656 247.4844 164.8672 Q247.9219 164.4688 247.9219 163.7031 Q247.9219 162.9375 247.4844 162.5469 Q247.0469 162.1562 246.1875 162.1562 L244.7031 162.1562 ZM257.4375 166.3906 L257.4375 166.9062 L252.4688 166.9062 Q252.5469 168.0312 253.1484 168.6094 Q253.75 169.1875 254.8125 169.1875 Q255.4375 169.1875 256.0234 169.0391 Q256.6094 168.8906 257.1875 168.5781 L257.1875 169.6094 Q256.5938 169.8438 255.9844 169.9766 Q255.375 170.1094 254.75 170.1094 Q253.1875 170.1094 252.2656 169.1953 Q251.3438 168.2812 251.3438 166.7188 Q251.3438 165.1094 252.2188 164.1641 Q253.0938 163.2188 254.5625 163.2188 Q255.8906 163.2188 256.6641 164.0703 Q257.4375 164.9219 257.4375 166.3906 ZM256.3594 166.0625 Q256.3438 165.1875 255.8594 164.6562 Q255.375 164.125 254.5781 164.125 Q253.6719 164.125 253.1328 164.6406 Q252.5938 165.1562 252.5156 166.0781 L256.3594 166.0625 ZM262.1719 166.6406 Q260.875 166.6406 260.3672 166.9375 Q259.8594 167.2344 259.8594 167.9531 Q259.8594 168.5312 260.2422 168.8672 Q260.625 169.2031 261.2656 169.2031 Q262.1719 169.2031 262.7109 168.5703 Q263.25 167.9375 263.25 166.875 L263.25 166.6406 L262.1719 166.6406 ZM264.3281 166.1875 L264.3281 169.9375 L263.25 169.9375 L263.25 168.9375 Q262.875 169.5312 262.3281 169.8203 Q261.7812 170.1094 260.9844 170.1094 Q259.9688 170.1094 259.375 169.5391 Q258.7812 168.9688 258.7812 168.0312 Q258.7812 166.9219 259.5234 166.3594 Q260.2656 165.7969 261.7344 165.7969 L263.25 165.7969 L263.25 165.6875 Q263.25 164.9375 262.7578 164.5312 Q262.2656 164.125 261.3906 164.125 Q260.8281 164.125 260.2891 164.2656 Q259.75 164.4062 259.2656 164.6719 L259.2656 163.6719 Q259.8594 163.4375 260.4141 163.3281 Q260.9688 163.2188 261.5 163.2188 Q262.9219 163.2188 263.625 163.9531 Q264.3281 164.6875 264.3281 166.1875 ZM266.5469 160.8125 L267.625 160.8125 L267.625 169.9375 L266.5469 169.9375 L266.5469 160.8125 ZM269.875 163.375 L270.9531 163.375 L270.9531 169.9375 L269.875 169.9375 L269.875 163.375 ZM269.875 160.8125 L270.9531 160.8125 L270.9531 162.1875 L269.875 162.1875 L269.875 160.8125 ZM272.75 163.375 L277.875 163.375 L277.875 164.3594 L273.8281 169.0781 L277.875 169.0781 L277.875 169.9375 L272.6094 169.9375 L272.6094 168.9531 L276.6719 164.2344 L272.75 164.2344 L272.75 163.375 ZM279.0469 163.375 L284.1719 163.375 L284.1719 164.3594 L280.125 169.0781 L284.1719 169.0781 L284.1719 169.9375 L278.9062 169.9375 L278.9062 168.9531 L282.9688 164.2344 L279.0469 164.2344 L279.0469 163.375 ZM288.7969 166.6406 Q287.5 166.6406 286.9922 166.9375 Q286.4844 167.2344 286.4844 167.9531 Q286.4844 168.5312 286.8672 168.8672 Q287.25 169.2031 287.8906 169.2031 Q288.7969 169.2031 289.3359 168.5703 Q289.875 167.9375 289.875 166.875 L289.875 166.6406 L288.7969 166.6406 ZM290.9531 166.1875 L290.9531 169.9375 L289.875 169.9375 L289.875 168.9375 Q289.5 169.5312 288.9531 169.8203 Q288.4062 170.1094 287.6094 170.1094 Q286.5938 170.1094 286 169.5391 Q285.4062 168.9688 285.4062 168.0312 Q285.4062 166.9219 286.1484 166.3594 Q286.8906 165.7969 288.3594 165.7969 L289.875 165.7969 L289.875 165.6875 Q289.875 164.9375 289.3828 164.5312 Q288.8906 164.125 288.0156 164.125 Q287.4531 164.125 286.9141 164.2656 Q286.375 164.4062 285.8906 164.6719 L285.8906 163.6719 Q286.4844 163.4375 287.0391 163.3281 Q287.5938 163.2188 288.125 163.2188 Q289.5469 163.2188 290.25 163.9531 Q290.9531 164.6875 290.9531 166.1875 ZM296.9688 164.375 Q296.7812 164.2812 296.5703 164.2266 Q296.3594 164.1719 296.0938 164.1719 Q295.1875 164.1719 294.6953 164.7656 Q294.2031 165.3594 294.2031 166.4844 L294.2031 169.9375 L293.125 169.9375 L293.125 163.375 L294.2031 163.375 L294.2031 164.3906 Q294.5469 163.7969 295.0938 163.5078 Q295.6406 163.2188 296.4219 163.2188 Q296.5312 163.2188 296.6641 163.2344 Q296.7969 163.25 296.9531 163.2812 L296.9688 164.375 ZM303.7188 166.3906 L303.7188 166.9062 L298.75 166.9062 Q298.8281 168.0312 299.4297 168.6094 Q300.0312 169.1875 301.0938 169.1875 Q301.7188 169.1875 302.3047 169.0391 Q302.8906 168.8906 303.4688 168.5781 L303.4688 169.6094 Q302.875 169.8438 302.2656 169.9766 Q301.6562 170.1094 301.0312 170.1094 Q299.4688 170.1094 298.5469 169.1953 Q297.625 168.2812 297.625 166.7188 Q297.625 165.1094 298.5 164.1641 Q299.375 163.2188 300.8438 163.2188 Q302.1719 163.2188 302.9453 164.0703 Q303.7188 164.9219 303.7188 166.3906 ZM302.6406 166.0625 Q302.625 165.1875 302.1406 164.6562 Q301.6562 164.125 300.8594 164.125 Q299.9531 164.125 299.4141 164.6406 Q298.875 165.1562 298.7969 166.0781 L302.6406 166.0625 Z" clip-path="url(#clipPath6)" stroke="none"/>
      <path d="M252.2656 177.5312 L252.2656 178.5625 Q251.8125 178.3281 251.3203 178.2109 Q250.8281 178.0938 250.2969 178.0938 Q249.5 178.0938 249.0938 178.3359 Q248.6875 178.5781 248.6875 179.0781 Q248.6875 179.4531 248.9766 179.6641 Q249.2656 179.875 250.1406 180.0625 L250.5 180.1562 Q251.6562 180.3906 252.1406 180.8438 Q252.625 181.2969 252.625 182.0938 Q252.625 183.0156 251.8984 183.5469 Q251.1719 184.0781 249.9062 184.0781 Q249.375 184.0781 248.8047 183.9766 Q248.2344 183.875 247.6094 183.6719 L247.6094 182.5469 Q248.2031 182.8594 248.7812 183.0156 Q249.3594 183.1719 249.9375 183.1719 Q250.6875 183.1719 251.1016 182.9141 Q251.5156 182.6562 251.5156 182.1719 Q251.5156 181.7344 251.2188 181.5 Q250.9219 181.2656 249.9219 181.0469 L249.5469 180.9688 Q248.5469 180.75 248.1016 180.3125 Q247.6562 179.875 247.6562 179.125 Q247.6562 178.1875 248.3125 177.6875 Q248.9688 177.1875 250.1719 177.1875 Q250.7656 177.1875 251.2969 177.2734 Q251.8281 177.3594 252.2656 177.5312 ZM255.4062 175.4844 L255.4062 177.3438 L257.625 177.3438 L257.625 178.1875 L255.4062 178.1875 L255.4062 181.75 Q255.4062 182.5469 255.625 182.7734 Q255.8438 183 256.5156 183 L257.625 183 L257.625 183.9062 L256.5156 183.9062 Q255.2656 183.9062 254.7891 183.4375 Q254.3125 182.9688 254.3125 181.75 L254.3125 178.1875 L253.5312 178.1875 L253.5312 177.3438 L254.3125 177.3438 L254.3125 175.4844 L255.4062 175.4844 ZM262.8438 178.3438 Q262.6562 178.25 262.4453 178.1953 Q262.2344 178.1406 261.9688 178.1406 Q261.0625 178.1406 260.5703 178.7344 Q260.0781 179.3281 260.0781 180.4531 L260.0781 183.9062 L259 183.9062 L259 177.3438 L260.0781 177.3438 L260.0781 178.3594 Q260.4219 177.7656 260.9688 177.4766 Q261.5156 177.1875 262.2969 177.1875 Q262.4062 177.1875 262.5391 177.2031 Q262.6719 177.2188 262.8281 177.25 L262.8438 178.3438 ZM263.8594 181.3125 L263.8594 177.3438 L264.9375 177.3438 L264.9375 181.2812 Q264.9375 182.2031 265.3047 182.6719 Q265.6719 183.1406 266.3906 183.1406 Q267.2656 183.1406 267.7734 182.5859 Q268.2812 182.0312 268.2812 181.0625 L268.2812 177.3438 L269.3594 177.3438 L269.3594 183.9062 L268.2812 183.9062 L268.2812 182.8906 Q267.8906 183.5 267.375 183.7891 Q266.8594 184.0781 266.1719 184.0781 Q265.0312 184.0781 264.4453 183.375 Q263.8594 182.6719 263.8594 181.3125 ZM266.5781 177.1875 L266.5781 177.1875 ZM272.6562 175.4844 L272.6562 177.3438 L274.875 177.3438 L274.875 178.1875 L272.6562 178.1875 L272.6562 181.75 Q272.6562 182.5469 272.875 182.7734 Q273.0938 183 273.7656 183 L274.875 183 L274.875 183.9062 L273.7656 183.9062 Q272.5156 183.9062 272.0391 183.4375 Q271.5625 182.9688 271.5625 181.75 L271.5625 178.1875 L270.7812 178.1875 L270.7812 177.3438 L271.5625 177.3438 L271.5625 175.4844 L272.6562 175.4844 ZM277.3594 175.4844 L277.3594 177.3438 L279.5781 177.3438 L279.5781 178.1875 L277.3594 178.1875 L277.3594 181.75 Q277.3594 182.5469 277.5781 182.7734 Q277.7969 183 278.4688 183 L279.5781 183 L279.5781 183.9062 L278.4688 183.9062 Q277.2188 183.9062 276.7422 183.4375 Q276.2656 182.9688 276.2656 181.75 L276.2656 178.1875 L275.4844 178.1875 L275.4844 177.3438 L276.2656 177.3438 L276.2656 175.4844 L277.3594 175.4844 ZM280.875 181.3125 L280.875 177.3438 L281.9531 177.3438 L281.9531 181.2812 Q281.9531 182.2031 282.3203 182.6719 Q282.6875 183.1406 283.4062 183.1406 Q284.2812 183.1406 284.7891 182.5859 Q285.2969 182.0312 285.2969 181.0625 L285.2969 177.3438 L286.375 177.3438 L286.375 183.9062 L285.2969 183.9062 L285.2969 182.8906 Q284.9062 183.5 284.3906 183.7891 Q283.875 184.0781 283.1875 184.0781 Q282.0469 184.0781 281.4609 183.375 Q280.875 182.6719 280.875 181.3125 ZM283.5938 177.1875 L283.5938 177.1875 ZM292.4062 178.3438 Q292.2188 178.25 292.0078 178.1953 Q291.7969 178.1406 291.5312 178.1406 Q290.625 178.1406 290.1328 178.7344 Q289.6406 179.3281 289.6406 180.4531 L289.6406 183.9062 L288.5625 183.9062 L288.5625 177.3438 L289.6406 177.3438 L289.6406 178.3594 Q289.9844 177.7656 290.5312 177.4766 Q291.0781 177.1875 291.8594 177.1875 Q291.9688 177.1875 292.1016 177.2031 Q292.2344 177.2188 292.3906 177.25 L292.4062 178.3438 ZM296.5 180.6094 Q295.2031 180.6094 294.6953 180.9062 Q294.1875 181.2031 294.1875 181.9219 Q294.1875 182.5 294.5703 182.8359 Q294.9531 183.1719 295.5938 183.1719 Q296.5 183.1719 297.0391 182.5391 Q297.5781 181.9062 297.5781 180.8438 L297.5781 180.6094 L296.5 180.6094 ZM298.6562 180.1562 L298.6562 183.9062 L297.5781 183.9062 L297.5781 182.9062 Q297.2031 183.5 296.6562 183.7891 Q296.1094 184.0781 295.3125 184.0781 Q294.2969 184.0781 293.7031 183.5078 Q293.1094 182.9375 293.1094 182 Q293.1094 180.8906 293.8516 180.3281 Q294.5938 179.7656 296.0625 179.7656 L297.5781 179.7656 L297.5781 179.6562 Q297.5781 178.9062 297.0859 178.5 Q296.5938 178.0938 295.7188 178.0938 Q295.1562 178.0938 294.6172 178.2344 Q294.0781 178.375 293.5938 178.6406 L293.5938 177.6406 Q294.1875 177.4062 294.7422 177.2969 Q295.2969 177.1875 295.8281 177.1875 Q297.25 177.1875 297.9531 177.9219 Q298.6562 178.6562 298.6562 180.1562 Z" clip-path="url(#clipPath6)" stroke="none"/>
      <path d="M256.6875 188.75 L257.7656 188.75 L257.7656 197.875 L256.6875 197.875 L256.6875 188.75 ZM262.5625 192.0625 Q261.7031 192.0625 261.1953 192.7422 Q260.6875 193.4219 260.6875 194.5938 Q260.6875 195.7812 261.1875 196.4531 Q261.6875 197.125 262.5625 197.125 Q263.4219 197.125 263.9297 196.4453 Q264.4375 195.7656 264.4375 194.5938 Q264.4375 193.4375 263.9297 192.75 Q263.4219 192.0625 262.5625 192.0625 ZM262.5625 191.1562 Q263.9688 191.1562 264.7734 192.0703 Q265.5781 192.9844 265.5781 194.5938 Q265.5781 196.2031 264.7734 197.125 Q263.9688 198.0469 262.5625 198.0469 Q261.1562 198.0469 260.3516 197.125 Q259.5469 196.2031 259.5469 194.5938 Q259.5469 192.9844 260.3516 192.0703 Q261.1562 191.1562 262.5625 191.1562 ZM271.6875 194.5156 Q271.6875 193.3438 271.2031 192.7031 Q270.7188 192.0625 269.8438 192.0625 Q268.9844 192.0625 268.5 192.7031 Q268.0156 193.3438 268.0156 194.5156 Q268.0156 195.6875 268.5 196.3281 Q268.9844 196.9688 269.8438 196.9688 Q270.7188 196.9688 271.2031 196.3281 Q271.6875 195.6875 271.6875 194.5156 ZM272.7656 197.0625 Q272.7656 198.7344 272.0234 199.5547 Q271.2812 200.375 269.7344 200.375 Q269.1719 200.375 268.6641 200.2891 Q268.1562 200.2031 267.6875 200.0312 L267.6875 198.9844 Q268.1562 199.2344 268.625 199.3594 Q269.0938 199.4844 269.5625 199.4844 Q270.625 199.4844 271.1562 198.9297 Q271.6875 198.375 271.6875 197.25 L271.6875 196.7188 Q271.3438 197.2969 270.8281 197.5859 Q270.3125 197.875 269.5781 197.875 Q268.375 197.875 267.6328 196.9531 Q266.8906 196.0312 266.8906 194.5156 Q266.8906 193 267.6328 192.0781 Q268.375 191.1562 269.5781 191.1562 Q270.3125 191.1562 270.8281 191.4453 Q271.3438 191.7344 271.6875 192.3125 L271.6875 191.3125 L272.7656 191.3125 L272.7656 197.0625 ZM274.9844 191.3125 L276.0625 191.3125 L276.0625 197.875 L274.9844 197.875 L274.9844 191.3125 ZM274.9844 188.75 L276.0625 188.75 L276.0625 190.125 L274.9844 190.125 L274.9844 188.75 ZM283.0469 191.5625 L283.0469 192.5781 Q282.5781 192.3125 282.125 192.1875 Q281.6719 192.0625 281.2031 192.0625 Q280.1406 192.0625 279.5625 192.7266 Q278.9844 193.3906 278.9844 194.5938 Q278.9844 195.7969 279.5625 196.4609 Q280.1406 197.125 281.2031 197.125 Q281.6719 197.125 282.125 197 Q282.5781 196.875 283.0469 196.625 L283.0469 197.625 Q282.5938 197.8281 282.1094 197.9375 Q281.625 198.0469 281.0781 198.0469 Q279.5938 198.0469 278.7188 197.1172 Q277.8438 196.1875 277.8438 194.5938 Q277.8438 193 278.7266 192.0781 Q279.6094 191.1562 281.1562 191.1562 Q281.6406 191.1562 282.1172 191.2578 Q282.5938 191.3594 283.0469 191.5625 ZM287.8906 194.5781 Q286.5938 194.5781 286.0859 194.875 Q285.5781 195.1719 285.5781 195.8906 Q285.5781 196.4688 285.9609 196.8047 Q286.3438 197.1406 286.9844 197.1406 Q287.8906 197.1406 288.4297 196.5078 Q288.9688 195.875 288.9688 194.8125 L288.9688 194.5781 L287.8906 194.5781 ZM290.0469 194.125 L290.0469 197.875 L288.9688 197.875 L288.9688 196.875 Q288.5938 197.4688 288.0469 197.7578 Q287.5 198.0469 286.7031 198.0469 Q285.6875 198.0469 285.0938 197.4766 Q284.5 196.9062 284.5 195.9688 Q284.5 194.8594 285.2422 194.2969 Q285.9844 193.7344 287.4531 193.7344 L288.9688 193.7344 L288.9688 193.625 Q288.9688 192.875 288.4766 192.4688 Q287.9844 192.0625 287.1094 192.0625 Q286.5469 192.0625 286.0078 192.2031 Q285.4688 192.3438 284.9844 192.6094 L284.9844 191.6094 Q285.5781 191.375 286.1328 191.2656 Q286.6875 191.1562 287.2188 191.1562 Q288.6406 191.1562 289.3438 191.8906 Q290.0469 192.625 290.0469 194.125 Z" clip-path="url(#clipPath6)" stroke="none"/>
    </g>
    <g fill="rgb(232,238,247)" stroke-miterlimit="1.45" transform="matrix(2.5,0,0,2.5,-50,-50)" stroke-linecap="butt" stroke="rgb(232,238,247)">
      <rect x="63.2575" width="92.2" height="40" y="247.35" clip-path="url(#clipPath2)" stroke="none"/>
      <rect x="63.2575" y="247.35" clip-path="url(#clipPath2)" fill="none" width="92.2" height="40" stroke="black"/>
      <path fill="none" d="M73.2575 247.35 L73.2575 287.35 M145.4575 247.35 L145.4575 287.35 M73.2575 247.35 Z" clip-path="url(#clipPath2)" stroke="black"/>
    </g>
    <g transform="matrix(2.5,0,0,2.5,-50,-50)">
      <path d="M79.9062 255.7344 L79.9062 259.0312 L81.3906 259.0312 Q82.2188 259.0312 82.6719 258.6016 Q83.125 258.1719 83.125 257.375 Q83.125 256.5938 82.6719 256.1641 Q82.2188 255.7344 81.3906 255.7344 L79.9062 255.7344 ZM78.7188 254.7656 L81.3906 254.7656 Q82.875 254.7656 83.625 255.4297 Q84.375 256.0938 84.375 257.375 Q84.375 258.6719 83.625 259.3359 Q82.875 260 81.3906 260 L79.9062 260 L79.9062 263.5156 L78.7188 263.5156 L78.7188 254.7656 ZM89.7344 257.9531 Q89.5469 257.8594 89.3359 257.8047 Q89.125 257.75 88.8594 257.75 Q87.9531 257.75 87.4609 258.3438 Q86.9688 258.9375 86.9688 260.0625 L86.9688 263.5156 L85.8906 263.5156 L85.8906 256.9531 L86.9688 256.9531 L86.9688 257.9688 Q87.3125 257.375 87.8594 257.0859 Q88.4062 256.7969 89.1875 256.7969 Q89.2969 256.7969 89.4297 256.8125 Q89.5625 256.8281 89.7188 256.8594 L89.7344 257.9531 ZM93.3906 257.7031 Q92.5312 257.7031 92.0234 258.3828 Q91.5156 259.0625 91.5156 260.2344 Q91.5156 261.4219 92.0156 262.0938 Q92.5156 262.7656 93.3906 262.7656 Q94.25 262.7656 94.7578 262.0859 Q95.2656 261.4062 95.2656 260.2344 Q95.2656 259.0781 94.7578 258.3906 Q94.25 257.7031 93.3906 257.7031 ZM93.3906 256.7969 Q94.7969 256.7969 95.6016 257.7109 Q96.4062 258.625 96.4062 260.2344 Q96.4062 261.8438 95.6016 262.7656 Q94.7969 263.6875 93.3906 263.6875 Q91.9844 263.6875 91.1797 262.7656 Q90.375 261.8438 90.375 260.2344 Q90.375 258.625 91.1797 257.7109 Q91.9844 256.7969 93.3906 256.7969 ZM102.5156 260.1562 Q102.5156 258.9844 102.0312 258.3438 Q101.5469 257.7031 100.6719 257.7031 Q99.8125 257.7031 99.3281 258.3438 Q98.8438 258.9844 98.8438 260.1562 Q98.8438 261.3281 99.3281 261.9688 Q99.8125 262.6094 100.6719 262.6094 Q101.5469 262.6094 102.0312 261.9688 Q102.5156 261.3281 102.5156 260.1562 ZM103.5938 262.7031 Q103.5938 264.375 102.8516 265.1953 Q102.1094 266.0156 100.5625 266.0156 Q100 266.0156 99.4922 265.9297 Q98.9844 265.8438 98.5156 265.6719 L98.5156 264.625 Q98.9844 264.875 99.4531 265 Q99.9219 265.125 100.3906 265.125 Q101.4531 265.125 101.9844 264.5703 Q102.5156 264.0156 102.5156 262.8906 L102.5156 262.3594 Q102.1719 262.9375 101.6562 263.2266 Q101.1406 263.5156 100.4062 263.5156 Q99.2031 263.5156 98.4609 262.5938 Q97.7188 261.6719 97.7188 260.1562 Q97.7188 258.6406 98.4609 257.7188 Q99.2031 256.7969 100.4062 256.7969 Q101.1406 256.7969 101.6562 257.0859 Q102.1719 257.375 102.5156 257.9531 L102.5156 256.9531 L103.5938 256.9531 L103.5938 262.7031 ZM111.4375 259.9688 L111.4375 260.4844 L106.4688 260.4844 Q106.5469 261.6094 107.1484 262.1875 Q107.75 262.7656 108.8125 262.7656 Q109.4375 262.7656 110.0234 262.6172 Q110.6094 262.4688 111.1875 262.1562 L111.1875 263.1875 Q110.5938 263.4219 109.9844 263.5547 Q109.375 263.6875 108.75 263.6875 Q107.1875 263.6875 106.2656 262.7734 Q105.3438 261.8594 105.3438 260.2969 Q105.3438 258.6875 106.2188 257.7422 Q107.0938 256.7969 108.5625 256.7969 Q109.8906 256.7969 110.6641 257.6484 Q111.4375 258.5 111.4375 259.9688 ZM110.3594 259.6406 Q110.3438 258.7656 109.8594 258.2344 Q109.375 257.7031 108.5781 257.7031 Q107.6719 257.7031 107.1328 258.2188 Q106.5938 258.7344 106.5156 259.6562 L110.3594 259.6406 ZM114.2656 255.0938 L114.2656 256.9531 L116.4844 256.9531 L116.4844 257.7969 L114.2656 257.7969 L114.2656 261.3594 Q114.2656 262.1562 114.4844 262.3828 Q114.7031 262.6094 115.375 262.6094 L116.4844 262.6094 L116.4844 263.5156 L115.375 263.5156 Q114.125 263.5156 113.6484 263.0469 Q113.1719 262.5781 113.1719 261.3594 L113.1719 257.7969 L112.3906 257.7969 L112.3906 256.9531 L113.1719 256.9531 L113.1719 255.0938 L114.2656 255.0938 ZM118.9688 255.0938 L118.9688 256.9531 L121.1875 256.9531 L121.1875 257.7969 L118.9688 257.7969 L118.9688 261.3594 Q118.9688 262.1562 119.1875 262.3828 Q119.4062 262.6094 120.0781 262.6094 L121.1875 262.6094 L121.1875 263.5156 L120.0781 263.5156 Q118.8281 263.5156 118.3516 263.0469 Q117.875 262.5781 117.875 261.3594 L117.875 257.7969 L117.0938 257.7969 L117.0938 256.9531 L117.875 256.9531 L117.875 255.0938 L118.9688 255.0938 ZM125.5781 260.2188 Q124.2812 260.2188 123.7734 260.5156 Q123.2656 260.8125 123.2656 261.5312 Q123.2656 262.1094 123.6484 262.4453 Q124.0312 262.7812 124.6719 262.7812 Q125.5781 262.7812 126.1172 262.1484 Q126.6562 261.5156 126.6562 260.4531 L126.6562 260.2188 L125.5781 260.2188 ZM127.7344 259.7656 L127.7344 263.5156 L126.6562 263.5156 L126.6562 262.5156 Q126.2812 263.1094 125.7344 263.3984 Q125.1875 263.6875 124.3906 263.6875 Q123.375 263.6875 122.7812 263.1172 Q122.1875 262.5469 122.1875 261.6094 Q122.1875 260.5 122.9297 259.9375 Q123.6719 259.375 125.1406 259.375 L126.6562 259.375 L126.6562 259.2656 Q126.6562 258.5156 126.1641 258.1094 Q125.6719 257.7031 124.7969 257.7031 Q124.2344 257.7031 123.6953 257.8438 Q123.1562 257.9844 122.6719 258.25 L122.6719 257.25 Q123.2656 257.0156 123.8203 256.9062 Q124.375 256.7969 124.9062 256.7969 Q126.3281 256.7969 127.0312 257.5312 Q127.7344 258.2656 127.7344 259.7656 ZM133.7656 257.9531 Q133.5781 257.8594 133.3672 257.8047 Q133.1562 257.75 132.8906 257.75 Q131.9844 257.75 131.4922 258.3438 Q131 258.9375 131 260.0625 L131 263.5156 L129.9219 263.5156 L129.9219 256.9531 L131 256.9531 L131 257.9688 Q131.3438 257.375 131.8906 257.0859 Q132.4375 256.7969 133.2188 256.7969 Q133.3281 256.7969 133.4609 256.8125 Q133.5938 256.8281 133.75 256.8594 L133.7656 257.9531 ZM140.5156 259.9688 L140.5156 260.4844 L135.5469 260.4844 Q135.625 261.6094 136.2266 262.1875 Q136.8281 262.7656 137.8906 262.7656 Q138.5156 262.7656 139.1016 262.6172 Q139.6875 262.4688 140.2656 262.1562 L140.2656 263.1875 Q139.6719 263.4219 139.0625 263.5547 Q138.4531 263.6875 137.8281 263.6875 Q136.2656 263.6875 135.3438 262.7734 Q134.4219 261.8594 134.4219 260.2969 Q134.4219 258.6875 135.2969 257.7422 Q136.1719 256.7969 137.6406 256.7969 Q138.9688 256.7969 139.7422 257.6484 Q140.5156 258.5 140.5156 259.9688 ZM139.4375 259.6406 Q139.4219 258.7656 138.9375 258.2344 Q138.4531 257.7031 137.6562 257.7031 Q136.75 257.7031 136.2109 258.2188 Q135.6719 258.7344 135.5938 259.6562 L139.4375 259.6406 Z" clip-path="url(#clipPath7)" stroke="none"/>
      <path d="M91.75 268.3594 L92.8281 268.3594 L92.8281 277.4844 L91.75 277.4844 L91.75 268.3594 ZM98.0781 274.1875 Q96.7812 274.1875 96.2734 274.4844 Q95.7656 274.7812 95.7656 275.5 Q95.7656 276.0781 96.1484 276.4141 Q96.5312 276.75 97.1719 276.75 Q98.0781 276.75 98.6172 276.1172 Q99.1562 275.4844 99.1562 274.4219 L99.1562 274.1875 L98.0781 274.1875 ZM100.2344 273.7344 L100.2344 277.4844 L99.1562 277.4844 L99.1562 276.4844 Q98.7812 277.0781 98.2344 277.3672 Q97.6875 277.6562 96.8906 277.6562 Q95.875 277.6562 95.2812 277.0859 Q94.6875 276.5156 94.6875 275.5781 Q94.6875 274.4688 95.4297 273.9062 Q96.1719 273.3438 97.6406 273.3438 L99.1562 273.3438 L99.1562 273.2344 Q99.1562 272.4844 98.6641 272.0781 Q98.1719 271.6719 97.2969 271.6719 Q96.7344 271.6719 96.1953 271.8125 Q95.6562 271.9531 95.1719 272.2188 L95.1719 271.2188 Q95.7656 270.9844 96.3203 270.875 Q96.875 270.7656 97.4062 270.7656 Q98.8281 270.7656 99.5312 271.5 Q100.2344 272.2344 100.2344 273.7344 ZM105.1719 278.0938 Q104.7188 279.2656 104.2812 279.625 Q103.8438 279.9844 103.125 279.9844 L102.2656 279.9844 L102.2656 279.0781 L102.8906 279.0781 Q103.3438 279.0781 103.5859 278.8672 Q103.8281 278.6562 104.125 277.875 L104.3281 277.375 L101.6719 270.9219 L102.8125 270.9219 L104.8594 276.0469 L106.9219 270.9219 L108.0625 270.9219 L105.1719 278.0938 ZM112.0938 271.6719 Q111.2344 271.6719 110.7266 272.3516 Q110.2188 273.0312 110.2188 274.2031 Q110.2188 275.3906 110.7188 276.0625 Q111.2188 276.7344 112.0938 276.7344 Q112.9531 276.7344 113.4609 276.0547 Q113.9688 275.375 113.9688 274.2031 Q113.9688 273.0469 113.4609 272.3594 Q112.9531 271.6719 112.0938 271.6719 ZM112.0938 270.7656 Q113.5 270.7656 114.3047 271.6797 Q115.1094 272.5938 115.1094 274.2031 Q115.1094 275.8125 114.3047 276.7344 Q113.5 277.6562 112.0938 277.6562 Q110.6875 277.6562 109.8828 276.7344 Q109.0781 275.8125 109.0781 274.2031 Q109.0781 272.5938 109.8828 271.6797 Q110.6875 270.7656 112.0938 270.7656 ZM116.7812 274.8906 L116.7812 270.9219 L117.8594 270.9219 L117.8594 274.8594 Q117.8594 275.7812 118.2266 276.25 Q118.5938 276.7188 119.3125 276.7188 Q120.1875 276.7188 120.6953 276.1641 Q121.2031 275.6094 121.2031 274.6406 L121.2031 270.9219 L122.2812 270.9219 L122.2812 277.4844 L121.2031 277.4844 L121.2031 276.4688 Q120.8125 277.0781 120.2969 277.3672 Q119.7812 277.6562 119.0938 277.6562 Q117.9531 277.6562 117.3672 276.9531 Q116.7812 276.25 116.7812 274.8906 ZM119.5 270.7656 L119.5 270.7656 ZM125.5625 269.0625 L125.5625 270.9219 L127.7812 270.9219 L127.7812 271.7656 L125.5625 271.7656 L125.5625 275.3281 Q125.5625 276.125 125.7812 276.3516 Q126 276.5781 126.6719 276.5781 L127.7812 276.5781 L127.7812 277.4844 L126.6719 277.4844 Q125.4219 277.4844 124.9453 277.0156 Q124.4688 276.5469 124.4688 275.3281 L124.4688 271.7656 L123.6875 271.7656 L123.6875 270.9219 L124.4688 270.9219 L124.4688 269.0625 L125.5625 269.0625 Z" clip-path="url(#clipPath7)" stroke="none"/>
    </g>
    <g fill="rgb(232,238,247)" stroke-miterlimit="1.45" transform="matrix(2.5,0,0,2.5,-50,-50)" stroke-linecap="butt" stroke="rgb(232,238,247)">
      <rect x="221.2575" width="85" height="40" y="247.35" clip-path="url(#clipPath2)" stroke="none"/>
      <rect x="221.2575" y="247.35" clip-path="url(#clipPath2)" fill="none" width="85" height="40" stroke="black"/>
      <path fill="none" d="M231.2575 247.35 L231.2575 287.35 M296.2575 247.35 L296.2575 287.35 M231.2575 247.35 Z" clip-path="url(#clipPath2)" stroke="black"/>
    </g>
    <g transform="matrix(2.5,0,0,2.5,-50,-50)">
      <path d="M238.0781 259.4062 Q238.4531 259.5469 238.8125 259.9688 Q239.1719 260.3906 239.5469 261.125 L240.75 263.5156 L239.4688 263.5156 L238.3594 261.2656 Q237.9219 260.3906 237.5156 260.1016 Q237.1094 259.8125 236.4062 259.8125 L235.1094 259.8125 L235.1094 263.5156 L233.9219 263.5156 L233.9219 254.7656 L236.5938 254.7656 Q238.0938 254.7656 238.8359 255.3906 Q239.5781 256.0156 239.5781 257.2812 Q239.5781 258.1094 239.1953 258.6562 Q238.8125 259.2031 238.0781 259.4062 ZM235.1094 255.7344 L235.1094 258.8438 L236.5938 258.8438 Q237.4531 258.8438 237.8906 258.4453 Q238.3281 258.0469 238.3281 257.2812 Q238.3281 256.5156 237.8906 256.125 Q237.4531 255.7344 236.5938 255.7344 L235.1094 255.7344 ZM247.8281 259.9688 L247.8281 260.4844 L242.8594 260.4844 Q242.9375 261.6094 243.5391 262.1875 Q244.1406 262.7656 245.2031 262.7656 Q245.8281 262.7656 246.4141 262.6172 Q247 262.4688 247.5781 262.1562 L247.5781 263.1875 Q246.9844 263.4219 246.375 263.5547 Q245.7656 263.6875 245.1406 263.6875 Q243.5781 263.6875 242.6562 262.7734 Q241.7344 261.8594 241.7344 260.2969 Q241.7344 258.6875 242.6094 257.7422 Q243.4844 256.7969 244.9531 256.7969 Q246.2812 256.7969 247.0547 257.6484 Q247.8281 258.5 247.8281 259.9688 ZM246.75 259.6406 Q246.7344 258.7656 246.25 258.2344 Q245.7656 257.7031 244.9688 257.7031 Q244.0625 257.7031 243.5234 258.2188 Q242.9844 258.7344 242.9062 259.6562 L246.75 259.6406 ZM252.5781 260.2188 Q251.2812 260.2188 250.7734 260.5156 Q250.2656 260.8125 250.2656 261.5312 Q250.2656 262.1094 250.6484 262.4453 Q251.0312 262.7812 251.6719 262.7812 Q252.5781 262.7812 253.1172 262.1484 Q253.6562 261.5156 253.6562 260.4531 L253.6562 260.2188 L252.5781 260.2188 ZM254.7344 259.7656 L254.7344 263.5156 L253.6562 263.5156 L253.6562 262.5156 Q253.2812 263.1094 252.7344 263.3984 Q252.1875 263.6875 251.3906 263.6875 Q250.375 263.6875 249.7812 263.1172 Q249.1875 262.5469 249.1875 261.6094 Q249.1875 260.5 249.9297 259.9375 Q250.6719 259.375 252.1406 259.375 L253.6562 259.375 L253.6562 259.2656 Q253.6562 258.5156 253.1641 258.1094 Q252.6719 257.7031 251.7969 257.7031 Q251.2344 257.7031 250.6953 257.8438 Q250.1562 257.9844 249.6719 258.25 L249.6719 257.25 Q250.2656 257.0156 250.8203 256.9062 Q251.375 256.7969 251.9062 256.7969 Q253.3281 256.7969 254.0312 257.5312 Q254.7344 258.2656 254.7344 259.7656 ZM256.9375 254.3906 L258.0156 254.3906 L258.0156 263.5156 L256.9375 263.5156 L256.9375 254.3906 ZM260.2812 256.9531 L261.3594 256.9531 L261.3594 263.5156 L260.2812 263.5156 L260.2812 256.9531 ZM260.2812 254.3906 L261.3594 254.3906 L261.3594 255.7656 L260.2812 255.7656 L260.2812 254.3906 ZM263.1406 256.9531 L268.2656 256.9531 L268.2656 257.9375 L264.2188 262.6562 L268.2656 262.6562 L268.2656 263.5156 L263 263.5156 L263 262.5312 L267.0625 257.8125 L263.1406 257.8125 L263.1406 256.9531 ZM269.4375 256.9531 L274.5625 256.9531 L274.5625 257.9375 L270.5156 262.6562 L274.5625 262.6562 L274.5625 263.5156 L269.2969 263.5156 L269.2969 262.5312 L273.3594 257.8125 L269.4375 257.8125 L269.4375 256.9531 ZM279.1875 260.2188 Q277.8906 260.2188 277.3828 260.5156 Q276.875 260.8125 276.875 261.5312 Q276.875 262.1094 277.2578 262.4453 Q277.6406 262.7812 278.2812 262.7812 Q279.1875 262.7812 279.7266 262.1484 Q280.2656 261.5156 280.2656 260.4531 L280.2656 260.2188 L279.1875 260.2188 ZM281.3438 259.7656 L281.3438 263.5156 L280.2656 263.5156 L280.2656 262.5156 Q279.8906 263.1094 279.3438 263.3984 Q278.7969 263.6875 278 263.6875 Q276.9844 263.6875 276.3906 263.1172 Q275.7969 262.5469 275.7969 261.6094 Q275.7969 260.5 276.5391 259.9375 Q277.2812 259.375 278.75 259.375 L280.2656 259.375 L280.2656 259.2656 Q280.2656 258.5156 279.7734 258.1094 Q279.2812 257.7031 278.4062 257.7031 Q277.8438 257.7031 277.3047 257.8438 Q276.7656 257.9844 276.2812 258.25 L276.2812 257.25 Q276.875 257.0156 277.4297 256.9062 Q277.9844 256.7969 278.5156 256.7969 Q279.9375 256.7969 280.6406 257.5312 Q281.3438 258.2656 281.3438 259.7656 ZM287.375 257.9531 Q287.1875 257.8594 286.9766 257.8047 Q286.7656 257.75 286.5 257.75 Q285.5938 257.75 285.1016 258.3438 Q284.6094 258.9375 284.6094 260.0625 L284.6094 263.5156 L283.5312 263.5156 L283.5312 256.9531 L284.6094 256.9531 L284.6094 257.9688 Q284.9531 257.375 285.5 257.0859 Q286.0469 256.7969 286.8281 256.7969 Q286.9375 256.7969 287.0703 256.8125 Q287.2031 256.8281 287.3594 256.8594 L287.375 257.9531 ZM294.125 259.9688 L294.125 260.4844 L289.1562 260.4844 Q289.2344 261.6094 289.8359 262.1875 Q290.4375 262.7656 291.5 262.7656 Q292.125 262.7656 292.7109 262.6172 Q293.2969 262.4688 293.875 262.1562 L293.875 263.1875 Q293.2812 263.4219 292.6719 263.5547 Q292.0625 263.6875 291.4375 263.6875 Q289.875 263.6875 288.9531 262.7734 Q288.0312 261.8594 288.0312 260.2969 Q288.0312 258.6875 288.9062 257.7422 Q289.7812 256.7969 291.25 256.7969 Q292.5781 256.7969 293.3516 257.6484 Q294.125 258.5 294.125 259.9688 ZM293.0469 259.6406 Q293.0312 258.7656 292.5469 258.2344 Q292.0625 257.7031 291.2656 257.7031 Q290.3594 257.7031 289.8203 258.2188 Q289.2812 258.7344 289.2031 259.6562 L293.0469 259.6406 Z" clip-path="url(#clipPath8)" stroke="none"/>
      <path d="M246.1562 268.3594 L247.2344 268.3594 L247.2344 277.4844 L246.1562 277.4844 L246.1562 268.3594 ZM252.4688 274.1875 Q251.1719 274.1875 250.6641 274.4844 Q250.1562 274.7812 250.1562 275.5 Q250.1562 276.0781 250.5391 276.4141 Q250.9219 276.75 251.5625 276.75 Q252.4688 276.75 253.0078 276.1172 Q253.5469 275.4844 253.5469 274.4219 L253.5469 274.1875 L252.4688 274.1875 ZM254.625 273.7344 L254.625 277.4844 L253.5469 277.4844 L253.5469 276.4844 Q253.1719 277.0781 252.625 277.3672 Q252.0781 277.6562 251.2812 277.6562 Q250.2656 277.6562 249.6719 277.0859 Q249.0781 276.5156 249.0781 275.5781 Q249.0781 274.4688 249.8203 273.9062 Q250.5625 273.3438 252.0312 273.3438 L253.5469 273.3438 L253.5469 273.2344 Q253.5469 272.4844 253.0547 272.0781 Q252.5625 271.6719 251.6875 271.6719 Q251.125 271.6719 250.5859 271.8125 Q250.0469 271.9531 249.5625 272.2188 L249.5625 271.2188 Q250.1562 270.9844 250.7109 270.875 Q251.2656 270.7656 251.7969 270.7656 Q253.2188 270.7656 253.9219 271.5 Q254.625 272.2344 254.625 273.7344 ZM259.5781 278.0938 Q259.125 279.2656 258.6875 279.625 Q258.25 279.9844 257.5312 279.9844 L256.6719 279.9844 L256.6719 279.0781 L257.2969 279.0781 Q257.75 279.0781 257.9922 278.8672 Q258.2344 278.6562 258.5312 277.875 L258.7344 277.375 L256.0781 270.9219 L257.2188 270.9219 L259.2656 276.0469 L261.3281 270.9219 L262.4688 270.9219 L259.5781 278.0938 ZM266.4844 271.6719 Q265.625 271.6719 265.1172 272.3516 Q264.6094 273.0312 264.6094 274.2031 Q264.6094 275.3906 265.1094 276.0625 Q265.6094 276.7344 266.4844 276.7344 Q267.3438 276.7344 267.8516 276.0547 Q268.3594 275.375 268.3594 274.2031 Q268.3594 273.0469 267.8516 272.3594 Q267.3438 271.6719 266.4844 271.6719 ZM266.4844 270.7656 Q267.8906 270.7656 268.6953 271.6797 Q269.5 272.5938 269.5 274.2031 Q269.5 275.8125 268.6953 276.7344 Q267.8906 277.6562 266.4844 277.6562 Q265.0781 277.6562 264.2734 276.7344 Q263.4688 275.8125 263.4688 274.2031 Q263.4688 272.5938 264.2734 271.6797 Q265.0781 270.7656 266.4844 270.7656 ZM271.1719 274.8906 L271.1719 270.9219 L272.25 270.9219 L272.25 274.8594 Q272.25 275.7812 272.6172 276.25 Q272.9844 276.7188 273.7031 276.7188 Q274.5781 276.7188 275.0859 276.1641 Q275.5938 275.6094 275.5938 274.6406 L275.5938 270.9219 L276.6719 270.9219 L276.6719 277.4844 L275.5938 277.4844 L275.5938 276.4688 Q275.2031 277.0781 274.6875 277.3672 Q274.1719 277.6562 273.4844 277.6562 Q272.3438 277.6562 271.7578 276.9531 Q271.1719 276.25 271.1719 274.8906 ZM273.8906 270.7656 L273.8906 270.7656 ZM279.9688 269.0625 L279.9688 270.9219 L282.1875 270.9219 L282.1875 271.7656 L279.9688 271.7656 L279.9688 275.3281 Q279.9688 276.125 280.1875 276.3516 Q280.4062 276.5781 281.0781 276.5781 L282.1875 276.5781 L282.1875 277.4844 L281.0781 277.4844 Q279.8281 277.4844 279.3516 277.0156 Q278.875 276.5469 278.875 275.3281 L278.875 271.7656 L278.0938 271.7656 L278.0938 270.9219 L278.875 270.9219 L278.875 269.0625 L279.9688 269.0625 Z" clip-path="url(#clipPath8)" stroke="none"/>
    </g>
    <g stroke-linecap="butt" transform="matrix(2.5,0,0,2.5,-50,-50)" stroke-miterlimit="1.45">
      <path fill="none" d="M143.2869 82.15 L206.0769 82.15" clip-path="url(#clipPath2)"/>
      <path d="M214.0769 82.15 L202.0769 77.15 L205.0769 82.15 L202.0769 87.15 Z" clip-path="url(#clipPath2)" stroke="none"/>
      <path fill="none" d="M214.0881 82.15 L151.2429 82.15" clip-path="url(#clipPath2)"/>
      <path d="M143.2429 82.15 L155.2429 87.15 L152.2429 82.15 L155.2429 77.15 Z" clip-path="url(#clipPath2)" stroke="none"/>
      <path fill="none" d="M106.4805 102.1802 L113.6652 146.8311" clip-path="url(#clipPath2)"/>
      <path d="M114.9361 154.7295 L117.9662 142.0876 L113.5063 145.8438 L108.0932 143.6762 Z" clip-path="url(#clipPath2)" stroke="none"/>
      <path fill="none" d="M229.4763 102.1576 L155.5419 150.3712" clip-path="url(#clipPath2)"/>
      <path d="M148.8408 154.741 L161.6236 152.3744 L156.3795 149.8249 L156.1613 143.998 Z" clip-path="url(#clipPath2)" stroke="none"/>
      <path fill="none" d="M148.8387 154.7424 L222.7731 106.5289" clip-path="url(#clipPath2)"/>
      <path d="M229.4742 102.159 L216.6914 104.5256 L221.9355 107.0751 L222.1537 112.902 Z" clip-path="url(#clipPath2)" stroke="none"/>
      <path fill="none" d="M164.2704 176.5327 L219.2625 178.6587" clip-path="url(#clipPath2)"/>
      <path d="M227.2565 178.9677 L215.4586 173.5079 L218.2632 178.6201 L215.0723 183.5004 Z" clip-path="url(#clipPath2)" stroke="none"/>
      <path fill="none" d="M83.4601 102.1715 L50.2575 135.75 L50.2575 222.75 L76.4518 242.5176" clip-path="url(#clipPath2)"/>
      <path d="M82.8375 247.3366 L76.2708 236.1171 L75.6536 241.9153 L70.2471 244.0992 Z" clip-path="url(#clipPath2)" stroke="none"/>
      <path fill="none" d="M116.254 194.7802 L112.0169 239.3654" clip-path="url(#clipPath2)"/>
      <path d="M111.2601 247.3295 L117.3729 235.8564 L112.1115 238.3699 L107.4178 234.9103 Z" clip-path="url(#clipPath2)" stroke="none"/>
      <path fill="none" d="M227.2725 205.0851 L154.2878 243.6246" clip-path="url(#clipPath2)"/>
      <path d="M147.2135 247.3602 L160.1597 246.1782 L155.1721 243.1577 L155.4902 237.3354 Z" clip-path="url(#clipPath2)" stroke="none"/>
      <path fill="none" d="M155.4589 267.35 L213.2683 267.35" clip-path="url(#clipPath2)"/>
      <path d="M221.2683 267.35 L209.2683 262.35 L212.2683 267.35 L209.2683 272.35 Z" clip-path="url(#clipPath2)" stroke="none"/>
    </g>
  </g>
</svg>
