<?xml version="1.0" encoding="UTF-8"?>
<svg xmlns="http://www.w3.org/2000/svg" xmlns:xlink="http://www.w3.org/1999/xlink" fill-opacity="1" color-rendering="auto" color-interpolation="auto" stroke="black" text-rendering="auto" stroke-linecap="square" width="800" stroke-miterlimit="10" stroke-opacity="1" shape-rendering="auto" fill="black" stroke-dasharray="none" font-weight="normal" stroke-width="1" height="794" font-family="'Dialog'" font-style="normal" stroke-linejoin="miter" font-size="12" stroke-dashoffset="0" image-rendering="auto">
  <!--Generated by ySVG-->
  <defs id="genericDefs"/>
  <g>
    <defs id="defs1">
      <clipPath clipPathUnits="userSpaceOnUse" id="clipPath1">
        <path d="M0 0 L800 0 L800 794 L0 794 L0 0 Z"/>
      </clipPath>
      <clipPath clipPathUnits="userSpaceOnUse" id="clipPath2">
        <path d="M-5 -5 L449 -5 L449 445.595 L-5 445.595 L-5 -5 Z"/>
      </clipPath>
    </defs>
    <g fill="white" transform="scale(1.7621,1.7621) translate(5,5)" stroke="white">
      <rect x="-5" width="454" height="451" y="-5" clip-path="url(#clipPath2)" stroke="none"/>
    </g>
    <g fill="rgb(102,204,102)" fill-opacity="0.3137" transform="matrix(1.7621,0,0,1.7621,8.8106,8.8106)" stroke-opacity="0.3137" stroke="rgb(102,204,102)">
      <rect x="0.3843" width="443.0743" height="21.4531" y="0.671" clip-path="url(#clipPath2)" stroke="none"/>
    </g>
    <g font-size="15" stroke-miterlimit="1.45" font-family="sans-serif" transform="matrix(1.7621,0,0,1.7621,8.8106,8.8106)" stroke-linecap="butt">
      <text x="165.0708" xml:space="preserve" y="16.5929" clip-path="url(#clipPath2)" stroke="none">Pre-produzione</text>
      <rect x="0.3843" y="0.671" clip-path="url(#clipPath2)" fill="none" width="443.0743" stroke-dasharray="6,2" rx="4" ry="4" height="440.2531"/>
    </g>
    <g fill="rgb(232,238,247)" stroke-miterlimit="1.45" transform="matrix(1.7621,0,0,1.7621,8.8106,8.8106)" stroke-linecap="butt" stroke="rgb(232,238,247)">
      <path d="M25.5843 37.3621 L113.1043 37.3621 L102.9043 77.3621 L15.3843 77.3621 Z" clip-path="url(#clipPath2)" stroke="none"/>
      <path fill="none" d="M25.5843 37.3621 L113.1043 37.3621 L102.9043 77.3621 L15.3843 77.3621 Z" clip-path="url(#clipPath2)" stroke="black"/>
      <text x="33.2189" y="50.5027" clip-path="url(#clipPath2)" fill="black" font-family="sans-serif" stroke="none" xml:space="preserve">Necessità </text>
      <text x="30.0255" y="64.4714" clip-path="url(#clipPath2)" fill="black" font-family="sans-serif" stroke="none" xml:space="preserve">degli utenti</text>
    </g>
    <g fill="rgb(232,238,247)" stroke-miterlimit="1.45" transform="matrix(1.7621,0,0,1.7621,8.8106,8.8106)" stroke-linecap="butt" stroke="rgb(232,238,247)">
      <path d="M123.3043 37.3621 L223.8242 37.3621 L213.6243 77.3621 L113.1043 77.3621 Z" clip-path="url(#clipPath2)" stroke="none"/>
      <path fill="none" d="M123.3043 37.3621 L223.8242 37.3621 L213.6243 77.3621 L113.1043 77.3621 Z" clip-path="url(#clipPath2)" stroke="black"/>
      <text x="126.3646" y="54.5339" clip-path="url(#clipPath2)" fill="black" font-family="sans-serif" stroke="none" xml:space="preserve">Necessità dei </text>
      <text x="131.9193" y="68.5027" clip-path="url(#clipPath2)" fill="black" font-family="sans-serif" stroke="none" xml:space="preserve">committenti</text>
    </g>
    <g fill="rgb(232,238,247)" stroke-miterlimit="1.45" transform="matrix(1.7621,0,0,1.7621,8.8106,8.8106)" stroke-linecap="butt" stroke="rgb(232,238,247)">
      <path d="M268.6292 318.9621 L339.2292 318.9621 L329.0293 358.9621 L258.4293 358.9621 Z" clip-path="url(#clipPath2)" stroke="none"/>
      <path fill="none" d="M268.6292 318.9621 L339.2292 318.9621 L329.0293 358.9621 L258.4293 358.9621 Z" clip-path="url(#clipPath2)" stroke="black"/>
      <text x="274.8117" y="336.1339" clip-path="url(#clipPath2)" fill="black" font-family="sans-serif" stroke="none" xml:space="preserve">Possibili</text>
      <text x="266.2336" y="350.1027" clip-path="url(#clipPath2)" fill="black" font-family="sans-serif" stroke="none" xml:space="preserve">alternative</text>
    </g>
    <g fill="rgb(232,238,247)" stroke-miterlimit="1.45" transform="matrix(1.7621,0,0,1.7621,8.8106,8.8106)" stroke-linecap="butt" stroke="rgb(232,238,247)">
      <path d="M249.6342 46.9621 L319.4343 46.9621 L309.2343 86.9621 L239.4342 86.9621 Z" clip-path="url(#clipPath2)" stroke="none"/>
      <path fill="none" d="M249.6342 46.9621 L319.4343 46.9621 L309.2343 86.9621 L239.4342 86.9621 Z" clip-path="url(#clipPath2)" stroke="black"/>
      <text x="261.6833" y="64.1339" clip-path="url(#clipPath2)" fill="black" font-family="sans-serif" stroke="none" xml:space="preserve">Tutto </text>
      <text x="258.8854" y="78.1027" clip-path="url(#clipPath2)" fill="black" font-family="sans-serif" stroke="none" xml:space="preserve">il resto</text>
    </g>
    <g fill="rgb(232,238,247)" stroke-miterlimit="1.45" transform="matrix(1.7621,0,0,1.7621,8.8106,8.8106)" stroke-linecap="butt" stroke="rgb(232,238,247)">
      <path d="M126.9018 125.4246 L206.9017 125.4246 L206.9017 165.4246 L126.9018 165.4246 Z" clip-path="url(#clipPath2)" stroke="none"/>
      <path fill="none" d="M126.9018 125.4246 L206.9017 125.4246 L206.9017 165.4246 L126.9018 165.4246 Z" clip-path="url(#clipPath2)" stroke="black"/>
      <text x="141.0912" y="142.5964" clip-path="url(#clipPath2)" fill="black" font-family="sans-serif" stroke="none" xml:space="preserve">Raccolta</text>
      <text x="129.7035" y="156.5652" clip-path="url(#clipPath2)" fill="black" font-family="sans-serif" stroke="none" xml:space="preserve">informazioni</text>
    </g>
    <g fill="rgb(232,238,247)" stroke-miterlimit="1.45" transform="matrix(1.7621,0,0,1.7621,8.8106,8.8106)" stroke-linecap="butt" stroke="rgb(232,238,247)">
      <rect x="125.3393" width="80" height="40" y="189.6121" clip-path="url(#clipPath2)" stroke="none"/>
      <rect x="125.3393" y="189.6121" clip-path="url(#clipPath2)" fill="none" width="80" height="40" stroke="black"/>
      <path fill="none" d="M135.3392 189.6121 L135.3392 229.6121 M195.3392 189.6121 L195.3392 229.6121 M135.3392 189.6121 Z" clip-path="url(#clipPath2)" stroke="black"/>
      <text x="145.6283" y="213.7683" clip-path="url(#clipPath2)" fill="black" font-family="sans-serif" stroke="none" xml:space="preserve">Analisi</text>
    </g>
    <g fill="rgb(232,238,247)" stroke-miterlimit="1.45" transform="matrix(1.7621,0,0,1.7621,8.8106,8.8106)" stroke-linecap="butt" stroke="rgb(232,238,247)">
      <path d="M125.3393 260.0496 L205.3392 260.0496 L205.3392 300.0496 L125.3393 300.0496 Z" clip-path="url(#clipPath2)" stroke="none"/>
      <path fill="none" d="M125.3393 260.0496 L205.3392 260.0496 L205.3392 300.0496 L125.3393 300.0496 Z" clip-path="url(#clipPath2)" stroke="black"/>
      <text x="131.7973" y="277.2214" clip-path="url(#clipPath2)" fill="black" font-family="sans-serif" stroke="none" xml:space="preserve">Definizione</text>
      <text x="130.016" y="291.1902" clip-path="url(#clipPath2)" fill="black" font-family="sans-serif" stroke="none" xml:space="preserve">dei requisiti</text>
    </g>
    <g fill="rgb(232,238,247)" stroke-miterlimit="1.45" transform="matrix(1.7621,0,0,1.7621,8.8106,8.8106)" stroke-linecap="butt" stroke="rgb(232,238,247)">
      <path d="M360.4945 148.3241 L428.4585 148.3241 L416.4225 195.5241 L348.4585 195.5241 Z" clip-path="url(#clipPath2)" stroke="none"/>
      <path fill="none" d="M360.4945 148.3241 L428.4585 148.3241 L416.4225 195.5241 L348.4585 195.5241 Z" clip-path="url(#clipPath2)" stroke="black"/>
      <text x="366.5415" y="162.1116" clip-path="url(#clipPath2)" fill="black" font-family="sans-serif" stroke="none" xml:space="preserve">Risorse</text>
      <text x="365.6069" y="176.0804" clip-path="url(#clipPath2)" fill="black" font-family="sans-serif" stroke="none" xml:space="preserve">di cui si</text>
      <text x="364.8833" y="190.0491" clip-path="url(#clipPath2)" fill="black" font-family="sans-serif" stroke="none" xml:space="preserve">dispone</text>
    </g>
    <g fill="rgb(232,238,247)" stroke-miterlimit="1.45" transform="matrix(1.7621,0,0,1.7621,8.8106,8.8106)" stroke-linecap="butt" stroke="rgb(232,238,247)">
      <rect x="123.4785" width="80" height="40" y="324.8241" clip-path="url(#clipPath2)" stroke="none"/>
      <rect x="123.4785" y="324.8241" clip-path="url(#clipPath2)" fill="none" width="80" height="40" stroke="black"/>
      <path fill="none" d="M133.4785 324.8241 L133.4785 364.8241 M193.4785 324.8241 L193.4785 364.8241 M133.4785 324.8241 Z" clip-path="url(#clipPath2)" stroke="black"/>
      <text x="143.7676" y="348.9803" clip-path="url(#clipPath2)" fill="black" font-family="sans-serif" stroke="none" xml:space="preserve">Analisi</text>
    </g>
    <g fill="rgb(232,238,247)" stroke-miterlimit="1.45" transform="matrix(1.7621,0,0,1.7621,8.8106,8.8106)" stroke-linecap="butt" stroke="rgb(232,238,247)">
      <path d="M120.5685 385.9241 L208.0885 385.9241 L197.8885 425.9241 L110.3685 425.9241 Z" clip-path="url(#clipPath2)" stroke="none"/>
      <path fill="none" d="M120.5685 385.9241 L208.0885 385.9241 L197.8885 425.9241 L110.3685 425.9241 Z" clip-path="url(#clipPath2)" stroke="black"/>
      <text x="133.5967" y="399.0647" clip-path="url(#clipPath2)" fill="black" font-family="sans-serif" stroke="none" xml:space="preserve">Progetto</text>
    </g>
    <g fill="rgb(232,238,247)" stroke-miterlimit="1.45" transform="matrix(1.7621,0,0,1.7621,8.8106,8.8106)" stroke-linecap="butt" stroke="rgb(232,238,247)">
      <path d="M270.4035 227.6491 L350.4035 227.6491 L350.4035 267.6491 L270.4035 267.6491 Z" clip-path="url(#clipPath2)" stroke="none"/>
      <path fill="none" d="M270.4035 227.6491 L350.4035 227.6491 L350.4035 267.6491 L270.4035 267.6491 Z" clip-path="url(#clipPath2)" stroke="black"/>
      <text x="284.593" y="244.821" clip-path="url(#clipPath2)" fill="black" font-family="sans-serif" stroke="none" xml:space="preserve">Raccolta</text>
      <text x="273.2053" y="258.7897" clip-path="url(#clipPath2)" fill="black" font-family="sans-serif" stroke="none" xml:space="preserve">informazioni</text>
    </g>
    <g fill="rgb(232,238,247)" stroke-miterlimit="1.45" transform="matrix(1.7621,0,0,1.7621,8.8106,8.8106)" stroke-linecap="butt" stroke="rgb(232,238,247)">
      <path d="M261.953 151.0482 L329.917 151.0482 L317.881 198.2482 L249.917 198.2482 Z" clip-path="url(#clipPath2)" stroke="none"/>
      <path fill="none" d="M261.953 151.0482 L329.917 151.0482 L317.881 198.2482 L249.917 198.2482 Z" clip-path="url(#clipPath2)" stroke="black"/>
      <text x="263.9512" y="164.8357" clip-path="url(#clipPath2)" fill="black" font-family="sans-serif" stroke="none" xml:space="preserve">Metodi e</text>
      <text x="260.8106" y="178.8045" clip-path="url(#clipPath2)" fill="black" font-family="sans-serif" stroke="none" xml:space="preserve">strumenti</text>
      <text x="264.4405" y="192.7732" clip-path="url(#clipPath2)" fill="black" font-family="sans-serif" stroke="none" xml:space="preserve">esistenti</text>
    </g>
    <g stroke-linecap="butt" transform="matrix(1.7621,0,0,1.7621,8.8106,8.8106)" stroke-miterlimit="1.45">
      <path fill="none" d="M87.5778 77.3782 L137.5322 120.2305" clip-path="url(#clipPath2)"/>
      <path d="M143.6042 125.4393 L137.7517 113.8312 L136.7732 119.5795 L131.2408 121.4212 Z" clip-path="url(#clipPath2)" stroke="none"/>
      <path fill="none" d="M168.1095 77.3567 L167.3981 117.4508" clip-path="url(#clipPath2)"/>
      <path d="M167.2562 125.4496 L172.4683 113.5402 L167.4158 116.451 L162.4698 113.3628 Z" clip-path="url(#clipPath2)" stroke="none"/>
      <path fill="none" d="M266.9145 86.9627 L256.5 103.6 L214.1813 123.3544" clip-path="url(#clipPath2)"/>
      <path d="M206.9322 126.7383 L219.9208 126.1931 L215.0874 122.9314 L215.6909 117.1318 Z" clip-path="url(#clipPath2)" stroke="none"/>
      <path fill="none" d="M166.4142 165.4518 L166.02 181.6474" clip-path="url(#clipPath2)"/>
      <path d="M165.8253 189.6451 L171.1158 177.7703 L166.0443 180.6477 L161.1188 177.5269 Z" clip-path="url(#clipPath2)" stroke="none"/>
      <path fill="none" d="M165.3392 229.5946 L165.3392 252.0942" clip-path="url(#clipPath2)"/>
      <path d="M165.3392 260.0942 L170.3392 248.0942 L165.3392 251.0942 L160.3392 248.0942 Z" clip-path="url(#clipPath2)" stroke="none"/>
      <path fill="none" d="M263.108 340.5092 L211.5077 342.744" clip-path="url(#clipPath2)"/>
      <path d="M203.5152 343.0901 L215.7203 347.5662 L212.5067 342.7007 L215.2876 337.5756 Z" clip-path="url(#clipPath2)" stroke="none"/>
      <path fill="none" d="M164.7641 300.0702 L164.282 316.8542" clip-path="url(#clipPath2)"/>
      <path d="M164.0523 324.8509 L169.3948 312.9995 L164.3107 315.8546 L159.3989 312.7123 Z" clip-path="url(#clipPath2)" stroke="none"/>
      <path fill="none" d="M162.086 364.8427 L161.1761 377.9242" clip-path="url(#clipPath2)"/>
      <path d="M160.621 385.9049 L166.4416 374.2808 L161.2455 376.9266 L156.4657 373.5869 Z" clip-path="url(#clipPath2)" stroke="none"/>
      <path fill="none" d="M364.1235 195.5327 L336.7363 222.1024" clip-path="url(#clipPath2)"/>
      <path d="M330.9944 227.6729 L343.0888 222.9058 L337.4541 221.406 L336.1257 215.7284 Z" clip-path="url(#clipPath2)" stroke="none"/>
      <path fill="none" d="M307.866 267.6684 L302.3724 311.009" clip-path="url(#clipPath2)"/>
      <path d="M301.3664 318.9455 L307.8357 307.6695 L302.4982 310.017 L297.9151 306.412 Z" clip-path="url(#clipPath2)" stroke="none"/>
      <path fill="none" d="M296.5491 198.2808 L302.6339 219.9631" clip-path="url(#clipPath2)"/>
      <path d="M304.7954 227.6656 L306.3671 214.7609 L302.3637 219.0003 L296.7391 217.4629 Z" clip-path="url(#clipPath2)" stroke="none"/>
    </g>
  </g>
</svg>
