<?xml version="1.0" encoding="UTF-8"?>
<svg xmlns="http://www.w3.org/2000/svg" xmlns:xlink="http://www.w3.org/1999/xlink" fill-opacity="1" color-rendering="auto" color-interpolation="auto" stroke="black" text-rendering="auto" stroke-linecap="square" width="800" stroke-miterlimit="10" stroke-opacity="1" shape-rendering="auto" fill="black" stroke-dasharray="none" font-weight="normal" stroke-width="1" height="720" font-family="'Dialog'" font-style="normal" stroke-linejoin="miter" font-size="12" stroke-dashoffset="0" image-rendering="auto">
  <!--Generated by ySVG-->
  <defs id="genericDefs"/>
  <g>
    <defs id="defs1">
      <clipPath clipPathUnits="userSpaceOnUse" id="clipPath1">
        <path d="M0 0 L800 0 L800 720 L0 720 L0 0 Z"/>
      </clipPath>
      <clipPath clipPathUnits="userSpaceOnUse" id="clipPath2">
        <path d="M70 70 L372 70 L372 341.8 L70 341.8 L70 70 Z"/>
      </clipPath>
      <clipPath clipPathUnits="userSpaceOnUse" id="clipPath3">
        <path d="M136.4256 198.6474 L136.4256 242.5536 L212.4256 242.5536 L212.4256 198.6474 Z"/>
      </clipPath>
      <clipPath clipPathUnits="userSpaceOnUse" id="clipPath4">
        <path d="M255.2975 202.1317 L255.2975 232.0692 L331.2975 232.0692 L331.2975 202.1317 Z"/>
      </clipPath>
      <clipPath clipPathUnits="userSpaceOnUse" id="clipPath5">
        <path d="M143.6335 275.6474 L143.6335 319.5536 L242.6335 319.5536 L242.6335 275.6474 Z"/>
      </clipPath>
      <clipPath clipPathUnits="userSpaceOnUse" id="clipPath6">
        <path d="M92.9706 124.3241 L92.9706 140.2929 L168.9706 140.2929 L168.9706 124.3241 Z"/>
      </clipPath>
      <clipPath clipPathUnits="userSpaceOnUse" id="clipPath7">
        <path d="M185.7455 117.3398 L185.7455 147.2773 L261.7455 147.2773 L261.7455 117.3398 Z"/>
      </clipPath>
      <clipPath clipPathUnits="userSpaceOnUse" id="clipPath8">
        <path d="M273.7065 117.3398 L273.7065 147.2773 L349.7065 147.2773 L349.7065 117.3398 Z"/>
      </clipPath>
    </defs>
    <g fill="white" transform="scale(2.649,2.649) translate(-70,-70)" stroke="white">
      <rect x="70" width="302" height="272" y="70" clip-path="url(#clipPath2)" stroke="none"/>
    </g>
    <g fill="rgb(102,204,102)" fill-opacity="0.3137" transform="matrix(2.649,0,0,2.649,-185.4305,-185.4305)" stroke-opacity="0.3137" stroke="rgb(102,204,102)">
      <rect x="75.9705" width="290.736" height="21.4531" y="75.8554" clip-path="url(#clipPath2)" stroke="none"/>
    </g>
    <g font-size="15" stroke-miterlimit="1.45" font-family="sans-serif" transform="matrix(2.649,0,0,2.649,-185.4305,-185.4305)" stroke-linecap="butt">
      <text x="122.5788" xml:space="preserve" y="91.7773" clip-path="url(#clipPath2)" stroke="none">Realizzare struttura logica</text>
      <rect x="75.9705" y="75.8554" clip-path="url(#clipPath2)" fill="none" width="290.736" stroke-dasharray="6,2" rx="4" ry="4" height="260.6983"/>
    </g>
    <g fill="rgb(232,238,247)" stroke-miterlimit="1.45" transform="matrix(2.649,0,0,2.649,-185.4305,-185.4305)" stroke-linecap="butt" stroke="rgb(232,238,247)">
      <rect x="134.4255" width="80" height="47" y="197.1005" clip-path="url(#clipPath2)" stroke="none"/>
      <rect x="134.4255" y="197.1005" clip-path="url(#clipPath2)" fill="none" width="80" height="47" stroke="black"/>
      <path fill="none" d="M144.4256 197.1005 L144.4256 244.1005 M204.4256 197.1005 L204.4256 244.1005 M144.4256 197.1005 Z" clip-path="url(#clipPath2)" stroke="black"/>
    </g>
    <g transform="matrix(2.649,0,0,2.649,-185.4305,-185.4305)">
      <path d="M156.2031 201.3125 L156.2031 202.4688 Q155.5312 202.1562 154.9297 201.9922 Q154.3281 201.8281 153.7812 201.8281 Q152.8125 201.8281 152.2891 202.2031 Q151.7656 202.5781 151.7656 203.2812 Q151.7656 203.8594 152.1094 204.1562 Q152.4531 204.4531 153.4375 204.625 L154.1406 204.7812 Q155.4688 205.0312 156.1016 205.6641 Q156.7344 206.2969 156.7344 207.3594 Q156.7344 208.6406 155.8828 209.2969 Q155.0312 209.9531 153.375 209.9531 Q152.7656 209.9531 152.0625 209.8125 Q151.3594 209.6719 150.6094 209.3906 L150.6094 208.1719 Q151.3281 208.5781 152.0234 208.7812 Q152.7188 208.9844 153.375 208.9844 Q154.3906 208.9844 154.9453 208.5859 Q155.5 208.1875 155.5 207.4531 Q155.5 206.8125 155.1016 206.4453 Q154.7031 206.0781 153.7969 205.9062 L153.0781 205.7656 Q151.75 205.5 151.1641 204.9375 Q150.5781 204.375 150.5781 203.375 Q150.5781 202.2031 151.3906 201.5391 Q152.2031 200.875 153.6406 200.875 Q154.2656 200.875 154.8984 200.9844 Q155.5312 201.0938 156.2031 201.3125 ZM163.25 203.4688 L163.25 204.4844 Q162.7812 204.2188 162.3281 204.0938 Q161.875 203.9688 161.4062 203.9688 Q160.3438 203.9688 159.7656 204.6328 Q159.1875 205.2969 159.1875 206.5 Q159.1875 207.7031 159.7656 208.3672 Q160.3438 209.0312 161.4062 209.0312 Q161.875 209.0312 162.3281 208.9062 Q162.7812 208.7812 163.25 208.5312 L163.25 209.5312 Q162.7969 209.7344 162.3125 209.8438 Q161.8281 209.9531 161.2812 209.9531 Q159.7969 209.9531 158.9219 209.0234 Q158.0469 208.0938 158.0469 206.5 Q158.0469 204.9062 158.9297 203.9844 Q159.8125 203.0625 161.3594 203.0625 Q161.8438 203.0625 162.3203 203.1641 Q162.7969 203.2656 163.25 203.4688 ZM168.9219 204.2188 Q168.7344 204.125 168.5234 204.0703 Q168.3125 204.0156 168.0469 204.0156 Q167.1406 204.0156 166.6484 204.6094 Q166.1562 205.2031 166.1562 206.3281 L166.1562 209.7812 L165.0781 209.7812 L165.0781 203.2188 L166.1562 203.2188 L166.1562 204.2344 Q166.5 203.6406 167.0469 203.3516 Q167.5938 203.0625 168.375 203.0625 Q168.4844 203.0625 168.6172 203.0781 Q168.75 203.0938 168.9062 203.125 L168.9219 204.2188 ZM170.0469 203.2188 L171.125 203.2188 L171.125 209.7812 L170.0469 209.7812 L170.0469 203.2188 ZM170.0469 200.6562 L171.125 200.6562 L171.125 202.0312 L170.0469 202.0312 L170.0469 200.6562 ZM172.625 203.2188 L173.7656 203.2188 L175.8125 208.7188 L177.875 203.2188 L179.0156 203.2188 L176.5469 209.7812 L175.0781 209.7812 L172.625 203.2188 ZM186.1094 206.2344 L186.1094 206.75 L181.1406 206.75 Q181.2188 207.875 181.8203 208.4531 Q182.4219 209.0312 183.4844 209.0312 Q184.1094 209.0312 184.6953 208.8828 Q185.2812 208.7344 185.8594 208.4219 L185.8594 209.4531 Q185.2656 209.6875 184.6562 209.8203 Q184.0469 209.9531 183.4219 209.9531 Q181.8594 209.9531 180.9375 209.0391 Q180.0156 208.125 180.0156 206.5625 Q180.0156 204.9531 180.8906 204.0078 Q181.7656 203.0625 183.2344 203.0625 Q184.5625 203.0625 185.3359 203.9141 Q186.1094 204.7656 186.1094 206.2344 ZM185.0312 205.9062 Q185.0156 205.0312 184.5312 204.5 Q184.0469 203.9688 183.25 203.9688 Q182.3438 203.9688 181.8047 204.4844 Q181.2656 205 181.1875 205.9219 L185.0312 205.9062 ZM191.6875 204.2188 Q191.5 204.125 191.2891 204.0703 Q191.0781 204.0156 190.8125 204.0156 Q189.9062 204.0156 189.4141 204.6094 Q188.9219 205.2031 188.9219 206.3281 L188.9219 209.7812 L187.8438 209.7812 L187.8438 203.2188 L188.9219 203.2188 L188.9219 204.2344 Q189.2656 203.6406 189.8125 203.3516 Q190.3594 203.0625 191.1406 203.0625 Q191.25 203.0625 191.3828 203.0781 Q191.5156 203.0938 191.6719 203.125 L191.6875 204.2188 ZM198.4219 206.2344 L198.4219 206.75 L193.4531 206.75 Q193.5312 207.875 194.1328 208.4531 Q194.7344 209.0312 195.7969 209.0312 Q196.4219 209.0312 197.0078 208.8828 Q197.5938 208.7344 198.1719 208.4219 L198.1719 209.4531 Q197.5781 209.6875 196.9688 209.8203 Q196.3594 209.9531 195.7344 209.9531 Q194.1719 209.9531 193.25 209.0391 Q192.3281 208.125 192.3281 206.5625 Q192.3281 204.9531 193.2031 204.0078 Q194.0781 203.0625 195.5469 203.0625 Q196.875 203.0625 197.6484 203.9141 Q198.4219 204.7656 198.4219 206.2344 ZM197.3438 205.9062 Q197.3281 205.0312 196.8438 204.5 Q196.3594 203.9688 195.5625 203.9688 Q194.6562 203.9688 194.1172 204.4844 Q193.5781 205 193.5 205.9219 L197.3438 205.9062 Z" clip-path="url(#clipPath3)" stroke="none"/>
      <path d="M169.7344 214.625 L169.7344 215.5312 L168.7031 215.5312 Q168.125 215.5312 167.8984 215.7656 Q167.6719 216 167.6719 216.6094 L167.6719 217.1875 L169.4531 217.1875 L169.4531 218.0312 L167.6719 218.0312 L167.6719 223.75 L166.5938 223.75 L166.5938 218.0312 L165.5625 218.0312 L165.5625 217.1875 L166.5938 217.1875 L166.5938 216.7344 Q166.5938 215.6406 167.1016 215.1328 Q167.6094 214.625 168.7188 214.625 L169.7344 214.625 ZM170.625 217.1875 L171.7031 217.1875 L171.7031 223.75 L170.625 223.75 L170.625 217.1875 ZM170.625 214.625 L171.7031 214.625 L171.7031 216 L170.625 216 L170.625 214.625 ZM173.9688 214.625 L175.0469 214.625 L175.0469 223.75 L173.9688 223.75 L173.9688 214.625 ZM182.9219 220.2031 L182.9219 220.7188 L177.9531 220.7188 Q178.0312 221.8438 178.6328 222.4219 Q179.2344 223 180.2969 223 Q180.9219 223 181.5078 222.8516 Q182.0938 222.7031 182.6719 222.3906 L182.6719 223.4219 Q182.0781 223.6562 181.4688 223.7891 Q180.8594 223.9219 180.2344 223.9219 Q178.6719 223.9219 177.75 223.0078 Q176.8281 222.0938 176.8281 220.5312 Q176.8281 218.9219 177.7031 217.9766 Q178.5781 217.0312 180.0469 217.0312 Q181.375 217.0312 182.1484 217.8828 Q182.9219 218.7344 182.9219 220.2031 ZM181.8438 219.875 Q181.8281 219 181.3438 218.4688 Q180.8594 217.9375 180.0625 217.9375 Q179.1562 217.9375 178.6172 218.4531 Q178.0781 218.9688 178 219.8906 L181.8438 219.875 Z" clip-path="url(#clipPath3)" stroke="none"/>
      <path d="M154.3594 228.9688 L155.6406 228.9688 L157.8125 232.2188 L160 228.9688 L161.2656 228.9688 L158.4531 233.1719 L161.4531 237.7188 L160.1875 237.7188 L157.7188 234 L155.25 237.7188 L153.9688 237.7188 L157.0938 233.0469 L154.3594 228.9688 ZM163 228.9688 L164.1875 228.9688 L164.1875 232.5625 L168.4844 232.5625 L168.4844 228.9688 L169.6719 228.9688 L169.6719 237.7188 L168.4844 237.7188 L168.4844 233.5469 L164.1875 233.5469 L164.1875 237.7188 L163 237.7188 L163 228.9688 ZM170.8281 228.9688 L178.2188 228.9688 L178.2188 229.9688 L175.125 229.9688 L175.125 237.7188 L173.9375 237.7188 L173.9375 229.9688 L170.8281 229.9688 L170.8281 228.9688 ZM179.3594 228.9688 L181.125 228.9688 L183.3594 234.9219 L185.6094 228.9688 L187.375 228.9688 L187.375 237.7188 L186.2188 237.7188 L186.2188 230.0312 L183.9531 236.0312 L182.7656 236.0312 L180.5156 230.0312 L180.5156 237.7188 L179.3594 237.7188 L179.3594 228.9688 ZM189.7031 228.9688 L190.8906 228.9688 L190.8906 236.7188 L195.1562 236.7188 L195.1562 237.7188 L189.7031 237.7188 L189.7031 228.9688 Z" clip-path="url(#clipPath3)" stroke="none"/>
    </g>
    <g fill="rgb(232,238,247)" stroke-miterlimit="1.45" transform="matrix(2.649,0,0,2.649,-185.4305,-185.4305)" stroke-linecap="butt" stroke="rgb(232,238,247)">
      <path d="M253.2975 197.1005 L333.2975 197.1005 L333.2975 237.1005 L253.2975 237.1005 Z" clip-path="url(#clipPath2)" stroke="none"/>
      <path fill="none" d="M253.2975 197.1005 L333.2975 197.1005 L333.2975 237.1005 L253.2975 237.1005 Z" clip-path="url(#clipPath2)" stroke="black"/>
    </g>
    <g transform="matrix(2.649,0,0,2.649,-185.4305,-185.4305)">
      <path d="M261.75 205.3125 Q260.4531 205.3125 259.6953 206.2734 Q258.9375 207.2344 258.9375 208.9062 Q258.9375 210.5469 259.6953 211.5078 Q260.4531 212.4688 261.75 212.4688 Q263.0312 212.4688 263.7891 211.5078 Q264.5469 210.5469 264.5469 208.9062 Q264.5469 207.2344 263.7891 206.2734 Q263.0312 205.3125 261.75 205.3125 ZM261.75 204.3594 Q263.5781 204.3594 264.6797 205.5938 Q265.7812 206.8281 265.7812 208.9062 Q265.7812 210.9688 264.6797 212.2031 Q263.5781 213.4375 261.75 213.4375 Q259.9062 213.4375 258.7969 212.2031 Q257.6875 210.9688 257.6875 208.9062 Q257.6875 206.8281 258.7969 205.5938 Q259.9062 204.3594 261.75 204.3594 ZM271.3906 207.7031 Q271.2031 207.6094 270.9922 207.5547 Q270.7812 207.5 270.5156 207.5 Q269.6094 207.5 269.1172 208.0938 Q268.625 208.6875 268.625 209.8125 L268.625 213.2656 L267.5469 213.2656 L267.5469 206.7031 L268.625 206.7031 L268.625 207.7188 Q268.9688 207.125 269.5156 206.8359 Q270.0625 206.5469 270.8438 206.5469 Q270.9531 206.5469 271.0859 206.5625 Q271.2188 206.5781 271.375 206.6094 L271.3906 207.7031 ZM276.8438 209.9062 Q276.8438 208.7344 276.3594 208.0938 Q275.875 207.4531 275 207.4531 Q274.1406 207.4531 273.6562 208.0938 Q273.1719 208.7344 273.1719 209.9062 Q273.1719 211.0781 273.6562 211.7188 Q274.1406 212.3594 275 212.3594 Q275.875 212.3594 276.3594 211.7188 Q276.8438 211.0781 276.8438 209.9062 ZM277.9219 212.4531 Q277.9219 214.125 277.1797 214.9453 Q276.4375 215.7656 274.8906 215.7656 Q274.3281 215.7656 273.8203 215.6797 Q273.3125 215.5938 272.8438 215.4219 L272.8438 214.375 Q273.3125 214.625 273.7812 214.75 Q274.25 214.875 274.7188 214.875 Q275.7812 214.875 276.3125 214.3203 Q276.8438 213.7656 276.8438 212.6406 L276.8438 212.1094 Q276.5 212.6875 275.9844 212.9766 Q275.4688 213.2656 274.7344 213.2656 Q273.5312 213.2656 272.7891 212.3438 Q272.0469 211.4219 272.0469 209.9062 Q272.0469 208.3906 272.7891 207.4688 Q273.5312 206.5469 274.7344 206.5469 Q275.4688 206.5469 275.9844 206.8359 Q276.5 207.125 276.8438 207.7031 L276.8438 206.7031 L277.9219 206.7031 L277.9219 212.4531 ZM283.1094 209.9688 Q281.8125 209.9688 281.3047 210.2656 Q280.7969 210.5625 280.7969 211.2812 Q280.7969 211.8594 281.1797 212.1953 Q281.5625 212.5312 282.2031 212.5312 Q283.1094 212.5312 283.6484 211.8984 Q284.1875 211.2656 284.1875 210.2031 L284.1875 209.9688 L283.1094 209.9688 ZM285.2656 209.5156 L285.2656 213.2656 L284.1875 213.2656 L284.1875 212.2656 Q283.8125 212.8594 283.2656 213.1484 Q282.7188 213.4375 281.9219 213.4375 Q280.9062 213.4375 280.3125 212.8672 Q279.7188 212.2969 279.7188 211.3594 Q279.7188 210.25 280.4609 209.6875 Q281.2031 209.125 282.6719 209.125 L284.1875 209.125 L284.1875 209.0156 Q284.1875 208.2656 283.6953 207.8594 Q283.2031 207.4531 282.3281 207.4531 Q281.7656 207.4531 281.2266 207.5938 Q280.6875 207.7344 280.2031 208 L280.2031 207 Q280.7969 206.7656 281.3516 206.6562 Q281.9062 206.5469 282.4375 206.5469 Q283.8594 206.5469 284.5625 207.2812 Q285.2656 208.0156 285.2656 209.5156 ZM292.9531 209.2969 L292.9531 213.2656 L291.875 213.2656 L291.875 209.3438 Q291.875 208.4062 291.5078 207.9453 Q291.1406 207.4844 290.4219 207.4844 Q289.5469 207.4844 289.0391 208.0391 Q288.5312 208.5938 288.5312 209.5625 L288.5312 213.2656 L287.4531 213.2656 L287.4531 206.7031 L288.5312 206.7031 L288.5312 207.7188 Q288.9219 207.125 289.4453 206.8359 Q289.9688 206.5469 290.6562 206.5469 Q291.7812 206.5469 292.3672 207.2422 Q292.9531 207.9375 292.9531 209.2969 ZM295.0938 206.7031 L296.1719 206.7031 L296.1719 213.2656 L295.0938 213.2656 L295.0938 206.7031 ZM295.0938 204.1406 L296.1719 204.1406 L296.1719 205.5156 L295.0938 205.5156 L295.0938 204.1406 ZM297.9531 206.7031 L303.0781 206.7031 L303.0781 207.6875 L299.0312 212.4062 L303.0781 212.4062 L303.0781 213.2656 L297.8125 213.2656 L297.8125 212.2812 L301.875 207.5625 L297.9531 207.5625 L297.9531 206.7031 ZM304.25 206.7031 L309.375 206.7031 L309.375 207.6875 L305.3281 212.4062 L309.375 212.4062 L309.375 213.2656 L304.1094 213.2656 L304.1094 212.2812 L308.1719 207.5625 L304.25 207.5625 L304.25 206.7031 ZM314 209.9688 Q312.7031 209.9688 312.1953 210.2656 Q311.6875 210.5625 311.6875 211.2812 Q311.6875 211.8594 312.0703 212.1953 Q312.4531 212.5312 313.0938 212.5312 Q314 212.5312 314.5391 211.8984 Q315.0781 211.2656 315.0781 210.2031 L315.0781 209.9688 L314 209.9688 ZM316.1562 209.5156 L316.1562 213.2656 L315.0781 213.2656 L315.0781 212.2656 Q314.7031 212.8594 314.1562 213.1484 Q313.6094 213.4375 312.8125 213.4375 Q311.7969 213.4375 311.2031 212.8672 Q310.6094 212.2969 310.6094 211.3594 Q310.6094 210.25 311.3516 209.6875 Q312.0938 209.125 313.5625 209.125 L315.0781 209.125 L315.0781 209.0156 Q315.0781 208.2656 314.5859 207.8594 Q314.0938 207.4531 313.2188 207.4531 Q312.6562 207.4531 312.1172 207.5938 Q311.5781 207.7344 311.0938 208 L311.0938 207 Q311.6875 206.7656 312.2422 206.6562 Q312.7969 206.5469 313.3281 206.5469 Q314.75 206.5469 315.4531 207.2812 Q316.1562 208.0156 316.1562 209.5156 ZM322.1875 207.7031 Q322 207.6094 321.7891 207.5547 Q321.5781 207.5 321.3125 207.5 Q320.4062 207.5 319.9141 208.0938 Q319.4219 208.6875 319.4219 209.8125 L319.4219 213.2656 L318.3438 213.2656 L318.3438 206.7031 L319.4219 206.7031 L319.4219 207.7188 Q319.7656 207.125 320.3125 206.8359 Q320.8594 206.5469 321.6406 206.5469 Q321.75 206.5469 321.8828 206.5625 Q322.0156 206.5781 322.1719 206.6094 L322.1875 207.7031 ZM328.9375 209.7188 L328.9375 210.2344 L323.9688 210.2344 Q324.0469 211.3594 324.6484 211.9375 Q325.25 212.5156 326.3125 212.5156 Q326.9375 212.5156 327.5234 212.3672 Q328.1094 212.2188 328.6875 211.9062 L328.6875 212.9375 Q328.0938 213.1719 327.4844 213.3047 Q326.875 213.4375 326.25 213.4375 Q324.6875 213.4375 323.7656 212.5234 Q322.8438 211.6094 322.8438 210.0469 Q322.8438 208.4375 323.7188 207.4922 Q324.5938 206.5469 326.0625 206.5469 Q327.3906 206.5469 328.1641 207.3984 Q328.9375 208.25 328.9375 209.7188 ZM327.8594 209.3906 Q327.8438 208.5156 327.3594 207.9844 Q326.875 207.4531 326.0781 207.4531 Q325.1719 207.4531 324.6328 207.9688 Q324.0938 208.4844 324.0156 209.4062 L327.8594 209.3906 Z" clip-path="url(#clipPath4)" stroke="none"/>
      <path d="M264.5312 220.6719 L265.6094 220.6719 L265.6094 227.2344 L264.5312 227.2344 L264.5312 220.6719 ZM264.5312 218.1094 L265.6094 218.1094 L265.6094 219.4844 L264.5312 219.4844 L264.5312 218.1094 ZM273.3281 223.2656 L273.3281 227.2344 L272.25 227.2344 L272.25 223.3125 Q272.25 222.375 271.8828 221.9141 Q271.5156 221.4531 270.7969 221.4531 Q269.9219 221.4531 269.4141 222.0078 Q268.9062 222.5625 268.9062 223.5312 L268.9062 227.2344 L267.8281 227.2344 L267.8281 220.6719 L268.9062 220.6719 L268.9062 221.6875 Q269.2969 221.0938 269.8203 220.8047 Q270.3438 220.5156 271.0312 220.5156 Q272.1562 220.5156 272.7422 221.2109 Q273.3281 221.9062 273.3281 223.2656 ZM284.0156 220.9219 L284.0156 221.9375 Q283.5469 221.6719 283.0938 221.5469 Q282.6406 221.4219 282.1719 221.4219 Q281.1094 221.4219 280.5312 222.0859 Q279.9531 222.75 279.9531 223.9531 Q279.9531 225.1562 280.5312 225.8203 Q281.1094 226.4844 282.1719 226.4844 Q282.6406 226.4844 283.0938 226.3594 Q283.5469 226.2344 284.0156 225.9844 L284.0156 226.9844 Q283.5625 227.1875 283.0781 227.2969 Q282.5938 227.4062 282.0469 227.4062 Q280.5625 227.4062 279.6875 226.4766 Q278.8125 225.5469 278.8125 223.9531 Q278.8125 222.3594 279.6953 221.4375 Q280.5781 220.5156 282.125 220.5156 Q282.6094 220.5156 283.0859 220.6172 Q283.5625 220.7188 284.0156 220.9219 ZM288.8594 223.9375 Q287.5625 223.9375 287.0547 224.2344 Q286.5469 224.5312 286.5469 225.25 Q286.5469 225.8281 286.9297 226.1641 Q287.3125 226.5 287.9531 226.5 Q288.8594 226.5 289.3984 225.8672 Q289.9375 225.2344 289.9375 224.1719 L289.9375 223.9375 L288.8594 223.9375 ZM291.0156 223.4844 L291.0156 227.2344 L289.9375 227.2344 L289.9375 226.2344 Q289.5625 226.8281 289.0156 227.1172 Q288.4688 227.4062 287.6719 227.4062 Q286.6562 227.4062 286.0625 226.8359 Q285.4688 226.2656 285.4688 225.3281 Q285.4688 224.2188 286.2109 223.6562 Q286.9531 223.0938 288.4219 223.0938 L289.9375 223.0938 L289.9375 222.9844 Q289.9375 222.2344 289.4453 221.8281 Q288.9531 221.4219 288.0781 221.4219 Q287.5156 221.4219 286.9766 221.5625 Q286.4375 221.7031 285.9531 221.9688 L285.9531 220.9688 Q286.5469 220.7344 287.1016 220.625 Q287.6562 220.5156 288.1875 220.5156 Q289.6094 220.5156 290.3125 221.25 Q291.0156 221.9844 291.0156 223.4844 ZM297.0469 221.6719 Q296.8594 221.5781 296.6484 221.5234 Q296.4375 221.4688 296.1719 221.4688 Q295.2656 221.4688 294.7734 222.0625 Q294.2812 222.6562 294.2812 223.7812 L294.2812 227.2344 L293.2031 227.2344 L293.2031 220.6719 L294.2812 220.6719 L294.2812 221.6875 Q294.625 221.0938 295.1719 220.8047 Q295.7188 220.5156 296.5 220.5156 Q296.6094 220.5156 296.7422 220.5312 Q296.875 220.5469 297.0312 220.5781 L297.0469 221.6719 ZM299.25 218.8125 L299.25 220.6719 L301.4688 220.6719 L301.4688 221.5156 L299.25 221.5156 L299.25 225.0781 Q299.25 225.875 299.4688 226.1016 Q299.6875 226.3281 300.3594 226.3281 L301.4688 226.3281 L301.4688 227.2344 L300.3594 227.2344 Q299.1094 227.2344 298.6328 226.7656 Q298.1562 226.2969 298.1562 225.0781 L298.1562 221.5156 L297.375 221.5156 L297.375 220.6719 L298.1562 220.6719 L298.1562 218.8125 L299.25 218.8125 ZM308.5 223.6875 L308.5 224.2031 L303.5312 224.2031 Q303.6094 225.3281 304.2109 225.9062 Q304.8125 226.4844 305.875 226.4844 Q306.5 226.4844 307.0859 226.3359 Q307.6719 226.1875 308.25 225.875 L308.25 226.9062 Q307.6562 227.1406 307.0469 227.2734 Q306.4375 227.4062 305.8125 227.4062 Q304.25 227.4062 303.3281 226.4922 Q302.4062 225.5781 302.4062 224.0156 Q302.4062 222.4062 303.2812 221.4609 Q304.1562 220.5156 305.625 220.5156 Q306.9531 220.5156 307.7266 221.3672 Q308.5 222.2188 308.5 223.6875 ZM307.4219 223.3594 Q307.4062 222.4844 306.9219 221.9531 Q306.4375 221.4219 305.6406 221.4219 Q304.7344 221.4219 304.1953 221.9375 Q303.6562 222.4531 303.5781 223.375 L307.4219 223.3594 ZM310.25 218.1094 L311.3281 218.1094 L311.3281 227.2344 L310.25 227.2344 L310.25 218.1094 ZM313.5938 218.1094 L314.6719 218.1094 L314.6719 227.2344 L313.5938 227.2344 L313.5938 218.1094 ZM322.5469 223.6875 L322.5469 224.2031 L317.5781 224.2031 Q317.6562 225.3281 318.2578 225.9062 Q318.8594 226.4844 319.9219 226.4844 Q320.5469 226.4844 321.1328 226.3359 Q321.7188 226.1875 322.2969 225.875 L322.2969 226.9062 Q321.7031 227.1406 321.0938 227.2734 Q320.4844 227.4062 319.8594 227.4062 Q318.2969 227.4062 317.375 226.4922 Q316.4531 225.5781 316.4531 224.0156 Q316.4531 222.4062 317.3281 221.4609 Q318.2031 220.5156 319.6719 220.5156 Q321 220.5156 321.7734 221.3672 Q322.5469 222.2188 322.5469 223.6875 ZM321.4688 223.3594 Q321.4531 222.4844 320.9688 221.9531 Q320.4844 221.4219 319.6875 221.4219 Q318.7812 221.4219 318.2422 221.9375 Q317.7031 222.4531 317.625 223.375 L321.4688 223.3594 Z" clip-path="url(#clipPath4)" stroke="none"/>
    </g>
    <g fill="rgb(232,238,247)" stroke-miterlimit="1.45" transform="matrix(2.649,0,0,2.649,-185.4305,-185.4305)" stroke-linecap="butt" stroke="rgb(232,238,247)">
      <path d="M141.6335 274.1005 L244.6335 274.1005 L244.6335 321.1005 L141.6335 321.1005 Z" clip-path="url(#clipPath2)" stroke="none"/>
      <path fill="none" d="M141.6335 274.1005 L244.6335 274.1005 L244.6335 321.1005 L141.6335 321.1005 Z" clip-path="url(#clipPath2)" stroke="black"/>
    </g>
    <g transform="matrix(2.649,0,0,2.649,-185.4305,-185.4305)">
      <path d="M167.5312 278.7031 L167.5312 279.9531 Q166.9219 279.3906 166.25 279.1172 Q165.5781 278.8438 164.8125 278.8438 Q163.3125 278.8438 162.5156 279.7656 Q161.7188 280.6875 161.7188 282.4219 Q161.7188 284.1406 162.5156 285.0625 Q163.3125 285.9844 164.8125 285.9844 Q165.5781 285.9844 166.25 285.7031 Q166.9219 285.4219 167.5312 284.875 L167.5312 286.1094 Q166.9062 286.5312 166.2109 286.7422 Q165.5156 286.9531 164.75 286.9531 Q162.75 286.9531 161.6094 285.7344 Q160.4688 284.5156 160.4688 282.4219 Q160.4688 280.3125 161.6094 279.0938 Q162.75 277.875 164.75 277.875 Q165.5312 277.875 166.2266 278.0859 Q166.9219 278.2969 167.5312 278.7031 ZM171.8594 280.9688 Q171 280.9688 170.4922 281.6484 Q169.9844 282.3281 169.9844 283.5 Q169.9844 284.6875 170.4844 285.3594 Q170.9844 286.0312 171.8594 286.0312 Q172.7188 286.0312 173.2266 285.3516 Q173.7344 284.6719 173.7344 283.5 Q173.7344 282.3438 173.2266 281.6562 Q172.7188 280.9688 171.8594 280.9688 ZM171.8594 280.0625 Q173.2656 280.0625 174.0703 280.9766 Q174.875 281.8906 174.875 283.5 Q174.875 285.1094 174.0703 286.0312 Q173.2656 286.9531 171.8594 286.9531 Q170.4531 286.9531 169.6484 286.0312 Q168.8438 285.1094 168.8438 283.5 Q168.8438 281.8906 169.6484 280.9766 Q170.4531 280.0625 171.8594 280.0625 ZM182.125 282.8125 L182.125 286.7812 L181.0469 286.7812 L181.0469 282.8594 Q181.0469 281.9219 180.6797 281.4609 Q180.3125 281 179.5938 281 Q178.7188 281 178.2109 281.5547 Q177.7031 282.1094 177.7031 283.0781 L177.7031 286.7812 L176.625 286.7812 L176.625 280.2188 L177.7031 280.2188 L177.7031 281.2344 Q178.0938 280.6406 178.6172 280.3516 Q179.1406 280.0625 179.8281 280.0625 Q180.9531 280.0625 181.5391 280.7578 Q182.125 281.4531 182.125 282.8125 ZM185.3281 278.3594 L185.3281 280.2188 L187.5469 280.2188 L187.5469 281.0625 L185.3281 281.0625 L185.3281 284.625 Q185.3281 285.4219 185.5469 285.6484 Q185.7656 285.875 186.4375 285.875 L187.5469 285.875 L187.5469 286.7812 L186.4375 286.7812 Q185.1875 286.7812 184.7109 286.3125 Q184.2344 285.8438 184.2344 284.625 L184.2344 281.0625 L183.4531 281.0625 L183.4531 280.2188 L184.2344 280.2188 L184.2344 278.3594 L185.3281 278.3594 ZM192.7656 281.2188 Q192.5781 281.125 192.3672 281.0703 Q192.1562 281.0156 191.8906 281.0156 Q190.9844 281.0156 190.4922 281.6094 Q190 282.2031 190 283.3281 L190 286.7812 L188.9219 286.7812 L188.9219 280.2188 L190 280.2188 L190 281.2344 Q190.3438 280.6406 190.8906 280.3516 Q191.4375 280.0625 192.2188 280.0625 Q192.3281 280.0625 192.4609 280.0781 Q192.5938 280.0938 192.75 280.125 L192.7656 281.2188 ZM196.4375 280.9688 Q195.5781 280.9688 195.0703 281.6484 Q194.5625 282.3281 194.5625 283.5 Q194.5625 284.6875 195.0625 285.3594 Q195.5625 286.0312 196.4375 286.0312 Q197.2969 286.0312 197.8047 285.3516 Q198.3125 284.6719 198.3125 283.5 Q198.3125 282.3438 197.8047 281.6562 Q197.2969 280.9688 196.4375 280.9688 ZM196.4375 280.0625 Q197.8438 280.0625 198.6484 280.9766 Q199.4531 281.8906 199.4531 283.5 Q199.4531 285.1094 198.6484 286.0312 Q197.8438 286.9531 196.4375 286.9531 Q195.0312 286.9531 194.2266 286.0312 Q193.4219 285.1094 193.4219 283.5 Q193.4219 281.8906 194.2266 280.9766 Q195.0312 280.0625 196.4375 280.0625 ZM201.2344 277.6562 L202.3125 277.6562 L202.3125 286.7812 L201.2344 286.7812 L201.2344 277.6562 ZM204.5625 277.6562 L205.6406 277.6562 L205.6406 286.7812 L204.5625 286.7812 L204.5625 277.6562 ZM210.8906 283.4844 Q209.5938 283.4844 209.0859 283.7812 Q208.5781 284.0781 208.5781 284.7969 Q208.5781 285.375 208.9609 285.7109 Q209.3438 286.0469 209.9844 286.0469 Q210.8906 286.0469 211.4297 285.4141 Q211.9688 284.7812 211.9688 283.7188 L211.9688 283.4844 L210.8906 283.4844 ZM213.0469 283.0312 L213.0469 286.7812 L211.9688 286.7812 L211.9688 285.7812 Q211.5938 286.375 211.0469 286.6641 Q210.5 286.9531 209.7031 286.9531 Q208.6875 286.9531 208.0938 286.3828 Q207.5 285.8125 207.5 284.875 Q207.5 283.7656 208.2422 283.2031 Q208.9844 282.6406 210.4531 282.6406 L211.9688 282.6406 L211.9688 282.5312 Q211.9688 281.7812 211.4766 281.375 Q210.9844 280.9688 210.1094 280.9688 Q209.5469 280.9688 209.0078 281.1094 Q208.4688 281.25 207.9844 281.5156 L207.9844 280.5156 Q208.5781 280.2812 209.1328 280.1719 Q209.6875 280.0625 210.2188 280.0625 Q211.6406 280.0625 212.3438 280.7969 Q213.0469 281.5312 213.0469 283.0312 ZM219.0625 281.2188 Q218.875 281.125 218.6641 281.0703 Q218.4531 281.0156 218.1875 281.0156 Q217.2812 281.0156 216.7891 281.6094 Q216.2969 282.2031 216.2969 283.3281 L216.2969 286.7812 L215.2188 286.7812 L215.2188 280.2188 L216.2969 280.2188 L216.2969 281.2344 Q216.6406 280.6406 217.1875 280.3516 Q217.7344 280.0625 218.5156 280.0625 Q218.625 280.0625 218.7578 280.0781 Q218.8906 280.0938 219.0469 280.125 L219.0625 281.2188 ZM225.8125 283.2344 L225.8125 283.75 L220.8438 283.75 Q220.9219 284.875 221.5234 285.4531 Q222.125 286.0312 223.1875 286.0312 Q223.8125 286.0312 224.3984 285.8828 Q224.9844 285.7344 225.5625 285.4219 L225.5625 286.4531 Q224.9688 286.6875 224.3594 286.8203 Q223.75 286.9531 223.125 286.9531 Q221.5625 286.9531 220.6406 286.0391 Q219.7188 285.125 219.7188 283.5625 Q219.7188 281.9531 220.5938 281.0078 Q221.4688 280.0625 222.9375 280.0625 Q224.2656 280.0625 225.0391 280.9141 Q225.8125 281.7656 225.8125 283.2344 ZM224.7344 282.9062 Q224.7188 282.0312 224.2344 281.5 Q223.75 280.9688 222.9531 280.9688 Q222.0469 280.9688 221.5078 281.4844 Q220.9688 282 220.8906 282.9219 L224.7344 282.9062 Z" clip-path="url(#clipPath5)" stroke="none"/>
      <path d="M157.2188 294.4375 L157.2188 295.4531 Q156.75 295.1875 156.2969 295.0625 Q155.8438 294.9375 155.375 294.9375 Q154.3125 294.9375 153.7344 295.6016 Q153.1562 296.2656 153.1562 297.4688 Q153.1562 298.6719 153.7344 299.3359 Q154.3125 300 155.375 300 Q155.8438 300 156.2969 299.875 Q156.75 299.75 157.2188 299.5 L157.2188 300.5 Q156.7656 300.7031 156.2812 300.8125 Q155.7969 300.9219 155.25 300.9219 Q153.7656 300.9219 152.8906 299.9922 Q152.0156 299.0625 152.0156 297.4688 Q152.0156 295.875 152.8984 294.9531 Q153.7812 294.0312 155.3281 294.0312 Q155.8125 294.0312 156.2891 294.1328 Q156.7656 294.2344 157.2188 294.4375 ZM161.625 294.9375 Q160.7656 294.9375 160.2578 295.6172 Q159.75 296.2969 159.75 297.4688 Q159.75 298.6562 160.25 299.3281 Q160.75 300 161.625 300 Q162.4844 300 162.9922 299.3203 Q163.5 298.6406 163.5 297.4688 Q163.5 296.3125 162.9922 295.625 Q162.4844 294.9375 161.625 294.9375 ZM161.625 294.0312 Q163.0312 294.0312 163.8359 294.9453 Q164.6406 295.8594 164.6406 297.4688 Q164.6406 299.0781 163.8359 300 Q163.0312 300.9219 161.625 300.9219 Q160.2188 300.9219 159.4141 300 Q158.6094 299.0781 158.6094 297.4688 Q158.6094 295.8594 159.4141 294.9453 Q160.2188 294.0312 161.625 294.0312 ZM171.5312 295.4531 Q171.9375 294.7188 172.5 294.375 Q173.0625 294.0312 173.8281 294.0312 Q174.8594 294.0312 175.4141 294.75 Q175.9688 295.4688 175.9688 296.7812 L175.9688 300.75 L174.8906 300.75 L174.8906 296.8281 Q174.8906 295.875 174.5547 295.4219 Q174.2188 294.9688 173.5312 294.9688 Q172.6875 294.9688 172.2031 295.5234 Q171.7188 296.0781 171.7188 297.0469 L171.7188 300.75 L170.6406 300.75 L170.6406 296.8281 Q170.6406 295.875 170.3047 295.4219 Q169.9688 294.9688 169.2656 294.9688 Q168.4375 294.9688 167.9531 295.5234 Q167.4688 296.0781 167.4688 297.0469 L167.4688 300.75 L166.3906 300.75 L166.3906 294.1875 L167.4688 294.1875 L167.4688 295.2031 Q167.8438 294.6094 168.3594 294.3203 Q168.875 294.0312 169.5781 294.0312 Q170.2969 294.0312 170.7969 294.3906 Q171.2969 294.75 171.5312 295.4531 ZM183.7344 297.2031 L183.7344 297.7188 L178.7656 297.7188 Q178.8438 298.8438 179.4453 299.4219 Q180.0469 300 181.1094 300 Q181.7344 300 182.3203 299.8516 Q182.9062 299.7031 183.4844 299.3906 L183.4844 300.4219 Q182.8906 300.6562 182.2812 300.7891 Q181.6719 300.9219 181.0469 300.9219 Q179.4844 300.9219 178.5625 300.0078 Q177.6406 299.0938 177.6406 297.5312 Q177.6406 295.9219 178.5156 294.9766 Q179.3906 294.0312 180.8594 294.0312 Q182.1875 294.0312 182.9609 294.8828 Q183.7344 295.7344 183.7344 297.2031 ZM182.6562 296.875 Q182.6406 296 182.1562 295.4688 Q181.6719 294.9375 180.875 294.9375 Q179.9688 294.9375 179.4297 295.4531 Q178.8906 295.9688 178.8125 296.8906 L182.6562 296.875 ZM193.5 294.375 L193.5 295.4062 Q193.0469 295.1719 192.5547 295.0547 Q192.0625 294.9375 191.5312 294.9375 Q190.7344 294.9375 190.3281 295.1797 Q189.9219 295.4219 189.9219 295.9219 Q189.9219 296.2969 190.2109 296.5078 Q190.5 296.7188 191.375 296.9062 L191.7344 297 Q192.8906 297.2344 193.375 297.6875 Q193.8594 298.1406 193.8594 298.9375 Q193.8594 299.8594 193.1328 300.3906 Q192.4062 300.9219 191.1406 300.9219 Q190.6094 300.9219 190.0391 300.8203 Q189.4688 300.7188 188.8438 300.5156 L188.8438 299.3906 Q189.4375 299.7031 190.0156 299.8594 Q190.5938 300.0156 191.1719 300.0156 Q191.9219 300.0156 192.3359 299.7578 Q192.75 299.5 192.75 299.0156 Q192.75 298.5781 192.4531 298.3438 Q192.1562 298.1094 191.1562 297.8906 L190.7812 297.8125 Q189.7812 297.5938 189.3359 297.1562 Q188.8906 296.7188 188.8906 295.9688 Q188.8906 295.0312 189.5469 294.5312 Q190.2031 294.0312 191.4062 294.0312 Q192 294.0312 192.5312 294.1172 Q193.0625 294.2031 193.5 294.375 ZM195.5625 294.1875 L196.6406 294.1875 L196.6406 300.75 L195.5625 300.75 L195.5625 294.1875 ZM195.5625 291.625 L196.6406 291.625 L196.6406 293 L195.5625 293 L195.5625 291.625 ZM201.9531 294.1875 L203.0938 294.1875 L205.1406 299.6875 L207.2031 294.1875 L208.3438 294.1875 L205.875 300.75 L204.4062 300.75 L201.9531 294.1875 ZM215.4375 297.2031 L215.4375 297.7188 L210.4688 297.7188 Q210.5469 298.8438 211.1484 299.4219 Q211.75 300 212.8125 300 Q213.4375 300 214.0234 299.8516 Q214.6094 299.7031 215.1875 299.3906 L215.1875 300.4219 Q214.5938 300.6562 213.9844 300.7891 Q213.375 300.9219 212.75 300.9219 Q211.1875 300.9219 210.2656 300.0078 Q209.3438 299.0938 209.3438 297.5312 Q209.3438 295.9219 210.2188 294.9766 Q211.0938 294.0312 212.5625 294.0312 Q213.8906 294.0312 214.6641 294.8828 Q215.4375 295.7344 215.4375 297.2031 ZM214.3594 296.875 Q214.3438 296 213.8594 295.4688 Q213.375 294.9375 212.5781 294.9375 Q211.6719 294.9375 211.1328 295.4531 Q210.5938 295.9688 210.5156 296.8906 L214.3594 296.875 ZM221.5312 295.1875 L221.5312 291.625 L222.6094 291.625 L222.6094 300.75 L221.5312 300.75 L221.5312 299.7656 Q221.1875 300.3438 220.6719 300.6328 Q220.1562 300.9219 219.4219 300.9219 Q218.2344 300.9219 217.4844 299.9688 Q216.7344 299.0156 216.7344 297.4688 Q216.7344 295.9219 217.4844 294.9766 Q218.2344 294.0312 219.4219 294.0312 Q220.1562 294.0312 220.6719 294.3125 Q221.1875 294.5938 221.5312 295.1875 ZM217.8594 297.4688 Q217.8594 298.6562 218.3438 299.3359 Q218.8281 300.0156 219.6875 300.0156 Q220.5469 300.0156 221.0391 299.3359 Q221.5312 298.6562 221.5312 297.4688 Q221.5312 296.2812 221.0391 295.6094 Q220.5469 294.9375 219.6875 294.9375 Q218.8281 294.9375 218.3438 295.6094 Q217.8594 296.2812 217.8594 297.4688 ZM230.4375 297.2031 L230.4375 297.7188 L225.4688 297.7188 Q225.5469 298.8438 226.1484 299.4219 Q226.75 300 227.8125 300 Q228.4375 300 229.0234 299.8516 Q229.6094 299.7031 230.1875 299.3906 L230.1875 300.4219 Q229.5938 300.6562 228.9844 300.7891 Q228.375 300.9219 227.75 300.9219 Q226.1875 300.9219 225.2656 300.0078 Q224.3438 299.0938 224.3438 297.5312 Q224.3438 295.9219 225.2188 294.9766 Q226.0938 294.0312 227.5625 294.0312 Q228.8906 294.0312 229.6641 294.8828 Q230.4375 295.7344 230.4375 297.2031 ZM229.3594 296.875 Q229.3438 296 228.8594 295.4688 Q228.375 294.9375 227.5781 294.9375 Q226.6719 294.9375 226.1328 295.4531 Q225.5938 295.9688 225.5156 296.8906 L229.3594 296.875 Z" clip-path="url(#clipPath5)" stroke="none"/>
      <path d="M164.5156 310.75 L164.5156 314.7188 L163.4375 314.7188 L163.4375 310.7969 Q163.4375 309.8594 163.0703 309.3984 Q162.7031 308.9375 161.9844 308.9375 Q161.1094 308.9375 160.6016 309.4922 Q160.0938 310.0469 160.0938 311.0156 L160.0938 314.7188 L159.0156 314.7188 L159.0156 308.1562 L160.0938 308.1562 L160.0938 309.1719 Q160.4844 308.5781 161.0078 308.2891 Q161.5312 308 162.2188 308 Q163.3438 308 163.9297 308.6953 Q164.5156 309.3906 164.5156 310.75 ZM172.2812 311.1719 L172.2812 311.6875 L167.3125 311.6875 Q167.3906 312.8125 167.9922 313.3906 Q168.5938 313.9688 169.6562 313.9688 Q170.2812 313.9688 170.8672 313.8203 Q171.4531 313.6719 172.0312 313.3594 L172.0312 314.3906 Q171.4375 314.625 170.8281 314.7578 Q170.2188 314.8906 169.5938 314.8906 Q168.0312 314.8906 167.1094 313.9766 Q166.1875 313.0625 166.1875 311.5 Q166.1875 309.8906 167.0625 308.9453 Q167.9375 308 169.4062 308 Q170.7344 308 171.5078 308.8516 Q172.2812 309.7031 172.2812 311.1719 ZM171.2031 310.8438 Q171.1875 309.9688 170.7031 309.4375 Q170.2188 308.9062 169.4219 308.9062 Q168.5156 308.9062 167.9766 309.4219 Q167.4375 309.9375 167.3594 310.8594 L171.2031 310.8438 ZM174.0312 308.1562 L175.1094 308.1562 L175.1094 314.7188 L174.0312 314.7188 L174.0312 308.1562 ZM174.0312 305.5938 L175.1094 305.5938 L175.1094 306.9688 L174.0312 306.9688 L174.0312 305.5938 ZM185.9062 311.4375 Q185.9062 310.25 185.4141 309.5781 Q184.9219 308.9062 184.0781 308.9062 Q183.2188 308.9062 182.7266 309.5781 Q182.2344 310.25 182.2344 311.4375 Q182.2344 312.625 182.7266 313.3047 Q183.2188 313.9844 184.0781 313.9844 Q184.9219 313.9844 185.4141 313.3047 Q185.9062 312.625 185.9062 311.4375 ZM182.2344 309.1562 Q182.5781 308.5625 183.0938 308.2812 Q183.6094 308 184.3281 308 Q185.5312 308 186.2812 308.9453 Q187.0312 309.8906 187.0312 311.4375 Q187.0312 312.9844 186.2812 313.9375 Q185.5312 314.8906 184.3281 314.8906 Q183.6094 314.8906 183.0938 314.6016 Q182.5781 314.3125 182.2344 313.7344 L182.2344 314.7188 L181.1562 314.7188 L181.1562 305.5938 L182.2344 305.5938 L182.2344 309.1562 ZM192.6094 309.1562 Q192.4219 309.0625 192.2109 309.0078 Q192 308.9531 191.7344 308.9531 Q190.8281 308.9531 190.3359 309.5469 Q189.8438 310.1406 189.8438 311.2656 L189.8438 314.7188 L188.7656 314.7188 L188.7656 308.1562 L189.8438 308.1562 L189.8438 309.1719 Q190.1875 308.5781 190.7344 308.2891 Q191.2812 308 192.0625 308 Q192.1719 308 192.3047 308.0156 Q192.4375 308.0312 192.5938 308.0625 L192.6094 309.1562 ZM196.2812 308.9062 Q195.4219 308.9062 194.9141 309.5859 Q194.4062 310.2656 194.4062 311.4375 Q194.4062 312.625 194.9062 313.2969 Q195.4062 313.9688 196.2812 313.9688 Q197.1406 313.9688 197.6484 313.2891 Q198.1562 312.6094 198.1562 311.4375 Q198.1562 310.2812 197.6484 309.5938 Q197.1406 308.9062 196.2812 308.9062 ZM196.2812 308 Q197.6875 308 198.4922 308.9141 Q199.2969 309.8281 199.2969 311.4375 Q199.2969 313.0469 198.4922 313.9688 Q197.6875 314.8906 196.2812 314.8906 Q194.875 314.8906 194.0703 313.9688 Q193.2656 313.0469 193.2656 311.4375 Q193.2656 309.8281 194.0703 308.9141 Q194.875 308 196.2812 308 ZM200.4531 308.1562 L201.5312 308.1562 L202.8906 313.2812 L204.2188 308.1562 L205.5 308.1562 L206.8438 313.2812 L208.1875 308.1562 L209.2656 308.1562 L207.5469 314.7188 L206.2812 314.7188 L204.8594 309.3438 L203.4531 314.7188 L202.1719 314.7188 L200.4531 308.1562 ZM215.0781 308.3438 L215.0781 309.375 Q214.625 309.1406 214.1328 309.0234 Q213.6406 308.9062 213.1094 308.9062 Q212.3125 308.9062 211.9062 309.1484 Q211.5 309.3906 211.5 309.8906 Q211.5 310.2656 211.7891 310.4766 Q212.0781 310.6875 212.9531 310.875 L213.3125 310.9688 Q214.4688 311.2031 214.9531 311.6562 Q215.4375 312.1094 215.4375 312.9062 Q215.4375 313.8281 214.7109 314.3594 Q213.9844 314.8906 212.7188 314.8906 Q212.1875 314.8906 211.6172 314.7891 Q211.0469 314.6875 210.4219 314.4844 L210.4219 313.3594 Q211.0156 313.6719 211.5938 313.8281 Q212.1719 313.9844 212.75 313.9844 Q213.5 313.9844 213.9141 313.7266 Q214.3281 313.4688 214.3281 312.9844 Q214.3281 312.5469 214.0312 312.3125 Q213.7344 312.0781 212.7344 311.8594 L212.3594 311.7812 Q211.3594 311.5625 210.9141 311.125 Q210.4688 310.6875 210.4688 309.9375 Q210.4688 309 211.125 308.5 Q211.7812 308 212.9844 308 Q213.5781 308 214.1094 308.0859 Q214.6406 308.1719 215.0781 308.3438 ZM222.7656 311.1719 L222.7656 311.6875 L217.7969 311.6875 Q217.875 312.8125 218.4766 313.3906 Q219.0781 313.9688 220.1406 313.9688 Q220.7656 313.9688 221.3516 313.8203 Q221.9375 313.6719 222.5156 313.3594 L222.5156 314.3906 Q221.9219 314.625 221.3125 314.7578 Q220.7031 314.8906 220.0781 314.8906 Q218.5156 314.8906 217.5938 313.9766 Q216.6719 313.0625 216.6719 311.5 Q216.6719 309.8906 217.5469 308.9453 Q218.4219 308 219.8906 308 Q221.2188 308 221.9922 308.8516 Q222.7656 309.7031 222.7656 311.1719 ZM221.6875 310.8438 Q221.6719 309.9688 221.1875 309.4375 Q220.7031 308.9062 219.9062 308.9062 Q219 308.9062 218.4609 309.4219 Q217.9219 309.9375 217.8438 310.8594 L221.6875 310.8438 ZM228.3281 309.1562 Q228.1406 309.0625 227.9297 309.0078 Q227.7188 308.9531 227.4531 308.9531 Q226.5469 308.9531 226.0547 309.5469 Q225.5625 310.1406 225.5625 311.2656 L225.5625 314.7188 L224.4844 314.7188 L224.4844 308.1562 L225.5625 308.1562 L225.5625 309.1719 Q225.9062 308.5781 226.4531 308.2891 Q227 308 227.7812 308 Q227.8906 308 228.0234 308.0156 Q228.1562 308.0312 228.3125 308.0625 L228.3281 309.1562 Z" clip-path="url(#clipPath5)" stroke="none"/>
    </g>
    <g fill="rgb(232,238,247)" stroke-miterlimit="1.45" transform="matrix(2.649,0,0,2.649,-185.4305,-185.4305)" stroke-linecap="butt" stroke="rgb(232,238,247)">
      <path d="M101.1705 112.3085 L170.9706 112.3085 L160.7706 152.3085 L90.9706 152.3085 Z" clip-path="url(#clipPath2)" stroke="none"/>
      <path fill="none" d="M101.1705 112.3085 L170.9706 112.3085 L160.7706 152.3085 L90.9706 152.3085 Z" clip-path="url(#clipPath2)" stroke="black"/>
    </g>
    <g transform="matrix(2.649,0,0,2.649,-185.4305,-185.4305)">
      <path d="M109.3594 127.375 L109.3594 128.625 Q108.75 128.0625 108.0781 127.7891 Q107.4062 127.5156 106.6406 127.5156 Q105.1406 127.5156 104.3438 128.4375 Q103.5469 129.3594 103.5469 131.0938 Q103.5469 132.8125 104.3438 133.7344 Q105.1406 134.6562 106.6406 134.6562 Q107.4062 134.6562 108.0781 134.375 Q108.75 134.0938 109.3594 133.5469 L109.3594 134.7812 Q108.7344 135.2031 108.0391 135.4141 Q107.3438 135.625 106.5781 135.625 Q104.5781 135.625 103.4375 134.4062 Q102.2969 133.1875 102.2969 131.0938 Q102.2969 128.9844 103.4375 127.7656 Q104.5781 126.5469 106.5781 126.5469 Q107.3594 126.5469 108.0547 126.7578 Q108.75 126.9688 109.3594 127.375 ZM113.6875 129.6406 Q112.8281 129.6406 112.3203 130.3203 Q111.8125 131 111.8125 132.1719 Q111.8125 133.3594 112.3125 134.0312 Q112.8125 134.7031 113.6875 134.7031 Q114.5469 134.7031 115.0547 134.0234 Q115.5625 133.3438 115.5625 132.1719 Q115.5625 131.0156 115.0547 130.3281 Q114.5469 129.6406 113.6875 129.6406 ZM113.6875 128.7344 Q115.0938 128.7344 115.8984 129.6484 Q116.7031 130.5625 116.7031 132.1719 Q116.7031 133.7812 115.8984 134.7031 Q115.0938 135.625 113.6875 135.625 Q112.2812 135.625 111.4766 134.7031 Q110.6719 133.7812 110.6719 132.1719 Q110.6719 130.5625 111.4766 129.6484 Q112.2812 128.7344 113.6875 128.7344 ZM123.9375 131.4844 L123.9375 135.4531 L122.8594 135.4531 L122.8594 131.5312 Q122.8594 130.5938 122.4922 130.1328 Q122.125 129.6719 121.4062 129.6719 Q120.5312 129.6719 120.0234 130.2266 Q119.5156 130.7812 119.5156 131.75 L119.5156 135.4531 L118.4375 135.4531 L118.4375 128.8906 L119.5156 128.8906 L119.5156 129.9062 Q119.9062 129.3125 120.4297 129.0234 Q120.9531 128.7344 121.6406 128.7344 Q122.7656 128.7344 123.3516 129.4297 Q123.9375 130.125 123.9375 131.4844 ZM127.1562 127.0312 L127.1562 128.8906 L129.375 128.8906 L129.375 129.7344 L127.1562 129.7344 L127.1562 133.2969 Q127.1562 134.0938 127.375 134.3203 Q127.5938 134.5469 128.2656 134.5469 L129.375 134.5469 L129.375 135.4531 L128.2656 135.4531 Q127.0156 135.4531 126.5391 134.9844 Q126.0625 134.5156 126.0625 133.2969 L126.0625 129.7344 L125.2812 129.7344 L125.2812 128.8906 L126.0625 128.8906 L126.0625 127.0312 L127.1562 127.0312 ZM136.4062 131.9062 L136.4062 132.4219 L131.4375 132.4219 Q131.5156 133.5469 132.1172 134.125 Q132.7188 134.7031 133.7812 134.7031 Q134.4062 134.7031 134.9922 134.5547 Q135.5781 134.4062 136.1562 134.0938 L136.1562 135.125 Q135.5625 135.3594 134.9531 135.4922 Q134.3438 135.625 133.7188 135.625 Q132.1562 135.625 131.2344 134.7109 Q130.3125 133.7969 130.3125 132.2344 Q130.3125 130.625 131.1875 129.6797 Q132.0625 128.7344 133.5312 128.7344 Q134.8594 128.7344 135.6328 129.5859 Q136.4062 130.4375 136.4062 131.9062 ZM135.3281 131.5781 Q135.3125 130.7031 134.8281 130.1719 Q134.3438 129.6406 133.5469 129.6406 Q132.6406 129.6406 132.1016 130.1562 Q131.5625 130.6719 131.4844 131.5938 L135.3281 131.5781 ZM143.6406 131.4844 L143.6406 135.4531 L142.5625 135.4531 L142.5625 131.5312 Q142.5625 130.5938 142.1953 130.1328 Q141.8281 129.6719 141.1094 129.6719 Q140.2344 129.6719 139.7266 130.2266 Q139.2188 130.7812 139.2188 131.75 L139.2188 135.4531 L138.1406 135.4531 L138.1406 128.8906 L139.2188 128.8906 L139.2188 129.9062 Q139.6094 129.3125 140.1328 129.0234 Q140.6562 128.7344 141.3438 128.7344 Q142.4688 128.7344 143.0547 129.4297 Q143.6406 130.125 143.6406 131.4844 ZM145.6719 132.8594 L145.6719 128.8906 L146.75 128.8906 L146.75 132.8281 Q146.75 133.75 147.1172 134.2188 Q147.4844 134.6875 148.2031 134.6875 Q149.0781 134.6875 149.5859 134.1328 Q150.0938 133.5781 150.0938 132.6094 L150.0938 128.8906 L151.1719 128.8906 L151.1719 135.4531 L150.0938 135.4531 L150.0938 134.4375 Q149.7031 135.0469 149.1875 135.3359 Q148.6719 135.625 147.9844 135.625 Q146.8438 135.625 146.2578 134.9219 Q145.6719 134.2188 145.6719 132.8594 ZM148.3906 128.7344 L148.3906 128.7344 ZM154.4531 127.0312 L154.4531 128.8906 L156.6719 128.8906 L156.6719 129.7344 L154.4531 129.7344 L154.4531 133.2969 Q154.4531 134.0938 154.6719 134.3203 Q154.8906 134.5469 155.5625 134.5469 L156.6719 134.5469 L156.6719 135.4531 L155.5625 135.4531 Q154.3125 135.4531 153.8359 134.9844 Q153.3594 134.5156 153.3594 133.2969 L153.3594 129.7344 L152.5781 129.7344 L152.5781 128.8906 L153.3594 128.8906 L153.3594 127.0312 L154.4531 127.0312 ZM158.0781 128.8906 L159.1562 128.8906 L159.1562 135.4531 L158.0781 135.4531 L158.0781 128.8906 ZM158.0781 126.3281 L159.1562 126.3281 L159.1562 127.7031 L158.0781 127.7031 L158.0781 126.3281 Z" clip-path="url(#clipPath6)" stroke="none"/>
    </g>
    <g fill="rgb(232,238,247)" stroke-miterlimit="1.45" transform="matrix(2.649,0,0,2.649,-185.4305,-185.4305)" stroke-linecap="butt" stroke="rgb(232,238,247)">
      <path d="M193.9455 112.3085 L263.7455 112.3085 L253.5455 152.3085 L183.7455 152.3085 Z" clip-path="url(#clipPath2)" stroke="none"/>
      <path fill="none" d="M193.9455 112.3085 L263.7455 112.3085 L253.5455 152.3085 L183.7455 152.3085 Z" clip-path="url(#clipPath2)" stroke="black"/>
    </g>
    <g transform="matrix(2.649,0,0,2.649,-185.4305,-185.4305)">
      <path d="M203.0781 120 L203.0781 121.1562 Q202.4062 120.8438 201.8047 120.6797 Q201.2031 120.5156 200.6562 120.5156 Q199.6875 120.5156 199.1641 120.8906 Q198.6406 121.2656 198.6406 121.9688 Q198.6406 122.5469 198.9844 122.8438 Q199.3281 123.1406 200.3125 123.3125 L201.0156 123.4688 Q202.3438 123.7188 202.9766 124.3516 Q203.6094 124.9844 203.6094 126.0469 Q203.6094 127.3281 202.7578 127.9844 Q201.9062 128.6406 200.25 128.6406 Q199.6406 128.6406 198.9375 128.5 Q198.2344 128.3594 197.4844 128.0781 L197.4844 126.8594 Q198.2031 127.2656 198.8984 127.4688 Q199.5938 127.6719 200.25 127.6719 Q201.2656 127.6719 201.8203 127.2734 Q202.375 126.875 202.375 126.1406 Q202.375 125.5 201.9766 125.1328 Q201.5781 124.7656 200.6719 124.5938 L199.9531 124.4531 Q198.625 124.1875 198.0391 123.625 Q197.4531 123.0625 197.4531 122.0625 Q197.4531 120.8906 198.2656 120.2266 Q199.0781 119.5625 200.5156 119.5625 Q201.1406 119.5625 201.7734 119.6719 Q202.4062 119.7812 203.0781 120 ZM206.4688 120.0469 L206.4688 121.9062 L208.6875 121.9062 L208.6875 122.75 L206.4688 122.75 L206.4688 126.3125 Q206.4688 127.1094 206.6875 127.3359 Q206.9062 127.5625 207.5781 127.5625 L208.6875 127.5625 L208.6875 128.4688 L207.5781 128.4688 Q206.3281 128.4688 205.8516 128 Q205.375 127.5312 205.375 126.3125 L205.375 122.75 L204.5938 122.75 L204.5938 121.9062 L205.375 121.9062 L205.375 120.0469 L206.4688 120.0469 ZM213.9219 122.9062 Q213.7344 122.8125 213.5234 122.7578 Q213.3125 122.7031 213.0469 122.7031 Q212.1406 122.7031 211.6484 123.2969 Q211.1562 123.8906 211.1562 125.0156 L211.1562 128.4688 L210.0781 128.4688 L210.0781 121.9062 L211.1562 121.9062 L211.1562 122.9219 Q211.5 122.3281 212.0469 122.0391 Q212.5938 121.75 213.375 121.75 Q213.4844 121.75 213.6172 121.7656 Q213.75 121.7812 213.9062 121.8125 L213.9219 122.9062 ZM214.9219 125.875 L214.9219 121.9062 L216 121.9062 L216 125.8438 Q216 126.7656 216.3672 127.2344 Q216.7344 127.7031 217.4531 127.7031 Q218.3281 127.7031 218.8359 127.1484 Q219.3438 126.5938 219.3438 125.625 L219.3438 121.9062 L220.4219 121.9062 L220.4219 128.4688 L219.3438 128.4688 L219.3438 127.4531 Q218.9531 128.0625 218.4375 128.3516 Q217.9219 128.6406 217.2344 128.6406 Q216.0938 128.6406 215.5078 127.9375 Q214.9219 127.2344 214.9219 125.875 ZM217.6406 121.75 L217.6406 121.75 ZM223.7188 120.0469 L223.7188 121.9062 L225.9375 121.9062 L225.9375 122.75 L223.7188 122.75 L223.7188 126.3125 Q223.7188 127.1094 223.9375 127.3359 Q224.1562 127.5625 224.8281 127.5625 L225.9375 127.5625 L225.9375 128.4688 L224.8281 128.4688 Q223.5781 128.4688 223.1016 128 Q222.625 127.5312 222.625 126.3125 L222.625 122.75 L221.8438 122.75 L221.8438 121.9062 L222.625 121.9062 L222.625 120.0469 L223.7188 120.0469 ZM228.4219 120.0469 L228.4219 121.9062 L230.6406 121.9062 L230.6406 122.75 L228.4219 122.75 L228.4219 126.3125 Q228.4219 127.1094 228.6406 127.3359 Q228.8594 127.5625 229.5312 127.5625 L230.6406 127.5625 L230.6406 128.4688 L229.5312 128.4688 Q228.2812 128.4688 227.8047 128 Q227.3281 127.5312 227.3281 126.3125 L227.3281 122.75 L226.5469 122.75 L226.5469 121.9062 L227.3281 121.9062 L227.3281 120.0469 L228.4219 120.0469 ZM231.9375 125.875 L231.9375 121.9062 L233.0156 121.9062 L233.0156 125.8438 Q233.0156 126.7656 233.3828 127.2344 Q233.75 127.7031 234.4688 127.7031 Q235.3438 127.7031 235.8516 127.1484 Q236.3594 126.5938 236.3594 125.625 L236.3594 121.9062 L237.4375 121.9062 L237.4375 128.4688 L236.3594 128.4688 L236.3594 127.4531 Q235.9688 128.0625 235.4531 128.3516 Q234.9375 128.6406 234.25 128.6406 Q233.1094 128.6406 232.5234 127.9375 Q231.9375 127.2344 231.9375 125.875 ZM234.6562 121.75 L234.6562 121.75 ZM243.4688 122.9062 Q243.2812 122.8125 243.0703 122.7578 Q242.8594 122.7031 242.5938 122.7031 Q241.6875 122.7031 241.1953 123.2969 Q240.7031 123.8906 240.7031 125.0156 L240.7031 128.4688 L239.625 128.4688 L239.625 121.9062 L240.7031 121.9062 L240.7031 122.9219 Q241.0469 122.3281 241.5938 122.0391 Q242.1406 121.75 242.9219 121.75 Q243.0312 121.75 243.1641 121.7656 Q243.2969 121.7812 243.4531 121.8125 L243.4688 122.9062 ZM247.5781 125.1719 Q246.2812 125.1719 245.7734 125.4688 Q245.2656 125.7656 245.2656 126.4844 Q245.2656 127.0625 245.6484 127.3984 Q246.0312 127.7344 246.6719 127.7344 Q247.5781 127.7344 248.1172 127.1016 Q248.6562 126.4688 248.6562 125.4062 L248.6562 125.1719 L247.5781 125.1719 ZM249.7344 124.7188 L249.7344 128.4688 L248.6562 128.4688 L248.6562 127.4688 Q248.2812 128.0625 247.7344 128.3516 Q247.1875 128.6406 246.3906 128.6406 Q245.375 128.6406 244.7812 128.0703 Q244.1875 127.5 244.1875 126.5625 Q244.1875 125.4531 244.9297 124.8906 Q245.6719 124.3281 247.1406 124.3281 L248.6562 124.3281 L248.6562 124.2188 Q248.6562 123.4688 248.1641 123.0625 Q247.6719 122.6562 246.7969 122.6562 Q246.2344 122.6562 245.6953 122.7969 Q245.1562 122.9375 244.6719 123.2031 L244.6719 122.2031 Q245.2656 121.9688 245.8203 121.8594 Q246.375 121.75 246.9062 121.75 Q248.3281 121.75 249.0312 122.4844 Q249.7344 123.2188 249.7344 124.7188 Z" clip-path="url(#clipPath7)" stroke="none"/>
      <path d="M207.0781 133.3125 L208.1562 133.3125 L208.1562 142.4375 L207.0781 142.4375 L207.0781 133.3125 ZM212.9531 136.625 Q212.0938 136.625 211.5859 137.3047 Q211.0781 137.9844 211.0781 139.1562 Q211.0781 140.3438 211.5781 141.0156 Q212.0781 141.6875 212.9531 141.6875 Q213.8125 141.6875 214.3203 141.0078 Q214.8281 140.3281 214.8281 139.1562 Q214.8281 138 214.3203 137.3125 Q213.8125 136.625 212.9531 136.625 ZM212.9531 135.7188 Q214.3594 135.7188 215.1641 136.6328 Q215.9688 137.5469 215.9688 139.1562 Q215.9688 140.7656 215.1641 141.6875 Q214.3594 142.6094 212.9531 142.6094 Q211.5469 142.6094 210.7422 141.6875 Q209.9375 140.7656 209.9375 139.1562 Q209.9375 137.5469 210.7422 136.6328 Q211.5469 135.7188 212.9531 135.7188 ZM222.0781 139.0781 Q222.0781 137.9062 221.5938 137.2656 Q221.1094 136.625 220.2344 136.625 Q219.375 136.625 218.8906 137.2656 Q218.4062 137.9062 218.4062 139.0781 Q218.4062 140.25 218.8906 140.8906 Q219.375 141.5312 220.2344 141.5312 Q221.1094 141.5312 221.5938 140.8906 Q222.0781 140.25 222.0781 139.0781 ZM223.1562 141.625 Q223.1562 143.2969 222.4141 144.1172 Q221.6719 144.9375 220.125 144.9375 Q219.5625 144.9375 219.0547 144.8516 Q218.5469 144.7656 218.0781 144.5938 L218.0781 143.5469 Q218.5469 143.7969 219.0156 143.9219 Q219.4844 144.0469 219.9531 144.0469 Q221.0156 144.0469 221.5469 143.4922 Q222.0781 142.9375 222.0781 141.8125 L222.0781 141.2812 Q221.7344 141.8594 221.2188 142.1484 Q220.7031 142.4375 219.9688 142.4375 Q218.7656 142.4375 218.0234 141.5156 Q217.2812 140.5938 217.2812 139.0781 Q217.2812 137.5625 218.0234 136.6406 Q218.7656 135.7188 219.9688 135.7188 Q220.7031 135.7188 221.2188 136.0078 Q221.7344 136.2969 222.0781 136.875 L222.0781 135.875 L223.1562 135.875 L223.1562 141.625 ZM225.3594 135.875 L226.4375 135.875 L226.4375 142.4375 L225.3594 142.4375 L225.3594 135.875 ZM225.3594 133.3125 L226.4375 133.3125 L226.4375 134.6875 L225.3594 134.6875 L225.3594 133.3125 ZM233.4375 136.125 L233.4375 137.1406 Q232.9688 136.875 232.5156 136.75 Q232.0625 136.625 231.5938 136.625 Q230.5312 136.625 229.9531 137.2891 Q229.375 137.9531 229.375 139.1562 Q229.375 140.3594 229.9531 141.0234 Q230.5312 141.6875 231.5938 141.6875 Q232.0625 141.6875 232.5156 141.5625 Q232.9688 141.4375 233.4375 141.1875 L233.4375 142.1875 Q232.9844 142.3906 232.5 142.5 Q232.0156 142.6094 231.4688 142.6094 Q229.9844 142.6094 229.1094 141.6797 Q228.2344 140.75 228.2344 139.1562 Q228.2344 137.5625 229.1172 136.6406 Q230 135.7188 231.5469 135.7188 Q232.0312 135.7188 232.5078 135.8203 Q232.9844 135.9219 233.4375 136.125 ZM238.2812 139.1406 Q236.9844 139.1406 236.4766 139.4375 Q235.9688 139.7344 235.9688 140.4531 Q235.9688 141.0312 236.3516 141.3672 Q236.7344 141.7031 237.375 141.7031 Q238.2812 141.7031 238.8203 141.0703 Q239.3594 140.4375 239.3594 139.375 L239.3594 139.1406 L238.2812 139.1406 ZM240.4375 138.6875 L240.4375 142.4375 L239.3594 142.4375 L239.3594 141.4375 Q238.9844 142.0312 238.4375 142.3203 Q237.8906 142.6094 237.0938 142.6094 Q236.0781 142.6094 235.4844 142.0391 Q234.8906 141.4688 234.8906 140.5312 Q234.8906 139.4219 235.6328 138.8594 Q236.375 138.2969 237.8438 138.2969 L239.3594 138.2969 L239.3594 138.1875 Q239.3594 137.4375 238.8672 137.0312 Q238.375 136.625 237.5 136.625 Q236.9375 136.625 236.3984 136.7656 Q235.8594 136.9062 235.375 137.1719 L235.375 136.1719 Q235.9688 135.9375 236.5234 135.8281 Q237.0781 135.7188 237.6094 135.7188 Q239.0312 135.7188 239.7344 136.4531 Q240.4375 137.1875 240.4375 138.6875 Z" clip-path="url(#clipPath7)" stroke="none"/>
    </g>
    <g fill="rgb(232,238,247)" stroke-miterlimit="1.45" transform="matrix(2.649,0,0,2.649,-185.4305,-185.4305)" stroke-linecap="butt" stroke="rgb(232,238,247)">
      <path d="M281.9066 112.3085 L351.7065 112.3085 L341.5066 152.3085 L271.7065 152.3085 Z" clip-path="url(#clipPath2)" stroke="none"/>
      <path fill="none" d="M281.9066 112.3085 L351.7065 112.3085 L341.5066 152.3085 L271.7065 152.3085 Z" clip-path="url(#clipPath2)" stroke="black"/>
    </g>
    <g transform="matrix(2.649,0,0,2.649,-185.4305,-185.4305)">
      <path d="M285.25 124.3594 Q285.625 124.5 285.9844 124.9219 Q286.3438 125.3438 286.7188 126.0781 L287.9219 128.4688 L286.6406 128.4688 L285.5312 126.2188 Q285.0938 125.3438 284.6875 125.0547 Q284.2812 124.7656 283.5781 124.7656 L282.2812 124.7656 L282.2812 128.4688 L281.0938 128.4688 L281.0938 119.7188 L283.7656 119.7188 Q285.2656 119.7188 286.0078 120.3438 Q286.75 120.9688 286.75 122.2344 Q286.75 123.0625 286.3672 123.6094 Q285.9844 124.1562 285.25 124.3594 ZM282.2812 120.6875 L282.2812 123.7969 L283.7656 123.7969 Q284.625 123.7969 285.0625 123.3984 Q285.5 123 285.5 122.2344 Q285.5 121.4688 285.0625 121.0781 Q284.625 120.6875 283.7656 120.6875 L282.2812 120.6875 ZM295.0156 124.9219 L295.0156 125.4375 L290.0469 125.4375 Q290.125 126.5625 290.7266 127.1406 Q291.3281 127.7188 292.3906 127.7188 Q293.0156 127.7188 293.6016 127.5703 Q294.1875 127.4219 294.7656 127.1094 L294.7656 128.1406 Q294.1719 128.375 293.5625 128.5078 Q292.9531 128.6406 292.3281 128.6406 Q290.7656 128.6406 289.8438 127.7266 Q288.9219 126.8125 288.9219 125.25 Q288.9219 123.6406 289.7969 122.6953 Q290.6719 121.75 292.1406 121.75 Q293.4688 121.75 294.2422 122.6016 Q295.0156 123.4531 295.0156 124.9219 ZM293.9375 124.5938 Q293.9219 123.7188 293.4375 123.1875 Q292.9531 122.6562 292.1562 122.6562 Q291.25 122.6562 290.7109 123.1719 Q290.1719 123.6875 290.0938 124.6094 L293.9375 124.5938 ZM301.0938 125.1094 Q301.0938 123.9375 300.6094 123.2969 Q300.125 122.6562 299.25 122.6562 Q298.3906 122.6562 297.9062 123.2969 Q297.4219 123.9375 297.4219 125.1094 Q297.4219 126.2812 297.9062 126.9219 Q298.3906 127.5625 299.25 127.5625 Q300.125 127.5625 300.6094 126.9219 Q301.0938 126.2812 301.0938 125.1094 ZM302.1719 127.6562 Q302.1719 129.3281 301.4297 130.1484 Q300.6875 130.9688 299.1406 130.9688 Q298.5781 130.9688 298.0703 130.8828 Q297.5625 130.7969 297.0938 130.625 L297.0938 129.5781 Q297.5625 129.8281 298.0312 129.9531 Q298.5 130.0781 298.9688 130.0781 Q300.0312 130.0781 300.5625 129.5234 Q301.0938 128.9688 301.0938 127.8438 L301.0938 127.3125 Q300.75 127.8906 300.2344 128.1797 Q299.7188 128.4688 298.9844 128.4688 Q297.7812 128.4688 297.0391 127.5469 Q296.2969 126.625 296.2969 125.1094 Q296.2969 123.5938 297.0391 122.6719 Q297.7812 121.75 298.9844 121.75 Q299.7188 121.75 300.2344 122.0391 Q300.75 122.3281 301.0938 122.9062 L301.0938 121.9062 L302.1719 121.9062 L302.1719 127.6562 ZM306.9375 122.6562 Q306.0781 122.6562 305.5703 123.3359 Q305.0625 124.0156 305.0625 125.1875 Q305.0625 126.375 305.5625 127.0469 Q306.0625 127.7188 306.9375 127.7188 Q307.7969 127.7188 308.3047 127.0391 Q308.8125 126.3594 308.8125 125.1875 Q308.8125 124.0312 308.3047 123.3438 Q307.7969 122.6562 306.9375 122.6562 ZM306.9375 121.75 Q308.3438 121.75 309.1484 122.6641 Q309.9531 123.5781 309.9531 125.1875 Q309.9531 126.7969 309.1484 127.7188 Q308.3438 128.6406 306.9375 128.6406 Q305.5312 128.6406 304.7266 127.7188 Q303.9219 126.7969 303.9219 125.1875 Q303.9219 123.5781 304.7266 122.6641 Q305.5312 121.75 306.9375 121.75 ZM311.7344 119.3438 L312.8125 119.3438 L312.8125 128.4688 L311.7344 128.4688 L311.7344 119.3438 ZM320.6875 124.9219 L320.6875 125.4375 L315.7188 125.4375 Q315.7969 126.5625 316.3984 127.1406 Q317 127.7188 318.0625 127.7188 Q318.6875 127.7188 319.2734 127.5703 Q319.8594 127.4219 320.4375 127.1094 L320.4375 128.1406 Q319.8438 128.375 319.2344 128.5078 Q318.625 128.6406 318 128.6406 Q316.4375 128.6406 315.5156 127.7266 Q314.5938 126.8125 314.5938 125.25 Q314.5938 123.6406 315.4688 122.6953 Q316.3438 121.75 317.8125 121.75 Q319.1406 121.75 319.9141 122.6016 Q320.6875 123.4531 320.6875 124.9219 ZM319.6094 124.5938 Q319.5938 123.7188 319.1094 123.1875 Q318.625 122.6562 317.8281 122.6562 Q316.9219 122.6562 316.3828 123.1719 Q315.8438 123.6875 315.7656 124.6094 L319.6094 124.5938 ZM330.5938 122.9062 L330.5938 119.3438 L331.6719 119.3438 L331.6719 128.4688 L330.5938 128.4688 L330.5938 127.4844 Q330.25 128.0625 329.7344 128.3516 Q329.2188 128.6406 328.4844 128.6406 Q327.2969 128.6406 326.5469 127.6875 Q325.7969 126.7344 325.7969 125.1875 Q325.7969 123.6406 326.5469 122.6953 Q327.2969 121.75 328.4844 121.75 Q329.2188 121.75 329.7344 122.0312 Q330.25 122.3125 330.5938 122.9062 ZM326.9219 125.1875 Q326.9219 126.375 327.4062 127.0547 Q327.8906 127.7344 328.75 127.7344 Q329.6094 127.7344 330.1016 127.0547 Q330.5938 126.375 330.5938 125.1875 Q330.5938 124 330.1016 123.3281 Q329.6094 122.6562 328.75 122.6562 Q327.8906 122.6562 327.4062 123.3281 Q326.9219 124 326.9219 125.1875 ZM339.5 124.9219 L339.5 125.4375 L334.5312 125.4375 Q334.6094 126.5625 335.2109 127.1406 Q335.8125 127.7188 336.875 127.7188 Q337.5 127.7188 338.0859 127.5703 Q338.6719 127.4219 339.25 127.1094 L339.25 128.1406 Q338.6562 128.375 338.0469 128.5078 Q337.4375 128.6406 336.8125 128.6406 Q335.25 128.6406 334.3281 127.7266 Q333.4062 126.8125 333.4062 125.25 Q333.4062 123.6406 334.2812 122.6953 Q335.1562 121.75 336.625 121.75 Q337.9531 121.75 338.7266 122.6016 Q339.5 123.4531 339.5 124.9219 ZM338.4219 124.5938 Q338.4062 123.7188 337.9219 123.1875 Q337.4375 122.6562 336.6406 122.6562 Q335.7344 122.6562 335.1953 123.1719 Q334.6562 123.6875 334.5781 124.6094 L338.4219 124.5938 ZM341.2656 121.9062 L342.3438 121.9062 L342.3438 128.4688 L341.2656 128.4688 L341.2656 121.9062 ZM341.2656 119.3438 L342.3438 119.3438 L342.3438 120.7188 L341.2656 120.7188 L341.2656 119.3438 Z" clip-path="url(#clipPath8)" stroke="none"/>
      <path d="M285.1094 133.3125 L286.1875 133.3125 L286.1875 142.4375 L285.1094 142.4375 L285.1094 133.3125 ZM288.4531 135.875 L289.5312 135.875 L289.5312 142.4375 L288.4531 142.4375 L288.4531 135.875 ZM288.4531 133.3125 L289.5312 133.3125 L289.5312 134.6875 L288.4531 134.6875 L288.4531 133.3125 ZM297.25 138.4688 L297.25 142.4375 L296.1719 142.4375 L296.1719 138.5156 Q296.1719 137.5781 295.8047 137.1172 Q295.4375 136.6562 294.7188 136.6562 Q293.8438 136.6562 293.3359 137.2109 Q292.8281 137.7656 292.8281 138.7344 L292.8281 142.4375 L291.75 142.4375 L291.75 135.875 L292.8281 135.875 L292.8281 136.8906 Q293.2188 136.2969 293.7422 136.0078 Q294.2656 135.7188 294.9531 135.7188 Q296.0781 135.7188 296.6641 136.4141 Q297.25 137.1094 297.25 138.4688 ZM303.7188 139.0781 Q303.7188 137.9062 303.2344 137.2656 Q302.75 136.625 301.875 136.625 Q301.0156 136.625 300.5312 137.2656 Q300.0469 137.9062 300.0469 139.0781 Q300.0469 140.25 300.5312 140.8906 Q301.0156 141.5312 301.875 141.5312 Q302.75 141.5312 303.2344 140.8906 Q303.7188 140.25 303.7188 139.0781 ZM304.7969 141.625 Q304.7969 143.2969 304.0547 144.1172 Q303.3125 144.9375 301.7656 144.9375 Q301.2031 144.9375 300.6953 144.8516 Q300.1875 144.7656 299.7188 144.5938 L299.7188 143.5469 Q300.1875 143.7969 300.6562 143.9219 Q301.125 144.0469 301.5938 144.0469 Q302.6562 144.0469 303.1875 143.4922 Q303.7188 142.9375 303.7188 141.8125 L303.7188 141.2812 Q303.375 141.8594 302.8594 142.1484 Q302.3438 142.4375 301.6094 142.4375 Q300.4062 142.4375 299.6641 141.5156 Q298.9219 140.5938 298.9219 139.0781 Q298.9219 137.5625 299.6641 136.6406 Q300.4062 135.7188 301.6094 135.7188 Q302.3438 135.7188 302.8594 136.0078 Q303.375 136.2969 303.7188 136.875 L303.7188 135.875 L304.7969 135.875 L304.7969 141.625 ZM306.8906 139.8438 L306.8906 135.875 L307.9688 135.875 L307.9688 139.8125 Q307.9688 140.7344 308.3359 141.2031 Q308.7031 141.6719 309.4219 141.6719 Q310.2969 141.6719 310.8047 141.1172 Q311.3125 140.5625 311.3125 139.5938 L311.3125 135.875 L312.3906 135.875 L312.3906 142.4375 L311.3125 142.4375 L311.3125 141.4219 Q310.9219 142.0312 310.4062 142.3203 Q309.8906 142.6094 309.2031 142.6094 Q308.0625 142.6094 307.4766 141.9062 Q306.8906 141.2031 306.8906 139.8438 ZM309.6094 135.7188 L309.6094 135.7188 ZM317.5938 139.1406 Q316.2969 139.1406 315.7891 139.4375 Q315.2812 139.7344 315.2812 140.4531 Q315.2812 141.0312 315.6641 141.3672 Q316.0469 141.7031 316.6875 141.7031 Q317.5938 141.7031 318.1328 141.0703 Q318.6719 140.4375 318.6719 139.375 L318.6719 139.1406 L317.5938 139.1406 ZM319.75 138.6875 L319.75 142.4375 L318.6719 142.4375 L318.6719 141.4375 Q318.2969 142.0312 317.75 142.3203 Q317.2031 142.6094 316.4062 142.6094 Q315.3906 142.6094 314.7969 142.0391 Q314.2031 141.4688 314.2031 140.5312 Q314.2031 139.4219 314.9453 138.8594 Q315.6875 138.2969 317.1562 138.2969 L318.6719 138.2969 L318.6719 138.1875 Q318.6719 137.4375 318.1797 137.0312 Q317.6875 136.625 316.8125 136.625 Q316.25 136.625 315.7109 136.7656 Q315.1719 136.9062 314.6875 137.1719 L314.6875 136.1719 Q315.2812 135.9375 315.8359 135.8281 Q316.3906 135.7188 316.9219 135.7188 Q318.3438 135.7188 319.0469 136.4531 Q319.75 137.1875 319.75 138.6875 ZM326.2969 139.0781 Q326.2969 137.9062 325.8125 137.2656 Q325.3281 136.625 324.4531 136.625 Q323.5938 136.625 323.1094 137.2656 Q322.625 137.9062 322.625 139.0781 Q322.625 140.25 323.1094 140.8906 Q323.5938 141.5312 324.4531 141.5312 Q325.3281 141.5312 325.8125 140.8906 Q326.2969 140.25 326.2969 139.0781 ZM327.375 141.625 Q327.375 143.2969 326.6328 144.1172 Q325.8906 144.9375 324.3438 144.9375 Q323.7812 144.9375 323.2734 144.8516 Q322.7656 144.7656 322.2969 144.5938 L322.2969 143.5469 Q322.7656 143.7969 323.2344 143.9219 Q323.7031 144.0469 324.1719 144.0469 Q325.2344 144.0469 325.7656 143.4922 Q326.2969 142.9375 326.2969 141.8125 L326.2969 141.2812 Q325.9531 141.8594 325.4375 142.1484 Q324.9219 142.4375 324.1875 142.4375 Q322.9844 142.4375 322.2422 141.5156 Q321.5 140.5938 321.5 139.0781 Q321.5 137.5625 322.2422 136.6406 Q322.9844 135.7188 324.1875 135.7188 Q324.9219 135.7188 325.4375 136.0078 Q325.9531 136.2969 326.2969 136.875 L326.2969 135.875 L327.375 135.875 L327.375 141.625 ZM333.9062 139.0781 Q333.9062 137.9062 333.4219 137.2656 Q332.9375 136.625 332.0625 136.625 Q331.2031 136.625 330.7188 137.2656 Q330.2344 137.9062 330.2344 139.0781 Q330.2344 140.25 330.7188 140.8906 Q331.2031 141.5312 332.0625 141.5312 Q332.9375 141.5312 333.4219 140.8906 Q333.9062 140.25 333.9062 139.0781 ZM334.9844 141.625 Q334.9844 143.2969 334.2422 144.1172 Q333.5 144.9375 331.9531 144.9375 Q331.3906 144.9375 330.8828 144.8516 Q330.375 144.7656 329.9062 144.5938 L329.9062 143.5469 Q330.375 143.7969 330.8438 143.9219 Q331.3125 144.0469 331.7812 144.0469 Q332.8438 144.0469 333.375 143.4922 Q333.9062 142.9375 333.9062 141.8125 L333.9062 141.2812 Q333.5625 141.8594 333.0469 142.1484 Q332.5312 142.4375 331.7969 142.4375 Q330.5938 142.4375 329.8516 141.5156 Q329.1094 140.5938 329.1094 139.0781 Q329.1094 137.5625 329.8516 136.6406 Q330.5938 135.7188 331.7969 135.7188 Q332.5312 135.7188 333.0469 136.0078 Q333.5625 136.2969 333.9062 136.875 L333.9062 135.875 L334.9844 135.875 L334.9844 141.625 ZM337.2031 135.875 L338.2812 135.875 L338.2812 142.4375 L337.2031 142.4375 L337.2031 135.875 ZM337.2031 133.3125 L338.2812 133.3125 L338.2812 134.6875 L337.2031 134.6875 L337.2031 133.3125 Z" clip-path="url(#clipPath8)" stroke="none"/>
    </g>
    <g stroke-linecap="butt" transform="matrix(2.649,0,0,2.649,-185.4305,-185.4305)" stroke-miterlimit="1.45">
      <path fill="none" d="M214.4462 219.4221 L245.2978 218.5138" clip-path="url(#clipPath2)"/>
      <path d="M253.2943 218.2783 L241.1524 213.6337 L244.2982 218.5432 L241.4467 223.6293 Z" clip-path="url(#clipPath2)" stroke="none"/>
      <path fill="none" d="M253.2769 218.2788 L222.4253 219.1872" clip-path="url(#clipPath2)"/>
      <path d="M214.4288 219.4227 L226.5707 224.0673 L223.4249 219.1578 L226.2764 214.0717 Z" clip-path="url(#clipPath2)" stroke="none"/>
      <path fill="none" d="M180.1348 244.099 L185.5388 266.3414" clip-path="url(#clipPath2)"/>
      <path d="M187.4275 274.1152 L189.4531 261.274 L185.3027 265.3697 L179.7358 263.6349 Z" clip-path="url(#clipPath2)" stroke="none"/>
      <path fill="none" d="M141.6012 295.4044 L111.0025 294.1005 L111.0025 217.1005 L126.4577 217.9534" clip-path="url(#clipPath2)"/>
      <path d="M134.4455 218.3942 L122.7393 212.7406 L125.4592 217.8983 L122.1882 222.7254 Z" clip-path="url(#clipPath2)" stroke="none"/>
      <path fill="none" d="M140.7946 152.269 L159.3158 189.9005" clip-path="url(#clipPath2)"/>
      <path d="M162.8485 197.0782 L162.0355 184.1036 L158.8742 189.0032 L153.0634 188.5195 Z" clip-path="url(#clipPath2)" stroke="none"/>
      <path fill="none" d="M161.7635 148.3933 L247.8961 193.3849" clip-path="url(#clipPath2)"/>
      <path d="M254.987 197.0889 L246.6656 187.1011 L247.0097 192.9219 L242.0357 195.9648 Z" clip-path="url(#clipPath2)" stroke="none"/>
      <path fill="none" d="M240.1657 152.3265 L271.8018 190.8947" clip-path="url(#clipPath2)"/>
      <path d="M276.8754 197.08 L273.1308 184.631 L271.1676 190.1215 L265.3992 190.973 Z" clip-path="url(#clipPath2)" stroke="none"/>
      <path fill="none" d="M212.5956 152.269 L191.4665 190.094" clip-path="url(#clipPath2)"/>
      <path d="M187.5651 197.0782 L197.7823 189.0403 L191.9542 189.221 L189.0521 184.1635 Z" clip-path="url(#clipPath2)" stroke="none"/>
      <path fill="none" d="M280.6373 152.2906 L217.6903 192.7749" clip-path="url(#clipPath2)"/>
      <path d="M210.9618 197.1023 L223.7592 194.8165 L218.5314 192.2339 L218.3499 186.4058 Z" clip-path="url(#clipPath2)" stroke="none"/>
    </g>
  </g>
</svg>
