<?xml version="1.0" standalone="no"?>
<!DOCTYPE svg PUBLIC "-//W3C//DTD SVG 20010904//EN"
 "http://www.w3.org/TR/2001/REC-SVG-20010904/DTD/svg10.dtd">
<svg version="1.0" xmlns="http://www.w3.org/2000/svg"
 width="62.000000pt" height="81.000000pt" viewBox="0 0 62.000000 81.000000"
 preserveAspectRatio="xMidYMid meet">
<metadata>
Created by potrace 1.11, written by Peter Selinger 2001-2013
</metadata>
<g transform="translate(0.000000,81.000000) scale(0.100000,-0.100000)"
fill="#000000" stroke="none">
<path d="M237 794 c-4 -4 -7 -38 -7 -76 0 -58 -3 -68 -17 -68 -29 -1 -106 -39
-137 -68 -134 -126 -78 -363 99 -418 l55 -18 0 -62 c0 -39 5 -66 13 -73 27
-22 37 9 37 119 l0 106 40 18 c22 9 48 29 59 42 l20 26 92 -66 c96 -69 113
-76 123 -51 5 14 -42 54 -169 142 -23 16 -30 29 -30 53 0 29 9 39 100 104 98
71 127 106 87 106 -11 0 -61 -29 -111 -65 l-92 -65 -37 29 c-20 16 -47 32 -59
36 -21 6 -23 12 -25 128 -3 101 -6 122 -18 125 -9 1 -19 0 -23 -4z m-7 -224
c0 -23 -5 -30 -19 -30 -30 0 -88 -61 -100 -106 -19 -72 15 -146 84 -178 22
-11 35 -24 35 -36 0 -24 -9 -25 -58 -5 -47 20 -79 50 -104 99 -28 54 -22 146
12 198 29 43 94 88 127 88 19 0 23 -5 23 -30z m-2 -233 l-3 -51 -35 31 c-31
27 -35 37 -35 78 0 41 4 51 35 78 l35 31 3 -57 c2 -32 2 -81 0 -110z m104 134
c28 -25 33 -36 33 -76 0 -40 -5 -51 -33 -76 -18 -16 -37 -29 -42 -29 -6 0 -10
43 -10 105 0 62 4 105 10 105 5 0 24 -13 42 -29z"/>
</g>
</svg>
