<?xml version="1.0" encoding="UTF-8"?>
<svg xmlns="http://www.w3.org/2000/svg" xmlns:xlink="http://www.w3.org/1999/xlink" fill-opacity="1" color-rendering="auto" color-interpolation="auto" stroke="black" text-rendering="auto" stroke-linecap="square" width="800" stroke-miterlimit="10" stroke-opacity="1" shape-rendering="auto" fill="black" stroke-dasharray="none" font-weight="normal" stroke-width="1" height="539" font-family="'Dialog'" font-style="normal" stroke-linejoin="miter" font-size="12" stroke-dashoffset="0" image-rendering="auto">
  <!--Generated by ySVG-->
  <defs id="genericDefs"/>
  <g>
    <defs id="defs1">
      <clipPath clipPathUnits="userSpaceOnUse" id="clipPath1">
        <path d="M0 0 L800 0 L800 539 L0 539 L0 0 Z"/>
      </clipPath>
      <clipPath clipPathUnits="userSpaceOnUse" id="clipPath2">
        <path d="M641 340 L2000 340 L2000 1255.6262 L641 1255.6262 L641 340 Z"/>
      </clipPath>
    </defs>
    <g fill="white" transform="scale(0.5887,0.5887) translate(-641,-340)" stroke="white">
      <rect x="641" width="1359" height="916" y="340" clip-path="url(#clipPath2)" stroke="none"/>
    </g>
    <g fill="rgb(204,255,204)" transform="matrix(0.5887,0,0,0.5887,-377.3363,-200.1472)" stroke="rgb(204,255,204)">
      <rect x="1376.0086" y="951.0074" clip-path="url(#clipPath2)" width="120" rx="4" ry="4" height="50" stroke="none"/>
      <rect x="1376.0086" y="951.0074" clip-path="url(#clipPath2)" fill="lime" width="120" height="16.7969" stroke="none"/>
    </g>
    <g font-size="11" stroke-miterlimit="1.45" font-family="'Droid Sans'" transform="matrix(0.5887,0,0,0.5887,-377.3363,-200.1472)" stroke-linecap="butt">
      <text x="1419.2051" xml:space="preserve" y="963.2104" clip-path="url(#clipPath2)" stroke="none">Others</text>
      <rect x="1376.0086" y="951.0074" clip-path="url(#clipPath2)" fill="none" width="120" stroke-dasharray="6,2" rx="4" ry="4" height="50"/>
    </g>
    <g fill="rgb(204,255,204)" transform="matrix(0.5887,0,0,0.5887,-377.3363,-200.1472)" stroke="rgb(204,255,204)">
      <rect x="1370.1295" y="834.6806" clip-path="url(#clipPath2)" width="141.25" rx="4" ry="4" height="46.25" stroke="none"/>
      <rect x="1370.1295" y="834.6806" clip-path="url(#clipPath2)" fill="lime" width="141.25" height="16.7969" stroke="none"/>
    </g>
    <g font-size="11" stroke-miterlimit="1.45" font-family="'Droid Sans'" transform="matrix(0.5887,0,0,0.5887,-377.3363,-200.1472)" stroke-linecap="butt">
      <text x="1412.14" xml:space="preserve" y="846.8837" clip-path="url(#clipPath2)" stroke="none">Web design</text>
      <rect x="1370.1295" y="834.6806" clip-path="url(#clipPath2)" fill="none" width="141.25" stroke-dasharray="6,2" rx="4" ry="4" height="46.25"/>
    </g>
    <g fill="rgb(204,255,204)" transform="matrix(0.5887,0,0,0.5887,-377.3363,-200.1472)" stroke="rgb(204,255,204)">
      <rect x="1335.0624" y="1106.7236" clip-path="url(#clipPath2)" width="140.3291" rx="4" ry="4" height="123.7586" stroke="none"/>
      <rect x="1335.0624" y="1106.7236" clip-path="url(#clipPath2)" fill="lime" width="140.3291" height="16.7969" stroke="none"/>
    </g>
    <g font-size="11" stroke-miterlimit="1.45" font-family="'Droid Sans'" transform="matrix(0.5887,0,0,0.5887,-377.3363,-200.1472)" stroke-linecap="butt">
      <text x="1382.2548" xml:space="preserve" y="1118.9268" clip-path="url(#clipPath2)" stroke="none">Drawings</text>
      <rect x="1335.0624" y="1106.7236" clip-path="url(#clipPath2)" fill="none" width="140.3291" stroke-dasharray="6,2" rx="4" ry="4" height="123.7586"/>
    </g>
    <g fill="rgb(255,255,153)" transform="matrix(0.5887,0,0,0.5887,-377.3363,-200.1472)" stroke="rgb(255,255,153)">
      <rect x="1352.0062" width="108.3853" height="30" y="1138.5205" clip-path="url(#clipPath2)" stroke="none"/>
    </g>
    <g font-size="11" stroke-miterlimit="1.45" font-family="'Droid Sans'" transform="matrix(0.5887,0,0,0.5887,-377.3363,-200.1472)" stroke-linecap="butt">
      <text x="1362.4432" xml:space="preserve" y="1157.3252" clip-path="url(#clipPath2)" stroke="none">Brief explaination</text>
      <rect fill="none" x="1352.0062" width="108.3853" height="30" y="1138.5205" clip-path="url(#clipPath2)"/>
    </g>
    <g fill="rgb(255,204,153)" transform="matrix(0.5887,0,0,0.5887,-377.3363,-200.1472)" stroke="rgb(255,204,153)">
      <rect x="1373.9811" width="30" height="30" y="1182.4822" clip-path="url(#clipPath2)" stroke="none"/>
    </g>
    <g font-size="11" stroke-miterlimit="1.45" font-family="'Droid Sans'" transform="matrix(0.5887,0,0,0.5887,-377.3363,-200.1472)" stroke-linecap="butt">
      <text x="1380.5109" xml:space="preserve" y="1201.2869" clip-path="url(#clipPath2)" stroke="none">List</text>
      <rect fill="none" x="1373.9811" width="30" height="30" y="1182.4822" clip-path="url(#clipPath2)"/>
    </g>
    <g fill="rgb(204,255,204)" transform="matrix(0.5887,0,0,0.5887,-377.3363,-200.1472)" stroke="rgb(204,255,204)">
      <rect x="1156.5665" y="1044.1927" clip-path="url(#clipPath2)" width="151.727" rx="4" ry="4" height="189.3489" stroke="none"/>
      <rect x="1156.5665" y="1044.1927" clip-path="url(#clipPath2)" fill="lime" width="151.727" height="16.7969" stroke="none"/>
    </g>
    <g font-size="11" stroke-miterlimit="1.45" font-family="'Droid Sans'" transform="matrix(0.5887,0,0,0.5887,-377.3363,-200.1472)" stroke-linecap="butt">
      <text x="1198.5626" xml:space="preserve" y="1056.3959" clip-path="url(#clipPath2)" stroke="none">Programming</text>
      <rect x="1156.5665" y="1044.1927" clip-path="url(#clipPath2)" fill="none" width="151.727" stroke-dasharray="6,2" rx="4" ry="4" height="189.3489"/>
    </g>
    <g fill="rgb(255,255,153)" transform="matrix(0.5887,0,0,0.5887,-377.3363,-200.1472)" stroke="rgb(255,255,153)">
      <rect x="1184.9082" width="101.9853" height="34.2" y="1082.9896" clip-path="url(#clipPath2)" stroke="none"/>
    </g>
    <g font-size="11" stroke-miterlimit="1.45" font-family="'Droid Sans'" transform="matrix(0.5887,0,0,0.5887,-377.3363,-200.1472)" stroke-linecap="butt">
      <text x="1193.3914" xml:space="preserve" y="1103.8943" clip-path="url(#clipPath2)" stroke="none">Long explanation</text>
      <rect fill="none" x="1184.9082" width="101.9853" height="34.2" y="1082.9896" clip-path="url(#clipPath2)"/>
    </g>
    <g fill="rgb(204,255,255)" transform="matrix(0.5887,0,0,0.5887,-377.3363,-200.1472)" stroke="rgb(204,255,255)">
      <rect x="1185.9061" width="82.5879" height="30" y="1130.1917" clip-path="url(#clipPath2)" stroke="none"/>
    </g>
    <g font-size="11" stroke-miterlimit="1.45" font-family="'Droid Sans'" transform="matrix(0.5887,0,0,0.5887,-377.3363,-200.1472)" stroke-linecap="butt">
      <text x="1203.0355" xml:space="preserve" y="1148.9963" clip-path="url(#clipPath2)" stroke="none">Flowchart</text>
      <rect fill="none" x="1185.9061" width="82.5879" height="30" y="1130.1917" clip-path="url(#clipPath2)"/>
    </g>
    <g fill="rgb(204,255,255)" transform="matrix(0.5887,0,0,0.5887,-377.3363,-200.1472)" stroke="rgb(204,255,255)">
      <rect x="1180.6022" width="104.1207" height="47.8" y="1166.6917" clip-path="url(#clipPath2)" stroke="none"/>
    </g>
    <g font-size="11" stroke-miterlimit="1.45" font-family="'Droid Sans'" transform="matrix(0.5887,0,0,0.5887,-377.3363,-200.1472)" stroke-linecap="butt">
      <text x="1182.4912" xml:space="preserve" y="1194.3964" clip-path="url(#clipPath2)" stroke="none">some Code example</text>
      <rect fill="none" x="1180.6022" width="104.1207" height="47.8" y="1166.6917" clip-path="url(#clipPath2)"/>
    </g>
    <g fill="rgb(204,255,204)" transform="matrix(0.5887,0,0,0.5887,-377.3363,-200.1472)" stroke="rgb(204,255,204)">
      <rect x="928.1717" y="978.5945" clip-path="url(#clipPath2)" width="149.3567" rx="4" ry="4" height="117.7969" stroke="none"/>
      <rect x="928.1717" y="978.5945" clip-path="url(#clipPath2)" fill="lime" width="149.3567" height="16.7969" stroke="none"/>
    </g>
    <g font-size="11" stroke-miterlimit="1.45" font-family="'Droid Sans'" transform="matrix(0.5887,0,0,0.5887,-377.3363,-200.1472)" stroke-linecap="butt">
      <text x="976.7144" xml:space="preserve" y="990.7977" clip-path="url(#clipPath2)" stroke="none">Metalwork</text>
      <rect x="928.1717" y="978.5945" clip-path="url(#clipPath2)" fill="none" width="149.3567" stroke-dasharray="6,2" rx="4" ry="4" height="117.7969"/>
    </g>
    <g fill="rgb(255,255,153)" transform="matrix(0.5887,0,0,0.5887,-377.3363,-200.1472)" stroke="rgb(255,255,153)">
      <rect x="943.1717" width="108.3853" height="30" y="1010.3914" clip-path="url(#clipPath2)" stroke="none"/>
    </g>
    <g font-size="11" stroke-miterlimit="1.45" font-family="'Droid Sans'" transform="matrix(0.5887,0,0,0.5887,-377.3363,-200.1472)" stroke-linecap="butt">
      <text x="953.6088" xml:space="preserve" y="1029.196" clip-path="url(#clipPath2)" stroke="none">Brief explaination</text>
      <rect fill="none" x="943.1717" width="108.3853" height="30" y="1010.3914" clip-path="url(#clipPath2)"/>
    </g>
    <g fill="rgb(204,255,255)" transform="matrix(0.5887,0,0,0.5887,-377.3363,-200.1472)" stroke="rgb(204,255,255)">
      <rect x="949.9913" width="52.7461" height="30" y="1051.3914" clip-path="url(#clipPath2)" stroke="none"/>
    </g>
    <g font-size="11" stroke-miterlimit="1.45" font-family="'Droid Sans'" transform="matrix(0.5887,0,0,0.5887,-377.3363,-200.1472)" stroke-linecap="butt">
      <text x="961.7443" xml:space="preserve" y="1070.196" clip-path="url(#clipPath2)" stroke="none">Photo</text>
      <rect fill="none" x="949.9913" width="52.7461" height="30" y="1051.3914" clip-path="url(#clipPath2)"/>
    </g>
    <g fill="rgb(204,255,204)" transform="matrix(0.5887,0,0,0.5887,-377.3363,-200.1472)" stroke="rgb(204,255,204)">
      <rect x="978.6137" y="1114.8619" clip-path="url(#clipPath2)" width="160.6067" rx="4" ry="4" height="117.7969" stroke="none"/>
      <rect x="978.6137" y="1114.8619" clip-path="url(#clipPath2)" fill="lime" width="160.6067" height="16.7969" stroke="none"/>
    </g>
    <g font-size="11" stroke-miterlimit="1.45" font-family="'Droid Sans'" transform="matrix(0.5887,0,0,0.5887,-377.3363,-200.1472)" stroke-linecap="butt">
      <text x="1032.1797" xml:space="preserve" y="1127.0651" clip-path="url(#clipPath2)" stroke="none">Electronics</text>
      <rect x="978.6137" y="1114.8619" clip-path="url(#clipPath2)" fill="none" width="160.6067" stroke-dasharray="6,2" rx="4" ry="4" height="117.7969"/>
    </g>
    <g fill="rgb(255,255,153)" transform="matrix(0.5887,0,0,0.5887,-377.3363,-200.1472)" stroke="rgb(255,255,153)">
      <rect x="993.6137" width="108.3853" height="30" y="1146.6588" clip-path="url(#clipPath2)" stroke="none"/>
    </g>
    <g font-size="11" stroke-miterlimit="1.45" font-family="'Droid Sans'" transform="matrix(0.5887,0,0,0.5887,-377.3363,-200.1472)" stroke-linecap="butt">
      <text x="1004.0507" xml:space="preserve" y="1165.4635" clip-path="url(#clipPath2)" stroke="none">Brief explaination</text>
      <rect fill="none" x="993.6137" width="108.3853" height="30" y="1146.6588" clip-path="url(#clipPath2)"/>
    </g>
    <g fill="rgb(204,255,255)" transform="matrix(0.5887,0,0,0.5887,-377.3363,-200.1472)" stroke="rgb(204,255,255)">
      <rect x="1000.4333" width="52.7461" height="30" y="1187.6588" clip-path="url(#clipPath2)" stroke="none"/>
    </g>
    <g font-size="11" stroke-miterlimit="1.45" font-family="'Droid Sans'" transform="matrix(0.5887,0,0,0.5887,-377.3363,-200.1472)" stroke-linecap="butt">
      <text x="1012.1862" xml:space="preserve" y="1206.4635" clip-path="url(#clipPath2)" stroke="none">Photo</text>
      <rect fill="none" x="1000.4333" width="52.7461" height="30" y="1187.6588" clip-path="url(#clipPath2)"/>
    </g>
    <g fill="rgb(204,255,204)" transform="matrix(0.5887,0,0,0.5887,-377.3363,-200.1472)" stroke="rgb(204,255,204)">
      <rect x="920.2492" y="826.5436" clip-path="url(#clipPath2)" width="149.1853" rx="4" ry="4" height="117.7969" stroke="none"/>
      <rect x="920.2492" y="826.5436" clip-path="url(#clipPath2)" fill="lime" width="149.1853" height="16.7969" stroke="none"/>
    </g>
    <g font-size="11" stroke-miterlimit="1.45" font-family="'Droid Sans'" transform="matrix(0.5887,0,0,0.5887,-377.3363,-200.1472)" stroke-linecap="butt">
      <text x="968.2092" xml:space="preserve" y="838.7468" clip-path="url(#clipPath2)" stroke="none">Woodwork</text>
      <rect x="920.2492" y="826.5436" clip-path="url(#clipPath2)" fill="none" width="149.1853" stroke-dasharray="6,2" rx="4" ry="4" height="117.7969"/>
    </g>
    <g fill="rgb(255,255,153)" transform="matrix(0.5887,0,0,0.5887,-377.3363,-200.1472)" stroke="rgb(255,255,153)">
      <rect x="935.2492" width="108.3853" height="30" y="860.7405" clip-path="url(#clipPath2)" stroke="none"/>
    </g>
    <g font-size="11" stroke-miterlimit="1.45" font-family="'Droid Sans'" transform="matrix(0.5887,0,0,0.5887,-377.3363,-200.1472)" stroke-linecap="butt">
      <text x="945.6862" xml:space="preserve" y="879.5452" clip-path="url(#clipPath2)" stroke="none">Brief explaination</text>
      <rect fill="none" x="935.2492" width="108.3853" height="30" y="860.7405" clip-path="url(#clipPath2)"/>
    </g>
    <g fill="rgb(204,255,255)" transform="matrix(0.5887,0,0,0.5887,-377.3363,-200.1472)" stroke="rgb(204,255,255)">
      <rect x="942.8688" width="52.7461" height="30" y="899.3405" clip-path="url(#clipPath2)" stroke="none"/>
    </g>
    <g font-size="11" stroke-miterlimit="1.45" font-family="'Droid Sans'" transform="matrix(0.5887,0,0,0.5887,-377.3363,-200.1472)" stroke-linecap="butt">
      <text x="954.6217" xml:space="preserve" y="918.1452" clip-path="url(#clipPath2)" stroke="none">Photo</text>
      <rect fill="none" x="942.8688" width="52.7461" height="30" y="899.3405" clip-path="url(#clipPath2)"/>
    </g>
    <g fill="rgb(204,255,204)" transform="matrix(0.5887,0,0,0.5887,-377.3363,-200.1472)" stroke="rgb(204,255,204)">
      <rect x="646.3216" y="843.0241" clip-path="url(#clipPath2)" width="102" rx="4" ry="4" height="125.7969" stroke="none"/>
      <rect x="646.3216" y="843.0241" clip-path="url(#clipPath2)" fill="lime" width="102" height="16.7969" stroke="none"/>
    </g>
    <g font-size="11" stroke-miterlimit="1.45" font-family="'Droid Sans'" transform="matrix(0.5887,0,0,0.5887,-377.3363,-200.1472)" stroke-linecap="butt">
      <text x="677.1263" xml:space="preserve" y="855.2272" clip-path="url(#clipPath2)" stroke="none">Article 2</text>
      <rect x="646.3216" y="843.0241" clip-path="url(#clipPath2)" fill="none" width="102" stroke-dasharray="6,2" rx="4" ry="4" height="125.7969"/>
    </g>
    <g fill="rgb(255,255,153)" transform="matrix(0.5887,0,0,0.5887,-377.3363,-200.1472)" stroke="rgb(255,255,153)">
      <rect x="704.3216" width="24" height="30" y="874.821" clip-path="url(#clipPath2)" stroke="none"/>
    </g>
    <g stroke-linecap="butt" transform="matrix(0.5887,0,0,0.5887,-377.3363,-200.1472)" stroke-miterlimit="1.45">
      <rect fill="none" x="704.3216" width="24" height="30" y="874.821" clip-path="url(#clipPath2)"/>
    </g>
    <g fill="rgb(255,255,153)" transform="matrix(0.5887,0,0,0.5887,-377.3363,-200.1472)" stroke="rgb(255,255,153)">
      <rect x="684.3216" width="24" height="30" y="887.821" clip-path="url(#clipPath2)" stroke="none"/>
    </g>
    <g stroke-linecap="butt" transform="matrix(0.5887,0,0,0.5887,-377.3363,-200.1472)" stroke-miterlimit="1.45">
      <rect fill="none" x="684.3216" width="24" height="30" y="887.821" clip-path="url(#clipPath2)"/>
    </g>
    <g fill="rgb(255,255,153)" transform="matrix(0.5887,0,0,0.5887,-377.3363,-200.1472)" stroke="rgb(255,255,153)">
      <rect x="707.3216" width="24" height="30" y="901.821" clip-path="url(#clipPath2)" stroke="none"/>
    </g>
    <g stroke-linecap="butt" transform="matrix(0.5887,0,0,0.5887,-377.3363,-200.1472)" stroke-miterlimit="1.45">
      <rect fill="none" x="707.3216" width="24" height="30" y="901.821" clip-path="url(#clipPath2)"/>
    </g>
    <g fill="rgb(255,255,153)" transform="matrix(0.5887,0,0,0.5887,-377.3363,-200.1472)" stroke="rgb(255,255,153)">
      <rect x="688.3216" width="24" height="30" y="909.821" clip-path="url(#clipPath2)" stroke="none"/>
    </g>
    <g stroke-linecap="butt" transform="matrix(0.5887,0,0,0.5887,-377.3363,-200.1472)" stroke-miterlimit="1.45">
      <rect fill="none" x="688.3216" width="24" height="30" y="909.821" clip-path="url(#clipPath2)"/>
    </g>
    <g fill="rgb(255,255,153)" transform="matrix(0.5887,0,0,0.5887,-377.3363,-200.1472)" stroke="rgb(255,255,153)">
      <rect x="709.3216" width="24" height="30" y="923.821" clip-path="url(#clipPath2)" stroke="none"/>
    </g>
    <g stroke-linecap="butt" transform="matrix(0.5887,0,0,0.5887,-377.3363,-200.1472)" stroke-miterlimit="1.45">
      <rect fill="none" x="709.3216" width="24" height="30" y="923.821" clip-path="url(#clipPath2)"/>
    </g>
    <g fill="rgb(204,255,204)" transform="matrix(0.5887,0,0,0.5887,-377.3363,-200.1472)" stroke="rgb(204,255,204)">
      <rect x="777.8055" y="841.8759" clip-path="url(#clipPath2)" width="109" rx="4" ry="4" height="141.7969" stroke="none"/>
      <rect x="777.8055" y="841.8759" clip-path="url(#clipPath2)" fill="lime" width="109" height="16.7969" stroke="none"/>
    </g>
    <g font-size="11" stroke-miterlimit="1.45" font-family="'Droid Sans'" transform="matrix(0.5887,0,0,0.5887,-377.3363,-200.1472)" stroke-linecap="butt">
      <text x="812.1102" xml:space="preserve" y="854.079" clip-path="url(#clipPath2)" stroke="none">Article 1</text>
      <rect x="777.8055" y="841.8759" clip-path="url(#clipPath2)" fill="none" width="109" stroke-dasharray="6,2" rx="4" ry="4" height="141.7969"/>
    </g>
    <g fill="rgb(255,255,153)" transform="matrix(0.5887,0,0,0.5887,-377.3363,-200.1472)" stroke="rgb(255,255,153)">
      <rect x="831.8055" width="24" height="30" y="873.6728" clip-path="url(#clipPath2)" stroke="none"/>
    </g>
    <g stroke-linecap="butt" transform="matrix(0.5887,0,0,0.5887,-377.3363,-200.1472)" stroke-miterlimit="1.45">
      <rect fill="none" x="831.8055" width="24" height="30" y="873.6728" clip-path="url(#clipPath2)"/>
    </g>
    <g fill="rgb(255,255,153)" transform="matrix(0.5887,0,0,0.5887,-377.3363,-200.1472)" stroke="rgb(255,255,153)">
      <rect x="815.8055" width="24" height="30" y="897.6728" clip-path="url(#clipPath2)" stroke="none"/>
    </g>
    <g stroke-linecap="butt" transform="matrix(0.5887,0,0,0.5887,-377.3363,-200.1472)" stroke-miterlimit="1.45">
      <rect fill="none" x="815.8055" width="24" height="30" y="897.6728" clip-path="url(#clipPath2)"/>
    </g>
    <g fill="rgb(255,255,153)" transform="matrix(0.5887,0,0,0.5887,-377.3363,-200.1472)" stroke="rgb(255,255,153)">
      <rect x="847.8055" width="24" height="30" y="912.6728" clip-path="url(#clipPath2)" stroke="none"/>
    </g>
    <g stroke-linecap="butt" transform="matrix(0.5887,0,0,0.5887,-377.3363,-200.1472)" stroke-miterlimit="1.45">
      <rect fill="none" x="847.8055" width="24" height="30" y="912.6728" clip-path="url(#clipPath2)"/>
    </g>
    <g fill="rgb(255,255,153)" transform="matrix(0.5887,0,0,0.5887,-377.3363,-200.1472)" stroke="rgb(255,255,153)">
      <rect x="825.8055" width="24" height="30" y="922.6728" clip-path="url(#clipPath2)" stroke="none"/>
    </g>
    <g stroke-linecap="butt" transform="matrix(0.5887,0,0,0.5887,-377.3363,-200.1472)" stroke-miterlimit="1.45">
      <rect fill="none" x="825.8055" width="24" height="30" y="922.6728" clip-path="url(#clipPath2)"/>
    </g>
    <g fill="rgb(255,255,153)" transform="matrix(0.5887,0,0,0.5887,-377.3363,-200.1472)" stroke="rgb(255,255,153)">
      <rect x="846.8055" width="24" height="30" y="938.6728" clip-path="url(#clipPath2)" stroke="none"/>
    </g>
    <g stroke-linecap="butt" transform="matrix(0.5887,0,0,0.5887,-377.3363,-200.1472)" stroke-miterlimit="1.45">
      <rect fill="none" x="846.8055" width="24" height="30" y="938.6728" clip-path="url(#clipPath2)"/>
      <path fill="none" stroke-width="2" d="M1463.6982 880.916 L1517.4706 935.079 L1530.5294 1244.1378 L1306.3529 1251.7555 L939.6177 1246.3143 L857.8685 992.2272" clip-path="url(#clipPath2)" stroke="blue"/>
      <path fill="blue" stroke-width="2" d="M855.112 983.6597 L853.892 998.2338 L858.213 993.2982 L864.6014 994.7881 Z" clip-path="url(#clipPath2)" stroke="none"/>
    </g>
    <g fill="rgb(204,255,204)" transform="matrix(0.5887,0,0,0.5887,-377.3363,-200.1472)" stroke="rgb(204,255,204)">
      <rect x="1561.8427" y="632.9373" clip-path="url(#clipPath2)" width="182.7823" rx="4" ry="4" height="275.8478" stroke="none"/>
      <rect x="1561.8427" y="632.9373" clip-path="url(#clipPath2)" fill="lime" width="182.7823" height="16.7969" stroke="none"/>
    </g>
    <g font-size="11" stroke-miterlimit="1.45" font-family="'Droid Sans'" transform="matrix(0.5887,0,0,0.5887,-377.3363,-200.1472)" stroke-linecap="butt">
      <text x="1635.7886" xml:space="preserve" y="645.1404" clip-path="url(#clipPath2)" stroke="none">Credits</text>
      <rect x="1561.8427" y="632.9373" clip-path="url(#clipPath2)" fill="none" width="182.7823" stroke-dasharray="6,2" rx="4" ry="4" height="275.8478"/>
    </g>
    <g fill="rgb(255,255,153)" transform="matrix(0.5887,0,0,0.5887,-377.3363,-200.1472)" stroke="rgb(255,255,153)">
      <rect x="1595.2558" width="119.3691" height="30" y="747.7851" clip-path="url(#clipPath2)" stroke="none"/>
    </g>
    <g font-size="11" stroke-miterlimit="1.45" font-family="'Droid Sans'" transform="matrix(0.5887,0,0,0.5887,-377.3363,-200.1472)" stroke-linecap="butt">
      <text x="1606.3777" xml:space="preserve" y="766.5898" clip-path="url(#clipPath2)" stroke="none">License for my stuff</text>
      <rect fill="none" x="1595.2558" width="119.3691" height="30" y="747.7851" clip-path="url(#clipPath2)"/>
    </g>
    <g fill="rgb(204,255,255)" transform="matrix(0.5887,0,0,0.5887,-377.3363,-200.1472)" stroke="rgb(204,255,255)">
      <rect x="1598.7585" width="108.3638" height="28" y="788.7851" clip-path="url(#clipPath2)" stroke="none"/>
    </g>
    <g font-size="11" stroke-miterlimit="1.45" font-family="'Droid Sans'" transform="matrix(0.5887,0,0,0.5887,-377.3363,-200.1472)" stroke-linecap="butt">
      <text x="1609.5635" xml:space="preserve" y="806.5898" clip-path="url(#clipPath2)" stroke="none">Credits for others</text>
      <rect fill="none" x="1598.7585" width="108.3638" height="28" y="788.7851" clip-path="url(#clipPath2)"/>
    </g>
    <g fill="rgb(204,255,255)" transform="matrix(0.5887,0,0,0.5887,-377.3363,-200.1472)" stroke="rgb(204,255,255)">
      <rect x="1618.6543" width="54.5723" height="30" y="825.7851" clip-path="url(#clipPath2)" stroke="none"/>
    </g>
    <g font-size="11" stroke-miterlimit="1.45" font-family="'Droid Sans'" transform="matrix(0.5887,0,0,0.5887,-377.3363,-200.1472)" stroke-linecap="butt">
      <text x="1630.9658" xml:space="preserve" y="844.5898" clip-path="url(#clipPath2)" stroke="none">Books</text>
      <rect fill="none" x="1618.6543" width="54.5723" height="30" y="825.7851" clip-path="url(#clipPath2)"/>
    </g>
    <g fill="rgb(255,204,153)" transform="matrix(0.5887,0,0,0.5887,-377.3363,-200.1472)" stroke="rgb(255,204,153)">
      <rect x="1614.3227" width="69.2354" height="30" y="863.7851" clip-path="url(#clipPath2)" stroke="none"/>
    </g>
    <g font-size="11" stroke-miterlimit="1.45" font-family="'Droid Sans'" transform="matrix(0.5887,0,0,0.5887,-377.3363,-200.1472)" stroke-linecap="butt">
      <text x="1626.7202" xml:space="preserve" y="882.5898" clip-path="url(#clipPath2)" stroke="none">Websites</text>
      <rect fill="none" x="1614.3227" width="69.2354" height="30" y="863.7851" clip-path="url(#clipPath2)"/>
    </g>
    <g fill="rgb(255,204,153)" transform="matrix(0.5887,0,0,0.5887,-377.3363,-200.1472)" stroke="rgb(255,204,153)">
      <rect x="1611.4759" width="68.6338" height="30" y="708.3633" clip-path="url(#clipPath2)" stroke="none"/>
    </g>
    <g font-size="11" stroke-miterlimit="1.45" font-family="'Droid Sans'" transform="matrix(0.5887,0,0,0.5887,-377.3363,-200.1472)" stroke-linecap="butt">
      <text x="1623.0623" xml:space="preserve" y="727.168" clip-path="url(#clipPath2)" stroke="none">main nav</text>
      <rect fill="none" x="1611.4759" width="68.6338" height="30" y="708.3633" clip-path="url(#clipPath2)"/>
    </g>
    <g fill="rgb(255,204,153)" transform="matrix(0.5887,0,0,0.5887,-377.3363,-200.1472)" stroke="rgb(255,204,153)">
      <rect x="1591.8427" width="110.2383" height="30" y="664.7342" clip-path="url(#clipPath2)" stroke="none"/>
    </g>
    <g font-size="11" stroke-miterlimit="1.45" font-family="'Droid Sans'" transform="matrix(0.5887,0,0,0.5887,-377.3363,-200.1472)" stroke-linecap="butt">
      <text x="1604.8229" xml:space="preserve" y="683.5389" clip-path="url(#clipPath2)" stroke="none">Choose language</text>
      <rect fill="none" x="1591.8427" width="110.2383" height="30" y="664.7342" clip-path="url(#clipPath2)"/>
    </g>
    <g fill="blue" stroke-width="2" stroke-miterlimit="1.45" transform="matrix(0.5887,0,0,0.5887,-377.3363,-200.1472)" stroke-linecap="butt" stroke="blue">
      <path fill="none" d="M1702.041 679.2685 L1730.5809 679.0272 L1746.3192 678.5291 L1759.3263 677.3239 L1769.6021 675.4117 L1777.1466 672.7926 L1779.8947 671.2178 L1781.9598 669.4664 L1783.3423 667.5381 L1784.0419 665.4331 L1784.0587 663.1514 L1783.3927 660.6929 L1780.0122 655.2456 L1775.7935 650.0894 L1773.3125 647.5327 L1770.6157 645.6635 L1767.7031 644.4816 L1764.5747 643.9873 L1761.2305 644.1804 L1757.6705 645.0609 L1753.8947 646.6288 L1751.9602 647.7219 L1751.8806 647.7825" clip-path="url(#clipPath2)"/>
      <path d="M1744.5282 652.973 L1758.8009 649.7825 L1752.7997 647.1337 L1752.3127 640.5919 Z" clip-path="url(#clipPath2)" stroke="none"/>
    </g>
    <g fill="rgb(204,255,204)" transform="matrix(0.5887,0,0,0.5887,-377.3363,-200.1472)" stroke="rgb(204,255,204)">
      <rect x="1808.9254" y="628.3657" clip-path="url(#clipPath2)" width="177.0454" rx="4" ry="4" height="242.1224" stroke="none"/>
      <rect x="1808.9254" y="628.3657" clip-path="url(#clipPath2)" fill="lime" width="177.0454" height="16.7969" stroke="none"/>
    </g>
    <g font-size="11" stroke-miterlimit="1.45" font-family="'Droid Sans'" transform="matrix(0.5887,0,0,0.5887,-377.3363,-200.1472)" stroke-linecap="butt">
      <text x="1873.3051" xml:space="preserve" y="640.5688" clip-path="url(#clipPath2)" stroke="none">About me</text>
      <rect x="1808.9254" y="628.3657" clip-path="url(#clipPath2)" fill="none" width="177.0454" stroke-dasharray="6,2" rx="4" ry="4" height="242.1224"/>
    </g>
    <g fill="rgb(255,255,153)" transform="matrix(0.5887,0,0,0.5887,-377.3363,-200.1472)" stroke="rgb(255,255,153)">
      <rect x="1869.7092" width="59.4546" height="30" y="744.4881" clip-path="url(#clipPath2)" stroke="none"/>
    </g>
    <g font-size="11" stroke-miterlimit="1.45" font-family="'Droid Sans'" transform="matrix(0.5887,0,0,0.5887,-377.3363,-200.1472)" stroke-linecap="butt">
      <text x="1880.8873" xml:space="preserve" y="763.2928" clip-path="url(#clipPath2)" stroke="none">My info</text>
      <rect fill="none" x="1869.7092" width="59.4546" height="30" y="744.4881" clip-path="url(#clipPath2)"/>
    </g>
    <g fill="rgb(204,255,255)" transform="matrix(0.5887,0,0,0.5887,-377.3363,-200.1472)" stroke="rgb(204,255,255)">
      <rect x="1864.8134" width="69.2461" height="30" y="785.4881" clip-path="url(#clipPath2)" stroke="none"/>
    </g>
    <g font-size="11" stroke-miterlimit="1.45" font-family="'Droid Sans'" transform="matrix(0.5887,0,0,0.5887,-377.3363,-200.1472)" stroke-linecap="butt">
      <text x="1875.7177" xml:space="preserve" y="804.2928" clip-path="url(#clipPath2)" stroke="none">my photo</text>
      <rect fill="none" x="1864.8134" width="69.2461" height="30" y="785.4881" clip-path="url(#clipPath2)"/>
    </g>
    <g fill="rgb(255,255,153)" transform="matrix(0.5887,0,0,0.5887,-377.3363,-200.1472)" stroke="rgb(255,255,153)">
      <rect x="1858.0861" width="82.7007" height="30" y="825.4881" clip-path="url(#clipPath2)" stroke="none"/>
    </g>
    <g font-size="11" stroke-miterlimit="1.45" font-family="'Droid Sans'" transform="matrix(0.5887,0,0,0.5887,-377.3363,-200.1472)" stroke-linecap="butt">
      <text x="1869.4388" xml:space="preserve" y="844.2928" clip-path="url(#clipPath2)" stroke="none">Contact info</text>
      <rect fill="none" x="1858.0861" width="82.7007" height="30" y="825.4881" clip-path="url(#clipPath2)"/>
    </g>
    <g fill="rgb(255,204,153)" transform="matrix(0.5887,0,0,0.5887,-377.3363,-200.1472)" stroke="rgb(255,204,153)">
      <rect x="1863.7985" width="68.6338" height="30" y="701.3754" clip-path="url(#clipPath2)" stroke="none"/>
    </g>
    <g font-size="11" stroke-miterlimit="1.45" font-family="'Droid Sans'" transform="matrix(0.5887,0,0,0.5887,-377.3363,-200.1472)" stroke-linecap="butt">
      <text x="1875.3849" xml:space="preserve" y="720.1801" clip-path="url(#clipPath2)" stroke="none">main nav</text>
      <rect fill="none" x="1863.7985" width="68.6338" height="30" y="701.3754" clip-path="url(#clipPath2)"/>
    </g>
    <g fill="rgb(255,204,153)" transform="matrix(0.5887,0,0,0.5887,-377.3363,-200.1472)" stroke="rgb(255,204,153)">
      <rect x="1844.829" width="110.2383" height="30" y="660.1626" clip-path="url(#clipPath2)" stroke="none"/>
    </g>
    <g font-size="11" stroke-miterlimit="1.45" font-family="'Droid Sans'" transform="matrix(0.5887,0,0,0.5887,-377.3363,-200.1472)" stroke-linecap="butt">
      <text x="1857.8092" xml:space="preserve" y="678.9672" clip-path="url(#clipPath2)" stroke="none">Choose language</text>
      <rect fill="none" x="1844.829" width="110.2383" height="30" y="660.1626" clip-path="url(#clipPath2)"/>
    </g>
    <g fill="blue" stroke-width="2" stroke-miterlimit="1.45" transform="matrix(0.5887,0,0,0.5887,-377.3363,-200.1472)" stroke-linecap="butt" stroke="blue">
      <path fill="none" d="M1955.0425 666.5458 L1958.6238 665.9857 L1969.6224 663.8533 L1978.6146 661.2102 L1985.6002 658.0565 L1990.5795 654.392 L1993.5521 650.2169 L1994.286 647.9379 L1994.5183 645.5311 L1993.478 640.3346 L1990.4313 634.6274 L1986.8313 629.3275 L1982.7954 623.8994 L1978.7876 619.54 L1974.8079 616.2494 L1970.8563 614.0275 L1966.9329 612.8744 L1963.0376 612.79 L1959.1704 613.7744 L1955.3313 615.8275 L1951.9313 618.1274 L1948.2061 621.2881 L1948.1443 621.3667" clip-path="url(#clipPath2)"/>
      <path d="M1942.5551 628.4208 L1955.3477 621.3329 L1948.8429 620.4849 L1946.53 614.3464 Z" clip-path="url(#clipPath2)" stroke="none"/>
    </g>
    <g fill="rgb(204,255,204)" transform="matrix(0.5887,0,0,0.5887,-377.3363,-200.1472)" stroke="rgb(204,255,204)">
      <rect x="1138.5148" y="616.2461" clip-path="url(#clipPath2)" width="191.8682" rx="4" ry="4" height="196.2114" stroke="none"/>
      <rect x="1138.5148" y="616.2461" clip-path="url(#clipPath2)" fill="lime" width="191.8682" height="16.7969" stroke="none"/>
    </g>
    <g font-size="11" stroke-miterlimit="1.45" font-family="'Droid Sans'" transform="matrix(0.5887,0,0,0.5887,-377.3363,-200.1472)" stroke-linecap="butt">
      <text x="1214.6538" xml:space="preserve" y="628.4492" clip-path="url(#clipPath2)" stroke="none">Projects</text>
      <rect x="1138.5148" y="616.2461" clip-path="url(#clipPath2)" fill="none" width="191.8682" stroke-dasharray="6,2" rx="4" ry="4" height="196.2114"/>
    </g>
    <g fill="rgb(255,204,153)" transform="matrix(0.5887,0,0,0.5887,-377.3363,-200.1472)" stroke="rgb(255,204,153)">
      <rect x="1193.5973" width="80.2354" height="30" y="754.4575" clip-path="url(#clipPath2)" stroke="none"/>
    </g>
    <g font-size="11" stroke-miterlimit="1.45" font-family="'Droid Sans'" transform="matrix(0.5887,0,0,0.5887,-377.3363,-200.1472)" stroke-linecap="butt">
      <text x="1205.2992" xml:space="preserve" y="773.2621" clip-path="url(#clipPath2)" stroke="none">Projects list</text>
      <rect fill="none" x="1193.5973" width="80.2354" height="30" y="754.4575" clip-path="url(#clipPath2)"/>
    </g>
    <g fill="rgb(255,204,153)" transform="matrix(0.5887,0,0,0.5887,-377.3363,-200.1472)" stroke="rgb(255,204,153)">
      <rect x="1199.4361" width="68.6338" height="30" y="690.9612" clip-path="url(#clipPath2)" stroke="none"/>
    </g>
    <g font-size="11" stroke-miterlimit="1.45" font-family="'Droid Sans'" transform="matrix(0.5887,0,0,0.5887,-377.3363,-200.1472)" stroke-linecap="butt">
      <text x="1211.0226" xml:space="preserve" y="709.7659" clip-path="url(#clipPath2)" stroke="none">main nav</text>
      <rect fill="none" x="1199.4361" width="68.6338" height="30" y="690.9612" clip-path="url(#clipPath2)"/>
    </g>
    <g fill="rgb(255,204,153)" transform="matrix(0.5887,0,0,0.5887,-377.3363,-200.1472)" stroke="rgb(255,204,153)">
      <rect x="1178.8196" width="110.2383" height="30" y="648.0429" clip-path="url(#clipPath2)" stroke="none"/>
    </g>
    <g font-size="11" stroke-miterlimit="1.45" font-family="'Droid Sans'" transform="matrix(0.5887,0,0,0.5887,-377.3363,-200.1472)" stroke-linecap="butt">
      <text x="1191.7998" xml:space="preserve" y="666.8477" clip-path="url(#clipPath2)" stroke="none">Choose language</text>
      <rect fill="none" x="1178.8196" width="110.2383" height="30" y="648.0429" clip-path="url(#clipPath2)"/>
    </g>
    <g fill="blue" stroke-width="2" stroke-miterlimit="1.45" transform="matrix(0.5887,0,0,0.5887,-377.3363,-200.1472)" stroke-linecap="butt" stroke="blue">
      <path fill="none" d="M1258.9086 784.4664 L1406.7882 944.4044" clip-path="url(#clipPath2)"/>
      <path d="M1412.8982 951.0126 L1407.8634 937.2816 L1406.0245 943.5784 L1399.6031 944.919 Z" clip-path="url(#clipPath2)" stroke="none"/>
      <path fill="none" d="M1273.8417 776.7843 L1385.021 830.752" clip-path="url(#clipPath2)"/>
      <path d="M1393.1176 834.6821 L1383.4291 823.7266 L1384.0089 830.2607 L1378.5164 833.8472 Z" clip-path="url(#clipPath2)" stroke="none"/>
      <path fill="none" d="M1245.1479 784.46 L1375.9808 1098.4208" clip-path="url(#clipPath2)"/>
      <path d="M1379.4427 1106.7283 L1379.442 1092.1033 L1375.5481 1097.3823 L1369.0576 1096.4307 Z" clip-path="url(#clipPath2)" stroke="none"/>
      <path fill="none" d="M1233.7607 784.4343 L1232.8193 1035.1586" clip-path="url(#clipPath2)"/>
      <path d="M1232.7856 1044.1584 L1238.4612 1030.6796 L1232.8236 1034.0336 L1227.2112 1030.6375 Z" clip-path="url(#clipPath2)" stroke="none"/>
      <path fill="none" d="M1222.4905 784.4438 L1087.153 1106.557" clip-path="url(#clipPath2)"/>
      <path d="M1083.6667 1114.8544 L1094.0819 1104.5872 L1087.5887 1105.5198 L1083.7102 1100.2295 Z" clip-path="url(#clipPath2)" stroke="none"/>
      <path fill="none" d="M1211.5564 784.4252 L1057.1606 971.6384" clip-path="url(#clipPath2)"/>
      <path d="M1051.4344 978.5818 L1064.3634 971.7456 L1057.8765 970.7705 L1055.6842 964.5878 Z" clip-path="url(#clipPath2)" stroke="none"/>
      <path fill="none" d="M1193.5685 778.9669 L1077.3701 841.2244" clip-path="url(#clipPath2)"/>
      <path d="M1069.437 845.4749 L1083.9932 844.0574 L1078.3617 840.6931 L1078.6801 834.1411 Z" clip-path="url(#clipPath2)" stroke="none"/>
      <path fill="none" d="M1178.8036 649.6255 L1175.0359 648.7086 L1163.9796 645.5521 L1154.9076 641.9464 L1147.8197 637.8915 L1142.7159 633.3876 L1139.5963 628.4344 L1138.7806 625.7895 L1138.4609 623.0323 L1139.3097 617.181 L1142.1426 610.8805 L1145.5427 605.0806 L1147.5248 602.158 L1149.6462 599.9152 L1151.9067 598.3522 L1154.3066 597.4691 L1156.8457 597.2658 L1159.524 597.7423 L1162.3416 598.8986 L1165.2983 600.7348 L1171.6298 606.4466 L1173.8636 609.1808 L1173.9192 609.264" clip-path="url(#clipPath2)"/>
      <path d="M1179.496 616.3279 L1175.5457 602.2465 L1173.222 608.381 L1166.7158 609.2175 Z" clip-path="url(#clipPath2)" stroke="none"/>
    </g>
    <g fill="rgb(204,255,204)" transform="matrix(0.5887,0,0,0.5887,-377.3363,-200.1472)" stroke="rgb(204,255,204)">
      <rect x="684.8796" y="634.6948" clip-path="url(#clipPath2)" width="204.3745" rx="4" ry="4" height="166.7703" stroke="none"/>
      <rect x="684.8796" y="634.6948" clip-path="url(#clipPath2)" fill="lime" width="204.3745" height="16.7969" stroke="none"/>
    </g>
    <g font-size="11" stroke-miterlimit="1.45" font-family="'Droid Sans'" transform="matrix(0.5887,0,0,0.5887,-377.3363,-200.1472)" stroke-linecap="butt">
      <text x="768.8481" xml:space="preserve" y="646.8979" clip-path="url(#clipPath2)" stroke="none">Articles</text>
      <rect x="684.8796" y="634.6948" clip-path="url(#clipPath2)" fill="none" width="204.3745" stroke-dasharray="6,2" rx="4" ry="4" height="166.7703"/>
    </g>
    <g fill="rgb(255,204,153)" transform="matrix(0.5887,0,0,0.5887,-377.3363,-200.1472)" stroke="rgb(255,204,153)">
      <rect x="751.0189" width="76.5615" height="30" y="756.4651" clip-path="url(#clipPath2)" stroke="none"/>
    </g>
    <g font-size="11" stroke-miterlimit="1.45" font-family="'Droid Sans'" transform="matrix(0.5887,0,0,0.5887,-377.3363,-200.1472)" stroke-linecap="butt">
      <text x="762.4603" xml:space="preserve" y="775.2698" clip-path="url(#clipPath2)" stroke="none">Articles list</text>
      <rect fill="none" x="751.0189" width="76.5615" height="30" y="756.4651" clip-path="url(#clipPath2)"/>
    </g>
    <g fill="rgb(255,204,153)" transform="matrix(0.5887,0,0,0.5887,-377.3363,-200.1472)" stroke="rgb(255,204,153)">
      <rect x="752.6393" width="68.6338" height="30" y="709.4703" clip-path="url(#clipPath2)" stroke="none"/>
    </g>
    <g font-size="11" stroke-miterlimit="1.45" font-family="'Droid Sans'" transform="matrix(0.5887,0,0,0.5887,-377.3363,-200.1472)" stroke-linecap="butt">
      <text x="764.2257" xml:space="preserve" y="728.275" clip-path="url(#clipPath2)" stroke="none">main nav</text>
      <rect fill="none" x="752.6393" width="68.6338" height="30" y="709.4703" clip-path="url(#clipPath2)"/>
    </g>
    <g fill="rgb(255,204,153)" transform="matrix(0.5887,0,0,0.5887,-377.3363,-200.1472)" stroke="rgb(255,204,153)">
      <rect x="732.5727" width="110.2383" height="30" y="666.4916" clip-path="url(#clipPath2)" stroke="none"/>
    </g>
    <g font-size="11" stroke-miterlimit="1.45" font-family="'Droid Sans'" transform="matrix(0.5887,0,0,0.5887,-377.3363,-200.1472)" stroke-linecap="butt">
      <text x="745.5529" xml:space="preserve" y="685.2963" clip-path="url(#clipPath2)" stroke="none">Choose language</text>
      <rect fill="none" x="732.5727" width="110.2383" height="30" y="666.4916" clip-path="url(#clipPath2)"/>
    </g>
    <g fill="blue" stroke-width="2" stroke-miterlimit="1.45" transform="matrix(0.5887,0,0,0.5887,-377.3363,-200.1472)" stroke-linecap="butt" stroke="blue">
      <path fill="none" d="M768.2401 786.457 L730.5673 835.8916" clip-path="url(#clipPath2)"/>
      <path d="M725.1121 843.0499 L737.7688 835.7219 L731.2491 834.9968 L728.8209 828.903 Z" clip-path="url(#clipPath2)" stroke="none"/>
      <path fill="none" d="M822.9572 786.4818 L826.3941 832.9135" clip-path="url(#clipPath2)"/>
      <path d="M827.0585 841.889 L831.6716 828.0106 L826.311 831.7916 L820.4523 828.8411 Z" clip-path="url(#clipPath2)" stroke="none"/>
      <path fill="none" d="M732.5525 680.0383 L705.0837 679.3143 L689.5872 678.2358 L676.8918 675.8911 L671.5947 674.244 L666.9977 672.2802 L663.1011 670 L659.9048 667.4031 L657.4088 664.4898 L655.6132 661.2599 L654.5178 657.7134 L654.1226 653.8504 L654.4279 649.6708 L655.4333 645.1747 L657.1391 640.362 L659.5452 635.2328 L664.4453 625.8328 L667.2922 620.947 L670.3204 616.8647 L673.5298 613.5859 L676.9207 611.1107 L680.4928 609.4388 L684.2463 608.5705 L688.181 608.5057 L692.2971 609.2443 L696.5944 610.7864 L701.0731 613.1321 L705.733 616.2812 L710.5743 620.2338 L718.2145 627.9406 L718.2775 628.0183" clip-path="url(#clipPath2)"/>
      <path d="M724.225 634.7731 L719.5254 620.9237 L717.534 627.174 L711.082 628.3582 Z" clip-path="url(#clipPath2)" stroke="none"/>
    </g>
    <g fill="rgb(204,255,204)" transform="matrix(0.5887,0,0,0.5887,-377.3363,-200.1472)" stroke="rgb(204,255,204)">
      <rect x="1142.8509" y="385.0932" clip-path="url(#clipPath2)" width="274.5444" rx="4" ry="4" height="173.0469" stroke="none"/>
      <rect x="1142.8509" y="385.0932" clip-path="url(#clipPath2)" fill="lime" width="274.5444" height="16.7969" stroke="none"/>
    </g>
    <g font-size="11" stroke-miterlimit="1.45" font-family="'Droid Sans'" transform="matrix(0.5887,0,0,0.5887,-377.3363,-200.1472)" stroke-linecap="butt">
      <text x="1265.2211" xml:space="preserve" y="397.2964" clip-path="url(#clipPath2)" stroke="none">Home</text>
      <rect x="1142.8509" y="385.0932" clip-path="url(#clipPath2)" fill="none" width="274.5444" stroke-dasharray="6,2" rx="4" ry="4" height="173.0469"/>
    </g>
    <g fill="rgb(255,204,153)" transform="matrix(0.5887,0,0,0.5887,-377.3363,-200.1472)" stroke="rgb(255,204,153)">
      <rect x="1216.6009" width="110.2383" height="30" y="416.8901" clip-path="url(#clipPath2)" stroke="none"/>
    </g>
    <g font-size="11" stroke-miterlimit="1.45" font-family="'Droid Sans'" transform="matrix(0.5887,0,0,0.5887,-377.3363,-200.1472)" stroke-linecap="butt">
      <text x="1229.5812" xml:space="preserve" y="435.6948" clip-path="url(#clipPath2)" stroke="none">Choose language</text>
      <rect fill="none" x="1216.6009" width="110.2383" height="30" y="416.8901" clip-path="url(#clipPath2)"/>
    </g>
    <g fill="rgb(255,204,153)" transform="matrix(0.5887,0,0,0.5887,-377.3363,-200.1472)" stroke="rgb(255,204,153)">
      <rect x="1236.1532" width="68.6338" height="30" y="513.1401" clip-path="url(#clipPath2)" stroke="none"/>
    </g>
    <g font-size="11" stroke-miterlimit="1.45" font-family="'Droid Sans'" transform="matrix(0.5887,0,0,0.5887,-377.3363,-200.1472)" stroke-linecap="butt">
      <text x="1247.7396" xml:space="preserve" y="531.9448" clip-path="url(#clipPath2)" stroke="none">main nav</text>
      <rect fill="none" x="1236.1532" width="68.6338" height="30" y="513.1401" clip-path="url(#clipPath2)"/>
    </g>
    <g fill="rgb(255,255,153)" transform="matrix(0.5887,0,0,0.5887,-377.3363,-200.1472)" stroke="rgb(255,255,153)">
      <rect x="1174.7948" width="198.8506" height="30" y="466.1401" clip-path="url(#clipPath2)" stroke="none"/>
    </g>
    <g font-size="11" stroke-miterlimit="1.45" font-family="'Droid Sans'" transform="matrix(0.5887,0,0,0.5887,-377.3363,-200.1472)" stroke-linecap="butt">
      <text x="1183.5507" xml:space="preserve" y="484.9448" clip-path="url(#clipPath2)" stroke="none">Short intro: in this site you will find...</text>
      <rect fill="none" x="1174.7948" width="198.8506" height="30" y="466.1401" clip-path="url(#clipPath2)"/>
    </g>
    <g fill="blue" stroke-width="2" stroke-miterlimit="1.45" transform="matrix(0.5887,0,0,0.5887,-377.3363,-200.1472)" stroke-linecap="butt" stroke="blue">
      <path fill="none" d="M1216.5808 432.098 L1206.1697 432.1957 L1194.2478 432.2098 L1182.8955 432.1011 L1172.2076 431.8492 L1162.2793 431.4336 L1153.2053 430.8338 L1145.0806 430.0294 L1138 429 L1132.0273 427.7287 L1127.1011 426.2135 L1123.1287 424.4559 L1120.0172 422.4577 L1117.6741 420.2203 L1116.0067 417.7455 L1114.9222 415.0349 L1114.328 412.0899 L1114.1315 408.9124 L1114.2396 405.5038 L1114.5601 401.8658 L1115 398 L1115.4963 393.9297 L1116.1042 389.7654 L1116.9088 385.6389 L1117.9948 381.6825 L1119.447 378.0282 L1121.3505 374.808 L1123.79 372.1541 L1126.8506 370.1984 L1130.6169 369.0731 L1135.1741 368.9102 L1140.6068 369.8418 L1147 372 L1154.4099 375.4759 L1162.7782 380.1973 L1162.9352 380.2967" clip-path="url(#clipPath2)"/>
      <path d="M1170.5378 385.1133 L1162.1442 373.1367 L1161.9849 379.6946 L1156.1235 382.6401 Z" clip-path="url(#clipPath2)" stroke="none"/>
      <path fill="none" d="M1236.1532 541.624 L897.6555 674.6272" clip-path="url(#clipPath2)"/>
      <path d="M889.2789 677.9185 L903.9009 678.2169 L898.7026 674.2158 L899.7867 667.7462 Z" clip-path="url(#clipPath2)" stroke="none"/>
      <path fill="none" d="M1304.787 535.1033 L1800.1025 635.6069" clip-path="url(#clipPath2)"/>
      <path d="M1808.9229 637.3966 L1796.811 629.1993 L1799.0001 635.3832 L1794.5739 640.2247 Z" clip-path="url(#clipPath2)" stroke="none"/>
      <path fill="none" d="M1304.787 540.8036 L1553.5767 632.6113" clip-path="url(#clipPath2)"/>
      <path d="M1562.0201 635.7271 L1551.3024 625.7762 L1552.5212 632.2218 L1547.4076 636.3306 Z" clip-path="url(#clipPath2)" stroke="none"/>
      <path fill="none" d="M1267.5685 543.1401 L1255.1356 607.4116" clip-path="url(#clipPath2)"/>
      <path d="M1253.4264 616.2478 L1261.5128 604.0618 L1255.3492 606.3071 L1250.4677 601.9252 Z" clip-path="url(#clipPath2)" stroke="none"/>
    </g>
    <g fill="rgb(245,245,245)" transform="matrix(0.5887,0,0,0.5887,-377.3363,-200.1472)" stroke="rgb(245,245,245)">
      <rect x="685.8537" y="345.8828" clip-path="url(#clipPath2)" width="193.3643" rx="4" ry="4" height="196.4469" stroke="none"/>
      <rect x="685.8537" y="345.8828" clip-path="url(#clipPath2)" fill="rgb(235,235,235)" width="193.3643" height="14.4844" stroke="none"/>
    </g>
    <g font-size="9" stroke-miterlimit="1.45" font-family="'Droid Sans'" transform="matrix(0.5887,0,0,0.5887,-377.3363,-200.1472)" stroke-linecap="butt">
      <text x="731.2934" xml:space="preserve" y="356.2422" clip-path="url(#clipPath2)" stroke="none">How to read this diagram</text>
      <rect x="685.8537" y="345.8828" clip-path="url(#clipPath2)" fill="none" width="193.3643" stroke-dasharray="6,2" rx="4" ry="4" height="196.4469"/>
    </g>
    <g fill="rgb(184,235,184)" transform="matrix(0.5887,0,0,0.5887,-377.3363,-200.1472)" stroke="rgb(184,235,184)">
      <rect x="704.2923" y="375.3672" clip-path="url(#clipPath2)" width="130.7779" rx="4" ry="4" height="46.7969" stroke="none"/>
      <rect x="704.2923" y="375.3672" clip-path="url(#clipPath2)" fill="lime" width="130.7779" height="14.4844" stroke="none"/>
    </g>
    <g font-size="9" stroke-miterlimit="1.45" font-family="'Droid Sans'" transform="matrix(0.5887,0,0,0.5887,-377.3363,-200.1472)" stroke-linecap="butt">
      <text x="733.0748" xml:space="preserve" y="385.7265" clip-path="url(#clipPath2)" stroke="none">This is a web page</text>
      <rect x="704.2923" y="375.3672" clip-path="url(#clipPath2)" fill="none" width="130.7779" stroke-dasharray="6,2" rx="4" ry="4" height="46.7969"/>
    </g>
    <g fill="rgb(204,255,255)" transform="matrix(0.5887,0,0,0.5887,-377.3363,-200.1472)" stroke="rgb(204,255,255)">
      <rect x="706.9048" width="78.8984" height="19.6841" y="505.0666" clip-path="url(#clipPath2)" stroke="none"/>
    </g>
    <g font-size="9" stroke-miterlimit="1.45" font-family="'Droid Sans'" transform="matrix(0.5887,0,0,0.5887,-377.3363,-200.1472)" stroke-linecap="butt">
      <text x="724.3" xml:space="preserve" y="518.0258" clip-path="url(#clipPath2)" stroke="none">Other stuff</text>
      <rect fill="none" x="706.9048" width="78.8984" height="19.6841" y="505.0666" clip-path="url(#clipPath2)"/>
    </g>
    <g fill="rgb(255,255,153)" transform="matrix(0.5887,0,0,0.5887,-377.3363,-200.1472)" stroke="rgb(255,255,153)">
      <rect x="708.1439" width="94.1131" height="22.2631" y="435.9966" clip-path="url(#clipPath2)" stroke="none"/>
    </g>
    <g font-size="9" stroke-miterlimit="1.45" font-family="'Droid Sans'" transform="matrix(0.5887,0,0,0.5887,-377.3363,-200.1472)" stroke-linecap="butt">
      <text x="713.1052" xml:space="preserve" y="450.2454" clip-path="url(#clipPath2)" stroke="none">This is a piece of text</text>
      <rect fill="none" x="708.1439" width="94.1131" height="22.2631" y="435.9966" clip-path="url(#clipPath2)"/>
    </g>
    <g fill="rgb(255,204,153)" transform="matrix(0.5887,0,0,0.5887,-377.3363,-200.1472)" stroke="rgb(255,204,153)">
      <rect x="706.5789" width="156.9272" height="23.1228" y="472.0272" clip-path="url(#clipPath2)" stroke="none"/>
    </g>
    <g font-size="9" stroke-miterlimit="1.45" font-family="'Droid Sans'" transform="matrix(0.5887,0,0,0.5887,-377.3363,-200.1472)" stroke-linecap="butt">
      <text x="716.0506" xml:space="preserve" y="486.7058" clip-path="url(#clipPath2)" stroke="none">This is a list, whose items are links</text>
      <rect fill="none" x="706.5789" width="156.9272" height="23.1228" y="472.0272" clip-path="url(#clipPath2)"/>
    </g>
  </g>
</svg>
