<?xml version="1.0" encoding="UTF-8" standalone="no"?>
<!-- Created with Inkscape (http://www.inkscape.org/) -->

<svg
   xmlns:dc="http://purl.org/dc/elements/1.1/"
   xmlns:cc="http://creativecommons.org/ns#"
   xmlns:rdf="http://www.w3.org/1999/02/22-rdf-syntax-ns#"
   xmlns:svg="http://www.w3.org/2000/svg"
   xmlns="http://www.w3.org/2000/svg"
   xmlns:sodipodi="http://sodipodi.sourceforge.net/DTD/sodipodi-0.dtd"
   xmlns:inkscape="http://www.inkscape.org/namespaces/inkscape"
   width="64px"
   height="64px"
   id="svg2985"
   version="1.1"
   inkscape:version="0.91 r"
   sodipodi:docname="circus.svg"
   inkscape:export-filename="/home/ste/public_html/argoweb/argo3.altervista.org/drop.png"
   inkscape:export-xdpi="90"
   inkscape:export-ydpi="90">
  <defs
     id="defs2987">
    <filter
       style="color-interpolation-filters:sRGB;"
       inkscape:label="Blur"
       id="filter4389">
      <feGaussianBlur
         stdDeviation="0.4 0.6"
         result="blur"
         id="feGaussianBlur4391" />
    </filter>
  </defs>
  <sodipodi:namedview
     id="base"
     pagecolor="#ffffff"
     bordercolor="#666666"
     borderopacity="1.0"
     inkscape:pageopacity="0.0"
     inkscape:pageshadow="2"
     inkscape:zoom="5.6568543"
     inkscape:cx="7.5872658"
     inkscape:cy="24.143437"
     inkscape:current-layer="layer1"
     showgrid="true"
     inkscape:document-units="px"
     inkscape:grid-bbox="true"
     inkscape:snap-bbox="true"
     inkscape:snap-page="true"
     inkscape:snap-global="true"
     inkscape:bbox-nodes="true"
     inkscape:bbox-paths="true"
     inkscape:showpageshadow="false"
     inkscape:window-width="1908"
     inkscape:window-height="1047"
     inkscape:window-x="0"
     inkscape:window-y="0"
     inkscape:window-maximized="1"
     inkscape:snap-object-midpoints="true"
     showguides="false" />
  <metadata
     id="metadata2990">
    <rdf:RDF>
      <cc:Work
         rdf:about="">
        <dc:format>image/svg+xml</dc:format>
        <dc:type
           rdf:resource="http://purl.org/dc/dcmitype/StillImage" />
        <dc:title></dc:title>
      </cc:Work>
    </rdf:RDF>
  </metadata>
  <g
     id="layer1"
     inkscape:label="Layer 1"
     inkscape:groupmode="layer">
    <path
       inkscape:connector-curvature="0"
       style="opacity:0.99999999;fill:#70544c;fill-opacity:1;stroke-width:0;stroke-miterlimit:4;stroke-dasharray:none"
       d="M 0,0 0,32 A 31.999616,31.999616 0 0 1 9.3710938,9.3710938 31.999616,31.999616 0 0 1 32,0 L 0,0 Z M 32,0 A 31.999616,31.999616 0 0 1 54.628906,9.3710938 31.999616,31.999616 0 0 1 64,32 L 64,0 32,0 Z M 64,32 A 31.999616,31.999616 0 0 0 41.371094,41.371094 31.999616,31.999616 0 0 0 32,64 l 32,0 0,-32 z M 32,64 A 31.999616,31.999616 0 0 0 22.628906,41.371094 31.999616,31.999616 0 0 0 0,32 l 0,32 32,0 z"
       id="rect4149" />
    <path
       inkscape:connector-curvature="0"
       style="opacity:1;fill:#54382c;fill-opacity:1;stroke-width:0.4;stroke-miterlimit:4;stroke-dasharray:none;stroke:#54382c;stroke-opacity:1"
       d="M 31.999999,64 A 31.999616,31.999616 0 0 0 22.628177,41.371821 31.999616,31.999616 0 0 0 4.4222104e-8,32.000001 31.999616,31.999616 0 0 1 9.3718216,9.371822 31.999616,31.999616 0 0 1 31.999999,1e-6 31.999616,31.999616 0 0 1 54.628177,9.371822 31.999616,31.999616 0 0 1 64,32.000001 31.999616,31.999616 0 0 0 41.371822,41.371821 31.999616,31.999616 0 0 0 31.999999,64 Z"
       id="path4151" />
  </g>
</svg>
